<svg width="1110" height="543" viewBox="0 0 1110 543" fill="none" xmlns="http://www.w3.org/2000/svg">
<g filter="url(#filter0_d_479_1175)">
<g clip-path="url(#clip0_479_1175)">
<rect x="25" y="17" width="1060" height="493" rx="24" fill="url(#paint0_linear_479_1175)"/>
<circle cx="172" cy="17" r="106" fill="url(#paint1_linear_479_1175)"/>
<circle cx="42" cy="29" r="106" fill="url(#paint2_linear_479_1175)"/>
<circle cx="1073" cy="19.5" r="110.5" fill="url(#paint3_linear_479_1175)"/>
<path d="M141.4 207.008C141.4 210.432 140.696 213.424 139.288 215.984C137.912 218.512 135.88 220.48 133.192 221.888C130.536 223.296 127.352 224 123.64 224H112.312V190.112H123.64C127.352 190.112 130.536 190.816 133.192 192.224C135.88 193.6 137.912 195.552 139.288 198.08C140.696 200.608 141.4 203.584 141.4 207.008ZM123.208 219.056C127.272 219.056 130.392 218 132.568 215.888C134.744 213.776 135.832 210.816 135.832 207.008C135.832 203.2 134.744 200.24 132.568 198.128C130.392 196.016 127.272 194.96 123.208 194.96H117.784V219.056H123.208ZM146.138 189.872C146.138 188.944 146.458 188.176 147.098 187.568C147.738 186.96 148.586 186.656 149.642 186.656C150.698 186.656 151.546 186.96 152.186 187.568C152.858 188.176 153.194 188.944 153.194 189.872C153.194 190.8 152.858 191.552 152.186 192.128C151.546 192.704 150.698 192.992 149.642 192.992C148.586 192.992 147.738 192.704 147.098 192.128C146.458 191.552 146.138 190.8 146.138 189.872ZM152.378 197.552V224H146.906V197.552H152.378ZM169.608 197.216C172.008 197.216 174.056 197.808 175.752 198.992C177.448 200.176 178.632 201.744 179.304 203.696V188.48H184.824V224H179.304V217.856C178.632 219.808 177.448 221.376 175.752 222.56C174.056 223.744 172.008 224.336 169.608 224.336C167.304 224.336 165.24 223.792 163.416 222.704C161.624 221.616 160.216 220.048 159.192 218C158.168 215.952 157.656 213.536 157.656 210.752C157.656 208 158.168 205.6 159.192 203.552C160.216 201.504 161.624 199.936 163.416 198.848C165.24 197.76 167.304 197.216 169.608 197.216ZM171.288 202.016C168.856 202.016 166.904 202.8 165.432 204.368C163.992 205.904 163.272 208.032 163.272 210.752C163.272 213.472 163.992 215.616 165.432 217.184C166.904 218.72 168.856 219.488 171.288 219.488C172.824 219.488 174.2 219.136 175.416 218.432C176.632 217.696 177.592 216.672 178.296 215.36C179 214.048 179.352 212.512 179.352 210.752C179.352 209.024 179 207.504 178.296 206.192C177.592 204.848 176.632 203.824 175.416 203.12C174.2 202.384 172.824 202.016 171.288 202.016ZM205.76 197.552L213.68 216.992L221.024 197.552H227.12L211.136 236.576H205.04L210.752 223.376L199.616 197.552H205.76ZM242.814 197.216C245.374 197.216 247.678 197.76 249.726 198.848C251.774 199.936 253.374 201.504 254.526 203.552C255.678 205.6 256.254 208 256.254 210.752C256.254 213.536 255.678 215.952 254.526 218C253.374 220.048 251.774 221.616 249.726 222.704C247.678 223.792 245.374 224.336 242.814 224.336C240.254 224.336 237.95 223.792 235.902 222.704C233.886 221.616 232.286 220.048 231.102 218C229.95 215.92 229.374 213.504 229.374 210.752C229.374 208 229.95 205.6 231.102 203.552C232.286 201.504 233.886 199.936 235.902 198.848C237.95 197.76 240.254 197.216 242.814 197.216ZM242.814 201.968C241.406 201.968 240.11 202.288 238.926 202.928C237.742 203.568 236.782 204.56 236.046 205.904C235.342 207.216 234.99 208.832 234.99 210.752C234.99 212.704 235.342 214.336 236.046 215.648C236.782 216.96 237.742 217.936 238.926 218.576C240.11 219.216 241.406 219.536 242.814 219.536C244.222 219.536 245.518 219.216 246.702 218.576C247.886 217.936 248.83 216.96 249.534 215.648C250.27 214.336 250.638 212.704 250.638 210.752C250.638 208.832 250.27 207.216 249.534 205.904C248.83 204.56 247.886 203.568 246.702 202.928C245.518 202.288 244.222 201.968 242.814 201.968ZM285.899 197.552V224H280.379V218.24C279.707 220.192 278.539 221.712 276.875 222.8C275.211 223.856 273.275 224.384 271.067 224.384C267.995 224.384 265.531 223.392 263.675 221.408C261.819 219.424 260.891 216.592 260.891 212.912V197.552H266.363V212.336C266.363 214.736 266.971 216.592 268.187 217.904C269.403 219.184 271.067 219.824 273.179 219.824C275.355 219.824 277.099 219.12 278.411 217.712C279.723 216.304 280.379 214.256 280.379 211.568V197.552H285.899ZM309.175 188.48V224H303.703V188.48H309.175ZM315.028 189.872C315.028 188.944 315.348 188.176 315.988 187.568C316.628 186.96 317.476 186.656 318.532 186.656C319.588 186.656 320.436 186.96 321.076 187.568C321.748 188.176 322.084 188.944 322.084 189.872C322.084 190.8 321.748 191.552 321.076 192.128C320.436 192.704 319.588 192.992 318.532 192.992C317.476 192.992 316.628 192.704 315.988 192.128C315.348 191.552 315.028 190.8 315.028 189.872ZM321.268 197.552V224H315.796V197.552H321.268ZM342.866 224L333.362 212.24V224H327.89V188.48H333.362V208.832L342.77 197.552H349.346L337.826 210.704L349.634 224H342.866ZM377.779 209.504C377.779 210.4 377.715 211.184 377.587 211.856H357.235C357.331 214.576 358.083 216.592 359.491 217.904C360.899 219.216 362.643 219.872 364.723 219.872C366.547 219.872 368.083 219.408 369.331 218.48C370.611 217.552 371.395 216.32 371.683 214.784H377.539C377.187 216.64 376.451 218.288 375.331 219.728C374.211 221.168 372.755 222.304 370.963 223.136C369.171 223.936 367.171 224.336 364.963 224.336C362.403 224.336 360.131 223.792 358.147 222.704C356.195 221.616 354.659 220.048 353.539 218C352.419 215.952 351.859 213.536 351.859 210.752C351.859 208 352.419 205.6 353.539 203.552C354.659 201.504 356.195 199.936 358.147 198.848C360.131 197.76 362.403 197.216 364.963 197.216C367.555 197.216 369.811 197.76 371.731 198.848C373.683 199.904 375.171 201.376 376.195 203.264C377.251 205.12 377.779 207.2 377.779 209.504ZM372.259 209.36C372.323 207.632 372.019 206.192 371.347 205.04C370.707 203.856 369.811 202.992 368.659 202.448C367.539 201.872 366.307 201.584 364.963 201.584C362.819 201.584 361.027 202.24 359.587 203.552C358.147 204.864 357.363 206.8 357.235 209.36H372.259ZM407.608 219.248V224H404.248C401.432 224 399.288 223.328 397.816 221.984C396.376 220.608 395.656 218.336 395.656 215.168V202.208H391.864V197.552H395.656V190.976H401.176V197.552H407.56V202.208H401.176V215.264C401.176 216.768 401.448 217.808 401.992 218.384C402.568 218.96 403.56 219.248 404.968 219.248H407.608ZM427.518 197.12C430.59 197.12 433.054 198.112 434.91 200.096C436.766 202.08 437.694 204.912 437.694 208.592V224H432.222V209.168C432.222 206.8 431.614 204.976 430.398 203.696C429.182 202.384 427.518 201.728 425.406 201.728C423.23 201.728 421.486 202.432 420.174 203.84C418.862 205.216 418.206 207.248 418.206 209.936V224H412.734V188.48H418.206V203.36C418.91 201.376 420.094 199.84 421.758 198.752C423.422 197.664 425.342 197.12 427.518 197.12ZM468.669 209.504C468.669 210.4 468.605 211.184 468.477 211.856H448.125C448.221 214.576 448.973 216.592 450.381 217.904C451.789 219.216 453.533 219.872 455.613 219.872C457.437 219.872 458.973 219.408 460.221 218.48C461.501 217.552 462.285 216.32 462.573 214.784H468.429C468.077 216.64 467.341 218.288 466.221 219.728C465.101 221.168 463.645 222.304 461.853 223.136C460.061 223.936 458.061 224.336 455.853 224.336C453.293 224.336 451.021 223.792 449.037 222.704C447.085 221.616 445.549 220.048 444.429 218C443.309 215.952 442.749 213.536 442.749 210.752C442.749 208 443.309 205.6 444.429 203.552C445.549 201.504 447.085 199.936 449.037 198.848C451.021 197.76 453.293 197.216 455.853 197.216C458.445 197.216 460.701 197.76 462.621 198.848C464.573 199.904 466.061 201.376 467.085 203.264C468.141 205.12 468.669 207.2 468.669 209.504ZM463.149 209.36C463.213 207.632 462.909 206.192 462.237 205.04C461.597 203.856 460.701 202.992 459.549 202.448C458.429 201.872 457.197 201.584 455.853 201.584C453.709 201.584 451.917 202.24 450.477 203.552C449.037 204.864 448.253 206.8 448.125 209.36H463.149ZM518.275 197.12C521.411 197.12 523.907 198.112 525.763 200.096C527.651 202.08 528.595 204.912 528.595 208.592V224H523.123V209.168C523.123 206.864 522.547 205.088 521.395 203.84C520.243 202.56 518.659 201.92 516.643 201.92C514.499 201.92 512.787 202.608 511.507 203.984C510.259 205.328 509.635 207.312 509.635 209.936V224H504.163V209.168C504.163 206.864 503.587 205.088 502.435 203.84C501.283 202.56 499.699 201.92 497.683 201.92C495.539 201.92 493.827 202.608 492.547 203.984C491.299 205.328 490.675 207.312 490.675 209.936V224H485.203V197.552H490.675V203.072C491.347 201.152 492.467 199.68 494.035 198.656C495.603 197.632 497.443 197.12 499.555 197.12C501.763 197.12 503.667 197.664 505.267 198.752C506.899 199.84 508.083 201.408 508.819 203.456C509.587 201.472 510.819 199.92 512.515 198.8C514.211 197.68 516.131 197.12 518.275 197.12ZM547.08 197.216C549.64 197.216 551.944 197.76 553.992 198.848C556.04 199.936 557.64 201.504 558.792 203.552C559.944 205.6 560.52 208 560.52 210.752C560.52 213.536 559.944 215.952 558.792 218C557.64 220.048 556.04 221.616 553.992 222.704C551.944 223.792 549.64 224.336 547.08 224.336C544.52 224.336 542.216 223.792 540.168 222.704C538.152 221.616 536.552 220.048 535.368 218C534.216 215.92 533.64 213.504 533.64 210.752C533.64 208 534.216 205.6 535.368 203.552C536.552 201.504 538.152 199.936 540.168 198.848C542.216 197.76 544.52 197.216 547.08 197.216ZM547.08 201.968C545.672 201.968 544.376 202.288 543.192 202.928C542.008 203.568 541.048 204.56 540.312 205.904C539.608 207.216 539.256 208.832 539.256 210.752C539.256 212.704 539.608 214.336 540.312 215.648C541.048 216.96 542.008 217.936 543.192 218.576C544.376 219.216 545.672 219.536 547.08 219.536C548.488 219.536 549.784 219.216 550.968 218.576C552.152 217.936 553.096 216.96 553.8 215.648C554.536 214.336 554.904 212.704 554.904 210.752C554.904 208.832 554.536 207.216 553.8 205.904C553.096 204.56 552.152 203.568 550.968 202.928C549.784 202.288 548.488 201.968 547.08 201.968ZM580.949 197.216C583.253 197.216 585.301 197.76 587.093 198.848C588.917 199.936 590.341 201.504 591.365 203.552C592.389 205.6 592.901 208 592.901 210.752C592.901 213.536 592.389 215.952 591.365 218C590.341 220.048 588.917 221.616 587.093 222.704C585.301 223.792 583.253 224.336 580.949 224.336C578.549 224.336 576.501 223.744 574.805 222.56C573.109 221.376 571.925 219.808 571.253 217.856V224H565.781V188.48H571.253V203.696C571.925 201.744 573.109 200.176 574.805 198.992C576.501 197.808 578.549 197.216 580.949 197.216ZM579.269 202.016C577.733 202.016 576.357 202.384 575.141 203.12C573.925 203.824 572.965 204.848 572.261 206.192C571.557 207.504 571.205 209.024 571.205 210.752C571.205 212.512 571.557 214.048 572.261 215.36C572.965 216.672 573.925 217.696 575.141 218.432C576.357 219.136 577.733 219.488 579.269 219.488C581.701 219.488 583.653 218.72 585.125 217.184C586.597 215.616 587.333 213.472 587.333 210.752C587.333 208.064 586.597 205.936 585.125 204.368C583.653 202.8 581.701 202.016 579.269 202.016ZM597.403 189.872C597.403 188.944 597.723 188.176 598.363 187.568C599.003 186.96 599.851 186.656 600.907 186.656C601.963 186.656 602.811 186.96 603.451 187.568C604.123 188.176 604.459 188.944 604.459 189.872C604.459 190.8 604.123 191.552 603.451 192.128C602.811 192.704 601.963 192.992 600.907 192.992C599.851 192.992 599.003 192.704 598.363 192.128C597.723 191.552 597.403 190.8 597.403 189.872ZM603.643 197.552V224H598.171V197.552H603.643ZM615.737 188.48V224H610.265V188.48H615.737ZM646.935 209.504C646.935 210.4 646.871 211.184 646.743 211.856H626.391C626.487 214.576 627.239 216.592 628.647 217.904C630.055 219.216 631.799 219.872 633.879 219.872C635.703 219.872 637.239 219.408 638.487 218.48C639.767 217.552 640.551 216.32 640.839 214.784H646.695C646.343 216.64 645.607 218.288 644.487 219.728C643.367 221.168 641.911 222.304 640.119 223.136C638.327 223.936 636.327 224.336 634.119 224.336C631.559 224.336 629.287 223.792 627.303 222.704C625.351 221.616 623.815 220.048 622.695 218C621.575 215.952 621.015 213.536 621.015 210.752C621.015 208 621.575 205.6 622.695 203.552C623.815 201.504 625.351 199.936 627.303 198.848C629.287 197.76 631.559 197.216 634.119 197.216C636.711 197.216 638.967 197.76 640.887 198.848C642.839 199.904 644.327 201.376 645.351 203.264C646.407 205.12 646.935 207.2 646.935 209.504ZM641.415 209.36C641.479 207.632 641.175 206.192 640.503 205.04C639.863 203.856 638.967 202.992 637.815 202.448C636.695 201.872 635.463 201.584 634.119 201.584C631.975 201.584 630.183 202.24 628.743 203.552C627.303 204.864 626.519 206.8 626.391 209.36H641.415ZM674.076 197.216C676.476 197.216 678.524 197.808 680.22 198.992C681.916 200.176 683.116 201.744 683.82 203.696V197.552H689.292V224H683.82V217.856C683.116 219.808 681.916 221.376 680.22 222.56C678.524 223.744 676.476 224.336 674.076 224.336C671.772 224.336 669.708 223.792 667.884 222.704C666.092 221.616 664.684 220.048 663.66 218C662.636 215.952 662.124 213.536 662.124 210.752C662.124 208 662.636 205.6 663.66 203.552C664.684 201.504 666.092 199.936 667.884 198.848C669.708 197.76 671.772 197.216 674.076 197.216ZM675.756 202.016C673.324 202.016 671.372 202.8 669.9 204.368C668.46 205.904 667.74 208.032 667.74 210.752C667.74 213.472 668.46 215.616 669.9 217.184C671.372 218.72 673.324 219.488 675.756 219.488C677.292 219.488 678.668 219.136 679.884 218.432C681.1 217.696 682.06 216.672 682.764 215.36C683.468 214.048 683.82 212.512 683.82 210.752C683.82 209.024 683.468 207.504 682.764 206.192C682.06 204.848 681.1 203.824 679.884 203.12C678.668 202.384 677.292 202.016 675.756 202.016ZM711.027 197.216C713.331 197.216 715.379 197.76 717.171 198.848C718.995 199.936 720.419 201.504 721.443 203.552C722.467 205.6 722.979 208 722.979 210.752C722.979 213.536 722.467 215.952 721.443 218C720.419 220.048 718.995 221.616 717.171 222.704C715.379 223.792 713.331 224.336 711.027 224.336C708.627 224.336 706.579 223.744 704.883 222.56C703.187 221.376 702.003 219.808 701.331 217.856V236.576H695.859V197.552H701.331V203.696C702.003 201.744 703.187 200.176 704.883 198.992C706.579 197.808 708.627 197.216 711.027 197.216ZM709.347 202.016C707.811 202.016 706.435 202.384 705.219 203.12C704.003 203.824 703.043 204.848 702.339 206.192C701.635 207.504 701.283 209.024 701.283 210.752C701.283 212.512 701.635 214.048 702.339 215.36C703.043 216.672 704.003 217.696 705.219 218.432C706.435 219.136 707.811 219.488 709.347 219.488C711.779 219.488 713.731 218.72 715.203 217.184C716.675 215.616 717.411 213.472 717.411 210.752C717.411 208.064 716.675 205.936 715.203 204.368C713.731 202.8 711.779 202.016 709.347 202.016ZM743.418 197.216C745.722 197.216 747.77 197.76 749.562 198.848C751.386 199.936 752.81 201.504 753.834 203.552C754.858 205.6 755.37 208 755.37 210.752C755.37 213.536 754.858 215.952 753.834 218C752.81 220.048 751.386 221.616 749.562 222.704C747.77 223.792 745.722 224.336 743.418 224.336C741.018 224.336 738.97 223.744 737.273 222.56C735.578 221.376 734.394 219.808 733.722 217.856V236.576H728.25V197.552H733.722V203.696C734.394 201.744 735.578 200.176 737.273 198.992C738.97 197.808 741.018 197.216 743.418 197.216ZM741.738 202.016C740.202 202.016 738.826 202.384 737.609 203.12C736.394 203.824 735.434 204.848 734.73 206.192C734.026 207.504 733.674 209.024 733.674 210.752C733.674 212.512 734.026 214.048 734.73 215.36C735.434 216.672 736.394 217.696 737.609 218.432C738.826 219.136 740.202 219.488 741.738 219.488C744.17 219.488 746.122 218.72 747.594 217.184C749.066 215.616 749.802 213.472 749.802 210.752C749.802 208.064 749.066 205.936 747.594 204.368C746.122 202.8 744.17 202.016 741.738 202.016ZM769.712 188.48C772.912 188.48 775.472 189.344 777.392 191.072C779.312 192.8 780.272 195.2 780.272 198.272C780.272 201.6 779.232 204.112 777.152 205.808C775.104 207.472 772.304 208.336 768.752 208.4V213.68H763.568V204.752H765.872C768.656 204.752 770.848 204.304 772.448 203.408C774.048 202.48 774.848 200.784 774.848 198.32C774.848 196.656 774.368 195.36 773.408 194.432C772.448 193.472 771.152 192.992 769.52 192.992C767.792 192.992 766.4 193.488 765.344 194.48C764.288 195.472 763.76 196.768 763.76 198.368H758.528C758.496 196.448 758.928 194.752 759.824 193.28C760.72 191.776 762.016 190.608 763.712 189.776C765.408 188.912 767.408 188.48 769.712 188.48ZM769.328 217.952V224H763.088V217.952H769.328ZM141.4 265.008C141.4 268.432 140.696 271.424 139.288 273.984C137.912 276.512 135.88 278.48 133.192 279.888C130.536 281.296 127.352 282 123.64 282H112.312V248.112H123.64C127.352 248.112 130.536 248.816 133.192 250.224C135.88 251.6 137.912 253.552 139.288 256.08C140.696 258.608 141.4 261.584 141.4 265.008ZM123.208 277.056C127.272 277.056 130.392 276 132.568 273.888C134.744 271.776 135.832 268.816 135.832 265.008C135.832 261.2 134.744 258.24 132.568 256.128C130.392 254.016 127.272 252.96 123.208 252.96H117.784V277.056H123.208ZM159.002 255.216C161.562 255.216 163.866 255.76 165.914 256.848C167.962 257.936 169.562 259.504 170.714 261.552C171.866 263.6 172.442 266 172.442 268.752C172.442 271.536 171.866 273.952 170.714 276C169.562 278.048 167.962 279.616 165.914 280.704C163.866 281.792 161.562 282.336 159.002 282.336C156.442 282.336 154.138 281.792 152.09 280.704C150.074 279.616 148.474 278.048 147.29 276C146.138 273.92 145.562 271.504 145.562 268.752C145.562 266 146.138 263.6 147.29 261.552C148.474 259.504 150.074 257.936 152.09 256.848C154.138 255.76 156.442 255.216 159.002 255.216ZM159.002 259.968C157.594 259.968 156.298 260.288 155.114 260.928C153.93 261.568 152.97 262.56 152.234 263.904C151.53 265.216 151.178 266.832 151.178 268.752C151.178 270.704 151.53 272.336 152.234 273.648C152.97 274.96 153.93 275.936 155.114 276.576C156.298 277.216 157.594 277.536 159.002 277.536C160.41 277.536 161.706 277.216 162.89 276.576C164.074 275.936 165.018 274.96 165.722 273.648C166.458 272.336 166.826 270.704 166.826 268.752C166.826 266.832 166.458 265.216 165.722 263.904C165.018 262.56 164.074 261.568 162.89 260.928C161.706 260.288 160.41 259.968 159.002 259.968ZM214.759 255.552L207.415 282H201.367L194.839 261.552L188.215 282H182.215L174.871 255.552H180.391L185.431 276.96L192.055 255.552H197.815L204.535 276.96L209.575 255.552H214.759ZM233.268 255.12C236.34 255.12 238.804 256.112 240.66 258.096C242.516 260.08 243.444 262.912 243.444 266.592V282H237.972V267.168C237.972 264.8 237.364 262.976 236.148 261.696C234.932 260.384 233.268 259.728 231.156 259.728C228.98 259.728 227.236 260.432 225.924 261.84C224.612 263.216 223.956 265.248 223.956 267.936V282H218.484V255.552H223.956V261.36C224.66 259.376 225.844 257.84 227.508 256.752C229.172 255.664 231.092 255.12 233.268 255.12ZM255.315 246.48V282H249.843V246.48H255.315ZM274.033 255.216C276.593 255.216 278.897 255.76 280.945 256.848C282.993 257.936 284.593 259.504 285.745 261.552C286.897 263.6 287.473 266 287.473 268.752C287.473 271.536 286.897 273.952 285.745 276C284.593 278.048 282.993 279.616 280.945 280.704C278.897 281.792 276.593 282.336 274.033 282.336C271.473 282.336 269.169 281.792 267.121 280.704C265.105 279.616 263.505 278.048 262.321 276C261.169 273.92 260.593 271.504 260.593 268.752C260.593 266 261.169 263.6 262.321 261.552C263.505 259.504 265.105 257.936 267.121 256.848C269.169 255.76 271.473 255.216 274.033 255.216ZM274.033 259.968C272.625 259.968 271.329 260.288 270.145 260.928C268.961 261.568 268.001 262.56 267.265 263.904C266.561 265.216 266.209 266.832 266.209 268.752C266.209 270.704 266.561 272.336 267.265 273.648C268.001 274.96 268.961 275.936 270.145 276.576C271.329 277.216 272.625 277.536 274.033 277.536C275.441 277.536 276.737 277.216 277.921 276.576C279.105 275.936 280.049 274.96 280.753 273.648C281.489 272.336 281.857 270.704 281.857 268.752C281.857 266.832 281.489 265.216 280.753 263.904C280.049 262.56 279.105 261.568 277.921 260.928C276.737 260.288 275.441 259.968 274.033 259.968ZM303.342 255.216C305.742 255.216 307.79 255.808 309.486 256.992C311.182 258.176 312.382 259.744 313.086 261.696V255.552H318.558V282H313.086V275.856C312.382 277.808 311.182 279.376 309.486 280.56C307.79 281.744 305.742 282.336 303.342 282.336C301.038 282.336 298.974 281.792 297.15 280.704C295.358 279.616 293.95 278.048 292.926 276C291.902 273.952 291.39 271.536 291.39 268.752C291.39 266 291.902 263.6 292.926 261.552C293.95 259.504 295.358 257.936 297.15 256.848C298.974 255.76 301.038 255.216 303.342 255.216ZM305.022 260.016C302.59 260.016 300.638 260.8 299.166 262.368C297.726 263.904 297.006 266.032 297.006 268.752C297.006 271.472 297.726 273.616 299.166 275.184C300.638 276.72 302.59 277.488 305.022 277.488C306.558 277.488 307.934 277.136 309.15 276.432C310.366 275.696 311.326 274.672 312.03 273.36C312.734 272.048 313.086 270.512 313.086 268.752C313.086 267.024 312.734 265.504 312.03 264.192C311.326 262.848 310.366 261.824 309.15 261.12C307.934 260.384 306.558 260.016 305.022 260.016ZM335.733 255.216C338.133 255.216 340.181 255.808 341.877 256.992C343.573 258.176 344.757 259.744 345.429 261.696V246.48H350.949V282H345.429V275.856C344.757 277.808 343.573 279.376 341.877 280.56C340.181 281.744 338.133 282.336 335.733 282.336C333.429 282.336 331.365 281.792 329.541 280.704C327.749 279.616 326.341 278.048 325.317 276C324.293 273.952 323.781 271.536 323.781 268.752C323.781 266 324.293 263.6 325.317 261.552C326.341 259.504 327.749 257.936 329.541 256.848C331.365 255.76 333.429 255.216 335.733 255.216ZM337.413 260.016C334.981 260.016 333.029 260.8 331.557 262.368C330.117 263.904 329.397 266.032 329.397 268.752C329.397 271.472 330.117 273.616 331.557 275.184C333.029 276.72 334.981 277.488 337.413 277.488C338.949 277.488 340.325 277.136 341.541 276.432C342.757 275.696 343.717 274.672 344.421 273.36C345.125 272.048 345.477 270.512 345.477 268.752C345.477 267.024 345.125 265.504 344.421 264.192C343.717 262.848 342.757 261.824 341.541 261.12C340.325 260.384 338.949 260.016 337.413 260.016ZM383.549 255.12C386.621 255.12 389.085 256.112 390.941 258.096C392.797 260.08 393.725 262.912 393.725 266.592V282H388.253V267.168C388.253 264.8 387.645 262.976 386.429 261.696C385.213 260.384 383.549 259.728 381.437 259.728C379.261 259.728 377.517 260.432 376.205 261.84C374.893 263.216 374.237 265.248 374.237 267.936V282H368.765V255.552H374.237V261.36C374.941 259.376 376.125 257.84 377.789 256.752C379.453 255.664 381.373 255.12 383.549 255.12ZM412.221 255.216C414.781 255.216 417.085 255.76 419.133 256.848C421.181 257.936 422.781 259.504 423.932 261.552C425.085 263.6 425.661 266 425.661 268.752C425.661 271.536 425.085 273.952 423.932 276C422.781 278.048 421.181 279.616 419.133 280.704C417.085 281.792 414.781 282.336 412.221 282.336C409.661 282.336 407.357 281.792 405.309 280.704C403.293 279.616 401.693 278.048 400.509 276C399.357 273.92 398.781 271.504 398.781 268.752C398.781 266 399.357 263.6 400.509 261.552C401.693 259.504 403.293 257.936 405.309 256.848C407.357 255.76 409.661 255.216 412.221 255.216ZM412.221 259.968C410.813 259.968 409.517 260.288 408.333 260.928C407.149 261.568 406.189 262.56 405.453 263.904C404.749 265.216 404.397 266.832 404.397 268.752C404.397 270.704 404.749 272.336 405.453 273.648C406.189 274.96 407.149 275.936 408.333 276.576C409.517 277.216 410.813 277.536 412.221 277.536C413.629 277.536 414.925 277.216 416.109 276.576C417.293 275.936 418.237 274.96 418.941 273.648C419.677 272.336 420.045 270.704 420.045 268.752C420.045 266.832 419.677 265.216 418.941 263.904C418.237 262.56 417.293 261.568 416.109 260.928C414.925 260.288 413.629 259.968 412.221 259.968ZM467.977 255.552L460.633 282H454.585L448.057 261.552L441.433 282H435.433L428.089 255.552H433.609L438.649 276.96L445.273 255.552H451.033L457.753 276.96L462.793 255.552H467.977ZM479.383 247.056L478.663 271.392H474.055L473.335 247.056H479.383ZM479.527 275.952V282H473.287V275.952H479.527Z" fill="white"/>
<rect x="109" y="349" width="186" height="60" rx="6" fill="url(#paint4_linear_479_1175)"/>
<g clip-path="url(#clip1_479_1175)">
<path d="M147.768 380.937C146.888 376.507 151.093 373.909 151.093 373.909C151.093 373.909 149.455 371.539 146.701 370.929C143.949 370.318 142.572 371.081 141.197 371.654C139.822 372.228 139.135 372.228 139.135 372.228C137.149 372.228 135.698 370.126 131.914 371.083C129.308 371.741 126.564 374.749 126.069 378.34C125.573 381.933 126.643 386.517 128.705 390.069C130.768 393.624 132.869 394.961 134.36 394.999C135.851 395.036 137.34 393.931 139.135 393.662C140.931 393.395 142.037 394.312 143.798 394.808C145.553 395.303 146.169 394.844 148.19 393.125C150.217 391.405 152.051 386.474 152.051 386.474C152.051 386.474 148.649 385.37 147.768 380.937Z" fill="#1F272E"/>
<path d="M143.871 368.063C145.821 366.076 145.161 363 145.161 363C145.161 363 142.422 363.481 140.588 365.389C138.754 367.3 139.058 370.317 139.058 370.317C139.058 370.317 141.921 370.049 143.871 368.063Z" fill="#1F272E"/>
</g>
<path opacity="0.75" d="M172.832 370.044H169.112L168.404 372H167.228L170.36 363.696H171.596L174.716 372H173.54L172.832 370.044ZM172.52 369.192L170.972 364.92L169.424 369.192H172.52ZM178.377 370.836L180.417 365.412H181.593L179.013 372H177.717L175.137 365.412H176.313L178.377 370.836ZM185.365 365.328C186.005 365.328 186.545 365.488 186.985 365.808C187.433 366.128 187.745 366.556 187.921 367.092V365.412H189.013V372H187.921V370.32C187.745 370.856 187.433 371.284 186.985 371.604C186.545 371.924 186.005 372.084 185.365 372.084C184.781 372.084 184.261 371.948 183.805 371.676C183.349 371.404 182.989 371.016 182.725 370.512C182.469 370 182.341 369.4 182.341 368.712C182.341 368.024 182.469 367.424 182.725 366.912C182.989 366.4 183.349 366.008 183.805 365.736C184.261 365.464 184.781 365.328 185.365 365.328ZM185.677 366.3C185.005 366.3 184.465 366.516 184.057 366.948C183.657 367.372 183.457 367.96 183.457 368.712C183.457 369.464 183.657 370.056 184.057 370.488C184.465 370.912 185.005 371.124 185.677 371.124C186.109 371.124 186.493 371.024 186.829 370.824C187.173 370.624 187.441 370.344 187.633 369.984C187.825 369.616 187.921 369.192 187.921 368.712C187.921 368.232 187.825 367.808 187.633 367.44C187.441 367.072 187.173 366.792 186.829 366.6C186.493 366.4 186.109 366.3 185.677 366.3ZM190.559 363.48C190.559 363.28 190.627 363.12 190.763 363C190.899 362.872 191.079 362.808 191.303 362.808C191.527 362.808 191.707 362.872 191.843 363C191.979 363.12 192.047 363.28 192.047 363.48C192.047 363.68 191.979 363.844 191.843 363.972C191.707 364.092 191.527 364.152 191.303 364.152C191.079 364.152 190.899 364.092 190.763 363.972C190.627 363.844 190.559 363.68 190.559 363.48ZM191.843 365.412V372H190.751V365.412H191.843ZM194.691 363.12V372H193.599V363.12H194.691ZM199.146 365.328C199.786 365.328 200.326 365.488 200.766 365.808C201.214 366.128 201.526 366.556 201.702 367.092V365.412H202.794V372H201.702V370.32C201.526 370.856 201.214 371.284 200.766 371.604C200.326 371.924 199.786 372.084 199.146 372.084C198.562 372.084 198.042 371.948 197.586 371.676C197.13 371.404 196.77 371.016 196.506 370.512C196.25 370 196.122 369.4 196.122 368.712C196.122 368.024 196.25 367.424 196.506 366.912C196.77 366.4 197.13 366.008 197.586 365.736C198.042 365.464 198.562 365.328 199.146 365.328ZM199.458 366.3C198.786 366.3 198.246 366.516 197.838 366.948C197.438 367.372 197.238 367.96 197.238 368.712C197.238 369.464 197.438 370.056 197.838 370.488C198.246 370.912 198.786 371.124 199.458 371.124C199.89 371.124 200.274 371.024 200.61 370.824C200.954 370.624 201.222 370.344 201.414 369.984C201.606 369.616 201.702 369.192 201.702 368.712C201.702 368.232 201.606 367.808 201.414 367.44C201.222 367.072 200.954 366.792 200.61 366.6C200.274 366.4 199.89 366.3 199.458 366.3ZM208.168 365.328C208.752 365.328 209.272 365.464 209.728 365.736C210.184 366.008 210.54 366.4 210.796 366.912C211.06 367.424 211.192 368.024 211.192 368.712C211.192 369.4 211.06 370 210.796 370.512C210.54 371.016 210.184 371.404 209.728 371.676C209.272 371.948 208.752 372.084 208.168 372.084C207.528 372.084 206.984 371.924 206.536 371.604C206.096 371.276 205.792 370.848 205.624 370.32V372H204.532V363.12H205.624V367.092C205.792 366.564 206.096 366.14 206.536 365.82C206.984 365.492 207.528 365.328 208.168 365.328ZM207.856 366.3C207.432 366.3 207.048 366.4 206.704 366.6C206.36 366.792 206.092 367.072 205.9 367.44C205.708 367.808 205.612 368.232 205.612 368.712C205.612 369.192 205.708 369.616 205.9 369.984C206.092 370.344 206.36 370.624 206.704 370.824C207.048 371.024 207.432 371.124 207.856 371.124C208.536 371.124 209.076 370.912 209.476 370.488C209.884 370.056 210.088 369.464 210.088 368.712C210.088 367.96 209.884 367.372 209.476 366.948C209.076 366.516 208.536 366.3 207.856 366.3ZM213.71 363.12V372H212.618V363.12H213.71ZM221.526 368.34C221.526 368.572 221.51 368.772 221.478 368.94H216.21C216.234 369.692 216.446 370.256 216.846 370.632C217.254 371.008 217.75 371.196 218.334 371.196C218.862 371.196 219.302 371.064 219.654 370.8C220.014 370.528 220.234 370.168 220.314 369.72H221.478C221.398 370.176 221.218 370.584 220.938 370.944C220.666 371.304 220.31 371.584 219.87 371.784C219.43 371.984 218.934 372.084 218.382 372.084C217.75 372.084 217.19 371.948 216.702 371.676C216.214 371.404 215.83 371.016 215.55 370.512C215.278 370 215.142 369.4 215.142 368.712C215.142 368.024 215.278 367.424 215.55 366.912C215.83 366.4 216.214 366.008 216.702 365.736C217.19 365.464 217.75 365.328 218.382 365.328C219.022 365.328 219.578 365.464 220.05 365.736C220.53 366.008 220.894 366.372 221.142 366.828C221.398 367.284 221.526 367.788 221.526 368.34ZM220.422 368.412C220.446 367.924 220.366 367.516 220.182 367.188C219.998 366.86 219.746 366.616 219.426 366.456C219.106 366.296 218.758 366.216 218.382 366.216C217.782 366.216 217.278 366.404 216.87 366.78C216.462 367.148 216.242 367.692 216.21 368.412H220.422ZM228.907 365.328C229.539 365.328 230.103 365.464 230.599 365.736C231.103 366.008 231.495 366.4 231.775 366.912C232.063 367.424 232.207 368.024 232.207 368.712C232.207 369.4 232.063 370 231.775 370.512C231.495 371.016 231.103 371.404 230.599 371.676C230.103 371.948 229.539 372.084 228.907 372.084C228.275 372.084 227.707 371.948 227.203 371.676C226.707 371.404 226.315 371.016 226.027 370.512C225.739 370 225.595 369.4 225.595 368.712C225.595 368.024 225.739 367.424 226.027 366.912C226.315 366.4 226.707 366.008 227.203 365.736C227.707 365.464 228.275 365.328 228.907 365.328ZM228.907 366.288C228.515 366.288 228.151 366.376 227.815 366.552C227.487 366.728 227.219 367 227.011 367.368C226.811 367.728 226.711 368.176 226.711 368.712C226.711 369.24 226.811 369.688 227.011 370.056C227.219 370.416 227.487 370.684 227.815 370.86C228.151 371.036 228.515 371.124 228.907 371.124C229.299 371.124 229.659 371.036 229.987 370.86C230.323 370.684 230.591 370.416 230.791 370.056C230.999 369.688 231.103 369.24 231.103 368.712C231.103 368.176 230.999 367.728 230.791 367.368C230.591 367 230.323 366.728 229.987 366.552C229.659 366.376 229.299 366.288 228.907 366.288ZM237.098 365.304C237.866 365.304 238.486 365.552 238.958 366.048C239.43 366.536 239.666 367.244 239.666 368.172V372H238.574V368.268C238.574 367.612 238.406 367.108 238.07 366.756C237.734 366.404 237.278 366.228 236.702 366.228C236.102 366.228 235.622 366.424 235.262 366.816C234.902 367.2 234.722 367.764 234.722 368.508V372H233.63V365.412H234.722V366.972C234.89 366.436 235.186 366.024 235.61 365.736C236.042 365.448 236.538 365.304 237.098 365.304ZM247.45 371.04V372H246.634C245.962 372 245.458 371.84 245.122 371.52C244.794 371.2 244.63 370.664 244.63 369.912V366.36H243.646V365.412H244.63V363.768H245.734V365.412H247.438V366.36H245.734V369.936C245.734 370.36 245.81 370.652 245.962 370.812C246.122 370.964 246.394 371.04 246.778 371.04H247.45ZM252.25 365.304C253.018 365.304 253.638 365.552 254.11 366.048C254.582 366.536 254.818 367.244 254.818 368.172V372H253.726V368.268C253.726 367.612 253.558 367.108 253.222 366.756C252.886 366.404 252.43 366.228 251.854 366.228C251.254 366.228 250.774 366.424 250.414 366.816C250.054 367.2 249.874 367.764 249.874 368.508V372H248.782V363.12H249.874V366.972C250.042 366.436 250.338 366.024 250.762 365.736C251.194 365.448 251.69 365.304 252.25 365.304ZM262.553 368.34C262.553 368.572 262.537 368.772 262.505 368.94H257.237C257.261 369.692 257.473 370.256 257.873 370.632C258.281 371.008 258.777 371.196 259.361 371.196C259.889 371.196 260.329 371.064 260.681 370.8C261.041 370.528 261.261 370.168 261.341 369.72H262.505C262.425 370.176 262.245 370.584 261.965 370.944C261.693 371.304 261.337 371.584 260.897 371.784C260.457 371.984 259.961 372.084 259.409 372.084C258.777 372.084 258.217 371.948 257.729 371.676C257.241 371.404 256.857 371.016 256.577 370.512C256.305 370 256.169 369.4 256.169 368.712C256.169 368.024 256.305 367.424 256.577 366.912C256.857 366.4 257.241 366.008 257.729 365.736C258.217 365.464 258.777 365.328 259.409 365.328C260.049 365.328 260.605 365.464 261.077 365.736C261.557 366.008 261.921 366.372 262.169 366.828C262.425 367.284 262.553 367.788 262.553 368.34ZM261.449 368.412C261.473 367.924 261.393 367.516 261.209 367.188C261.025 366.86 260.773 366.616 260.453 366.456C260.133 366.296 259.785 366.216 259.409 366.216C258.809 366.216 258.305 366.404 257.897 366.78C257.489 367.148 257.269 367.692 257.237 368.412H261.449Z" fill="#1F272E"/>
<path d="M174.892 389.444H169.798L168.898 392H166.216L170.896 379.436H173.794L178.456 392H175.774L174.892 389.444ZM174.208 387.518L172.336 382.154L170.464 387.518H174.208ZM185.964 381.902C186.804 381.902 187.56 382.106 188.232 382.514C188.904 382.922 189.426 383.516 189.798 384.296C190.182 385.064 190.374 385.97 190.374 387.014C190.374 388.058 190.182 388.97 189.798 389.75C189.426 390.518 188.904 391.106 188.232 391.514C187.56 391.922 186.804 392.126 185.964 392.126C185.124 392.126 184.404 391.928 183.804 391.532C183.216 391.124 182.796 390.584 182.544 389.912V396.752H180.006V382.028H182.544V384.098C182.796 383.426 183.216 382.892 183.804 382.496C184.404 382.1 185.124 381.902 185.964 381.902ZM185.172 384.116C184.404 384.116 183.768 384.38 183.264 384.908C182.772 385.424 182.526 386.126 182.526 387.014C182.526 387.89 182.772 388.592 183.264 389.12C183.768 389.636 184.404 389.894 185.172 389.894C185.964 389.894 186.6 389.642 187.08 389.138C187.56 388.622 187.8 387.914 187.8 387.014C187.8 386.114 187.56 385.406 187.08 384.89C186.6 384.374 185.964 384.116 185.172 384.116ZM198.308 381.902C199.148 381.902 199.904 382.106 200.576 382.514C201.248 382.922 201.77 383.516 202.142 384.296C202.526 385.064 202.718 385.97 202.718 387.014C202.718 388.058 202.526 388.97 202.142 389.75C201.77 390.518 201.248 391.106 200.576 391.514C199.904 391.922 199.148 392.126 198.308 392.126C197.468 392.126 196.748 391.928 196.148 391.532C195.56 391.124 195.14 390.584 194.888 389.912V396.752H192.35V382.028H194.888V384.098C195.14 383.426 195.56 382.892 196.148 382.496C196.748 382.1 197.468 381.902 198.308 381.902ZM197.516 384.116C196.748 384.116 196.112 384.38 195.608 384.908C195.116 385.424 194.87 386.126 194.87 387.014C194.87 387.89 195.116 388.592 195.608 389.12C196.112 389.636 196.748 389.894 197.516 389.894C198.308 389.894 198.944 389.642 199.424 389.138C199.904 388.622 200.144 387.914 200.144 387.014C200.144 386.114 199.904 385.406 199.424 384.89C198.944 384.374 198.308 384.116 197.516 384.116ZM217.524 388.526C217.524 389.174 217.362 389.774 217.038 390.326C216.714 390.866 216.234 391.304 215.598 391.64C214.962 391.964 214.188 392.126 213.276 392.126C212.376 392.126 211.572 391.976 210.864 391.676C210.156 391.364 209.586 390.92 209.154 390.344C208.734 389.768 208.494 389.096 208.434 388.328H211.134C211.194 388.844 211.398 389.276 211.746 389.624C212.106 389.96 212.58 390.128 213.168 390.128C213.696 390.128 214.098 389.99 214.374 389.714C214.662 389.426 214.806 389.06 214.806 388.616C214.806 388.22 214.692 387.896 214.464 387.644C214.236 387.38 213.948 387.17 213.6 387.014C213.252 386.858 212.772 386.678 212.16 386.474C211.368 386.21 210.72 385.952 210.216 385.7C209.712 385.436 209.28 385.058 208.92 384.566C208.572 384.074 208.398 383.432 208.398 382.64C208.398 381.548 208.788 380.69 209.568 380.066C210.36 379.43 211.404 379.112 212.7 379.112C214.044 379.112 215.112 379.436 215.904 380.084C216.708 380.732 217.164 381.596 217.272 382.676H214.536C214.464 382.22 214.272 381.848 213.96 381.56C213.648 381.26 213.222 381.11 212.682 381.11C212.214 381.11 211.836 381.236 211.548 381.488C211.26 381.728 211.116 382.082 211.116 382.55C211.116 382.922 211.224 383.234 211.44 383.486C211.668 383.726 211.95 383.924 212.286 384.08C212.634 384.236 213.102 384.41 213.69 384.602C214.506 384.89 215.166 385.16 215.67 385.412C216.186 385.664 216.624 386.042 216.984 386.546C217.344 387.05 217.524 387.71 217.524 388.526ZM224.901 389.822V392H223.569C222.453 392 221.595 391.73 220.995 391.19C220.407 390.65 220.113 389.75 220.113 388.49V384.17H218.727V382.028H220.113V379.562H222.651V382.028H224.883V384.17H222.651V388.526C222.651 389.006 222.747 389.342 222.939 389.534C223.131 389.726 223.455 389.822 223.911 389.822H224.901ZM231.516 381.902C232.488 381.902 233.358 382.106 234.126 382.514C234.906 382.922 235.518 383.516 235.962 384.296C236.406 385.064 236.628 385.97 236.628 387.014C236.628 388.058 236.406 388.964 235.962 389.732C235.518 390.5 234.906 391.094 234.126 391.514C233.358 391.922 232.488 392.126 231.516 392.126C230.544 392.126 229.668 391.922 228.888 391.514C228.12 391.094 227.514 390.5 227.07 389.732C226.626 388.964 226.404 388.058 226.404 387.014C226.404 385.97 226.626 385.064 227.07 384.296C227.514 383.516 228.12 382.922 228.888 382.514C229.668 382.106 230.544 381.902 231.516 381.902ZM231.516 384.098C230.808 384.098 230.208 384.35 229.716 384.854C229.224 385.346 228.978 386.066 228.978 387.014C228.978 387.962 229.224 388.688 229.716 389.192C230.208 389.684 230.808 389.93 231.516 389.93C232.224 389.93 232.824 389.684 233.316 389.192C233.808 388.688 234.054 387.962 234.054 387.014C234.054 386.066 233.808 385.346 233.316 384.854C232.824 384.35 232.224 384.098 231.516 384.098ZM241.139 383.936C241.511 383.3 242.003 382.802 242.615 382.442C243.227 382.07 243.911 381.884 244.667 381.884V384.602H243.929C242.069 384.602 241.139 385.466 241.139 387.194V392H238.601V382.028H241.139V383.936ZM255.63 386.636C255.63 386.888 255.6 387.176 255.54 387.5H248.232C248.268 388.388 248.508 389.042 248.952 389.462C249.396 389.882 249.948 390.092 250.608 390.092C251.196 390.092 251.682 389.948 252.066 389.66C252.462 389.372 252.714 388.982 252.822 388.49H255.504C255.372 389.186 255.09 389.81 254.658 390.362C254.226 390.914 253.668 391.346 252.984 391.658C252.312 391.97 251.562 392.126 250.734 392.126C249.762 392.126 248.898 391.922 248.142 391.514C247.386 391.094 246.798 390.5 246.378 389.732C245.958 388.964 245.748 388.058 245.748 387.014C245.748 385.97 245.958 385.064 246.378 384.296C246.798 383.516 247.386 382.922 248.142 382.514C248.898 382.106 249.762 381.902 250.734 381.902C251.718 381.902 252.576 382.106 253.308 382.514C254.052 382.922 254.622 383.486 255.018 384.206C255.426 384.914 255.63 385.724 255.63 386.636ZM253.074 386.384C253.11 385.568 252.894 384.95 252.426 384.53C251.97 384.11 251.406 383.9 250.734 383.9C250.05 383.9 249.474 384.11 249.006 384.53C248.538 384.95 248.28 385.568 248.232 386.384H253.074Z" fill="#1F272E"/>
<rect x="318" y="349" width="186" height="60" rx="6" fill="url(#paint5_linear_479_1175)"/>
<path opacity="0.75" d="M381.832 370.044H378.112L377.404 372H376.228L379.36 363.696H380.596L383.716 372H382.54L381.832 370.044ZM381.52 369.192L379.972 364.92L378.424 369.192H381.52ZM387.377 370.836L389.417 365.412H390.593L388.013 372H386.717L384.137 365.412H385.313L387.377 370.836ZM394.365 365.328C395.005 365.328 395.545 365.488 395.985 365.808C396.433 366.128 396.745 366.556 396.921 367.092V365.412H398.013V372H396.921V370.32C396.745 370.856 396.433 371.284 395.985 371.604C395.545 371.924 395.005 372.084 394.365 372.084C393.781 372.084 393.261 371.948 392.805 371.676C392.349 371.404 391.989 371.016 391.725 370.512C391.469 370 391.341 369.4 391.341 368.712C391.341 368.024 391.469 367.424 391.725 366.912C391.989 366.4 392.349 366.008 392.805 365.736C393.261 365.464 393.781 365.328 394.365 365.328ZM394.677 366.3C394.005 366.3 393.465 366.516 393.057 366.948C392.657 367.372 392.457 367.96 392.457 368.712C392.457 369.464 392.657 370.056 393.057 370.488C393.465 370.912 394.005 371.124 394.677 371.124C395.109 371.124 395.493 371.024 395.829 370.824C396.173 370.624 396.441 370.344 396.633 369.984C396.825 369.616 396.921 369.192 396.921 368.712C396.921 368.232 396.825 367.808 396.633 367.44C396.441 367.072 396.173 366.792 395.829 366.6C395.493 366.4 395.109 366.3 394.677 366.3ZM399.559 363.48C399.559 363.28 399.627 363.12 399.763 363C399.899 362.872 400.079 362.808 400.303 362.808C400.527 362.808 400.707 362.872 400.843 363C400.979 363.12 401.047 363.28 401.047 363.48C401.047 363.68 400.979 363.844 400.843 363.972C400.707 364.092 400.527 364.152 400.303 364.152C400.079 364.152 399.899 364.092 399.763 363.972C399.627 363.844 399.559 363.68 399.559 363.48ZM400.843 365.412V372H399.751V365.412H400.843ZM403.691 363.12V372H402.599V363.12H403.691ZM408.146 365.328C408.786 365.328 409.326 365.488 409.766 365.808C410.214 366.128 410.526 366.556 410.702 367.092V365.412H411.794V372H410.702V370.32C410.526 370.856 410.214 371.284 409.766 371.604C409.326 371.924 408.786 372.084 408.146 372.084C407.562 372.084 407.042 371.948 406.586 371.676C406.13 371.404 405.77 371.016 405.506 370.512C405.25 370 405.122 369.4 405.122 368.712C405.122 368.024 405.25 367.424 405.506 366.912C405.77 366.4 406.13 366.008 406.586 365.736C407.042 365.464 407.562 365.328 408.146 365.328ZM408.458 366.3C407.786 366.3 407.246 366.516 406.838 366.948C406.438 367.372 406.238 367.96 406.238 368.712C406.238 369.464 406.438 370.056 406.838 370.488C407.246 370.912 407.786 371.124 408.458 371.124C408.89 371.124 409.274 371.024 409.61 370.824C409.954 370.624 410.222 370.344 410.414 369.984C410.606 369.616 410.702 369.192 410.702 368.712C410.702 368.232 410.606 367.808 410.414 367.44C410.222 367.072 409.954 366.792 409.61 366.6C409.274 366.4 408.89 366.3 408.458 366.3ZM417.168 365.328C417.752 365.328 418.272 365.464 418.728 365.736C419.184 366.008 419.54 366.4 419.796 366.912C420.06 367.424 420.192 368.024 420.192 368.712C420.192 369.4 420.06 370 419.796 370.512C419.54 371.016 419.184 371.404 418.728 371.676C418.272 371.948 417.752 372.084 417.168 372.084C416.528 372.084 415.984 371.924 415.536 371.604C415.096 371.276 414.792 370.848 414.624 370.32V372H413.532V363.12H414.624V367.092C414.792 366.564 415.096 366.14 415.536 365.82C415.984 365.492 416.528 365.328 417.168 365.328ZM416.856 366.3C416.432 366.3 416.048 366.4 415.704 366.6C415.36 366.792 415.092 367.072 414.9 367.44C414.708 367.808 414.612 368.232 414.612 368.712C414.612 369.192 414.708 369.616 414.9 369.984C415.092 370.344 415.36 370.624 415.704 370.824C416.048 371.024 416.432 371.124 416.856 371.124C417.536 371.124 418.076 370.912 418.476 370.488C418.884 370.056 419.088 369.464 419.088 368.712C419.088 367.96 418.884 367.372 418.476 366.948C418.076 366.516 417.536 366.3 416.856 366.3ZM422.71 363.12V372H421.618V363.12H422.71ZM430.526 368.34C430.526 368.572 430.51 368.772 430.478 368.94H425.21C425.234 369.692 425.446 370.256 425.846 370.632C426.254 371.008 426.75 371.196 427.334 371.196C427.862 371.196 428.302 371.064 428.654 370.8C429.014 370.528 429.234 370.168 429.314 369.72H430.478C430.398 370.176 430.218 370.584 429.938 370.944C429.666 371.304 429.31 371.584 428.87 371.784C428.43 371.984 427.934 372.084 427.382 372.084C426.75 372.084 426.19 371.948 425.702 371.676C425.214 371.404 424.83 371.016 424.55 370.512C424.278 370 424.142 369.4 424.142 368.712C424.142 368.024 424.278 367.424 424.55 366.912C424.83 366.4 425.214 366.008 425.702 365.736C426.19 365.464 426.75 365.328 427.382 365.328C428.022 365.328 428.578 365.464 429.05 365.736C429.53 366.008 429.894 366.372 430.142 366.828C430.398 367.284 430.526 367.788 430.526 368.34ZM429.422 368.412C429.446 367.924 429.366 367.516 429.182 367.188C428.998 366.86 428.746 366.616 428.426 366.456C428.106 366.296 427.758 366.216 427.382 366.216C426.782 366.216 426.278 366.404 425.87 366.78C425.462 367.148 425.242 367.692 425.21 368.412H429.422ZM437.907 365.328C438.539 365.328 439.103 365.464 439.599 365.736C440.103 366.008 440.495 366.4 440.775 366.912C441.063 367.424 441.207 368.024 441.207 368.712C441.207 369.4 441.063 370 440.775 370.512C440.495 371.016 440.103 371.404 439.599 371.676C439.103 371.948 438.539 372.084 437.907 372.084C437.275 372.084 436.707 371.948 436.203 371.676C435.707 371.404 435.315 371.016 435.027 370.512C434.739 370 434.595 369.4 434.595 368.712C434.595 368.024 434.739 367.424 435.027 366.912C435.315 366.4 435.707 366.008 436.203 365.736C436.707 365.464 437.275 365.328 437.907 365.328ZM437.907 366.288C437.515 366.288 437.151 366.376 436.815 366.552C436.487 366.728 436.219 367 436.011 367.368C435.811 367.728 435.711 368.176 435.711 368.712C435.711 369.24 435.811 369.688 436.011 370.056C436.219 370.416 436.487 370.684 436.815 370.86C437.151 371.036 437.515 371.124 437.907 371.124C438.299 371.124 438.659 371.036 438.987 370.86C439.323 370.684 439.591 370.416 439.791 370.056C439.999 369.688 440.103 369.24 440.103 368.712C440.103 368.176 439.999 367.728 439.791 367.368C439.591 367 439.323 366.728 438.987 366.552C438.659 366.376 438.299 366.288 437.907 366.288ZM446.098 365.304C446.866 365.304 447.486 365.552 447.958 366.048C448.43 366.536 448.666 367.244 448.666 368.172V372H447.574V368.268C447.574 367.612 447.406 367.108 447.07 366.756C446.734 366.404 446.278 366.228 445.702 366.228C445.102 366.228 444.622 366.424 444.262 366.816C443.902 367.2 443.722 367.764 443.722 368.508V372H442.63V365.412H443.722V366.972C443.89 366.436 444.186 366.024 444.61 365.736C445.042 365.448 445.538 365.304 446.098 365.304ZM456.45 371.04V372H455.634C454.962 372 454.458 371.84 454.122 371.52C453.794 371.2 453.63 370.664 453.63 369.912V366.36H452.646V365.412H453.63V363.768H454.734V365.412H456.438V366.36H454.734V369.936C454.734 370.36 454.81 370.652 454.962 370.812C455.122 370.964 455.394 371.04 455.778 371.04H456.45ZM461.25 365.304C462.018 365.304 462.638 365.552 463.11 366.048C463.582 366.536 463.818 367.244 463.818 368.172V372H462.726V368.268C462.726 367.612 462.558 367.108 462.222 366.756C461.886 366.404 461.43 366.228 460.854 366.228C460.254 366.228 459.774 366.424 459.414 366.816C459.054 367.2 458.874 367.764 458.874 368.508V372H457.782V363.12H458.874V366.972C459.042 366.436 459.338 366.024 459.762 365.736C460.194 365.448 460.69 365.304 461.25 365.304ZM471.553 368.34C471.553 368.572 471.537 368.772 471.505 368.94H466.237C466.261 369.692 466.473 370.256 466.873 370.632C467.281 371.008 467.777 371.196 468.361 371.196C468.889 371.196 469.329 371.064 469.681 370.8C470.041 370.528 470.261 370.168 470.341 369.72H471.505C471.425 370.176 471.245 370.584 470.965 370.944C470.693 371.304 470.337 371.584 469.897 371.784C469.457 371.984 468.961 372.084 468.409 372.084C467.777 372.084 467.217 371.948 466.729 371.676C466.241 371.404 465.857 371.016 465.577 370.512C465.305 370 465.169 369.4 465.169 368.712C465.169 368.024 465.305 367.424 465.577 366.912C465.857 366.4 466.241 366.008 466.729 365.736C467.217 365.464 467.777 365.328 468.409 365.328C469.049 365.328 469.605 365.464 470.077 365.736C470.557 366.008 470.921 366.372 471.169 366.828C471.425 367.284 471.553 367.788 471.553 368.34ZM470.449 368.412C470.473 367.924 470.393 367.516 470.209 367.188C470.025 366.86 469.773 366.616 469.453 366.456C469.133 366.296 468.785 366.216 468.409 366.216C467.809 366.216 467.305 366.404 466.897 366.78C466.489 367.148 466.269 367.692 466.237 368.412H470.449Z" fill="#1F272E"/>
<path d="M378.69 387.284V392H376.152V379.292H380.778C382.278 379.292 383.406 379.652 384.162 380.372C384.93 381.092 385.314 382.07 385.314 383.306C385.314 384.518 384.918 385.484 384.126 386.204C383.346 386.924 382.23 387.284 380.778 387.284H378.69ZM380.508 385.25C381.996 385.25 382.74 384.602 382.74 383.306C382.74 382.67 382.566 382.184 382.218 381.848C381.87 381.512 381.3 381.344 380.508 381.344H378.69V385.25H380.508ZM389.681 378.68V392H387.143V378.68H389.681ZM396.063 381.902C396.903 381.902 397.623 382.1 398.223 382.496C398.823 382.892 399.249 383.426 399.501 384.098V382.028H402.021V392H399.501V389.912C399.249 390.584 398.823 391.124 398.223 391.532C397.623 391.928 396.903 392.126 396.063 392.126C395.223 392.126 394.467 391.922 393.795 391.514C393.123 391.106 392.595 390.518 392.211 389.75C391.839 388.97 391.653 388.058 391.653 387.014C391.653 385.97 391.839 385.064 392.211 384.296C392.595 383.516 393.123 382.922 393.795 382.514C394.467 382.106 395.223 381.902 396.063 381.902ZM396.855 384.116C396.063 384.116 395.427 384.374 394.947 384.89C394.467 385.406 394.227 386.114 394.227 387.014C394.227 387.914 394.467 388.622 394.947 389.138C395.427 389.642 396.063 389.894 396.855 389.894C397.623 389.894 398.253 389.636 398.745 389.12C399.249 388.592 399.501 387.89 399.501 387.014C399.501 386.126 399.249 385.424 398.745 384.908C398.253 384.38 397.623 384.116 396.855 384.116ZM406.211 382.028L408.929 388.796L411.449 382.028H414.239L408.137 396.752H405.329L407.579 391.712L403.385 382.028H406.211ZM428.444 388.526C428.444 389.174 428.282 389.774 427.958 390.326C427.634 390.866 427.154 391.304 426.518 391.64C425.882 391.964 425.108 392.126 424.196 392.126C423.296 392.126 422.492 391.976 421.784 391.676C421.076 391.364 420.506 390.92 420.074 390.344C419.654 389.768 419.414 389.096 419.354 388.328H422.054C422.114 388.844 422.318 389.276 422.666 389.624C423.026 389.96 423.5 390.128 424.088 390.128C424.616 390.128 425.018 389.99 425.294 389.714C425.582 389.426 425.726 389.06 425.726 388.616C425.726 388.22 425.612 387.896 425.384 387.644C425.156 387.38 424.868 387.17 424.52 387.014C424.172 386.858 423.692 386.678 423.08 386.474C422.288 386.21 421.64 385.952 421.136 385.7C420.632 385.436 420.2 385.058 419.84 384.566C419.492 384.074 419.318 383.432 419.318 382.64C419.318 381.548 419.708 380.69 420.488 380.066C421.28 379.43 422.324 379.112 423.62 379.112C424.964 379.112 426.032 379.436 426.824 380.084C427.628 380.732 428.084 381.596 428.192 382.676H425.456C425.384 382.22 425.192 381.848 424.88 381.56C424.568 381.26 424.142 381.11 423.602 381.11C423.134 381.11 422.756 381.236 422.468 381.488C422.18 381.728 422.036 382.082 422.036 382.55C422.036 382.922 422.144 383.234 422.36 383.486C422.588 383.726 422.87 383.924 423.206 384.08C423.554 384.236 424.022 384.41 424.61 384.602C425.426 384.89 426.086 385.16 426.59 385.412C427.106 385.664 427.544 386.042 427.904 386.546C428.264 387.05 428.444 387.71 428.444 388.526ZM435.822 389.822V392H434.49C433.374 392 432.516 391.73 431.916 391.19C431.328 390.65 431.034 389.75 431.034 388.49V384.17H429.648V382.028H431.034V379.562H433.572V382.028H435.804V384.17H433.572V388.526C433.572 389.006 433.668 389.342 433.86 389.534C434.052 389.726 434.376 389.822 434.832 389.822H435.822ZM442.436 381.902C443.408 381.902 444.278 382.106 445.046 382.514C445.826 382.922 446.438 383.516 446.882 384.296C447.326 385.064 447.548 385.97 447.548 387.014C447.548 388.058 447.326 388.964 446.882 389.732C446.438 390.5 445.826 391.094 445.046 391.514C444.278 391.922 443.408 392.126 442.436 392.126C441.464 392.126 440.588 391.922 439.808 391.514C439.04 391.094 438.434 390.5 437.99 389.732C437.546 388.964 437.324 388.058 437.324 387.014C437.324 385.97 437.546 385.064 437.99 384.296C438.434 383.516 439.04 382.922 439.808 382.514C440.588 382.106 441.464 381.902 442.436 381.902ZM442.436 384.098C441.728 384.098 441.128 384.35 440.636 384.854C440.144 385.346 439.898 386.066 439.898 387.014C439.898 387.962 440.144 388.688 440.636 389.192C441.128 389.684 441.728 389.93 442.436 389.93C443.144 389.93 443.744 389.684 444.236 389.192C444.728 388.688 444.974 387.962 444.974 387.014C444.974 386.066 444.728 385.346 444.236 384.854C443.744 384.35 443.144 384.098 442.436 384.098ZM452.06 383.936C452.432 383.3 452.924 382.802 453.536 382.442C454.148 382.07 454.832 381.884 455.588 381.884V384.602H454.85C452.99 384.602 452.06 385.466 452.06 387.194V392H449.522V382.028H452.06V383.936ZM466.55 386.636C466.55 386.888 466.52 387.176 466.46 387.5H459.152C459.188 388.388 459.428 389.042 459.872 389.462C460.316 389.882 460.868 390.092 461.528 390.092C462.116 390.092 462.602 389.948 462.986 389.66C463.382 389.372 463.634 388.982 463.742 388.49H466.424C466.292 389.186 466.01 389.81 465.578 390.362C465.146 390.914 464.588 391.346 463.904 391.658C463.232 391.97 462.482 392.126 461.654 392.126C460.682 392.126 459.818 391.922 459.062 391.514C458.306 391.094 457.718 390.5 457.298 389.732C456.878 388.964 456.668 388.058 456.668 387.014C456.668 385.97 456.878 385.064 457.298 384.296C457.718 383.516 458.306 382.922 459.062 382.514C459.818 382.106 460.682 381.902 461.654 381.902C462.638 381.902 463.496 382.106 464.228 382.514C464.972 382.922 465.542 383.486 465.938 384.206C466.346 384.914 466.55 385.724 466.55 386.636ZM463.994 386.384C464.03 385.568 463.814 384.95 463.346 384.53C462.89 384.11 462.326 383.9 461.654 383.9C460.97 383.9 460.394 384.11 459.926 384.53C459.458 384.95 459.2 385.568 459.152 386.384H463.994Z" fill="#1F272E"/>
<g clip-path="url(#clip2_479_1175)">
<path d="M360.664 375.946L338.827 363.464C338.297 363.16 337.693 363 337.081 363C336.462 363 335.852 363.164 335.316 363.475C334.235 364.102 333.564 365.268 333.564 366.518V391.482C333.564 392.732 334.235 393.898 335.316 394.525C335.851 394.836 336.462 395 337.081 395C337.692 395 338.296 394.84 338.827 394.536L360.664 382.054C361.757 381.429 362.436 380.259 362.436 379C362.436 377.741 361.757 376.571 360.664 375.946ZM351.201 372.994L348.203 377.171L341.031 367.181L351.201 372.994ZM336.944 392.855C336.749 392.836 336.558 392.779 336.387 392.68C335.961 392.433 335.697 391.974 335.697 391.482V366.518C335.697 366.026 335.961 365.567 336.387 365.32C336.557 365.221 336.747 365.163 336.942 365.143L346.89 379L336.944 392.855ZM341.031 390.819L348.203 380.829L351.201 385.005L341.031 390.819ZM359.605 380.202L353.063 383.941L349.516 379L353.063 374.059L359.605 377.798C360.035 378.044 360.303 378.505 360.303 379C360.303 379.495 360.036 379.956 359.605 380.202Z" fill="#1F272E"/>
</g>
</g>
</g>
<defs>
<filter id="filter0_d_479_1175" x="0" y="0" width="1110" height="543" filterUnits="userSpaceOnUse" color-interpolation-filters="sRGB">
<feFlood flood-opacity="0" result="BackgroundImageFix"/>
<feColorMatrix in="SourceAlpha" type="matrix" values="0 0 0 0 0 0 0 0 0 0 0 0 0 0 0 0 0 0 127 0" result="hardAlpha"/>
<feOffset dy="8"/>
<feGaussianBlur stdDeviation="12.5"/>
<feComposite in2="hardAlpha" operator="out"/>
<feColorMatrix type="matrix" values="0 0 0 0 0.207843 0 0 0 0 0.6 0 0 0 0 0.945098 0 0 0 0.25 0"/>
<feBlend mode="normal" in2="BackgroundImageFix" result="effect1_dropShadow_479_1175"/>
<feBlend mode="normal" in="SourceGraphic" in2="effect1_dropShadow_479_1175" result="shape"/>
</filter>
<linearGradient id="paint0_linear_479_1175" x1="555" y1="17" x2="555" y2="510" gradientUnits="userSpaceOnUse">
<stop stop-color="#5CADF4"/>
<stop offset="1" stop-color="#2C95F1"/>
</linearGradient>
<linearGradient id="paint1_linear_479_1175" x1="172" y1="-89" x2="172" y2="123" gradientUnits="userSpaceOnUse">
<stop stop-color="#79D481"/>
<stop offset="1" stop-color="#55C85F"/>
</linearGradient>
<linearGradient id="paint2_linear_479_1175" x1="42" y1="-77" x2="42" y2="135" gradientUnits="userSpaceOnUse">
<stop stop-color="#FED255"/>
<stop offset="1" stop-color="#FEC420"/>
</linearGradient>
<linearGradient id="paint3_linear_479_1175" x1="1073" y1="-91" x2="1073" y2="130" gradientUnits="userSpaceOnUse">
<stop stop-color="#B49DE7"/>
<stop offset="1" stop-color="#9474DD"/>
</linearGradient>
<linearGradient id="paint4_linear_479_1175" x1="202" y1="349" x2="202" y2="409" gradientUnits="userSpaceOnUse">
<stop stop-color="#FED255"/>
<stop offset="1" stop-color="#FEC420"/>
</linearGradient>
<linearGradient id="paint5_linear_479_1175" x1="411" y1="349" x2="411" y2="409" gradientUnits="userSpaceOnUse">
<stop stop-color="#FED255"/>
<stop offset="1" stop-color="#FEC420"/>
</linearGradient>
<clipPath id="clip0_479_1175">
<rect x="25" y="17" width="1060" height="493" rx="24" fill="white"/>
</clipPath>
<clipPath id="clip1_479_1175">
<rect width="32" height="32" fill="white" transform="translate(123 363)"/>
</clipPath>
<clipPath id="clip2_479_1175">
<rect width="32" height="32" fill="white" transform="translate(332 363)"/>
</clipPath>
</defs>
</svg>
