<svg width="396" height="497" viewBox="0 0 396 497" fill="none" xmlns="http://www.w3.org/2000/svg">
<g clip-path="url(#clip0_810_1370)">
<path d="M269.705 399.336C155.71 390.147 6.53215 405.429 0.321346 438.649C-6.98947 477.674 116.127 481.177 116.127 481.177C133.287 508.186 390.367 497 351.003 456.807C411.91 452.035 387.456 408.813 269.705 399.336Z" fill="#94C437"/>
<path d="M57.1494 430.983C102.944 396.95 364.373 407.933 327.142 449.835C289.911 491.737 -0.135563 473.528 57.1494 430.983Z" fill="#7EA81A"/>
<path d="M285.037 413.095C295.377 411.656 301.385 422.064 298.779 424.772C294.802 428.901 287.829 415.143 282.922 415.227C288.794 419.035 291.485 430.509 283.531 430.39C275.577 430.272 279.469 415.752 279.469 415.752C274.714 419.323 270.686 427.395 265.558 425.499C260.414 423.587 263.223 416.75 278.538 413.23C271.16 411.555 257.706 416.378 259.128 410.726C260.566 405.073 270.534 403.719 279.605 411.047C277.591 405.09 288.286 407.459 290.063 409.829C291.84 412.164 285.358 411.335 285.037 413.095Z" fill="#FFFF94"/>
<path d="M281.991 411.284C285.139 411.808 285.477 416.022 281.263 415.261C277.049 414.499 278.775 410.742 281.991 411.284Z" fill="#FF7C24"/>
<path d="M278.792 396.172C283.294 395.512 284.14 402.721 279.622 403.381C275.12 404.041 274.291 396.832 278.792 396.172Z" fill="#FFFF94"/>
<path d="M289.911 402.823C291.722 402.552 292.043 405.446 290.249 405.717C288.438 405.987 288.1 403.093 289.911 402.823Z" fill="#FFFF94"/>
<path d="M280.823 258.434C286.526 232.287 313.942 230.189 328.817 253.56C343.693 276.948 353.61 280.18 369.196 267.166C366.708 282.82 344.454 294.328 328.462 271.177C302.146 233.1 294.903 259.246 291.502 262.952" fill="#C1C5C6"/>
<path d="M359.99 275.949C354.93 268.791 356.03 257.046 366.522 250.598C377.048 244.134 386.779 251.563 391.619 236.789C399.252 248.094 386.83 261.632 386.83 261.632C391.992 260.871 394.868 252.832 394.868 252.832C398.71 265.643 377.235 286.408 359.99 275.949Z" fill="#0F090B"/>
<path d="M285.832 249.042C289.572 240.055 307.646 234.183 319.543 244.997C334.182 258.316 335.739 278.031 357.891 275.645C348.871 284.259 336.145 276.457 325.467 262.191C313.823 246.656 303.449 240.919 291.84 251.529C287.762 251.716 285.832 249.042 285.832 249.042Z" fill="#F2F2F2"/>
<path d="M390.367 242.644C388.725 247.501 384.325 247.671 374.358 249.177C364.407 250.7 353.559 259.026 360.176 272.565C364.83 276.305 377.607 263.832 377.607 263.832C388.336 253.12 390.367 242.644 390.367 242.644Z" fill="#49373D"/>
<path d="M369.01 268.808C372.344 268.588 382.785 267.776 392.178 259.382C388.692 268.96 373.461 279.402 365.388 270.653" fill="#49373D"/>
<path opacity="0.75" d="M306.496 237.551C302.553 237.009 298.66 237.5 295.14 239.006C295.123 243.389 296.257 248.855 299.777 252.223C301.351 251.208 303.196 250.615 305.362 250.785C303.196 246.3 304.38 241.02 306.496 237.551Z" fill="#11070B"/>
<path opacity="0.75" d="M327.074 251.038C324.823 247.975 322.336 245.42 319.73 243.389C318.494 246.588 316.226 251.529 313.316 254.186C314.94 255.371 316.7 256.894 318.579 258.84C322.522 257.215 325.348 253.746 327.074 251.038Z" fill="#11070B"/>
<path opacity="0.75" d="M338.65 266.777C337.076 265.102 335.485 263.139 333.827 260.905C330.34 262.191 327.413 264.577 325.602 267.217C326.516 268.453 327.463 269.756 328.445 271.177C328.97 271.922 329.477 272.633 330.019 273.309C332.287 270.551 335.959 268.233 338.65 266.777Z" fill="#11070B"/>
<path opacity="0.75" d="M348.533 273.936C346.942 273.377 345.368 272.531 343.777 271.38C342.745 275.272 343.067 280.248 343.98 283.497C345.791 284.022 347.585 284.276 349.328 284.276C348.262 280.603 347.941 277.168 348.533 273.936Z" fill="#11070B"/>
<path d="M231.103 64.2403C233.015 43.7632 267.098 41.4448 277.557 52.7664C278.538 65.0526 249.143 94.8712 238.227 78.2019" fill="#C1C5C6"/>
<path d="M276.575 53.0372C260.363 45.574 242.678 48.5864 234.149 64.3926C227.227 77.2204 251.428 79.0142 256.978 77.9481C264.323 76.5435 275.882 62.2772 276.575 53.0372Z" fill="#F2F2F2"/>
<path d="M235.571 71.9064C242.729 59.3832 249.058 48.2985 273.089 56.5232C267.352 71.3141 253.221 81.1126 246.452 78.4387" fill="#EF8FAB"/>
<path d="M237.415 71.3311C241.054 61.4987 253.848 49.2971 269.535 55.7787C264.323 67.8957 254.795 75.7819 243.711 74.7327" fill="#E85D8B"/>
<path d="M175.324 43.4926C169.181 25.6217 161.278 26.0279 161.278 26.0279C143.407 27.7033 108.071 58.0465 94.7697 106.684C80.4865 158.909 87.8989 219.934 131.07 243.982C138.736 174.14 204.466 79.2344 204.466 79.2344" fill="#C1C5C6"/>
<path d="M135.588 40.7679C113.977 63.665 88.085 91.5544 91.4696 160.567C101.234 119.275 121.457 78.3036 149.178 52.4957C146.402 43.8987 135.588 40.7679 135.588 40.7679Z" fill="#F2F2F2"/>
<path opacity="0.75" d="M143.712 70.6543C143.712 70.6543 161.21 69.5204 150.464 66.1865C142.172 63.6311 132.864 55.1695 127.635 47.3341C124.555 50.5834 121.491 54.188 118.53 58.1142C123.082 62.9542 131.645 69.9266 143.712 70.6543Z" fill="#11070B"/>
<path opacity="0.75" d="M137.738 79.9279C130.021 81.6202 116.702 74.174 110.339 70.214C107.851 74.3602 105.499 78.7602 103.333 83.4141C111.219 85.2248 127.787 94.0587 127.787 94.0587L137.738 79.9279Z" fill="#11070B"/>
<path opacity="0.75" d="M117.481 116.093C117.481 116.093 105.414 110.83 93.805 110.407C93.1958 112.793 92.6543 115.196 92.1296 117.616C102.656 121.796 109.916 128.887 109.916 128.887L117.481 116.093Z" fill="#11070B"/>
<path opacity="0.75" d="M106.768 141.867C101.184 147.451 93.8389 147.756 88.3388 146.876C88.1696 150.295 88.1188 153.713 88.1696 157.098C91.5542 156.099 96.1573 154.492 101.15 151.97L106.768 141.867Z" fill="#11070B"/>
<path d="M222.455 290.892C214.078 307.782 219.054 336.331 232.964 355.404C241.578 366.708 222.963 405.818 212.555 417.089C226.331 427.175 234.961 428.241 236.383 420.744C237.804 413.247 245.335 413.129 245.911 402.382C246.249 396.002 251.258 374.341 257.892 367.571C260.769 364.644 264.205 361.834 262.191 353.102C259.805 342.728 284.58 327.108 292.06 302.688" fill="#C1C5C6"/>
<path d="M237.314 358.941C246.689 361.039 244.895 382.582 240.851 393.176C236.789 403.77 240.224 409.862 233.286 413.399C228.7 416.598 227.938 421.116 227.938 421.116C222.37 420.422 216.058 415.549 216.058 415.549C226.483 401.672 236.01 379.621 237.314 358.941Z" fill="#F2F2F2"/>
<path opacity="0.75" d="M262.58 348.77C262.952 347.636 263.545 346.434 264.272 345.199L260.025 337.583C260.025 337.583 235.317 338.683 228.429 348.296C229.817 350.783 231.323 353.17 232.964 355.42C232.964 355.42 232.981 355.437 232.981 355.454C238.515 348.702 255.049 348.482 262.58 348.77Z" fill="#11070B"/>
<path opacity="0.75" d="M235.13 362.359C235.215 363.797 235.164 365.354 235.012 366.996C241.426 364.931 254.203 365.067 256.166 369.416C256.166 369.416 256.437 369.179 256.894 368.773C257.232 368.35 257.571 367.944 257.909 367.588C259.161 366.302 260.532 365.033 261.514 363.29C255.878 355.37 242.441 357.028 235.13 362.359Z" fill="#11070B"/>
<path opacity="0.75" d="M249.092 380.771C248.601 374.814 242.407 369.72 234.115 372.58C233.607 374.967 232.914 377.454 232.118 379.993C236.366 378.503 243.931 376.98 249.092 380.771Z" fill="#11070B"/>
<path opacity="0.75" d="M241.172 404.447C240.935 399.353 232.592 392.042 227.38 392.313C226.398 394.53 225.366 396.696 224.3 398.794C229.343 399.522 238.6 401.265 241.172 404.447Z" fill="#11070B"/>
<path d="M213.537 415.227C209.458 416.412 197.798 429.307 201.792 435.298C207.664 442.846 233.286 442.152 235.807 435.518C237.347 431.456 235.063 424.078 235.063 424.078C227.583 425.33 214.62 418.629 213.537 415.227Z" fill="#0F090B"/>
<path d="M98.899 250.615C89.219 252.849 77.2881 278.2 81.0112 293.092C84.7343 308.002 103.367 331.102 103.367 331.102C103.367 331.102 76.7127 325.348 69.825 326.634C60.2465 328.411 43.7464 340.037 42.2402 347.5C40.751 354.947 47.4526 368.367 47.4526 368.367C47.4526 368.367 72.6681 362.241 73.1081 352.256C71.1281 350.987 70.6543 348.804 68.3189 347.754C70.1804 344.793 72.1096 341.814 73.7173 341.848C80.9605 342 113.978 357.942 124.876 355.353C130.698 353.965 135.402 345.808 133.168 338.091C130.935 330.374 140.885 300.572 140.885 300.572" fill="#C1C5C6"/>
<path d="M97.4774 285.985C99.0343 300.437 116.008 323.689 122.185 332.016C128.362 340.342 131.899 347.399 130.122 351.951C136.164 345.351 137.078 325.991 136.147 319.56" fill="#818789"/>
<path d="M82.6527 284.174C82.9912 276.863 95.9544 292.433 102.876 308.103C109.798 323.808 112.302 329.342 112.302 329.342C103.367 331.102 81.8235 302.451 82.6527 284.174Z" fill="#F2F2F2"/>
<path d="M112.302 335.993C95.3282 329.426 75.2065 326.939 69.6219 327.413C64.0203 327.903 44.254 340.833 43.5771 348.482C42.9171 356.114 46.2848 361.564 46.2848 361.564C54.6956 364.677 61.9726 357.925 61.9726 357.925C61.7018 354.32 58.3341 348.482 58.3341 348.482C66.6434 344.607 71.5681 335.451 71.5681 335.451C90.3528 344.86 109.544 346.248 112.302 335.993Z" fill="#F2F2F2"/>
<path opacity="0.75" d="M109.561 301.351C109.561 301.351 113.69 301.351 109.561 294.633C105.973 289.149 88.8296 286.036 81.2819 278.319C80.4527 282.262 80.1142 286.154 80.4357 289.691C89.625 296.765 105.245 295.902 109.561 301.351Z" fill="#11070B"/>
<path opacity="0.75" d="M121.458 315.803C121.458 315.803 125.13 312.25 118.682 310.777C114.13 314.957 98.1712 312.825 88.9142 310.354C90.9789 313.806 93.1789 317.157 95.2266 320.102C105.211 322.64 118.818 321.506 121.458 315.803Z" fill="#11070B"/>
<path opacity="0.75" d="M125.045 355.285C129.022 354.253 132.424 350.09 133.439 345.08C127.567 337.803 113.233 330.882 101.691 328.953C102.741 330.323 103.367 331.102 103.367 331.102C103.367 331.102 102.013 330.814 99.8298 330.374C108.342 336.196 119.444 346.316 125.045 355.285Z" fill="#11070B"/>
<path opacity="0.75" d="M79.4034 326.956C84.2096 331.085 91.9435 338.937 94.0589 348.245C96.5128 349.125 99.0174 350.005 101.522 350.851C100.117 342.322 96.4451 333.911 92.4174 328.97C88.2881 328.208 83.5665 327.447 79.4034 326.956Z" fill="#11070B"/>
<path opacity="0.75" d="M67.6588 327.176C63.4788 328.428 58.4695 331.068 53.9849 334.25C60.7541 335.62 68.0311 339.733 71.2465 343.54C72.1265 342.508 72.9558 341.831 73.7342 341.848C74.0727 341.848 74.4958 341.899 74.9358 341.983C74.9358 341.95 74.9188 341.916 74.9019 341.882C73.9711 339.157 72.2111 330.933 67.6588 327.176Z" fill="#11070B"/>
<path opacity="0.75" d="M60.2634 347.45C60.2634 347.45 48.4171 348.177 43.4248 344.607C42.8325 345.622 42.4263 346.587 42.2402 347.5C41.8679 349.328 42.0033 351.511 42.4094 353.762C48.2141 354.439 58.0464 351.867 60.2634 347.45Z" fill="#11070B"/>
<path d="M137.535 127.025C133.913 168.216 179.809 166.896 190.369 184.056C206.023 209.475 235.351 192.45 240.174 185.799C244.997 179.148 245.081 154.931 249.431 138.144C252.341 126.873 271.075 89.9126 233.134 57.4878C196.156 25.8922 153.882 44.7277 129.259 85.0387C66.2034 188.236 80.9773 272.311 107.682 306.022C166.033 379.671 265.237 350.546 295.834 315.025C318.071 289.234 292.974 231.949 239.006 238.667C200.387 243.474 142.848 249.786 165.542 169.13L165.762 168.521" fill="#C1C5C6"/>
<path d="M180.858 302.214C185.969 318.24 180.959 337.144 178.269 343.05C183.295 347.924 202.249 350.767 216.87 349.091C231.492 347.416 241.206 341.256 241.883 338.904C235.621 331.627 231.729 314.196 235.807 305.87C235.351 320.643 246.791 337.922 254.778 341.12C233.404 354.49 183.853 354.625 164.409 345.588" fill="#818789"/>
<path d="M137.721 136.435C139.498 151.615 149.313 159.45 165.779 168.521L163.512 177.93C146.538 175.24 136.181 156.184 137.721 136.435Z" fill="#818789"/>
<path d="M235.571 309.085C235.554 327.937 259.923 355.099 282.245 362.765C295.783 367.097 298.119 416.479 291.536 430.339C307.68 435.856 316.243 434.316 315.38 426.718C314.5 419.136 321.659 416.784 319.002 406.342C317.428 400.148 308.086 367.791 309.643 358.45C310.32 354.388 311.522 350.14 304.871 344.133C296.968 336.991 307.325 313.976 303.179 288.777" fill="#C1C5C6"/>
<path d="M142.493 207.935C142.544 232.068 162.462 261.311 209.018 247.586C255.574 233.878 262.563 239.361 279.774 250.175C296.985 261.006 299.489 295.868 290.926 319.577C282.363 343.27 296.308 343.507 298.796 355.539C301.283 367.588 316.92 408.966 313.333 412.469C309.745 415.955 310.1 430.373 310.1 430.373C310.1 430.373 298.525 433.064 294.548 428.799C301.385 410.726 300.031 369.416 282.566 360.921C269.925 355.116 239.294 338.904 238.955 295.986C239.784 288.709 227.803 290.605 228.429 303.28C229.055 315.956 237.5 324.891 233.387 332.574C229.292 340.257 191.74 341.594 187.34 331.457C182.94 321.337 189.675 289.336 178.573 288.083C167.472 286.831 173.479 305.243 170.569 315.973C167.658 326.702 131.07 269.163 130.241 250.615C129.428 232.068 142.493 207.935 142.493 207.935Z" fill="#F2F2F2"/>
<path d="M167.099 56.5233C137.247 73.4973 91.4696 140.902 87.5942 204.567C83.9726 264.205 97.4773 285.274 110.914 294.429C114.231 282.431 124.673 265.051 140.022 262.834C150.43 261.328 136.147 219.054 148.89 178.032C133.371 170.281 123.014 133.135 145.979 108.207" fill="#F2F2F2"/>
<path d="M175.053 51.3787C149.33 64.8496 135.859 99.5082 146.876 134.201C157.115 166.439 196.275 157.792 208.476 189.235C220.678 220.695 241.646 180.892 244.591 150.498C247.552 120.104 268.723 99.5929 236.789 65.1711C211.692 38.1279 183.193 47.131 175.053 51.3787Z" fill="#F2F2F2"/>
<path d="M215.28 59.5863C163.901 53.5109 174.884 126.298 224.74 127.398C262.14 128.244 263.071 65.2387 215.28 59.5863Z" fill="white"/>
<path d="M127.211 272.311C112.894 300.555 139.887 353.474 138.398 361.665C136.908 369.856 139.295 379.079 144.355 384.02C149.415 388.962 156.269 431.71 149.567 445.13C168.199 449.598 176.729 441.441 176.729 441.441C170.839 427.835 179.623 428.985 176.407 418.307C174.563 412.214 160.516 396.442 165.221 380.297C167.743 371.65 169.79 367.233 167.455 359.566C165.119 351.9 181.315 335.569 181.264 300.555" fill="#C1C5C6"/>
<g opacity="0.75">
<path opacity="0.75" d="M160.77 94.0591C148.416 115.653 159.501 143.746 186.172 145.506C163.715 151.835 127.888 137.704 160.77 94.0591Z" fill="#11070B"/>
<path opacity="0.75" d="M140.97 147.367C139.481 143.56 137.975 138.279 137.365 131.629C137.399 137.873 138.736 143.018 140.97 147.367Z" fill="#11070B"/>
<path opacity="0.75" d="M230.121 55.0512C227.058 52.682 223.961 50.6512 220.847 48.925L219.73 48.9589C219.206 48.3835 218.749 47.9435 218.41 47.6389C217.97 47.4189 217.547 47.2327 217.107 47.0296L187.119 43.4758C187.119 43.4758 181.772 42.9342 181.636 42.9681C177.541 43.8819 173.496 45.2189 169.553 47.0127C175.595 48.3496 190.199 52.4789 198.61 62.7174C198.61 62.7174 195.936 54.222 190.233 46.9619C202.976 53.8835 221.507 67.7605 227.024 85.5299C228.784 75.1729 228.006 67.2528 226.313 61.3805C229.647 65.0359 232.22 68.6236 232.93 70.8067C234.521 64.0374 232.575 58.7574 230.121 55.0512Z" fill="#11070B"/>
<path opacity="0.75" d="M186.155 145.506C159.484 143.746 148.416 115.653 160.77 94.0591C127.888 137.704 163.715 151.835 186.155 145.506Z" fill="#11070B"/>
<path opacity="0.75" d="M145.878 87.7637C137.805 105.838 136.35 120.628 137.365 131.629C137.974 138.279 139.481 143.559 140.97 147.367C143.068 151.446 145.928 154.83 149.262 157.724C152.325 159.84 156.15 161.549 160.652 162.463C168.013 163.952 177.169 163.241 187.695 158.469C176.441 159.044 128.65 161.616 145.878 87.7637Z" fill="#11070B"/>
<path opacity="0.75" d="M140.97 147.367C141.224 148.01 141.461 148.602 141.714 149.161C143.001 152.072 145.573 155.186 149.262 157.724C145.928 154.83 143.051 151.446 140.97 147.367Z" fill="#11070B"/>
<path opacity="0.75" d="M116.854 173.039C124.825 185.072 149.635 187.17 161.616 187.458C162.175 183.955 162.936 180.215 163.884 176.255C155.067 175.849 139.091 170.772 131.848 162.716C122.997 152.85 114.739 134.573 118.31 104.162C115.585 109.273 113.064 114.333 110.711 119.325C108.731 138.381 108.46 160.364 116.854 173.039Z" fill="#11070B"/>
<path opacity="0.75" d="M160.465 204.466C160.347 201.707 160.415 198.763 160.668 195.615C147.942 201.318 124.791 204.737 111.219 194.667C101.099 187.154 96.7327 171.923 94.8542 160.686C91.6219 171.5 89.2357 181.941 87.6111 191.943C101.962 216.498 142.493 213.249 160.465 204.466Z" fill="#11070B"/>
<path opacity="0.75" d="M166.761 225.958C163.529 221.253 161.379 215.212 160.669 207.529C148.365 222.303 111.794 232.118 101.217 229.58C92.6204 227.515 87.5434 221.812 84.9203 217.784C84.7003 223.098 84.7004 228.243 84.8865 233.218C89.9635 236.451 99.6266 241.409 112.201 242.103C127.194 242.932 153.832 236.857 166.761 225.958Z" fill="#11070B"/>
<path opacity="0.75" d="M136.519 265.051C149.889 260.499 174.563 248.432 182.821 237.821C178.201 236.163 174.072 233.794 170.636 230.528C160.702 243.762 135.081 257.08 125.942 260.042C116.821 262.986 100.202 269.265 93.7036 280.231C95.3113 284.597 97.0882 288.642 99.0174 292.382C104.517 279.808 122.253 269.908 136.519 265.051Z" fill="#11070B"/>
<path opacity="0.75" d="M199.101 309.491C197.916 298.254 189.844 289.725 188.338 276.22C187.356 267.319 189.641 256.251 197.07 240.851C193.347 240.478 189.743 239.869 186.358 238.938C180.418 251.479 176.339 264.916 177.507 276.745C178.759 289.437 190.656 298.627 190.284 314.534C190.013 325.924 183.041 341.645 179.115 349.667C180.926 350.005 182.753 350.31 184.564 350.564C189.692 342.728 200.641 324.079 199.101 309.491Z" fill="#11070B"/>
<path opacity="0.75" d="M197.781 271.194C202.096 278.894 209.39 296.511 206.852 309.051C218.123 293.702 224.164 284.445 225.45 265.609C226.347 252.46 232.304 243.372 235.807 239.074C231.83 239.565 227.684 240.055 223.487 240.445C220.272 244.337 216.058 250.429 215.076 256.555C213.452 266.726 217.75 280.84 212.335 289.183C208.73 278.369 202.469 271.617 203.67 260.718C204.449 253.577 208.95 245.775 211.963 241.24C207.563 241.392 203.213 241.358 198.983 241.037C195.124 249.532 193.906 264.255 197.781 271.194Z" fill="#11070B"/>
<path opacity="0.75" d="M247.704 267.319C251.783 255.693 249.769 244.049 248.212 238.126C245.826 238.109 243.389 238.211 240.868 238.465C240.681 248.72 242.695 264.036 234.589 277.371C225.23 292.754 223.961 305.142 216.904 316.616C211.743 325.01 207.461 341.645 207.258 351.698C211.946 351.529 216.6 351.139 221.152 350.53C221.88 340.105 224.977 323.978 227.515 313.858C231.052 299.828 241.9 283.853 247.704 267.319Z" fill="#11070B"/>
<path opacity="0.75" d="M275.425 245.014C272.311 243.305 268.96 241.883 265.389 240.766C259.128 247.552 254.051 259.602 252.375 269.485C256.335 260.346 266.438 250.294 275.425 245.014Z" fill="#11070B"/>
<path opacity="0.75" d="M255.844 276.542C262.224 269.316 282.414 263.9 295.462 263.799C292.957 259.872 289.911 256.183 286.374 252.883C275.628 254.914 261.903 263.849 255.844 276.542Z" fill="#11070B"/>
<path opacity="0.75" d="M300.809 274.646C269.908 268.215 244.421 289.336 235.79 311.877L236.163 315.803C236.163 315.803 255.641 291.299 282.617 289.048C294.683 288.049 301.503 291.417 303.889 292.906C304.075 286.933 303.009 280.688 300.809 274.646Z" fill="#11070B"/>
</g>
<path d="M170.332 41.0046C170.332 41.0046 177.896 24.3691 167.099 18.5476C169.012 17.5322 180.909 12.726 189.438 13.4537C195.649 13.9783 197.307 27.6861 196.14 36.8415C197.29 27.703 199.507 20.4937 206.175 16.6183L218.377 19.6645C212.826 21.8814 208.206 31.02 207.495 35.9615C210.693 31.8661 211.59 26.0445 224.977 22.7107C238.143 26.0445 242.594 33.7615 244.421 41.5631C237.855 43.4923 225.67 51.3109 219.155 60.9571C209.593 49.0432 192.772 40.7846 172.007 45.1677" fill="#C1C5C6"/>
<path d="M150.362 441.526C146.656 441.78 138.076 457.298 142.899 462.9C153.696 471.446 178.421 461.901 180.029 455.42C182.347 446.061 176.119 440.104 176.119 440.104C170.941 444.115 151.97 444.995 150.362 441.526Z" fill="#0F090B"/>
<path d="M45.3032 362.833C44.2878 367.859 45.7262 384.275 51.937 387.253C58.1479 390.231 80.9772 376.067 80.9772 364.39C80.9772 358.737 74.2926 353.88 71.8218 351.19C68.3525 358.196 52.0894 365.744 45.3032 362.833Z" fill="#0F090B"/>
<path d="M291.925 428.258C288.388 430.593 281.094 446.383 286.695 450.918C294.548 456.367 318.799 448.075 319.222 440.984C319.476 436.652 315.11 430.289 315.11 430.289C308.34 433.707 293.972 431.169 291.925 428.258Z" fill="#0F090B"/>
<path d="M170.247 56.3879C179.233 49.314 167.082 11.1692 139.498 0.270657C128.261 -4.16322 112.641 46.5556 160.516 66.2034" fill="#C1C5C6"/>
<path d="M130.461 273.225C117.362 291.992 132.204 337.651 140.902 357.18C138.381 371.531 140.581 376.998 146.673 382.819C152.765 388.641 155.541 431.389 153.595 440.087C163.021 441.289 168.284 434.926 170.23 427.987C172.176 421.065 163.799 408.187 159.145 390.011C154.492 371.836 165.644 376.151 158.232 359.262C154.982 344.302 177.439 320 171.889 284.055C167.184 253.594 141.122 257.943 130.461 273.225Z" fill="#F2F2F2"/>
<path d="M213.215 76.6788C212.267 73.1926 195.903 72.9219 191.926 86.9343C196.935 81.4681 209.966 81.2481 211.81 80.8927C213.655 80.5373 213.215 76.6788 213.215 76.6788Z" fill="#605355"/>
<path d="M241.646 80.3513C243.423 77.9482 256.065 82.6528 254.931 94.6175C252.731 88.9144 242.78 84.8359 241.46 84.0067C240.14 83.1775 241.646 80.3513 241.646 80.3513Z" fill="#605355"/>
<path d="M194.887 152.715C186.815 162.801 186.003 181.467 196.461 195.107C211.235 214.349 231.12 205.227 231.797 190.233" fill="#332D2F"/>
<path d="M196.14 173.175C197.24 186.053 204.313 203.095 215.127 203.941C225.941 204.77 230.781 195.767 230.781 192.027" fill="#565052"/>
<path d="M195.683 175.121C206.107 184.886 205.837 197.443 214.84 200.15C220.915 201.978 226.686 196.935 228.074 189.133" fill="#AF6170"/>
<path d="M190.301 160.195C201.42 134.167 238.752 139.802 248.28 152.816C257.808 165.83 256.775 189.117 233.489 192.992C210.203 196.884 188.727 176.644 190.301 160.195Z" fill="#332D2F"/>
<path d="M220.458 142.781C207.207 142.392 196.512 149.973 201.42 163.901C206.327 177.829 221.355 185.461 234.724 183.819C248.094 182.178 255.438 169.672 249.481 158.062C243.524 146.436 231.035 143.085 220.458 142.781Z" fill="#565052"/>
<path d="M211.184 155.981C216.481 153.239 222.1 164.815 218.309 166.507C214.535 168.183 202.875 160.279 211.184 155.981Z" fill="#AF6170"/>
<path d="M173.175 39.7526C176.61 30.4618 170.755 22.2033 171.77 19.2417C172.786 16.2801 186.578 14.6555 186.578 14.6555C191.841 20.8832 194.312 34.4726 191.706 40.768C184.92 37.248 173.175 39.7526 173.175 39.7526Z" fill="#F2F2F2"/>
<path d="M204.466 19.4447C207.495 18.0231 210.947 18.4462 211.032 19.9524C211.1 21.4754 202.553 31.6801 201.843 41.5971C199.067 44.5925 196.986 40.7679 196.986 40.7679C197.138 30.8847 198.543 22.2201 204.466 19.4447Z" fill="#F2F2F2"/>
<path d="M205.752 43.2723C209.069 32.4415 219.832 24.3691 225.095 23.6753C234.098 26.4507 241.849 35.1661 240.698 38.1277C239.548 41.0723 215.821 50.9724 215.821 50.9724C212.081 44.3216 205.752 43.2723 205.752 43.2723Z" fill="#F2F2F2"/>
<path d="M137.111 1.5738C130.325 9.37539 130.528 43.5602 154.982 55.6941C167.878 58.3172 172.295 50.8372 169.249 36.2832C166.202 21.7293 148.331 1.15072 137.111 1.5738Z" fill="#F2F2F2"/>
<path d="M205.092 138.262C215.28 126.585 213.757 103.316 205.007 99.4234C186.019 91.368 172.904 119.884 177.304 132.813C183.904 142.391 200.049 142.781 205.092 138.262Z" fill="black"/>
<path d="M204.973 137.619C213.74 126.23 212.91 107.835 204.889 103.249C188.693 96.3608 175.256 121.39 179.335 133.355C185.427 142.206 201.233 140.547 204.973 137.619Z" fill="#F7C9D8"/>
<path d="M204.093 137.467C211.692 127.584 212.741 110.576 205.786 106.599C191.74 100.625 178.793 124.047 182.33 134.421C187.627 142.104 200.844 140.022 204.093 137.467Z" fill="#FFF3F7"/>
<path d="M211.235 116.127C208.73 104.433 185.089 117.058 186.933 138.347C187.289 140.412 198.34 141.427 204.99 137.62C208.916 135.369 212.183 120.595 211.235 116.127Z" fill="#24A9AE"/>
<path d="M205.464 137.264C207.207 134.962 211.946 123.099 208.578 118.852C201.166 112.996 190.724 130.292 192.84 139.887C196.14 141.038 203.18 139.498 205.464 137.264Z" fill="#003A4C"/>
<path d="M186.307 126.01C190.859 122.236 195.547 131.29 193.923 132.272C192.298 133.253 183.058 128.718 186.307 126.01Z" fill="#F2F2F2"/>
<path d="M196.969 132.035C194.633 131.121 195.056 134.641 196.969 135.419C198.864 136.181 200.133 133.287 196.969 132.035Z" fill="#F2F2F2"/>
<path d="M231.137 137.958C231.847 127.804 236.214 103.655 246.469 104.924C260.668 106.684 253.78 136.012 247.434 143.932C241.257 146.69 231.83 141.021 231.137 137.958Z" fill="black"/>
<path d="M231.594 137.958C232.914 126.179 236.434 108.055 246.317 109.307C259.974 111.033 253.56 136.029 247.535 143.153C241.629 145.59 233.472 141.173 231.594 137.958Z" fill="#F7C9D8"/>
<path d="M232.795 138.381C231.898 131.256 237.601 110.204 245.234 111.608C256.708 113.132 253.035 138.381 246.367 143.086C240.867 145.336 234.538 141.376 232.795 138.381Z" fill="#FFF3F7"/>
<path d="M232.795 139.379C234.504 124.944 239.48 116.838 245.64 120.121C250.937 122.93 250.903 137.365 246.604 143.492C239.226 145.539 232.795 139.379 232.795 139.379Z" fill="#24A9AE"/>
<path d="M233.404 139.972C233.404 133.947 237.652 123.116 241.849 124.03C247.078 125.164 245.437 140.158 241.849 143.813C237.5 143.796 233.404 139.972 233.404 139.972Z" fill="#003A4C"/>
<path d="M250.294 136.401C250.801 133.101 245.031 136.671 245.098 137.636C245.132 138.584 249.871 139.041 250.294 136.401Z" fill="#F2F2F2"/>
<path d="M243.237 137.247C245.369 138.009 243.271 140.243 241.527 139.633C239.767 139.041 240.343 136.232 243.237 137.247Z" fill="#F2F2F2"/>
<path d="M164.967 63.851C154.187 63.2418 136.604 41.6817 144.828 8.42761C160.415 13.1323 174.732 41.4447 171.296 57.6233C170.095 62.5987 167.861 64.4603 164.967 63.851Z" fill="#EF8FAB"/>
<path d="M166.118 62.2094C158.13 61.7525 148.348 36.9431 153.679 19.4276C165.238 22.9138 174.19 44.7447 171.652 56.7432C170.755 60.4663 168.25 62.6663 166.118 62.2094Z" fill="#E85D8B"/>
<path opacity="0.75" d="M258.062 348.482C266.862 331.001 292.534 320.136 301.554 331.221V335.587C287.999 329.697 274.088 341.73 267.234 355.488L258.062 348.482Z" fill="#11070B"/>
<path opacity="0.75" d="M304.312 344.065C297.611 342.593 285.528 345.977 284.919 363.611L289.335 369.941C293.042 358.23 295.394 347.297 306.191 345.859L304.312 344.065Z" fill="#11070B"/>
<path opacity="0.75" d="M311.031 376.05C306.885 375.779 298.186 375.898 292.872 381.076C292.077 378.707 290.943 373.63 290.943 373.63C293.972 368.045 301.926 365.676 309.254 366.861C310.066 367.808 311.031 376.05 311.031 376.05Z" fill="#11070B"/>
<path opacity="0.75" d="M294.886 395.596C302.349 394.395 310.726 390.299 310.726 390.299C310.726 396.95 302.316 405.175 295.411 406.985" fill="#11070B"/>
<path opacity="0.75" d="M302.806 321.557C282.837 313.603 261.125 318.731 244.794 333.488L242.966 330.679C260.329 305.226 291.603 299.489 303.923 305.7C303.399 313.18 302.806 321.557 302.806 321.557Z" fill="#11070B"/>
<path opacity="0.75" d="M129.411 329.562L127.871 324.062C128.362 325.923 128.887 327.751 129.411 329.562Z" fill="#11070B"/>
<path opacity="0.75" d="M175.967 333.624C174.224 338.447 173.005 341.544 172.819 342.035C173.852 339.513 174.935 336.721 175.967 333.624Z" fill="#11070B"/>
<path opacity="0.75" d="M146.301 292.195C153.408 288.878 156.082 289.149 160.516 295.039C164.95 300.928 178.252 314.077 178.709 323.842V323.825L180.773 310.896C180.773 310.828 180.79 310.777 180.79 310.709C181.806 302.485 170.467 297.695 165.509 283.717C160.516 269.688 159.975 267.809 152.207 273.225C147.435 276.541 129.496 280.84 123.031 290.875C122.896 295.715 123.285 300.759 124.013 305.852C128.548 295.699 139.193 295.529 146.301 292.195Z" fill="#11070B"/>
<path opacity="0.75" d="M149.364 318.63C157.588 319.831 169.401 333.217 172.769 342.119C172.786 342.102 172.786 342.068 172.802 342.051C173.006 341.561 174.207 338.464 175.95 333.641C175.967 333.59 175.984 333.539 176.001 333.505C175.392 321.862 157.284 305.65 149.364 307.46C141.427 309.271 128.21 314.416 127.821 323.859C127.838 323.927 127.854 324.011 127.871 324.079L129.411 329.579C130.038 331.728 130.664 333.81 131.29 335.841C132.271 334.03 141.579 317.496 149.364 318.63Z" fill="#11070B"/>
<path opacity="0.75" d="M168.064 361.97C167.911 361.208 167.708 360.413 167.455 359.584C166.828 357.536 167.539 354.862 168.893 351.393C164.036 348.77 153.053 343.067 148.991 343.067C144.185 343.067 140.919 345.554 136.13 351.021C137.111 354.202 137.856 356.842 138.211 358.822C147.35 350.124 160.499 355.488 168.064 361.97Z" fill="#11070B"/>
<path opacity="0.75" d="M164.442 384.139C164.595 382.87 164.848 381.584 165.221 380.298C166.033 377.539 166.795 375.204 167.37 373.054C161.261 376.811 144.794 374.899 138.871 373.867C139.904 377.861 141.765 381.448 144.304 383.953C150.734 386.407 159.179 386.136 164.442 384.139Z" fill="#11070B"/>
<path opacity="0.75" d="M165.796 400.843C165.796 400.843 157.402 408.136 150.633 405.903C151.141 409.27 151.564 412.79 151.868 416.327C157.656 415.752 166.202 407.307 165.796 400.843Z" fill="#11070B"/>
<path opacity="0.75" d="M239.615 31.2572C236.62 27.5849 232.068 24.5049 224.96 22.6941C221.643 23.5233 219.104 24.5049 217.09 25.571C210.423 30.3941 205.346 38.128 202.943 48.265C205.024 49.2296 206.987 50.3466 208.849 51.582C213.232 41.4957 229.157 33.8972 239.615 31.2572Z" fill="#11070B"/>
<path opacity="0.75" d="M189.946 13.5213C189.776 13.4875 189.607 13.4536 189.438 13.4367C184.733 13.0306 179.03 14.3167 174.529 15.7044C178.912 21.2383 183.447 31.2907 182.838 43.9661C186.409 43.9492 189.827 44.3046 193.076 44.9984C194.38 32.9999 195.243 20.9845 189.946 13.5213Z" fill="#11070B"/>
<path d="M292.077 429.68C287.592 431.22 284.834 442.795 286.899 447.398C290.503 451.274 304.905 447.821 307.122 444.217C309.339 440.612 307.257 432.997 307.257 432.997C301.859 433.318 294.108 432.015 292.077 429.68Z" fill="#49373D"/>
<path d="M213.587 417.292C208.866 417.647 202.418 426.481 203.264 431.456C205.769 436.127 221.406 438.09 224.469 435.163C227.532 432.235 227.447 424.332 227.447 424.332C222.134 423.299 214.941 420.067 213.587 417.292Z" fill="#49373D"/>
<path d="M149.956 443.269C145.15 444.978 141.021 455.995 143.305 460.903C147.232 465.032 164.019 462.578 166.355 458.669C168.69 454.76 166.338 446.603 166.338 446.603C160.55 447.043 152.173 445.757 149.956 443.269Z" fill="#49373D"/>
<path d="M48.9755 364.694C45.3877 368.333 46.4539 380.128 50.6678 383.631C56.0155 385.679 69.2494 376.202 69.6556 371.65C70.0617 367.081 65.2048 360.667 65.2048 360.667C60.1617 363.561 52.0555 365.998 48.9755 364.694Z" fill="#49373D"/>
<path d="M183.87 108.325C181.518 108.951 179.25 103.824 179.166 98.7806C179.606 100.879 182.973 105.482 187.898 103.874C183.65 103.773 183.616 99.2037 183.819 95.0067C184.479 97.9513 188.135 101.268 191.723 100.608" fill="black"/>
<path d="M254.745 118.361C256.758 119.714 261.412 115.602 263.121 110.847C262.021 112.674 257.334 115.958 253.204 112.844C254.998 113.419 257.74 110.982 260.177 107.614C258.688 108.85 254.592 110.576 251.411 108.782" fill="black"/>
<path d="M309.508 230.155C303.365 217.971 304.008 198.814 312.503 196.614C321.862 194.194 323.402 215.077 316.548 231.069" fill="#EA530C"/>
<path d="M302.603 237.415C302.366 237.415 302.146 237.263 302.079 237.026C301.723 235.842 301.825 234.742 302.383 233.777C303.534 231.78 306.242 231.103 306.343 231.086C306.631 231.018 306.936 231.188 307.003 231.492C307.071 231.78 306.902 232.085 306.597 232.152C306.58 232.152 304.228 232.745 303.314 234.335C302.908 235.029 302.84 235.808 303.111 236.722C303.196 237.009 303.026 237.314 302.739 237.398C302.705 237.415 302.654 237.415 302.603 237.415Z" fill="#512100"/>
<path d="M303.466 225.264C302.315 230.629 311.302 245.369 328.462 238.329C327.48 234.437 318.613 233.269 313.688 229.952C308.78 226.635 306.969 221.677 306.969 221.677" fill="#F27777"/>
<path d="M313.112 229.022C312.165 225.095 312.876 199.677 326.346 200.76C339.242 201.792 336.619 221.643 336.619 221.643C336.619 221.643 350.699 216.025 352.053 227.262C353.407 238.499 330.814 239.565 325.077 238.042C318.342 236.028 314.009 232.728 313.112 229.022Z" fill="#FF6600"/>
<path d="M307.257 239.531C307.003 239.531 306.783 239.362 306.716 239.108C306.648 238.803 306.834 238.515 307.139 238.448C308.662 238.109 309.677 237.365 310.016 236.332C310.354 235.334 310.016 234.149 309.085 233.066C308.882 232.829 308.916 232.491 309.152 232.288C309.389 232.085 309.728 232.118 309.931 232.355C311.116 233.726 311.522 235.3 311.065 236.688C310.591 238.092 309.288 239.108 307.376 239.531C307.325 239.531 307.291 239.531 307.257 239.531Z" fill="#512100"/>
<path d="M314.111 243.102C313.891 243.102 313.688 242.983 313.603 242.763C313.485 242.475 313.62 242.154 313.891 242.035C314.636 241.714 315.177 241.105 315.38 240.326C315.617 239.345 315.296 238.245 314.449 237.212C314.263 236.975 314.297 236.637 314.534 236.434C314.771 236.248 315.109 236.281 315.313 236.518C316.379 237.838 316.785 239.277 316.463 240.597C316.193 241.697 315.414 242.594 314.331 243.051C314.246 243.085 314.179 243.102 314.111 243.102Z" fill="#512100"/>
<path d="M301.131 218.191C301.029 218.191 300.928 218.157 300.843 218.106C300.589 217.954 300.505 217.615 300.657 217.344C302.739 213.977 301.656 209.814 299.676 207.19C298.237 205.295 296.477 204.364 295.072 204.77C294.277 204.99 293.735 205.786 293.702 206.784C293.668 207.732 294.125 208.917 295.479 209.407C296.392 209.729 297.272 209.594 297.848 209.001C298.203 208.629 298.355 208.138 298.22 207.817C298.068 207.41 297.509 207.326 297.205 207.309C296.9 207.292 296.663 207.038 296.68 206.734C296.697 206.429 296.951 206.209 297.255 206.209C298.592 206.277 299.066 206.987 299.235 207.394C299.523 208.138 299.286 209.069 298.626 209.746C297.746 210.643 296.443 210.897 295.106 210.423C293.532 209.864 292.551 208.409 292.602 206.734C292.652 205.244 293.499 204.06 294.768 203.704C296.612 203.18 298.829 204.263 300.539 206.53C302.756 209.458 303.94 214.112 301.588 217.937C301.503 218.106 301.317 218.191 301.131 218.191Z" fill="#512100"/>
<path d="M305.599 219.07C305.362 219.07 305.142 218.918 305.074 218.681C304.989 218.394 305.142 218.089 305.429 217.987C308.239 217.107 310.388 211.709 310.185 207.901C310.117 206.547 309.66 204.229 307.528 203.823C306.343 203.586 305.463 204.33 305.006 205.075C304.482 205.972 304.262 207.461 305.345 208.73C305.886 209.357 306.462 209.593 307.037 209.424C307.663 209.238 308.188 208.578 308.289 207.867C308.34 207.478 308.306 206.75 307.477 206.226C307.223 206.057 307.139 205.718 307.308 205.464C307.477 205.21 307.816 205.126 308.069 205.295C309.068 205.921 309.542 206.903 309.389 208.02C309.237 209.17 308.391 210.169 307.359 210.473C306.377 210.761 305.328 210.389 304.516 209.441C303.314 208.037 303.128 206.107 304.059 204.517C304.854 203.129 306.276 202.452 307.731 202.723C309.863 203.129 311.116 204.94 311.285 207.817C311.522 212.115 309.169 217.954 305.768 219.003C305.717 219.054 305.649 219.07 305.599 219.07Z" fill="#512100"/>
<path d="M322.183 233.607C314.889 229.85 319.171 211.455 327.717 213.232C336.247 215.009 329.477 237.364 322.183 233.607Z" fill="#FFB636"/>
<path d="M327.379 234.369C328.885 228.937 340.46 225.027 341.51 231.932C342.576 238.82 325.923 239.615 327.379 234.369Z" fill="#FFB636"/>
<path d="M304.397 217.564C298.237 215.483 289.911 225.146 300.589 229.411C310.472 233.371 312.74 220.391 304.397 217.564Z" fill="#FC8986"/>
<path d="M303.382 217.97C299.523 216.447 293.075 223.504 299.202 226.77C305.311 230.037 309.863 220.526 303.382 217.97Z" fill="#FFA89C"/>
<path d="M299.1 220.221C298.44 220.154 296.629 221.863 298.085 222.591C299.709 223.386 300.065 220.323 299.1 220.221Z" fill="#512100"/>
<path d="M304.38 222.286C303.839 222.37 301.825 224.317 303.619 224.858C305.429 225.366 305.379 222.133 304.38 222.286Z" fill="#512100"/>
<path d="M300.708 226.652C300.116 226.652 299.54 226.449 299.1 226.178C298.22 225.637 297.729 224.807 297.848 224.046C297.865 223.911 298 223.809 298.135 223.843C298.271 223.86 298.372 223.995 298.339 224.131C298.254 224.672 298.66 225.332 299.354 225.755C300.014 226.161 301.012 226.381 301.808 225.789C301.909 225.704 302.079 225.721 302.163 225.84C302.248 225.958 302.214 226.111 302.112 226.195C301.672 226.517 301.182 226.652 300.708 226.652Z" fill="#D64343"/>
<path d="M327.633 204.567C324.231 203.924 322.928 212.234 327.294 212.217C330.628 212.217 331.694 205.346 327.633 204.567Z" fill="#FFB636"/>
<path d="M320.22 209.847C318.9 209.847 317.953 213.638 320.22 213.757C322.471 213.858 321.405 209.847 320.22 209.847Z" fill="#FFB636"/>
<path d="M350.987 228.226C350.648 224.604 344.539 225.772 343.794 230.155C343.033 234.538 351.325 231.881 350.987 228.226Z" fill="#FFB636"/>
<path d="M343.287 223.572C341.763 222.658 339.276 225.163 340.951 226.077C342.61 227.007 345.385 224.841 343.287 223.572Z" fill="#FFB636"/>
<path d="M106.193 460.006C92.0111 450.089 56.0155 442.084 56.3708 469.872C61.1093 459.803 105.11 463.796 105.11 463.796C83.9218 467.249 60.2632 471.666 69.6725 496.983C82.1618 497.727 99.8465 468.941 108.139 464.372" fill="#C0EA3B"/>
<path d="M115.602 461.377C128.954 461.817 134.691 474.678 130.884 477.183C125.096 481.007 118.767 465.54 112.522 464.66C119.257 470.092 120.594 483.461 110.542 481.735C100.473 480.009 108.071 464.541 108.071 464.541C102.96 467.638 96.9864 477.809 89.7602 473.9C83.6679 470.6 86.7479 461.664 107.326 461.529C98.2726 458.178 80.3509 460.886 83.194 454.861C86.0371 448.82 98.9157 449.293 109.086 459.295C106.836 448.397 120.273 448.65 124.013 454.76C125.84 457.755 116.33 459.498 115.602 461.377Z" fill="#FFFF94"/>
<path d="M111.896 459.701C108.63 458.195 106.007 461.512 110.423 463.475C114.823 465.455 115.23 461.241 111.896 459.701Z" fill="#FF7C24"/>
<path d="M126.297 436.195C123.15 436.195 123.15 440.629 126.297 440.629C129.445 440.612 129.445 436.195 126.297 436.195Z" fill="#FFFF94"/>
<path d="M99.9819 434.993C93.8557 434.993 93.8557 443.624 99.9819 443.624C106.108 443.624 106.108 434.993 99.9819 434.993Z" fill="#FFFF94"/>
<path d="M96.7327 404.21C90.0311 405.581 82.9064 394.885 82.9064 394.885C91.4188 391.687 99.0004 395.545 98.6788 402.873C99.4065 390.181 109.814 387.101 114.4 387.219C117.108 396.73 107.868 404.819 100.523 403.821" fill="#94C437"/>
<path d="M264.035 470.735C245.927 468.247 260.075 441.949 268.503 468.704C274.629 443.37 293.837 454.472 278.961 468.704" fill="#94C437"/>
<path d="M235.486 490.789C202.232 478.385 226.297 459.989 233.252 485.458C223.724 456.655 250.886 458.923 239.344 484.748C257.875 472.005 257.131 492.245 238.16 490.789" fill="#ADDD3A"/>
<path d="M337.499 471.7C337.177 459.244 354.05 439.952 364 446.027C343.489 429.375 329.308 454.032 331.203 470.752C332.303 458.686 322.505 437.346 306.191 444.826C289.877 452.306 325.229 462.104 326.854 473.155C315.16 467.638 293.397 463.391 290.148 483.817C294.768 480.5 320.457 481.989 329.849 472.749" fill="#C0EA3B"/>
<path d="M326.854 473.155C311.759 473.274 304.837 487.591 309.051 490.536C315.431 495.02 323.182 476.286 330.256 475.457C322.454 481.397 320.474 496.442 331.897 494.783C343.32 493.142 335.299 475.457 335.299 475.457C342.711 479.079 349.836 488.573 356.91 485.188C363.984 481.803 358.805 473.646 336.23 472.072C346.57 468.552 366.691 472.157 363.696 465.252C360.7 458.348 346.146 458.5 334.317 469.5C336.229 461.563 321.252 466.589 319.086 469.923C316.937 473.257 326.109 471.006 326.854 473.155Z" fill="#FFFF94"/>
<path d="M330.949 470.295C326.516 471.548 326.719 476.963 332.659 475.203C338.582 473.46 335.468 469.009 330.949 470.295Z" fill="#FF7C24"/>
<path d="M335.231 450.258C328.648 450.258 328.648 459.549 335.231 459.549C341.831 459.549 341.831 450.258 335.231 450.258Z" fill="#FFFF94"/>
<path d="M330.763 425.06C326.803 425.06 326.803 430.627 330.763 430.627C334.706 430.644 334.706 425.06 330.763 425.06Z" fill="#FFFF94"/>
<path d="M311.369 461.952C308.729 461.952 308.729 465.675 311.369 465.675C314.009 465.675 314.009 461.952 311.369 461.952Z" fill="#FFFF94"/>
</g>
<defs>
<clipPath id="clip0_810_1370">
<rect width="395.326" height="497" fill="white"/>
</clipPath>
</defs>
</svg>
