<svg width="217" height="257" viewBox="0 0 217 257" fill="none" xmlns="http://www.w3.org/2000/svg">
<path d="M133.346 230.271L137.211 231.014C137.211 231.014 140.63 224.622 139.887 218.824C138.995 213.027 127.697 225.365 127.697 225.365L133.346 230.271Z" fill="#0D2F55"/>
<path d="M137.211 231.46L133.198 230.717C133.198 230.717 133.049 230.717 133.049 230.568L127.4 225.662C127.4 225.662 127.251 225.514 127.251 225.365C127.251 225.216 127.251 225.216 127.4 225.068C127.697 224.77 134.981 216.743 138.401 216.743C139.144 216.743 140.036 217.04 140.184 218.675C141.076 224.473 137.657 230.865 137.509 231.163C137.509 231.311 137.36 231.46 137.211 231.46ZM133.495 229.973L137.063 230.717C137.657 229.527 140.333 224.027 139.59 218.973C139.441 217.932 138.995 217.784 138.549 217.784C136.171 217.784 130.67 223.135 128.44 225.514L133.495 229.973Z" fill="#5A2800"/>
<path d="M130.522 228.338C130.522 228.338 149.55 216.743 149.401 216.148C149.253 215.554 160.253 233.095 172.295 240.974L181.809 235.325C181.809 235.325 175.862 217.04 169.619 201.877C163.375 186.714 158.023 182.106 147.171 184.336C136.468 186.417 122.048 204.553 121.454 204.553C121.008 204.404 121.008 220.46 130.522 228.338Z" fill="#FFC390"/>
<path d="M172.295 241.272H172.146C165.456 236.812 158.023 228.784 149.996 217.486C149.847 217.189 149.55 216.892 149.401 216.743C148.361 217.635 144.347 220.311 130.67 228.636C130.522 228.784 130.373 228.636 130.224 228.636C121.008 221.054 120.562 205.891 121.008 204.404C121.008 204.256 121.156 204.107 121.305 204.107C121.454 203.958 122.197 203.215 123.089 202.323C127.251 197.715 138.401 185.673 147.171 183.89C148.807 183.592 150.442 183.444 151.78 183.444C159.51 183.444 164.416 188.349 169.916 201.729C176.16 216.743 181.957 235.028 182.106 235.177C182.106 235.325 182.106 235.474 181.957 235.623L172.443 241.272C172.443 241.272 172.443 241.272 172.295 241.272ZM149.55 215.851C149.699 215.851 149.699 215.851 150.59 217.04C158.469 228.19 165.754 236.217 172.295 240.528L181.363 235.028C180.619 232.649 175.119 215.851 169.321 201.877C163.97 188.647 159.361 184.038 151.78 184.038C150.442 184.038 148.955 184.187 147.32 184.484C138.847 186.119 127.846 198.161 123.683 202.62C122.494 203.958 122.048 204.404 121.751 204.553C121.305 206.188 121.9 220.459 130.522 227.744C137.657 223.433 148.212 216.743 149.104 215.851V215.702C149.253 215.851 149.401 215.851 149.55 215.851Z" fill="#5A2800"/>
<path d="M169.619 226.108C167.092 227.744 164.416 229.973 162.632 232.798C165.605 235.92 168.875 238.893 172.146 241.123L181.66 235.474C181.66 235.474 179.876 230.122 177.349 222.838C174.822 223.284 171.997 224.622 169.619 226.108Z" fill="#1486C9"/>
<path d="M172.295 241.271H172.146C169.173 239.339 165.902 236.514 162.483 232.947C162.334 232.798 162.334 232.649 162.483 232.501C163.97 230.122 166.348 227.892 169.619 225.811C171.551 224.622 174.524 222.986 177.646 222.392C177.795 222.392 177.944 222.392 178.092 222.689C180.619 229.825 182.403 235.176 182.403 235.325C182.403 235.474 182.403 235.622 182.255 235.771L172.741 241.42C172.443 241.271 172.443 241.271 172.295 241.271ZM163.226 232.649C166.348 235.92 169.47 238.596 172.295 240.528L181.363 235.028C180.917 233.839 179.43 229.081 177.349 222.986C174.376 223.581 171.7 225.068 169.916 226.257C166.943 228.338 164.564 230.419 163.226 232.649Z" fill="#5A2800"/>
<path d="M129.332 210.351C128.292 206.188 127.846 201.58 128.589 197.12C124.724 201.134 121.9 204.404 121.602 204.404C121.008 204.404 121.008 220.459 130.522 228.338C130.522 228.338 133.495 226.554 136.914 224.325C133.198 220.608 130.67 215.405 129.332 210.351Z" fill="#FFC390"/>
<path d="M168.429 204.107C171.997 212.135 174.97 220.311 177.795 228.784C178.687 231.311 179.579 233.839 180.471 236.217L181.957 235.325C181.957 235.325 176.011 217.04 169.767 201.877C163.97 187.903 158.915 182.998 149.847 183.89C158.618 185.525 164.862 195.931 168.429 204.107Z" fill="#FFC390"/>
<path d="M149.55 216.594C149.401 216.594 149.253 216.594 149.253 216.446C144.05 209.459 143.604 203.215 143.604 202.918C143.604 202.769 143.752 202.472 143.901 202.472C144.05 202.472 144.347 202.621 144.347 202.769C144.347 202.769 144.793 209.013 149.847 215.851C149.996 216 149.996 216.297 149.699 216.297C149.699 216.446 149.55 216.594 149.55 216.594Z" fill="#5A2800"/>
<path d="M194.445 250.489C201.729 248.853 212.73 243.799 215.257 239.488C215.108 239.191 214.959 239.042 214.959 239.042C210.351 230.42 195.337 235.92 195.337 235.92L187.16 250.786C188.647 251.232 190.877 251.232 194.445 250.489Z" fill="#AE64A5"/>
<path d="M189.539 251.529C188.647 251.529 187.904 251.38 187.16 251.232C187.012 251.232 187.012 251.083 186.863 251.083C186.863 250.934 186.863 250.934 186.863 250.786L195.039 235.92C195.039 235.771 195.188 235.771 195.188 235.771C195.337 235.771 199.945 233.987 204.851 233.987C209.905 233.987 213.324 235.771 215.108 239.042C215.108 239.042 215.257 239.19 215.405 239.488C215.405 239.636 215.405 239.785 215.405 239.785C212.878 244.096 202.026 249.299 194.296 250.934C192.661 251.232 191.026 251.529 189.539 251.529ZM187.904 250.637C189.539 250.934 191.769 250.786 194.445 250.191C201.729 248.704 212.284 243.65 214.959 239.636C214.959 239.488 214.811 239.488 214.811 239.488C213.176 236.366 209.905 234.731 205.148 234.731C200.837 234.731 196.526 236.069 195.783 236.366L187.904 250.637Z" fill="#5A2800"/>
<path d="M215.108 239.042C212.878 235.028 208.567 233.987 204.405 234.136C202.026 235.771 200.242 238.001 199.202 240.677C198.161 243.501 198.458 246.028 199.202 248.853V249.002C205.743 246.772 213.176 242.758 215.108 239.488C215.108 239.19 215.108 239.042 215.108 239.042Z" fill="#FEF5A1"/>
<path d="M199.35 249.448H199.202C199.053 249.448 199.053 249.299 199.053 249.15C198.31 246.623 197.864 243.947 199.053 240.677C199.945 238.001 201.878 235.623 204.405 233.987H204.553C204.702 233.987 204.999 233.987 205.148 233.987C210.202 233.987 213.622 235.771 215.405 239.042C215.405 239.042 215.554 239.19 215.703 239.488C215.703 239.636 215.703 239.785 215.703 239.785C213.473 243.353 205.743 247.367 199.35 249.448ZM204.553 234.582C202.175 236.217 200.391 238.447 199.648 240.826C198.607 243.65 198.904 246.029 199.648 248.556C205.743 246.326 212.878 242.609 214.959 239.488C214.959 239.339 214.811 239.339 214.811 239.339C213.176 236.217 209.905 234.582 205.148 234.582C204.851 234.582 204.702 234.582 204.553 234.582Z" fill="#5A2800"/>
<path d="M194.445 250.488C190.728 251.232 188.647 251.232 187.309 250.786L185.377 254.205C199.35 254.8 213.473 245.583 214.959 243.502C216.149 242.015 215.554 240.231 215.257 239.339C212.73 243.799 201.729 248.853 194.445 250.488Z" fill="#FEF5A1"/>
<path d="M186.714 254.651C186.268 254.651 185.823 254.651 185.377 254.651C185.228 254.651 185.079 254.651 185.079 254.502C185.079 254.354 185.079 254.205 185.079 254.205L187.012 250.786C187.16 250.637 187.309 250.637 187.458 250.637C189.093 251.083 191.472 250.934 194.445 250.34C201.878 248.705 212.581 243.65 214.959 239.488C214.959 239.339 215.108 239.339 215.257 239.339C215.405 239.339 215.554 239.488 215.554 239.488C215.851 240.231 216.595 242.164 215.257 243.948C213.77 245.88 200.242 254.651 186.714 254.651ZM185.971 253.908C186.268 253.908 186.417 253.908 186.714 253.908C199.945 253.908 213.176 245.434 214.662 243.353C215.405 242.312 215.405 241.123 215.108 240.231C211.986 244.393 201.729 249.151 194.445 250.786C191.472 251.38 189.093 251.529 187.309 251.232L185.971 253.908Z" fill="#5A2800"/>
<path d="M125.319 198.309C125.319 198.309 119.67 213.026 137.211 230.419C137.211 230.419 119.224 239.785 109.71 238.298C100.195 236.663 91.7219 221.5 91.7219 221.5C91.7219 221.5 123.832 198.755 125.319 198.309Z" fill="#28588F"/>
<path d="M112.088 238.893C111.196 238.893 110.453 238.893 109.71 238.744C100.047 237.109 91.8706 222.392 91.4247 221.649C91.276 221.5 91.4247 221.352 91.5733 221.203C94.8438 218.824 123.832 198.31 125.467 198.012C125.616 198.012 125.765 198.012 125.765 198.161C125.913 198.31 125.913 198.458 125.765 198.607C125.765 198.756 120.413 213.324 137.509 230.271C137.657 230.42 137.657 230.42 137.657 230.568C137.657 230.717 137.509 230.717 137.509 230.866C136.765 231.163 121.9 238.893 112.088 238.893ZM92.168 221.649C93.3572 223.73 101.236 236.663 109.71 238.001C110.453 238.15 111.196 238.15 112.088 238.15C120.859 238.15 134.09 231.758 136.617 230.42C127.846 221.5 125.17 213.324 124.427 207.972C123.832 203.661 124.427 200.539 124.873 199.201C121.008 201.283 103.912 213.324 92.168 221.649Z" fill="#5A2800"/>
<path d="M116.548 204.107C116.548 205.297 116.548 206.486 116.548 207.526C116.697 212.729 118.183 217.784 120.413 222.392C122.643 226.852 125.467 230.866 128.886 234.285C133.644 232.352 137.063 230.568 137.063 230.568C119.67 213.175 125.17 198.458 125.17 198.458C124.873 198.458 121.305 200.837 116.548 204.107Z" fill="#006E9D"/>
<path d="M129.035 234.582C128.886 234.582 128.886 234.582 128.738 234.433C125.467 231.312 122.494 227.298 120.116 222.541C117.737 217.784 116.399 212.729 116.102 207.526C116.102 206.486 115.953 205.296 116.102 204.107C116.102 203.959 116.102 203.81 116.251 203.81C124.575 198.161 125.021 198.012 125.17 198.012C125.319 198.012 125.467 198.012 125.467 198.161C125.616 198.31 125.616 198.458 125.467 198.607C125.467 198.756 120.116 213.324 137.211 230.271C137.36 230.42 137.36 230.42 137.36 230.568C137.36 230.717 137.211 230.717 137.211 230.866C137.36 230.866 133.792 232.65 129.035 234.582C129.184 234.582 129.184 234.582 129.035 234.582ZM116.845 204.405C116.845 205.594 116.845 206.634 116.845 207.675C116.994 212.729 118.332 217.635 120.71 222.392C123.089 227.001 125.913 230.866 129.035 233.987C132.603 232.501 135.427 231.163 136.468 230.568C127.697 221.649 125.021 213.473 124.278 208.121C123.683 203.81 124.278 200.688 124.724 199.35C123.832 199.647 121.602 201.134 116.845 204.405Z" fill="#5A2800"/>
<path d="M93.6546 230.568C99.0063 223.581 104.804 220.311 109.264 218.676L104.655 217.338L101.533 211.837L29.8803 214.959C29.8803 214.959 25.1233 254.651 85.627 256.286C85.627 250.488 86.6676 239.785 93.6546 230.568Z" fill="#28588F"/>
<path d="M85.627 256.583C63.3283 255.989 47.2732 250.191 38.0564 239.339C28.245 227.892 29.5829 214.959 29.5829 214.81C29.5829 214.662 29.7316 214.513 29.8802 214.513L101.385 211.391C101.533 211.391 101.682 211.391 101.682 211.54L104.655 216.892L109.115 218.23C109.264 218.23 109.412 218.378 109.412 218.527C109.412 218.676 109.264 218.824 109.115 218.824C105.101 220.311 99.1548 223.581 93.8031 230.717C86.8162 239.785 85.7756 250.488 85.7756 256.137C85.7756 256.286 85.7756 256.286 85.627 256.435C85.7756 256.583 85.7756 256.583 85.627 256.583ZM30.3262 215.256C30.1776 217.338 29.7316 228.784 38.6511 238.893C47.8678 249.448 63.4769 255.097 85.3296 255.84C85.3296 250.042 86.5189 239.488 93.5058 230.271C98.5602 223.73 104.209 220.311 108.223 218.676L104.655 217.635C104.507 217.635 104.507 217.486 104.507 217.486L101.533 212.135L30.3262 215.256Z" fill="#5A2800"/>
<path d="M48.9085 221.946C57.6793 221.5 66.5988 220.757 75.3696 219.419C84.4377 217.932 93.5059 215.703 102.128 212.729L101.533 211.689L29.8803 214.959C29.8803 214.959 29.583 217.189 30.0289 220.757C36.1239 222.392 42.8135 222.243 48.9085 221.946Z" fill="#28588F"/>
<path d="M93.6545 230.568C86.6676 239.785 85.627 250.488 85.627 256.286C88.1542 256.286 90.83 256.286 93.6545 256.286C93.6545 256.286 98.2629 224.176 119.075 221.5L109.115 218.676C104.804 220.311 99.0062 223.581 93.6545 230.568Z" fill="#006E9D"/>
<path d="M89.6407 256.583C88.3028 256.583 86.9649 256.583 85.627 256.583C85.4783 256.583 85.3297 256.435 85.3297 256.286C85.3297 250.637 86.3703 239.636 93.5058 230.419C99.0062 223.284 105.101 219.865 109.264 218.378C109.264 218.378 109.412 218.378 109.561 218.378L119.521 221.203C119.67 221.203 119.818 221.351 119.818 221.649C119.818 221.797 119.67 221.946 119.521 221.946C99.1548 224.473 94.3978 255.989 94.3978 256.286C94.3978 256.435 94.2491 256.583 94.1005 256.583C92.3166 256.583 90.9787 256.583 89.6407 256.583ZM85.9243 255.84C88.4515 255.84 90.83 255.84 93.3572 255.84C93.9518 252.57 99.0062 225.216 117.44 221.351L109.115 218.973C105.101 220.459 99.1548 223.73 93.8032 230.717C87.1135 239.636 86.0729 250.191 85.9243 255.84Z" fill="#5A2800"/>
<path d="M93.6545 256.286C93.6545 256.286 114.764 246.475 119.075 221.5C98.4116 224.027 93.6545 256.286 93.6545 256.286Z" fill="#0D2F55"/>
<path d="M93.6546 256.583C93.5059 256.583 93.5059 256.583 93.5059 256.583C93.3572 256.435 93.3572 256.435 93.3572 256.286C93.3572 255.989 98.2629 223.879 119.075 221.203C119.224 221.203 119.372 221.203 119.372 221.352C119.521 221.5 119.521 221.5 119.521 221.649C115.061 246.475 94.1005 256.583 93.8032 256.583C93.8032 256.583 93.8032 256.583 93.6546 256.583ZM118.778 221.946C100.641 224.622 95.1411 250.934 94.2492 255.543C97.6683 253.759 114.615 243.65 118.778 221.946Z" fill="#5A2800"/>
<path d="M119.224 221.5C119.224 221.5 156.388 226.703 174.078 238.744L171.7 251.677C171.7 251.677 163.375 250.637 154.01 250.339C144.644 250.042 96.033 246.474 96.033 246.474C96.033 246.474 99.8981 232.798 108.223 226.257C108.223 226.405 111.642 223.432 119.224 221.5Z" fill="#FFC390"/>
<path d="M171.551 252.123C171.403 252.123 163.078 251.083 153.861 250.786C144.644 250.488 96.479 247.069 95.8843 246.92C95.7357 246.92 95.7357 246.92 95.587 246.772C95.587 246.623 95.4383 246.623 95.587 246.474C95.587 246.326 99.6008 232.501 107.777 226.108C107.926 225.96 111.345 223.135 118.926 221.203H119.075C119.521 221.203 156.537 226.554 174.078 238.447C174.227 238.596 174.227 238.744 174.227 238.893L171.849 251.826C171.849 251.975 171.7 252.123 171.551 252.123ZM96.479 246.326C101.533 246.623 145.239 249.894 153.861 250.042C162.037 250.191 169.47 251.083 171.254 251.38L173.632 238.893C156.388 227.446 121.008 222.095 119.224 221.946C111.939 223.878 108.52 226.703 108.372 226.703C101.236 232.352 97.2223 243.947 96.479 246.326Z" fill="#5A2800"/>
<path d="M160.402 231.906C154.456 235.474 152.672 243.204 153.118 250.34C152.523 250.34 172.443 252.272 172.443 252.272L175.714 236.217C169.619 234.285 167.538 233.987 160.402 231.906Z" fill="#1486C9"/>
<path d="M172.295 252.57C172.295 252.57 167.389 252.124 162.632 251.678C160.253 251.38 157.875 251.232 155.942 251.083C154.307 250.934 153.564 250.786 153.118 250.786H152.969C152.523 250.637 152.523 250.637 152.672 250.488C152.226 241.866 154.902 234.879 160.253 231.758C160.402 231.758 160.402 231.758 160.551 231.758C163.821 232.65 166.051 233.244 167.983 233.839C170.362 234.433 172.443 235.028 175.862 236.069C176.011 236.069 176.16 236.366 176.16 236.515L172.889 252.57C172.592 252.421 172.443 252.57 172.295 252.57ZM153.415 250.043C155.348 250.191 166.051 251.232 171.997 251.826L175.119 236.366C171.997 235.325 169.916 234.879 167.686 234.285C165.754 233.839 163.524 233.244 160.402 232.352C155.496 235.325 152.969 241.866 153.415 250.043Z" fill="#5A2800"/>
<path d="M123.237 222.095C120.71 221.649 119.224 221.5 119.224 221.5C111.642 223.433 108.223 226.406 108.223 226.406C100.047 232.947 96.0331 246.623 96.0331 246.623C96.0331 246.623 97.9656 246.772 101.087 246.921C102.723 235.623 112.088 224.622 123.237 222.095Z" fill="#FFC390"/>
<path d="M175.268 231.609C175.268 231.609 170.659 231.312 170.808 235.325C170.957 238.15 171.403 238.744 170.511 243.799C169.619 248.853 166.497 251.529 168.281 253.61C170.065 255.691 181.065 256.137 185.228 255.84C185.228 255.84 187.606 255.84 189.242 253.313C190.877 250.786 197.566 232.501 198.607 223.879C199.648 215.257 199.202 210.648 191.323 212.729C184.187 214.662 176.457 224.622 175.268 231.609Z" fill="#AE64A5"/>
<path d="M182.403 256.137C177.795 256.137 169.767 255.543 168.132 253.61C166.943 252.272 167.686 250.637 168.578 248.556C169.173 247.218 169.916 245.434 170.362 243.501C171.105 239.488 170.957 238.447 170.808 236.663C170.808 236.217 170.659 235.771 170.659 235.177C170.659 233.987 170.957 233.095 171.551 232.352C172.592 231.163 174.376 231.014 175.119 231.014C176.457 224.027 184.039 214.216 191.323 212.135C194.593 211.243 196.823 211.54 198.012 212.878C199.648 214.81 199.648 218.378 198.904 223.581C197.864 232.055 191.174 250.34 189.39 253.164C187.755 255.84 185.376 255.84 185.079 255.84C184.485 256.137 183.444 256.137 182.403 256.137ZM175.119 231.906C174.673 231.906 172.889 232.055 171.997 232.947C171.551 233.541 171.254 234.285 171.254 235.177C171.254 235.771 171.403 236.217 171.403 236.663C171.551 238.447 171.7 239.636 170.957 243.65C170.511 245.731 169.767 247.515 169.173 249.002C168.281 251.083 167.835 252.272 168.578 253.164C169.767 254.651 176.606 255.394 182.255 255.394C183.295 255.394 184.336 255.394 185.079 255.245C185.228 255.245 187.309 255.245 188.796 252.867C190.282 250.488 197.12 232.352 198.161 223.581C198.756 218.676 198.904 215.108 197.418 213.473C196.377 212.283 194.445 212.135 191.471 212.878C184.336 214.81 176.754 224.771 175.714 231.46C175.714 231.609 175.565 231.757 175.268 231.757C175.268 231.906 175.268 231.906 175.119 231.906Z" fill="#5A2800"/>
<path d="M178.984 222.986C178.836 225.365 179.43 227.892 181.065 230.122C183.147 233.244 186.268 234.582 189.836 235.771C191.471 236.366 193.404 236.96 195.188 237.258C196.823 232.352 198.161 227.298 198.607 223.73C199.648 215.108 199.202 210.499 191.323 212.58C186.863 213.918 182.255 218.229 178.984 222.986Z" fill="#FEF5A1"/>
<path d="M195.337 237.704C195.188 237.704 195.188 237.704 195.337 237.704C193.404 237.407 191.472 236.812 189.836 236.217C186.566 235.177 183.295 233.69 180.917 230.42C179.282 228.19 178.538 225.663 178.687 222.987V222.838C182.255 217.486 187.012 213.473 191.323 212.432C194.593 211.54 196.823 211.837 198.012 213.175C199.648 215.108 199.648 218.676 198.904 223.879C198.458 227.744 196.823 233.393 195.485 237.407C195.634 237.555 195.485 237.704 195.337 237.704ZM179.43 223.135C179.282 225.514 180.025 227.892 181.511 229.974C183.741 233.095 186.863 234.433 189.985 235.474C191.62 236.069 193.255 236.515 195.039 236.961C196.229 232.947 197.864 227.595 198.31 223.879C198.904 218.973 199.053 215.405 197.566 213.77C196.526 212.581 194.593 212.432 191.62 213.175C187.458 214.216 182.849 217.932 179.43 223.135Z" fill="#5A2800"/>
<path d="M182.849 253.759C181.957 251.678 185.674 228.19 190.282 219.568C193.255 213.919 195.783 212.878 197.12 212.878C196.229 212.283 194.891 211.986 193.107 212.283C190.728 214.067 188.796 216.743 187.458 219.27C185.376 223.284 180.619 242.164 180.471 247.218C180.322 249.745 180.173 253.462 181.511 255.84C182.998 255.84 184.187 255.84 185.079 255.692C185.079 255.692 186.566 255.692 188.052 254.354C185.079 256.137 183.741 255.84 182.849 253.759Z" fill="#FEF5A1"/>
<path d="M182.403 256.138C182.106 256.138 181.957 256.138 181.66 256.138C181.511 256.138 181.363 256.137 181.363 255.989C179.876 253.313 180.173 249.448 180.173 247.069C180.471 242.164 185.079 223.135 187.309 218.973C189.093 215.703 191.025 213.324 192.958 211.986H193.107C194.891 211.689 196.377 211.837 197.418 212.581C197.566 212.729 197.566 212.878 197.566 213.027C197.566 213.175 197.418 213.324 197.269 213.324C196.08 213.324 193.701 214.216 190.728 219.865C186.12 228.636 182.403 251.826 183.295 253.759C183.741 254.948 184.336 255.394 185.228 255.394C185.971 255.394 186.863 255.097 188.201 254.354C188.35 254.205 188.498 254.354 188.647 254.502C188.796 254.651 188.796 254.8 188.647 254.948C187.16 256.286 185.674 256.286 185.525 256.286C184.485 256.137 183.444 256.138 182.403 256.138ZM181.809 255.394C182.403 255.394 182.998 255.394 183.593 255.394C182.998 254.948 182.701 254.354 182.552 253.759C181.511 251.38 185.674 227.595 190.134 219.27C192.512 214.811 194.593 213.175 196.08 212.581C195.337 212.432 194.445 212.432 193.404 212.581C191.471 213.919 189.688 216.149 188.052 219.27C185.822 223.284 181.363 242.164 181.065 247.069C180.768 249.299 180.619 253.016 181.809 255.394Z" fill="#5A2800"/>
<path d="M197.12 212.878C195.783 212.878 193.255 213.919 190.282 219.568C185.674 228.19 181.957 251.678 182.849 253.759C183.741 255.84 185.079 256.286 188.201 254.502C188.498 254.205 188.944 253.759 189.242 253.313C190.877 250.786 197.566 232.501 198.607 223.879C199.35 218.23 199.35 214.365 197.12 212.878Z" fill="#B8B393"/>
<path d="M185.079 255.84C183.593 255.84 182.849 254.651 182.552 253.759C181.511 251.38 185.674 227.595 190.134 219.27C193.107 213.621 195.634 212.432 197.269 212.432C197.418 212.432 197.418 212.432 197.418 212.432C199.796 214.067 199.796 217.932 199.053 223.73C198.012 232.203 191.323 250.488 189.539 253.313C189.242 253.759 188.796 254.205 188.498 254.651C187.012 255.543 185.971 255.84 185.079 255.84ZM196.972 213.175C195.782 213.324 193.404 214.216 190.579 219.716C185.971 228.487 182.255 251.678 183.147 253.61C183.593 254.799 184.187 255.245 185.079 255.245C185.822 255.245 186.714 254.948 187.904 254.205C188.201 253.907 188.647 253.461 188.796 253.016C190.282 250.637 197.12 232.501 198.161 223.73C198.904 218.378 198.904 214.662 196.972 213.175Z" fill="#5A2800"/>
<path d="M129.184 156.685C129.184 156.685 135.13 166.348 144.942 172.592L133.644 191.62C133.644 191.62 114.764 179.43 110.75 166.051L129.184 156.685Z" fill="#FFC390"/>
<path d="M133.495 192.066H133.346C133.198 191.917 114.318 179.579 110.304 166.348C110.304 166.199 110.304 166.051 110.453 165.902L128.887 156.537C129.035 156.388 129.332 156.537 129.332 156.685C129.332 156.834 135.427 166.497 144.942 172.443C145.09 172.592 145.09 172.74 145.09 172.889L133.792 191.769C133.792 191.917 133.792 191.917 133.495 192.066C133.644 192.066 133.644 192.066 133.495 192.066ZM111.048 166.199C114.913 178.241 130.968 189.39 133.346 191.025L144.198 172.592C135.576 167.091 129.927 158.767 128.887 157.131L111.048 166.199Z" fill="#5A2800"/>
<path d="M129.184 156.685C129.184 156.685 135.13 166.348 144.942 172.592L133.644 191.62C133.644 191.62 114.764 179.43 110.75 166.051L129.184 156.685Z" fill="#FFC390"/>
<path d="M121.305 168.578C124.873 166.051 128.887 163.821 132.157 160.848C130.224 158.469 129.184 156.834 129.184 156.834L110.75 166.199C111.494 168.727 112.831 171.105 114.318 173.484C116.697 171.848 119.075 170.065 121.305 168.578Z" fill="#FFC390"/>
<path d="M64.6663 125.17C64.6663 125.17 58.1254 123.089 48.0166 134.089C37.9079 145.09 19.623 177.646 26.9072 216.446C26.9072 216.446 79.8294 222.392 114.913 211.243L111.791 169.321L131.116 157.28C131.116 157.28 118.183 134.833 106.588 132.9C95.1412 130.967 64.6663 125.17 64.6663 125.17Z" fill="#ED1C26"/>
<path d="M59.4632 218.23C41.1783 218.23 27.0558 216.743 26.9071 216.594C26.7585 216.594 26.6098 216.446 26.6098 216.297C23.3393 199.499 24.8259 181.511 30.6236 164.564C35.5293 150.293 42.6649 139.292 47.7192 133.643C55.0035 125.616 60.5038 124.427 63.1797 124.427C64.2203 124.427 64.6663 124.575 64.6663 124.575C64.9636 124.575 95.1411 130.373 106.588 132.305C118.183 134.238 130.819 155.942 131.414 156.983C131.562 157.131 131.414 157.429 131.265 157.429L112.237 169.321L115.21 210.945C115.21 211.094 115.061 211.243 114.913 211.391C100.939 216 82.2079 218.23 59.4632 218.23ZM27.2044 216C29.2857 216.148 42.6649 217.486 59.4632 217.486C81.9106 217.486 100.493 215.257 114.615 210.945L111.642 169.321C111.642 169.173 111.642 169.024 111.791 169.024L130.819 157.28C129.184 154.604 117.291 135.13 106.736 133.346C95.2898 131.413 64.9636 125.616 64.6663 125.616C64.6663 125.616 64.2203 125.467 63.3283 125.467C60.8011 125.467 55.4495 126.656 48.3139 134.387C43.2595 139.738 36.1239 150.739 31.3669 165.01C25.5692 181.66 24.0826 199.35 27.2044 216Z" fill="#5A2800"/>
<path d="M69.126 141.373C66.7474 137.508 63.3283 133.346 58.4226 133.346C56.1927 133.346 53.9628 133.941 52.0303 134.833C47.7192 139.292 46.2326 147.32 45.9353 152.82C45.4893 159.361 46.084 165.605 47.8679 171.997C51.8816 168.132 57.9766 166.645 63.1796 165.753C66.8961 165.159 70.7612 164.713 74.4776 164.713C74.775 156.537 73.2884 148.212 69.126 141.373Z" fill="#B7131C"/>
<path d="M105.993 132.751C104.953 135.427 104.507 138.103 104.804 141.076C105.25 144.941 106.29 148.658 107.034 152.523C108.223 158.172 110.007 163.821 111.791 169.321L130.968 157.429C130.968 157.429 118.034 134.981 106.439 133.049C106.439 132.9 106.29 132.9 105.993 132.751Z" fill="#B7131C"/>
<path d="M111.196 167.24C111.048 167.24 110.899 167.24 110.899 167.091C107.48 161.294 104.358 143.009 104.358 142.117C104.358 141.968 104.507 141.671 104.655 141.671C104.804 141.671 105.101 141.82 105.101 141.968C105.101 142.117 108.074 160.402 111.494 166.348L119.224 164.267C119.372 164.267 119.67 164.267 119.67 164.564C119.67 164.713 119.67 165.01 119.372 165.01L111.196 167.24Z" fill="#5A2800"/>
<path d="M129.481 196.823C129.481 196.823 129.332 167.834 118.48 164.564C118.48 164.564 121.305 158.915 119.67 155.793C118.034 152.671 112.98 162.334 112.98 162.334C112.98 162.334 86.519 155.496 74.4777 168.578C74.4777 168.578 61.2471 168.28 52.9223 178.686C52.9223 178.686 36.8672 182.552 32.1102 192.214C32.1102 192.214 23.6367 189.241 25.4206 192.958C27.2045 196.674 30.7723 196.971 30.7723 196.971C30.7723 196.971 34.1914 228.487 58.8686 241.123C58.8686 241.123 57.2334 249.448 60.0579 248.407C62.8824 247.515 64.5176 243.799 64.5176 243.799C64.5176 243.799 71.3559 246.177 79.5321 239.934C87.8569 233.69 85.0324 226.554 101.533 221.054C101.533 221.054 119.67 214.067 125.467 202.472C125.467 202.472 133.495 201.58 134.981 200.093C136.468 198.458 129.481 196.823 129.481 196.823Z" fill="#6BC0AC"/>
<path d="M59.6119 248.705C59.1659 248.705 58.8686 248.556 58.5712 248.259C57.382 246.921 58.1253 242.461 58.2739 241.123C35.2319 229.23 30.6236 200.391 30.3262 197.12C29.4343 196.972 26.4611 196.08 24.8259 192.958C24.5286 192.214 24.5286 191.769 24.6772 191.323C24.9746 190.877 25.5692 190.579 26.4611 190.579C28.245 190.579 30.7722 191.323 31.5155 191.62C34.0427 186.714 39.543 183.295 43.7055 181.362C47.8679 179.43 51.5843 178.389 52.3276 178.241C60.2065 168.578 72.2478 168.132 74.0317 168.132C79.086 162.78 86.9649 160.104 97.5196 160.104C104.953 160.104 111.196 161.442 112.534 161.888C113.277 160.402 116.548 154.753 118.629 154.753C118.926 154.753 119.521 154.901 119.818 155.645C121.305 158.469 119.372 162.929 118.778 164.415C123.237 166.051 126.359 171.997 128.292 181.957C129.481 188.647 129.63 195.188 129.778 196.674C131.116 196.972 134.981 198.012 135.427 199.35C135.427 199.647 135.427 199.945 135.13 200.242C133.644 201.729 126.954 202.621 125.616 202.769C119.67 214.216 101.831 221.203 101.682 221.351C91.276 224.771 88.7488 228.784 86.073 233.095C84.5864 235.474 82.9512 238.001 79.8293 240.231C75.0723 243.799 70.6125 244.691 67.9367 244.691C66.4501 244.691 65.2609 244.393 64.8149 244.393C64.3689 245.285 62.7337 248.11 60.2065 248.853C59.9092 248.704 59.7605 248.705 59.6119 248.705ZM26.6098 191.323C26.0152 191.323 25.5692 191.471 25.4205 191.62C25.2719 191.917 25.4205 192.214 25.5692 192.512C27.2044 195.931 30.6236 196.377 30.7722 196.377C30.9209 196.377 31.0695 196.526 31.0695 196.674C31.0695 196.972 34.786 228.19 59.0172 240.528C59.1659 240.528 59.3145 240.826 59.1659 240.974C58.8686 242.461 58.2739 246.623 59.1659 247.813C59.3145 247.961 59.6119 248.11 59.9092 247.961C62.585 247.069 64.0716 243.65 64.2202 243.65C64.3689 243.501 64.5176 243.353 64.6662 243.501C64.6662 243.501 65.8555 243.947 67.9367 243.947C70.6125 243.947 74.775 243.204 79.3834 239.636C82.3565 237.407 83.8431 235.028 85.3297 232.649C88.0055 228.487 90.83 224.176 101.385 220.608C101.533 220.608 119.372 213.473 125.021 202.175C125.021 202.026 125.17 202.026 125.319 202.026C127.549 201.729 133.495 200.985 134.684 199.796C134.833 199.647 134.833 199.647 134.833 199.499C134.684 198.755 131.86 197.863 129.481 197.269C129.332 197.269 129.184 197.12 129.184 196.972C129.184 196.674 129.035 168.132 118.48 165.01C118.332 165.01 118.332 164.861 118.183 164.861C118.183 164.713 118.183 164.713 118.183 164.564C118.183 164.564 121.008 159.064 119.372 156.239C119.224 155.793 118.926 155.793 118.778 155.793C117.44 155.793 114.615 160.104 113.277 162.78C113.129 162.929 112.98 163.078 112.831 162.929C112.831 162.929 105.844 161.145 97.6683 161.145C90.5327 161.145 80.7213 162.483 74.6263 169.024C74.6263 169.173 74.4777 169.173 74.329 169.173H74.1803C72.8424 169.173 60.6525 169.47 52.9222 179.133L52.7736 179.281C52.6249 179.281 36.8672 183.146 32.2588 192.512C32.1101 192.66 31.9615 192.809 31.8128 192.66C31.8128 192.512 28.691 191.323 26.6098 191.323Z" fill="#5A2800"/>
<path d="M129.481 196.823C129.481 196.823 129.481 178.835 124.129 169.619C123.832 169.916 123.386 170.213 122.94 170.362C120.264 171.551 111.939 173.484 104.061 186.714C101.533 191.025 92.9113 184.336 92.9113 179.281C92.9113 175.862 94.2492 172.592 96.3304 169.916C92.6139 172.889 89.7894 176.754 88.6002 181.809C88.6002 182.106 88.1542 182.106 88.0055 181.957C85.627 179.876 83.5458 177.349 81.9106 174.673C80.5727 172.443 78.6401 169.47 78.7888 166.794C78.7888 165.902 79.0861 165.307 79.3834 164.564C77.5995 165.605 75.9643 166.794 74.4777 168.429C74.4777 168.429 61.2471 168.132 52.9223 178.538C52.9223 178.538 52.0303 178.835 50.5437 179.281C52.0303 183.295 54.5575 187.012 57.2334 190.282C57.5307 190.579 57.0847 191.174 56.7874 190.877C53.8142 188.944 49.6518 190.282 46.6786 191.769C44.8947 192.661 43.1108 193.701 41.6243 195.039C46.3813 193.701 51.733 193.998 56.4901 194.89C61.5444 195.931 67.7881 198.012 70.3153 203.067C72.6938 207.972 70.7612 213.324 67.7881 217.635C66.1528 220.757 64.6663 224.027 65.1122 227.595C74.0317 212.581 92.4653 206.337 109.115 209.756C109.412 209.756 109.412 210.202 109.264 210.351C105.547 214.365 100.939 217.189 96.1817 219.716C92.0193 222.095 86.6676 224.176 84.2891 228.636C82.6539 231.906 82.2079 235.623 80.5727 238.893C87.5596 232.798 85.7757 226.109 101.385 220.906C101.385 220.906 119.521 213.919 125.319 202.323C125.319 202.323 133.346 201.431 134.833 199.945C136.468 198.458 129.481 196.823 129.481 196.823Z" fill="#7BD2F4"/>
<path d="M95.2898 126.656L79.6807 125.021H79.0861C79.0861 125.021 75.8156 135.13 81.3159 141.522C86.8163 147.914 94.2492 145.387 95.2898 138.252C96.3304 131.116 95.2898 126.656 95.2898 126.656Z" fill="#FFC390"/>
<path d="M88.3029 145.685C85.7757 145.685 83.2485 144.347 81.0186 141.82C75.3696 135.279 78.6401 125.467 78.7888 125.021C78.7888 124.873 78.9374 124.724 79.0861 124.724H79.6807L95.4384 126.359C95.5871 126.359 95.7358 126.508 95.7358 126.656C95.7358 126.805 96.7764 131.116 95.7358 138.4C95.1411 142.711 92.168 145.685 88.3029 145.685ZM79.3834 125.467C78.9374 127.102 76.7075 135.725 81.6132 141.374C83.5458 143.603 85.9243 144.941 88.3029 144.941C91.722 144.941 94.3978 142.266 94.9925 138.252C95.8844 132.157 95.2898 128.143 94.9925 127.102L79.6807 125.467H79.3834Z" fill="#5A2800"/>
<path d="M89.7894 139.144C91.5733 139.144 93.5059 139.144 95.2898 138.846C95.2898 138.698 95.4384 138.4 95.4384 138.252C96.479 130.967 95.4384 126.656 95.4384 126.656L79.8293 125.021H79.2347C79.2347 125.021 77.3022 130.819 78.7887 136.319C81.7619 138.549 86.5189 138.995 89.7894 139.144Z" fill="#FFC390"/>
<path d="M48.0166 171.849C48.0166 171.849 47.8679 171.849 48.0166 171.849C47.7193 171.849 47.7193 171.7 47.7193 171.551C41.9216 149.698 48.4625 140.333 48.7599 139.887C48.9085 139.738 49.0572 139.738 49.2058 139.738C49.3545 139.887 49.3545 140.036 49.3545 140.184C49.3545 140.333 42.9622 149.55 48.3139 170.659C50.6924 169.321 61.9904 163.078 74.0317 163.97C73.8831 160.996 72.3965 142.563 64.5176 136.022C62.2877 134.089 59.6119 133.346 56.7874 133.792C56.6387 133.792 56.3414 133.643 56.3414 133.495C56.3414 133.346 56.4901 133.049 56.6387 133.049C59.7605 132.603 62.585 133.346 64.9636 135.427C68.68 138.549 71.5045 144.347 73.2884 152.672C74.6263 158.915 74.9237 164.267 74.9237 164.267C74.9237 164.416 74.9237 164.416 74.775 164.564C74.6263 164.713 74.6263 164.713 74.4777 164.713C60.9498 163.672 48.4625 171.403 48.3139 171.551C48.1652 171.849 48.0166 171.849 48.0166 171.849Z" fill="#5A2800"/>
<path d="M137.657 158.915L112.534 195.485C112.534 195.485 111.791 199.499 114.169 201.283C115.805 202.472 135.576 202.769 135.576 202.769C135.576 202.769 137.36 203.215 139.144 201.283C140.928 199.35 167.835 161.442 167.835 161.442C167.835 161.442 168.727 159.807 167.984 158.469C167.24 157.131 166.497 156.537 164.118 156.685C161.74 156.834 140.631 157.131 140.631 157.131C140.631 157.131 138.549 157.429 137.657 158.915Z" fill="#656A6E"/>
<path d="M136.171 203.215C135.873 203.215 135.725 203.215 135.576 203.215C133.346 203.215 115.656 202.918 114.021 201.728C111.493 199.796 112.237 195.782 112.237 195.634V195.485L137.36 158.915C138.401 157.28 140.63 156.982 140.63 156.982C140.928 156.982 161.889 156.685 164.118 156.536C166.646 156.388 167.538 157.131 168.281 158.618C169.173 160.104 168.132 161.888 168.132 161.888C166.943 163.523 141.076 199.796 139.441 201.728C138.252 203.066 136.914 203.215 136.171 203.215ZM135.725 202.472C135.725 202.472 137.36 202.918 138.847 201.134C140.482 199.201 167.24 161.74 167.538 161.442C167.538 161.442 168.281 159.956 167.686 158.915C167.092 157.726 166.348 157.131 164.118 157.28C161.74 157.428 141.522 157.726 140.63 157.726C140.63 157.726 138.698 157.874 137.955 159.361L112.98 195.931C112.831 196.525 112.534 199.796 114.467 201.283C115.656 201.877 128.143 202.323 135.725 202.472Z" fill="#5A2800"/>
<path opacity="0.7" d="M168.132 158.618C167.686 157.726 167.24 157.28 166.348 156.982C166.348 157.131 166.348 157.428 166.348 157.726C165.902 159.212 164.416 159.51 163.078 159.51C159.807 159.658 146.577 160.104 143.604 160.402C140.482 160.699 139.293 162.185 137.36 164.713C135.873 166.645 124.724 182.998 124.575 182.849C123.832 182.106 123.535 181.214 123.237 180.322L112.683 195.782C112.683 195.782 111.939 199.796 114.318 201.58C115.953 202.769 135.725 203.066 135.725 203.066C135.725 203.066 137.509 203.512 139.293 201.58C141.076 199.647 167.984 161.739 167.984 161.739C167.984 161.739 168.875 159.956 168.132 158.618Z" fill="#656A6E"/>
<path d="M115.805 200.539H115.656C115.507 200.391 115.507 200.242 115.507 200.093C116.399 198.607 138.401 165.159 139.59 163.523C140.928 161.74 143.455 161.74 143.604 161.74L168.429 160.402C168.578 160.402 168.727 160.55 168.727 160.699C168.727 160.848 168.578 161.145 168.429 161.145L143.604 162.483C143.604 162.483 141.225 162.483 140.184 163.969C138.995 165.605 116.399 200.093 116.102 200.539C116.102 200.539 115.953 200.539 115.805 200.539Z" fill="#5A2800"/>
<path d="M143.158 166.199C142.414 167.24 141.374 167.686 140.779 167.24C140.184 166.794 140.333 165.605 141.076 164.713C141.82 163.672 142.86 163.226 143.455 163.672C144.05 163.969 143.901 165.159 143.158 166.199Z" fill="#A2A9AD"/>
<path d="M141.374 167.686C141.076 167.686 140.779 167.537 140.63 167.388C140.184 167.091 140.036 166.645 140.184 166.05C140.333 165.456 140.482 164.861 140.928 164.415C141.82 163.226 143.158 162.78 143.752 163.375C144.198 163.672 144.347 164.118 144.198 164.712C144.05 165.307 143.901 165.902 143.455 166.348C142.86 167.24 141.968 167.686 141.374 167.686ZM143.009 163.821C142.563 163.821 141.968 164.118 141.374 164.861C141.076 165.307 140.779 165.753 140.779 166.199C140.779 166.496 140.779 166.794 140.928 166.942C141.225 167.24 142.117 166.942 142.712 166.05C143.009 165.604 143.306 165.158 143.306 164.712C143.306 164.415 143.306 164.118 143.158 163.969C143.306 163.821 143.158 163.821 143.009 163.821Z" fill="#5A2800"/>
<path d="M142.563 165.307C142.266 165.753 141.82 165.902 141.522 165.753C141.225 165.605 141.374 165.01 141.671 164.713C141.968 164.267 142.414 164.118 142.712 164.267C143.009 164.415 142.86 164.861 142.563 165.307Z" fill="white"/>
<path d="M141.522 162.78C141.374 162.78 141.225 162.78 141.225 162.632L138.995 158.469C138.847 158.321 138.995 158.023 139.144 158.023C139.293 157.875 139.59 158.023 139.59 158.172L141.82 162.334C141.968 162.483 141.82 162.78 141.671 162.78H141.522Z" fill="#5A2800"/>
<path d="M152.375 193.999C152.375 193.999 150.145 198.607 145.834 198.31C141.671 198.012 140.779 192.512 145.388 192.809C145.536 192.809 147.469 194.89 152.375 193.999Z" fill="#FFC390"/>
<path d="M146.131 198.755C145.982 198.755 145.834 198.755 145.834 198.755C143.306 198.607 141.82 196.823 141.968 195.039C141.968 193.85 143.009 192.363 145.536 192.512C145.685 192.512 145.685 192.512 145.834 192.66C145.834 192.66 147.171 193.998 150.293 193.998C151.037 193.998 151.78 193.998 152.523 193.85C152.672 193.85 152.82 193.85 152.82 193.998C152.969 194.147 152.969 194.296 152.82 194.444C152.672 194.444 150.442 198.755 146.131 198.755ZM145.09 193.255C143.604 193.255 142.712 193.998 142.563 195.188C142.563 196.526 143.752 198.012 145.834 198.161C145.982 198.161 145.982 198.161 146.131 198.161C148.955 198.161 150.888 195.782 151.631 194.593C151.037 194.593 150.591 194.742 150.145 194.742C147.171 194.742 145.685 193.701 145.388 193.404C145.239 193.255 145.239 193.255 145.09 193.255Z" fill="#5A2800"/>
<path d="M156.537 189.241C156.537 189.241 156.24 194.89 150.888 195.336C145.685 195.931 141.968 190.876 147.469 189.241C147.469 189.241 150.591 192.809 156.537 189.241Z" fill="#FFC390"/>
<path d="M150.145 195.782C147.32 195.782 144.793 194.147 144.496 192.214C144.347 191.471 144.496 189.836 147.32 188.795C147.469 188.795 147.617 188.795 147.766 188.944C147.766 188.944 149.104 190.43 151.483 190.43C152.969 190.43 154.604 189.984 156.388 188.944C156.537 188.944 156.686 188.944 156.834 188.944C156.983 188.944 156.983 189.092 156.983 189.241C156.983 189.241 156.537 195.187 151.037 195.782C150.739 195.782 150.442 195.782 150.145 195.782ZM147.469 189.687C145.982 190.282 145.09 191.174 145.239 192.214C145.536 193.701 147.915 195.485 151.037 195.187C154.753 194.741 155.942 191.62 156.24 190.133C154.604 191.025 153.118 191.471 151.631 191.471C149.253 191.174 147.915 190.133 147.469 189.687Z" fill="#5A2800"/>
<path d="M159.361 181.957C159.361 181.957 160.997 188.349 156.24 191.025C151.483 193.701 147.617 191.471 147.023 189.836C146.428 188.201 149.401 185.971 149.401 185.971C149.401 185.971 154.01 187.903 159.361 181.957Z" fill="#FFC390"/>
<path d="M151.78 192.512C149.104 192.512 147.171 191.174 146.725 189.836C146.131 188.052 148.955 185.822 149.253 185.525C149.401 185.376 149.55 185.376 149.699 185.525C149.699 185.525 150.442 185.822 151.482 185.822C153.266 185.822 155.942 185.079 159.064 181.66C159.213 181.511 159.361 181.511 159.361 181.511C159.51 181.511 159.659 181.66 159.659 181.808C159.659 181.808 161.294 188.498 156.388 191.174C154.902 192.066 153.266 192.512 151.78 192.512ZM149.55 186.268C148.658 186.863 147.023 188.498 147.32 189.539C147.617 190.43 149.253 191.768 151.78 191.768C153.118 191.768 154.604 191.322 156.091 190.579C159.659 188.647 159.361 184.335 159.213 182.7C156.091 185.971 153.415 186.565 151.631 186.565C150.591 186.565 149.847 186.417 149.55 186.268Z" fill="#5A2800"/>
<path d="M64.6662 227.744C64.5176 227.744 64.5176 227.744 64.3689 227.744C64.2203 227.744 64.0716 227.447 64.0716 227.298C64.0716 227.149 68.68 209.459 91.5733 204.851C91.722 204.851 92.0193 204.999 92.0193 205.148C92.0193 205.297 91.8706 205.594 91.722 205.594C69.2746 210.054 64.8149 227.447 64.8149 227.595C64.9635 227.595 64.8149 227.744 64.6662 227.744Z" fill="#5A2800"/>
<path d="M69.7207 196.823C55.8955 189.39 48.1653 192.363 47.8679 192.512C47.7193 192.512 47.5706 192.809 47.7193 192.958C47.8679 193.107 48.0166 193.255 48.1653 193.107C48.1653 193.107 50.5438 192.215 55.0035 192.661C58.4227 192.958 63.477 194.147 70.018 197.715C70.7613 198.012 71.6532 198.31 72.3965 198.607C71.5046 198.012 70.6126 197.418 69.7207 196.823Z" fill="#5A2800"/>
<path d="M89.9381 188.35C89.7894 188.35 89.6408 188.201 89.6408 188.052C88.4515 180.173 91.1273 174.97 93.5059 172.146C96.1817 169.024 99.0062 167.686 99.1549 167.686C99.3035 167.537 99.6008 167.686 99.6008 167.835C99.7495 167.983 99.6008 168.281 99.4522 168.281C99.0062 168.429 88.1542 173.335 90.2354 187.904C90.384 188.201 90.2354 188.35 89.9381 188.35Z" fill="#5A2800"/>
<path d="M49.8005 170.362C49.8005 170.362 56.9361 208.27 109.412 205.594C109.412 205.594 123.386 210.797 131.265 202.769C131.265 202.769 137.211 200.985 137.211 195.336C137.211 195.336 140.036 194.445 139.887 191.62C139.887 191.62 142.563 190.282 142.266 187.16C141.968 184.187 138.847 184.484 136.617 186.268C134.387 188.052 129.63 188.052 125.467 186.566C121.305 185.079 121.9 182.106 121.9 182.106C121.9 182.106 127.103 174.97 127.103 173.632C127.103 172.295 127.103 170.213 119.075 174.227C114.169 176.754 111.939 178.835 109.412 184.633C107.48 189.093 107.628 192.512 107.628 192.512C107.628 192.512 95.2898 195.039 85.0324 183.741C74.775 172.443 72.8425 164.564 72.8425 164.564C72.8425 164.564 63.031 162.929 49.8005 170.362Z" fill="#FFC390"/>
<path d="M119.075 207.675C114.169 207.675 110.007 206.337 109.264 206.04C107.628 206.189 105.844 206.189 104.358 206.189C90.6814 206.189 71.5045 203.067 58.8686 188.35C51.287 179.579 49.5031 170.511 49.5031 170.511C49.5031 170.362 49.5031 170.213 49.6518 170.065C58.8686 164.862 66.5988 163.97 70.4639 163.97C72.2478 163.97 73.1397 164.118 73.1397 164.118C73.2884 164.118 73.437 164.267 73.437 164.416C73.437 164.564 75.5183 172.295 85.4783 183.444C92.4653 191.174 100.493 192.363 104.804 192.363C106.142 192.363 107.034 192.215 107.48 192.215C107.48 191.174 107.628 188.201 109.264 184.485C111.791 178.836 113.872 176.457 119.075 173.93C122.197 172.295 124.427 171.551 125.765 171.551C127.549 171.551 127.549 172.889 127.549 173.632C127.549 174.97 123.237 180.917 122.345 182.255C122.345 182.701 122.197 185.079 125.765 186.268C127.549 186.863 129.63 187.309 131.562 187.309C133.792 187.309 135.576 186.863 136.617 185.971C137.806 185.079 139.144 184.485 140.184 184.485C141.671 184.485 142.712 185.376 142.86 187.012C143.158 189.836 141.076 191.174 140.482 191.62C140.482 193.999 138.549 195.188 137.806 195.485C137.509 200.688 132.454 202.769 131.562 203.067C128.44 206.189 124.278 207.675 119.075 207.675ZM109.412 205.297C109.561 205.297 114.021 206.932 119.075 206.932C124.129 206.932 128.143 205.445 130.968 202.621C130.968 202.621 131.116 202.621 131.116 202.472C131.414 202.472 136.765 200.688 136.914 195.337C136.914 195.188 137.063 195.039 137.211 195.039C137.36 195.039 139.738 194.147 139.59 191.62C139.59 191.471 139.59 191.323 139.738 191.323C139.887 191.323 142.117 189.985 141.968 187.309C141.82 185.674 140.779 185.376 140.036 185.376C138.995 185.376 137.955 185.822 136.914 186.566C135.725 187.458 133.792 188.052 131.414 188.052C129.481 188.052 127.4 187.755 125.467 187.012C121.156 185.525 121.602 182.106 121.602 182.106V181.957C123.535 179.281 126.805 174.524 126.805 173.632C126.805 172.741 126.805 172.146 125.765 172.146C124.575 172.146 122.494 172.889 119.372 174.376C114.318 176.903 112.385 178.984 109.858 184.633C107.926 188.944 108.074 192.363 108.074 192.363C108.074 192.512 107.926 192.661 107.777 192.809C107.777 192.809 106.588 193.107 104.655 193.107C100.344 193.107 92.0193 191.917 84.8837 183.89C75.6669 173.632 73.1397 166.2 72.6938 164.862C72.2478 164.862 71.5045 164.713 70.3152 164.713C66.5988 164.713 59.1659 165.456 50.0977 170.511C50.3951 171.997 52.4763 180.025 59.3145 187.755C71.8018 202.323 90.6814 205.297 104.358 205.297C105.993 205.445 107.628 205.445 109.412 205.297Z" fill="#5A2800"/>
<path d="M70.6126 166.943C71.6532 166.794 72.6938 166.646 73.7344 166.646C73.1398 165.308 72.9911 164.564 72.9911 164.564C72.9911 164.564 62.8824 162.929 49.8005 170.362C49.8005 170.362 49.9491 171.551 50.6924 173.484C57.382 168.429 67.6394 167.389 70.6126 166.943Z" fill="#FFC390"/>
<path d="M131.86 194.444C127.995 194.444 125.319 193.106 125.17 193.106C125.021 192.958 124.873 192.809 125.021 192.661C125.17 192.512 125.319 192.363 125.467 192.512C125.467 192.512 132.603 196.08 139.59 191.471C139.738 191.323 140.036 191.471 140.036 191.62C140.184 191.769 140.036 192.066 139.887 192.066C137.211 193.85 134.387 194.444 131.86 194.444Z" fill="#5A2800"/>
<path d="M129.481 198.756C126.954 198.756 125.319 197.864 125.17 197.715C125.021 197.566 124.873 197.418 125.021 197.269C125.17 197.12 125.319 196.972 125.467 197.12C125.616 197.269 130.522 200.094 136.914 195.188C137.063 195.039 137.36 195.039 137.36 195.188C137.509 195.337 137.509 195.634 137.36 195.634C134.387 198.012 131.562 198.756 129.481 198.756Z" fill="#5A2800"/>
<path d="M127.846 203.513C124.873 203.513 122.494 202.769 122.494 202.621C122.346 202.621 122.197 202.323 122.346 202.175C122.346 202.026 122.643 201.878 122.791 202.026C122.791 202.026 126.805 203.513 131.265 202.472C131.414 202.472 131.711 202.621 131.711 202.769C131.711 202.918 131.562 203.215 131.414 203.215C130.076 203.513 128.886 203.513 127.846 203.513Z" fill="#5A2800"/>
<path d="M159.659 173.038C159.659 173.038 164.564 179.133 161.145 183.146C157.726 187.16 151.631 187.457 149.55 185.822C147.32 184.187 155.942 178.389 155.942 178.389L159.659 173.038Z" fill="#FFC390"/>
<path d="M152.969 187.16C151.334 187.16 150.145 186.863 149.253 186.119C148.955 185.822 148.807 185.525 148.807 185.079C148.807 182.849 154.753 178.687 155.645 178.092L159.361 172.889C159.361 172.74 159.51 172.74 159.659 172.74C159.807 172.74 159.956 172.74 159.956 172.889C160.105 173.186 165.01 179.281 161.443 183.444C159.064 186.119 155.496 187.16 152.969 187.16ZM159.659 173.781L156.091 178.687C156.091 178.687 156.091 178.687 155.942 178.835C154.158 180.024 149.401 183.592 149.401 185.228C149.401 185.376 149.401 185.525 149.55 185.673C150.293 186.268 151.482 186.565 152.82 186.565C155.199 186.565 158.469 185.673 160.699 182.998C163.524 179.876 160.551 175.119 159.659 173.781Z" fill="#5A2800"/>
<path d="M54.5575 135.13C54.5575 135.13 48.9085 137.657 47.5706 149.401C46.3813 161.145 48.9085 169.173 48.9085 169.173L51.1384 167.537C51.1384 167.686 45.9354 145.685 54.5575 135.13Z" fill="#ED1C26"/>
<path opacity="0.3" d="M57.5306 128.44C57.5306 128.44 35.6779 138.4 26.9071 186.863C26.9071 186.863 32.5561 152.671 57.5306 128.44Z" fill="#E9F6F6"/>
<path d="M53.2196 174.97C53.2196 174.97 64.2203 205.891 108.818 204.702C108.818 204.85 70.3153 205.891 53.2196 174.97Z" fill="#FFC390"/>
<path d="M122.197 222.689C122.197 222.689 145.536 228.487 158.172 231.906C158.172 231.906 130.67 226.703 122.197 222.689Z" fill="#FFC390"/>
<path d="M32.8534 197.12C32.8534 197.12 33.7453 222.987 58.4226 238.893C58.4226 238.893 38.7997 223.581 32.8534 197.12Z" fill="#6BC0AC"/>
<path d="M7.28433 78.6404C7.28433 78.6404 1.63533 89.0464 3.41923 99.4525C3.41923 99.4525 46.53 114.764 58.5713 123.832C58.5713 123.832 67.4908 135.576 87.8569 136.022C108.223 136.32 137.806 127.4 140.333 110.602C140.333 110.602 140.482 108.075 140.333 104.358C140.185 100.642 138.103 99.4525 142.712 94.1008C147.32 88.7491 154.604 77.8971 152.672 70.0182C152.672 70.0182 172.146 41.3272 162.632 35.9755C162.632 35.9755 168.727 35.2322 171.254 38.5027C171.254 38.5027 169.173 30.7725 158.023 29.8806C158.023 29.8806 166.051 27.056 162.632 16.5013C162.632 16.5013 160.848 25.1235 153.266 23.3396C145.685 21.407 121.305 2.23017 90.3841 0.446278C59.4633 -1.18896 34.3401 10.555 24.38 38.9487C24.38 38.9487 22.8934 36.5702 24.2313 31.0698C24.2313 31.0698 15.7578 34.7863 18.5823 43.4084C18.5823 43.4084 13.082 41.3272 7.58165 47.5708C7.58165 47.5708 11.2981 47.2735 14.8659 49.2061C14.8659 49.2061 1.0407 57.9769 0.594727 72.0994C0.594727 72.0994 5.35178 68.383 9.96018 66.1531C9.96018 66.1531 3.56789 71.0588 2.67594 82.3568C2.52728 82.5055 3.56789 81.3162 7.28433 78.6404Z" fill="#FFC390"/>
<path d="M89.0461 136.32C88.6001 136.32 88.3028 136.32 87.8568 136.32C68.0853 136.022 59.0172 124.873 58.2739 124.13C46.3813 115.21 3.71645 100.047 3.27047 99.8984C3.12182 99.7497 3.12182 99.6011 3.12182 99.4524C1.7839 91.1276 5.05437 82.8027 6.39229 79.6809C3.56779 81.6135 2.8245 82.6541 2.8245 82.6541C2.67584 82.8027 2.52718 82.8027 2.37853 82.8027C2.22987 82.8027 2.08121 82.6541 2.08121 82.3568C2.67584 74.6265 5.79766 70.0181 7.73021 67.6396C4.01376 69.7208 0.594632 72.248 0.594632 72.3967C0.445974 72.5453 0.297316 72.5453 0.148658 72.3967C0 72.3967 0 72.248 0 72.0993C0.445974 59.4634 11.4467 50.9899 13.9738 49.206C11.5953 48.0168 9.21679 47.8681 8.02753 47.8681C7.58156 47.8681 7.4329 47.8681 7.28424 47.8681C7.13558 47.8681 6.98692 47.8681 6.98692 47.7194C6.98692 47.5708 6.98692 47.4221 6.98692 47.2735C10.4061 43.4084 13.8252 42.6651 16.0551 42.6651C16.7983 42.6651 17.393 42.8137 17.6903 42.8137C15.4604 34.3402 23.6366 30.7724 23.7853 30.6238C23.9339 30.6238 24.0826 30.6238 24.2312 30.6238C24.3799 30.7724 24.3799 30.9211 24.3799 30.9211C23.6366 34.3402 23.9339 36.5701 24.2312 37.6107C33.448 13.3795 54.8548 0.000244141 84.735 0.000244141C86.5189 0.000244141 88.4515 0.000244141 90.384 0.148902C112.683 1.33817 131.86 11.8929 143.306 18.1365C147.766 20.515 151.185 22.4476 153.266 22.8936C153.861 23.0422 154.604 23.1909 155.199 23.1909C160.699 23.1909 162.186 16.5013 162.186 16.5013C162.186 16.3526 162.334 16.204 162.483 16.204C162.632 16.204 162.78 16.3526 162.78 16.5013C165.308 24.0828 162.037 28.2453 159.213 29.7318C164.267 30.4751 167.24 32.5563 168.875 34.3402C170.659 36.1241 171.254 37.908 171.403 38.354V38.5027C171.403 38.6513 171.254 38.8 170.957 38.8C170.808 38.8 170.659 38.8 170.659 38.6513C168.875 36.2728 165.159 36.1241 163.375 36.1241C164.267 36.8674 164.713 37.908 165.01 39.0973C167.092 48.1654 154.01 67.9369 152.672 69.8695C154.902 79.2349 144.644 91.7222 142.563 94.1007C139.144 97.9658 139.441 99.6011 139.887 101.831C140.036 102.574 140.184 103.318 140.184 104.209C140.333 107.926 140.184 110.453 140.184 110.453C138.103 127.4 108.966 136.32 89.0461 136.32ZM3.71645 99.1551C6.98692 100.344 47.2732 114.764 58.7199 123.535C58.8685 123.684 67.788 135.13 87.7082 135.576C88.1542 135.576 88.4515 135.576 88.8974 135.576C108.669 135.576 137.36 126.805 139.887 110.602C139.887 110.602 140.036 108.075 139.887 104.358C139.887 103.466 139.738 102.872 139.59 102.128C139.144 99.8984 138.698 97.9658 142.414 93.8034C151.482 83.2487 153.415 74.4779 152.226 70.0181C152.226 69.8695 152.226 69.8695 152.226 69.7208C152.374 69.5722 166.646 48.3141 164.564 39.3946C164.267 37.908 163.524 36.8674 162.334 36.2728C162.186 36.1241 162.186 35.9755 162.186 35.8268C162.186 35.6782 162.334 35.5295 162.483 35.5295C162.483 35.5295 163.078 35.5295 163.97 35.5295C165.605 35.5295 168.281 35.8268 170.213 37.1647C169.024 34.9349 165.754 30.9211 158.023 30.3265C157.875 30.3265 157.726 30.1778 157.726 30.0292C157.726 29.8805 157.875 29.7318 158.023 29.5832C158.321 29.4345 165.159 27.056 162.78 17.8392C162.037 19.9204 159.956 23.9342 155.496 23.9342C154.753 23.9342 154.158 23.7855 153.415 23.6369C151.334 23.0422 147.915 21.2583 143.306 18.7311C131.86 12.4875 112.831 2.08146 90.6813 0.892192C88.7488 0.743534 86.9649 0.743534 85.0323 0.743534C55.0034 0.743534 33.7454 14.2714 24.9745 39.0973C24.9745 39.2459 24.8259 39.3946 24.6772 39.3946C24.5286 39.3946 24.3799 39.3946 24.3799 39.2459C24.3799 39.0973 23.042 36.8674 23.9339 31.813C22.0014 32.8537 16.947 36.4214 19.1769 43.4084C19.1769 43.557 19.1769 43.7057 19.0282 43.8543C18.8796 44.003 18.7309 44.003 18.5822 44.003C18.5822 44.003 17.839 43.7057 16.501 43.7057C14.5685 43.7057 11.5953 44.449 8.62216 47.4221C9.96008 47.4221 12.6359 47.7194 15.3118 49.206C15.4604 49.206 15.4604 49.3547 15.4604 49.5033C15.4604 49.652 15.4604 49.8007 15.3118 49.8007C15.0145 49.652 1.93255 58.1255 1.04061 71.3561C2.52718 70.3155 6.24363 67.6396 9.81142 65.8557C9.96008 65.7071 10.2574 65.8557 10.2574 66.0044C10.4061 66.153 10.2574 66.3017 10.1087 66.4503C10.1087 66.4503 4.16242 71.0587 2.97316 81.3161C3.71645 80.7215 4.90571 79.6809 7.13558 78.1943C7.28424 78.0457 7.4329 78.0457 7.58155 78.1943C7.73021 78.343 7.73021 78.4916 7.73021 78.6403C7.58155 78.9376 2.22987 89.0464 3.71645 99.1551Z" fill="#5A2800"/>
<path d="M49.3544 94.9924C49.2058 94.9924 48.9085 94.8437 48.7598 94.6951C48.1652 94.5464 47.5705 94.5464 46.8272 94.8437C46.8272 94.8437 46.8272 94.9924 46.6786 94.9924C44.3001 97.9655 44.746 103.466 46.8272 106.439C48.4625 108.818 51.733 109.858 52.7736 106.439C53.2195 105.25 53.2195 103.912 53.2195 102.723C52.7736 100.493 51.5843 96.1816 49.3544 94.9924Z" fill="#FFC390"/>
<path d="M153.712 68.2339C152.077 65.4094 149.847 62.8823 147.171 60.9497C149.847 64.3688 150.293 69.5719 149.847 73.7343C149.55 76.7074 148.955 79.8293 147.915 82.6538C146.577 86.3702 142.414 89.492 140.036 92.6138C138.549 94.6951 138.549 96.479 137.806 99.0061C137.063 101.682 137.36 104.209 137.509 107.034C137.657 111.047 136.319 114.615 133.941 117.737C129.332 123.535 122.494 127.102 115.656 129.481C115.061 129.63 114.467 129.778 114.021 130.076C111.345 131.265 108.669 132.157 105.993 133.049C102.574 134.089 99.1549 134.981 95.7358 135.576C115.21 133.941 138.401 125.17 140.63 110.453C140.63 110.453 140.779 107.926 140.63 104.209C140.482 100.493 138.401 99.3035 143.009 93.9518C147.617 88.6001 154.902 77.7481 152.969 69.8692C152.672 70.0178 153.118 69.2746 153.712 68.2339Z" fill="#FFC390"/>
<path d="M164.267 37.6106C164.267 37.6106 168.281 37.016 171.254 38.6512C171.254 38.6512 170.659 29.4344 158.023 30.0291C158.023 30.0291 166.051 27.3532 162.632 16.6498C162.632 16.6498 160.699 25.272 153.266 23.4881C145.685 21.5555 121.305 2.23001 90.5328 0.594776C59.6119 -1.18912 34.4887 10.5549 24.5286 38.7999C24.5286 38.7999 23.042 36.4213 24.38 30.921C24.38 30.921 15.9065 34.6374 18.5823 43.2596C18.5823 43.2596 13.082 41.1784 7.58163 47.422C7.58163 47.422 11.2981 47.1247 14.8659 49.0573C14.8659 49.0573 1.04068 57.8281 0.446045 71.9506C0.446045 71.9506 5.2031 68.2341 9.8115 66.1529C9.8115 66.1529 3.4192 71.0586 2.3786 82.3566C2.3786 82.3566 3.27055 81.1674 7.13565 78.4915C7.13565 78.4915 1.48665 88.8976 3.12189 99.3037C3.12189 99.3037 46.2327 114.764 58.1253 123.832C58.1253 123.832 53.071 119.075 51.2871 111.196C51.2871 111.196 41.4756 112.237 41.6243 99.8983C41.6243 87.5597 51.8817 85.1811 55.0035 90.9788C58.1253 96.6278 56.1928 100.344 56.1928 100.344C56.1928 100.344 74.0317 84.7352 76.7076 72.6939C76.7076 72.6939 76.7076 79.2348 78.1941 78.6402C79.6807 78.0456 86.965 70.464 88.0056 66.4502C88.0056 66.4502 87.2623 71.6533 86.6676 73.8831C86.073 76.113 93.3573 71.5046 93.5059 63.1798C93.5059 63.1798 108.52 57.8281 126.359 59.0173C126.359 59.0173 126.805 64.9637 122.494 69.2747C118.332 73.7345 134.536 69.1261 135.725 58.8687C135.725 58.8687 136.914 62.1392 134.238 68.2341C134.238 68.2341 141.522 67.9368 141.225 58.8687C141.225 58.8687 149.55 58.8687 152.523 70.018C152.672 70.1667 181.214 57.9767 164.267 37.6106Z" fill="#FBC410"/>
<path d="M58.4226 124.129C58.2739 124.129 58.2739 124.129 58.1253 124.129C46.3813 115.21 3.56781 99.8981 3.12184 99.7495C2.97318 99.7495 2.97318 99.6008 2.82452 99.4522C1.63526 90.9787 4.90574 82.6538 6.39232 79.532C3.56781 81.4646 2.82452 82.5052 2.82452 82.5052C2.67587 82.6538 2.52721 82.6538 2.37855 82.6538C2.22989 82.6538 2.08123 82.5052 2.08123 82.3565C2.67587 74.6263 5.79768 70.0179 7.87889 67.6394C4.16245 69.7206 0.743313 72.2478 0.743313 72.3964C0.594656 72.5451 0.445998 72.5451 0.29734 72.3964C0.148682 72.2478 0.148682 72.0991 0.148682 71.9505C0.743313 59.3145 11.5953 50.841 14.1225 49.0571C11.744 47.8679 9.36547 47.7192 8.17621 47.7192C7.73024 47.7192 7.58158 47.7192 7.58158 47.7192C7.43292 47.7192 7.28426 47.7192 7.28426 47.5705C7.28426 47.4219 7.28426 47.2732 7.28426 47.1246C10.7034 43.2595 14.1225 42.5162 16.3524 42.5162C17.0957 42.5162 17.6903 42.6648 17.9876 42.6648C15.7578 34.1913 24.0826 30.6235 24.0826 30.6235C24.2313 30.6235 24.3799 30.6235 24.5286 30.6235C24.6772 30.7722 24.6772 30.9209 24.6772 30.9209C23.7853 34.34 24.2313 36.5699 24.5286 37.6105C33.4481 13.3792 54.8548 0 84.7351 0C86.6676 0 88.6002 0 90.5327 0.148658C112.831 1.48658 132.008 11.8926 143.455 18.2849C147.915 20.6635 151.334 22.596 153.415 23.1906C154.158 23.3393 154.753 23.488 155.348 23.488C160.848 23.488 162.335 16.7983 162.335 16.7983C162.335 16.6497 162.483 16.501 162.632 16.501C162.78 16.501 162.929 16.6497 162.929 16.7983C165.308 24.0826 162.335 28.245 159.51 29.8802C168.281 30.1776 171.254 35.6779 171.403 38.7997V38.9484C171.403 39.097 171.254 39.2457 170.957 39.2457H170.808C168.727 38.0564 166.051 38.0564 164.713 38.0564C169.024 43.4081 170.511 48.6111 169.321 53.6655C166.794 64.3689 152.969 70.3152 152.523 70.4639C152.374 70.4639 152.374 70.4639 152.226 70.4639C152.077 70.4639 152.077 70.3152 152.077 70.1666C149.401 60.6524 143.158 59.4632 141.374 59.3145C141.522 68.234 134.089 68.68 134.089 68.68C133.941 68.68 133.792 68.68 133.792 68.5313C133.792 68.3827 133.644 68.234 133.792 68.234C135.13 65.1122 135.427 62.8823 135.427 61.2471C133.198 67.9367 125.17 71.5045 122.494 71.5045C121.751 71.5045 121.454 71.2072 121.305 70.9098C121.156 70.4639 121.305 69.8692 122.048 69.1259C125.616 65.4095 125.765 60.6524 125.765 59.4632C124.129 59.3145 122.643 59.3145 121.008 59.3145C106.885 59.3145 95.4384 62.8823 93.6545 63.4769C93.5059 67.1934 92.0193 69.8692 90.83 71.6531C89.4921 73.437 87.7082 74.7749 86.8163 74.7749C86.519 74.7749 86.3703 74.6263 86.2216 74.4776C86.073 74.329 86.073 74.0317 86.073 73.7343C86.3703 72.6937 86.6676 70.7612 86.9649 69.2746C84.5864 73.437 79.3834 78.4914 78.1941 79.086C78.0454 79.086 78.0454 79.086 77.8968 79.086C77.7481 79.086 77.4508 79.086 77.3022 78.7887C76.7075 78.1941 76.4102 76.4102 76.4102 74.9236C72.2478 86.5189 57.2333 99.8981 56.49 100.493C56.3414 100.641 56.1927 100.641 56.0441 100.493C55.8954 100.344 55.8954 100.195 55.8954 100.047C55.8954 100.047 57.6793 96.479 54.7062 90.9787C53.8142 89.1948 52.0303 88.1542 50.0978 88.1542C46.084 88.1542 42.0702 92.1679 42.0702 99.7495C42.0702 103.615 42.9622 106.439 44.8947 108.372C47.5706 111.047 51.287 110.75 51.4357 110.75C51.5843 110.75 51.733 110.899 51.8816 111.047C53.5169 118.183 58.1253 122.94 58.5713 123.386C58.7199 123.386 58.7199 123.535 58.7199 123.683C58.7199 123.981 58.5713 124.129 58.4226 124.129ZM3.71647 99.0062C6.83829 100.047 42.3675 112.98 56.1927 121.751C54.5575 119.67 52.3276 116.102 51.1384 111.493C50.0978 111.493 46.8273 111.345 44.3001 108.966C42.2189 106.885 41.3269 103.912 41.3269 99.8981C41.3269 91.8706 45.7867 87.5595 50.0978 87.5595C52.3276 87.5595 54.2602 88.7488 55.3008 90.6814C57.382 94.5465 57.2333 97.371 56.936 99.0062C60.6525 95.5871 73.883 82.8025 76.2616 72.5451C76.2616 72.3964 76.4102 72.2478 76.7075 72.2478C76.8562 72.2478 77.0048 72.3964 77.0048 72.5451C77.0048 74.329 77.1535 77.4508 77.8968 78.0454C77.8968 78.0454 77.8968 78.0454 78.0454 78.0454C79.3834 77.4508 86.6676 70.1666 87.7082 66.1528C87.7082 66.0041 88.0055 65.8555 88.1542 65.8555C88.3028 65.8555 88.4515 66.0041 88.4515 66.3014C88.4515 66.4501 87.7082 71.5045 87.1136 73.7343C87.1136 73.7343 87.1136 73.7343 87.1136 73.883C88.4515 73.7343 93.0599 69.5719 93.2086 63.031C93.2086 62.8823 93.3572 62.7337 93.5059 62.7337C93.6545 62.7337 105.993 58.4226 121.454 58.4226C123.237 58.4226 124.873 58.4226 126.657 58.5712C126.805 58.5712 126.954 58.7199 126.954 58.8685C126.954 59.1659 127.251 64.9635 122.94 69.4233C122.346 70.1666 122.346 70.3152 122.346 70.3152C122.346 70.3152 122.494 70.4639 122.94 70.4639C125.616 70.4639 134.833 66.1528 135.576 58.7199C135.576 58.5712 135.725 58.4226 135.873 58.4226C136.022 58.4226 136.171 58.5712 136.319 58.7199C136.319 58.8685 137.36 61.9904 135.13 67.788C136.765 67.4907 141.374 66.0041 141.076 58.8685C141.076 58.7199 141.076 58.7199 141.225 58.5712C141.225 58.5712 141.374 58.4226 141.522 58.4226C141.671 58.4226 149.847 58.5712 153.118 69.4233C155.348 68.3827 166.943 62.585 169.173 53.2195C170.362 48.1652 168.727 42.9621 164.267 37.7591C164.118 37.6105 164.118 37.4618 164.267 37.4618C164.267 37.3131 164.416 37.3131 164.564 37.1645C164.564 37.1645 168.132 36.5699 171.105 37.9078C170.957 37.1645 170.511 35.8266 169.47 34.4886C167.389 31.6641 163.97 30.3262 159.361 30.3262C159.064 30.3262 158.767 30.3262 158.469 30.3262C158.321 30.3262 158.172 30.1776 158.023 30.0289C158.023 29.8802 158.023 29.7316 158.321 29.5829C158.321 29.5829 160.253 28.8396 161.74 26.9071C163.524 24.5286 163.97 21.5554 163.078 17.6903C162.335 19.7715 160.253 23.7853 155.794 23.7853C155.05 23.7853 154.456 23.6366 153.712 23.488C151.631 22.8933 148.212 21.1094 143.604 18.5822C131.711 12.6359 112.683 2.08121 90.5327 0.891948C88.6002 0.74329 86.6676 0.74329 84.7351 0.74329C54.8548 0.74329 33.5967 14.2712 24.8259 38.9484C24.8259 39.097 24.6772 39.2457 24.5286 39.2457C24.3799 39.2457 24.2313 39.2457 24.2313 39.097C24.2313 38.9484 22.8933 36.7185 23.7853 31.6641C21.8527 32.7048 16.7984 36.2725 18.8796 43.1108C18.8796 43.2595 18.8796 43.4081 18.7309 43.5568C18.5823 43.7054 18.4336 43.7054 18.285 43.7054C18.285 43.7054 17.393 43.4081 16.2037 43.4081C14.2712 43.4081 11.298 44.0028 8.32487 47.1246C9.81145 47.1246 12.3386 47.4219 15.0145 48.9085C15.1631 48.9085 15.1631 49.0571 15.1631 49.2058C15.1631 49.3544 15.1631 49.5031 15.0145 49.5031C14.8658 49.6518 1.93258 57.9766 0.891971 71.3558C2.37855 70.3152 6.095 67.6394 9.66279 66.0041C9.81145 65.8555 10.1088 66.0041 10.1088 66.1528C10.2574 66.3014 10.1088 66.5988 9.96011 66.5988C9.96011 66.5988 4.01379 71.2072 2.82452 81.4646C3.56781 80.8699 4.75708 79.8293 6.98695 78.3427C7.13561 78.1941 7.28426 78.1941 7.43292 78.3427C7.58158 78.4914 7.58158 78.6401 7.43292 78.7887C7.58158 78.7887 2.08124 88.8975 3.71647 99.0062Z" fill="#5A2800"/>
<path d="M171.254 38.7999C171.254 38.7999 170.659 29.5831 158.023 30.1777C158.023 30.1777 166.051 27.5019 162.632 16.7985C162.632 16.7985 160.699 25.4207 153.266 23.6368C145.685 21.5555 121.305 2.23001 90.5327 0.594776C59.6119 -1.18912 34.4887 10.5549 24.5286 38.7999C24.5286 38.7999 23.042 36.4213 24.3799 30.921C24.3799 30.921 15.9064 34.6374 18.5823 43.2596C18.5823 43.2596 13.0819 41.1784 7.58157 47.422C7.58157 47.422 11.298 47.1247 14.8658 49.0573C14.8658 49.0573 5.05439 55.3009 1.63525 65.8556C2.67586 63.9231 3.86512 62.2878 5.3517 60.6526C9.51412 56.1928 14.8658 52.7737 20.8121 51.1385C21.2581 50.9898 21.4068 51.5844 21.1094 51.8818C16.7984 55.1522 16.2037 62.7338 17.5417 67.7882C18.7309 64.6663 19.7715 61.2472 21.2581 58.2741C22.8933 54.7063 25.2719 51.7331 28.245 49.3546C33.4481 45.1922 40.435 43.5569 46.9759 43.8542C44.3001 41.1784 40.2863 39.8405 36.7185 40.8811C36.4212 41.0297 36.1239 40.5838 36.4212 40.2864C42.0702 33.8942 50.5437 30.1777 58.4226 27.3532C67.4907 24.2314 77.1535 22.0015 86.6676 22.5961C103.317 23.7854 122.643 34.7861 122.791 53.517C122.791 53.963 122.346 53.963 122.048 53.6657C120.413 50.9898 117.291 50.0979 114.467 49.0573C115.507 50.6925 116.102 52.3277 116.548 54.1116C116.548 54.409 116.399 54.5576 116.251 54.5576C109.71 55.0036 101.087 56.9361 96.7763 62.1392C102.128 60.6526 113.575 58.1254 126.359 59.0173C126.359 59.0173 126.805 64.9637 122.494 69.2747C118.332 73.7345 134.535 69.1261 135.725 58.8687C135.725 58.8687 136.914 62.1392 134.238 68.2341C134.238 68.2341 141.522 67.9368 141.225 58.8687C141.225 58.8687 149.55 58.8687 152.523 70.018C152.523 70.018 181.065 57.8281 164.267 37.6106C164.267 37.6106 168.281 37.016 171.254 38.7999Z" fill="#FCC330"/>
<path d="M52.1789 107.777C52.1789 107.777 52.0303 107.777 52.1789 107.777C51.8816 107.629 51.733 107.48 51.8816 107.331C52.9222 104.655 52.4763 99.7497 50.841 97.0738C50.395 96.3305 49.6518 95.4386 48.4625 95.2899C47.5705 95.2899 46.9759 95.4386 46.3813 95.8846C45.3407 96.9252 45.3407 99.0064 45.3407 99.0064C45.3407 99.155 45.192 99.4523 45.0434 99.4523C44.8947 99.4523 44.5974 99.3037 44.5974 99.155C44.5974 99.0064 44.4487 96.7765 45.7866 95.4386C46.3813 94.8439 47.2732 94.5466 48.4625 94.5466C49.5031 94.5466 50.5437 95.2899 51.287 96.6278C53.0709 99.4523 53.5169 104.655 52.3276 107.629C52.4763 107.629 52.3276 107.777 52.1789 107.777Z" fill="#5A2800"/>
<path d="M52.6249 104.358C48.9085 104.358 47.7192 101.385 47.7192 101.236C47.7192 101.088 47.7192 100.79 47.8679 100.79C48.0166 100.79 48.3139 100.79 48.3139 100.939C48.3139 101.088 49.3545 103.615 52.7736 103.466C52.9223 103.466 53.2196 103.615 53.2196 103.763C53.2196 103.912 53.0709 104.209 52.9223 104.209C52.7736 104.358 52.6249 104.358 52.6249 104.358Z" fill="#5A2800"/>
<path d="M115.061 92.7627C115.061 92.7627 112.683 83.5459 107.034 82.9513C101.385 82.5053 98.4116 89.7896 98.4116 89.7896C98.4116 89.7896 102.425 85.9245 106.736 86.6678C112.98 87.857 115.061 92.7627 115.061 92.7627Z" fill="#F4931F"/>
<path d="M143.455 90.3841C143.455 90.3841 144.05 86.2217 139.738 85.627C135.427 85.0324 133.049 90.8301 133.049 90.8301C133.049 90.8301 137.211 87.1136 139.441 88.1542C141.82 89.1948 143.455 90.3841 143.455 90.3841Z" fill="#F4931F"/>
<path d="M105.844 106.737C104.507 109.413 102.128 111.048 100.641 110.156C99.1549 109.413 99.0062 106.588 100.344 103.912C101.682 101.236 104.061 99.6011 105.547 100.493C107.034 101.236 107.182 103.912 105.844 106.737Z" fill="#3F1C08"/>
<path d="M103.763 103.764C103.466 104.507 102.723 104.953 102.425 104.655C101.979 104.507 101.979 103.764 102.425 103.02C102.723 102.277 103.466 101.831 103.763 102.128C104.061 102.277 104.209 103.02 103.763 103.764Z" fill="white"/>
<path d="M104.655 130.522C104.655 130.522 93.9518 131.562 91.1273 119.075C91.1273 119.075 86.2215 124.576 89.492 128.589C92.7625 132.752 104.655 130.522 104.655 130.522Z" fill="#F39D91"/>
<path d="M89.3434 121.899C88.4515 123.832 87.7082 126.508 89.4921 128.738C90.5327 129.927 92.1679 130.522 94.1005 130.968C94.1005 127.4 92.0192 123.832 89.3434 121.899Z" fill="#EC665E"/>
<path d="M97.9656 131.116C101.533 131.116 104.655 130.522 104.655 130.522C104.655 130.522 95.587 131.413 91.8706 121.751C88.7488 124.873 93.6545 129.035 97.9656 131.116Z" fill="white"/>
<path opacity="0.5" d="M94.6951 113.872C94.5464 114.913 92.3165 115.359 89.7894 115.061C87.1135 114.764 85.181 113.575 85.3296 112.683C85.4783 111.642 87.7081 111.196 90.2353 111.493C92.7625 111.791 94.8437 112.831 94.6951 113.872Z" fill="#F38395"/>
<path opacity="0.5" d="M139.144 112.088C139.144 113.129 137.063 114.021 134.387 114.021C131.711 114.021 129.63 113.277 129.63 112.237C129.63 111.196 131.711 110.304 134.387 110.304C136.914 110.304 139.144 111.047 139.144 112.088Z" fill="#F38395"/>
<path d="M137.657 105.398C136.319 108.074 133.941 109.709 132.454 108.817C130.968 108.074 130.819 105.25 132.157 102.574C133.495 99.8979 135.873 98.2627 137.36 99.1547C138.847 99.8979 138.995 102.722 137.657 105.398Z" fill="#3F1C08"/>
<path d="M134.981 102.276C134.684 103.02 133.941 103.465 133.644 103.168C133.198 103.02 133.198 102.276 133.644 101.533C133.941 100.79 134.684 100.344 134.981 100.641C135.427 100.938 135.427 101.682 134.981 102.276Z" fill="white"/>
<path d="M5.64893 97.6682C5.64893 97.6682 36.7184 106.142 51.4356 118.183C51.4356 118.183 35.9751 99.8981 5.64893 97.6682Z" fill="#FCC330"/>
<path d="M54.5575 112.237C54.5575 112.237 57.0847 132.454 92.6139 135.279C92.6139 135.13 67.4907 135.427 54.5575 112.237Z" fill="#FFC390"/>
</svg>
