<svg width="26" height="26" viewBox="0 0 26 26" fill="none" xmlns="http://www.w3.org/2000/svg">
<path d="M13 0.00177002C5.82151 0.00177002 0 5.82164 0 13.0002C0 20.1819 5.82151 26.0002 13 26.0002C20.1785 26.0002 26.0001 20.182 26.0001 13.0002C26.0019 5.82164 20.1785 0.00177002 13 0.00177002ZM13 24.0991C6.8811 24.0991 1.90104 19.1226 1.90104 13.0037C1.90104 6.88129 6.8811 1.90471 13 1.90471C19.1189 1.90471 24.099 6.88319 24.099 13.0037C24.1009 19.1223 19.1192 24.0991 13 24.0991Z" fill="url(#paint0_linear_475_899)"/>
<path d="M11.8359 14.5162C11.8815 14.9624 11.9778 14.9843 12.3309 14.9843H13.6709C14.0241 14.9843 14.1203 14.9605 14.166 14.5162L14.6849 5.31153C14.7087 4.91108 14.7087 4.98031 14.7087 4.83836C14.7087 4.53583 14.4248 4.53583 14.2372 4.53583H11.7194C11.5302 4.53583 11.2971 4.53583 11.2971 4.83836C11.2971 4.98031 11.2971 4.91108 11.319 5.31153L11.8359 14.5162Z" fill="url(#paint1_linear_475_899)"/>
<path d="M13.0134 17.4838C11.881 17.4838 11.0094 18.3526 11.0094 19.4846C11.0094 20.5442 11.8814 21.4616 13.0134 21.4616C14.0966 21.4616 14.9904 20.5439 14.9904 19.4846C14.9907 18.3777 14.1187 17.4838 13.0134 17.4838Z" fill="url(#paint2_linear_475_899)"/>
<defs>
<linearGradient id="paint0_linear_475_899" x1="13" y1="0.00177002" x2="13" y2="26.0002" gradientUnits="userSpaceOnUse">
<stop stop-color="#5CADF4"/>
<stop offset="1" stop-color="#2C95F1"/>
</linearGradient>
<linearGradient id="paint1_linear_475_899" x1="13.0029" y1="4.53583" x2="13.0029" y2="14.9843" gradientUnits="userSpaceOnUse">
<stop stop-color="#5CADF4"/>
<stop offset="1" stop-color="#2C95F1"/>
</linearGradient>
<linearGradient id="paint2_linear_475_899" x1="12.9999" y1="17.4838" x2="12.9999" y2="21.4616" gradientUnits="userSpaceOnUse">
<stop stop-color="#5CADF4"/>
<stop offset="1" stop-color="#2C95F1"/>
</linearGradient>
</defs>
</svg>
