<svg width="107" height="116" viewBox="0 0 107 116" fill="none" xmlns="http://www.w3.org/2000/svg">
<g clip-path="url(#clip0_477_1079)">
<path d="M18.2055 74.9933C14.8406 71.9049 15.6197 66.321 9.94383 64.8826C10.0383 66.1481 10.0239 66.9861 10.2583 67.6092C12.9646 75.2647 15.7073 83.0627 18.5561 90.682C19.0249 91.9281 20.0661 93.6354 21.1191 93.8985C23.1359 94.3715 23.7876 92.461 24.28 90.8186C25.9165 85.6233 27.6955 80.3918 29.3852 75.1072C26.0498 74.8179 26.0498 74.8179 22.0011 83.0543C18.2595 66.5596 29.3761 51.5185 45.9559 51.0928C45.9273 52.7689 45.8092 54.3919 45.7805 56.068C45.8007 60.9176 47.1202 65.2091 50.4876 68.9036C52.9056 71.5502 55.8354 72.9287 59.4507 71.933C63.1191 70.848 64.587 67.9713 65.1249 64.4209C66.377 56.8202 62.7314 50.5415 55.4638 47.9151C54.5532 47.6158 53.7489 47.1378 52.534 46.5366C56.8482 37.8534 63.025 31.1237 71.8541 27.6636C85.489 22.2222 94.8324 30.9199 98.7056 40.4783C99.2275 41.6351 99.4112 42.9537 100.061 44.9123C101.44 41.9824 100.86 39.7027 100.227 37.5122C97.8195 28.9462 89.2687 22.1708 80.3519 21.7087C74.6811 21.4827 69.4091 22.8241 64.6615 25.9284C57.7091 30.504 52.1529 36.3931 48.7079 44.0207C48.3724 44.7888 47.9474 45.5038 47.5056 46.4506C39.8594 47.1065 32.4669 48.7598 26.5533 54.4365C20.9246 60.0406 19.9575 67.5688 18.2055 74.9933ZM50.8418 51.2151C58.7081 52.0203 63.1167 57.4222 61.5215 63.9723C61.1716 65.5785 59.8774 67.349 58.4719 68.0859C56.5327 69.1103 54.6728 67.7629 53.3997 66.0388C49.9404 61.6849 49.4565 56.8015 50.8418 51.2151Z" fill="url(#paint0_linear_477_1079)"/>
</g>
<defs>
<linearGradient id="paint0_linear_477_1079" x1="28.997" y1="98.6521" x2="77.4021" y2="17.2099" gradientUnits="userSpaceOnUse">
<stop stop-color="#5CADF4"/>
<stop offset="1" stop-color="#2C95F1"/>
</linearGradient>
<clipPath id="clip0_477_1079">
<rect width="67.3683" height="94.7107" fill="white" transform="matrix(0.859629 0.510919 0.510919 -0.859629 0.117126 81.416)"/>
</clipPath>
</defs>
</svg>
