<svg width="42" height="42" viewBox="0 0 42 42" fill="none" xmlns="http://www.w3.org/2000/svg">
<path d="M2.625 22.2872V38.0372C2.625 39.4862 3.80362 40.6622 5.25 40.6622H18.375V22.2872H2.625Z" fill="url(#paint0_linear_816_2064)"/>
<path d="M39.375 11.7872H31.0695C31.6654 11.3804 32.1772 10.9761 32.5342 10.6139C34.6526 8.48499 34.6526 5.01999 32.5342 2.89111C30.4762 0.817363 26.8905 0.822613 24.8351 2.89111C23.6959 4.03299 20.6771 8.68186 21.0945 11.7872H20.9055C21.3203 8.68186 18.3015 4.03299 17.1649 2.89111C15.1069 0.822613 11.5211 0.822613 9.46575 2.89111C7.35 5.01999 7.35 8.48499 9.46313 10.6139C9.82275 10.9761 10.3346 11.3804 10.9305 11.7872H2.625C1.17862 11.7872 0 12.9659 0 14.4122V18.3497C0 19.0742 0.588 19.6622 1.3125 19.6622H18.375V14.4122H23.625V19.6622H40.6875C41.412 19.6622 42 19.0742 42 18.3497V14.4122C42 12.9659 40.824 11.7872 39.375 11.7872ZM18.2201 11.7006C18.2201 11.7006 18.1099 11.7872 17.7345 11.7872C15.9206 11.7872 12.4583 9.90249 11.3269 8.76324C10.227 7.65549 10.227 5.84949 11.3269 4.74174C11.8597 4.20624 12.5659 3.91224 13.3166 3.91224C14.0647 3.91224 14.7709 4.20624 15.3038 4.74174C17.073 6.52149 18.8318 11.068 18.2201 11.7006ZM24.2629 11.7872C23.8901 11.7872 23.7799 11.7032 23.7799 11.7006C23.1682 11.068 24.927 6.52149 26.6963 4.74174C27.7541 3.67336 29.6048 3.66811 30.6731 4.74174C31.7756 5.84949 31.7756 7.65549 30.6731 8.76324C29.5418 9.90249 26.0794 11.7872 24.2629 11.7872Z" fill="url(#paint1_linear_816_2064)"/>
<path d="M23.625 22.2872V40.6622H36.75C38.199 40.6622 39.375 39.4862 39.375 38.0372V22.2872H23.625Z" fill="url(#paint2_linear_816_2064)"/>
<defs>
<linearGradient id="paint0_linear_816_2064" x1="10.5" y1="22.2872" x2="10.5" y2="40.6622" gradientUnits="userSpaceOnUse">
<stop stop-color="#5CADF4"/>
<stop offset="1" stop-color="#2C95F1"/>
</linearGradient>
<linearGradient id="paint1_linear_816_2064" x1="21" y1="1.33777" x2="21" y2="19.6622" gradientUnits="userSpaceOnUse">
<stop stop-color="#5CADF4"/>
<stop offset="1" stop-color="#2C95F1"/>
</linearGradient>
<linearGradient id="paint2_linear_816_2064" x1="31.5" y1="22.2872" x2="31.5" y2="40.6622" gradientUnits="userSpaceOnUse">
<stop stop-color="#5CADF4"/>
<stop offset="1" stop-color="#2C95F1"/>
</linearGradient>
</defs>
</svg>
