<svg width="206" height="223" viewBox="0 0 206 223" fill="none" xmlns="http://www.w3.org/2000/svg">
<g clip-path="url(#clip0_816_1859)">
<path d="M204.345 91.3914C199.168 94.8833 194.953 90.9097 194.11 85.8525C193.268 81.2769 194.231 76.3401 194.833 71.7645C195.917 62.9745 196.157 54.5458 193.388 46.1171C190.859 38.4108 185.923 32.1495 180.022 26.731C177.012 24.082 173.52 22.035 169.667 21.0717C167.741 20.5901 165.934 20.3493 163.887 20.1084C162.804 19.988 161.84 20.2289 160.877 20.4697C156.422 19.0247 152.208 24.9249 150.281 28.2963C146.308 35.0393 144.261 42.6252 142.936 50.3314C141.612 57.5561 141.852 65.0215 142.454 72.3665C143.056 79.3503 144.622 86.3341 147.632 92.7159C149.077 95.8466 151.004 98.8568 153.412 101.506C155.7 104.034 157.987 106.322 159.673 109.212C161.961 113.186 160.516 117.641 157.867 120.892C157.265 121.735 154.977 124.625 157.506 124.745C164.128 124.986 171.232 123.059 177.012 119.929C179.541 118.484 181.588 116.918 183.274 114.631C184.116 113.547 184.598 112.343 184.959 111.139V111.018C185.08 111.982 184.959 112.945 184.959 113.908C184.959 114.51 184.598 116.316 185.441 116.437C187.367 116.918 189.053 114.631 190.137 113.306C191.823 111.018 193.147 108.49 193.629 105.6C193.749 104.757 193.749 103.794 193.508 103.071C195.194 102.83 196.88 102.108 198.204 101.506C201.817 99.6997 204.105 95.2445 205.309 91.6322C205.549 90.9097 204.466 91.271 204.345 91.3914Z" fill="#792D16"/>
<path d="M158.349 125.106C157.987 125.106 157.626 125.106 157.385 125.106C156.663 125.106 156.181 124.865 155.94 124.384C155.579 123.661 156.061 122.457 157.506 120.651C158.951 118.845 161.961 114.029 159.312 109.333C157.987 107.045 156.302 105.239 154.495 103.312C154.014 102.83 153.532 102.228 153.051 101.747C150.763 99.0976 148.836 96.2078 147.271 92.9567C144.381 86.9362 142.695 80.0728 142.093 72.487C141.612 65.8644 141.25 58.0377 142.575 50.4519C144.261 41.0598 146.548 34.1965 149.92 28.4168C151.726 25.4065 155.338 20.2289 159.312 20.2289C159.793 20.2289 160.275 20.3493 160.757 20.4697C161.6 20.2289 162.683 19.988 163.767 20.1084C165.694 20.2289 167.62 20.5901 169.547 21.0717C173.279 22.035 176.892 23.9616 180.022 26.8514C186.645 32.8719 191.1 39.2537 193.508 46.3579C196.398 55.1479 195.917 63.9378 194.953 72.1257C194.833 72.9686 194.712 73.8115 194.592 74.6543C194.11 78.5075 193.508 82.481 194.231 86.0933C194.953 89.9465 197.482 92.7159 200.372 92.7159C201.576 92.7159 202.78 92.2343 203.984 91.5118C204.104 91.3914 204.586 91.271 204.947 91.271C205.188 91.271 205.429 91.3914 205.429 91.5118C205.549 91.6322 205.549 91.7526 205.429 92.1138C204.707 94.4016 202.419 100.181 198.204 102.228C197.121 102.71 195.555 103.432 193.749 103.794C193.87 104.637 193.87 105.359 193.749 106.202C193.268 108.971 191.943 111.62 190.137 114.029L190.016 114.149C189.053 115.473 187.488 117.4 185.682 117.4C185.441 117.4 185.32 117.4 185.08 117.4C183.996 117.159 184.237 115.594 184.237 114.751C184.237 114.631 184.237 114.51 184.237 114.51V114.149C184.237 113.908 184.237 113.547 184.237 113.306C183.876 114.149 183.514 114.871 183.033 115.594C181.467 117.761 179.42 119.327 176.651 120.892C171.473 123.3 164.61 125.106 158.349 125.106ZM159.312 20.7105C155.579 20.7105 152.087 25.6473 150.401 28.5372C147.03 34.3169 144.742 41.0598 143.056 50.4519C141.612 58.0377 141.973 65.744 142.575 72.3665C143.177 79.832 144.863 86.575 147.752 92.5955C149.197 95.8466 151.124 98.7364 153.412 101.265C153.893 101.867 154.375 102.349 154.857 102.83C156.542 104.757 158.349 106.684 159.793 108.971C161.84 112.463 161.118 117.039 157.987 121.012C156.422 123.059 156.422 123.782 156.542 124.023C156.663 124.263 156.904 124.384 157.385 124.384C163.767 124.625 170.992 122.818 176.771 119.567C179.541 118.002 181.347 116.437 182.912 114.39C183.635 113.426 184.116 112.222 184.598 111.018V110.898C184.598 110.898 184.598 110.898 184.598 110.777V110.657C184.598 110.537 184.839 110.416 184.959 110.416C185.08 110.416 185.2 110.537 185.2 110.657C185.32 111.5 185.2 112.343 185.2 113.306V113.667C185.2 113.788 185.2 113.908 185.2 114.029C185.2 114.51 184.959 115.835 185.441 115.955C185.561 115.955 185.682 115.955 185.923 115.955C187.488 115.955 188.812 114.149 189.776 112.945L189.896 112.824C191.702 110.537 192.906 108.008 193.388 105.359C193.508 104.637 193.508 103.794 193.268 102.951C193.268 102.83 193.268 102.83 193.268 102.71C193.268 102.59 193.388 102.59 193.508 102.59C195.315 102.349 197 101.626 198.084 101.024C202.178 99.0976 204.225 93.5588 205.068 91.3914C204.827 91.3914 204.586 91.5118 204.586 91.5118C203.262 92.4751 201.937 92.8363 200.613 92.8363C197.362 92.8363 194.592 89.9465 193.87 85.7321C193.147 81.9994 193.749 78.0258 194.231 74.0523C194.351 73.2094 194.472 72.3665 194.592 71.5237C195.555 63.3358 196.037 54.6662 193.147 45.9967C190.859 39.0129 186.525 32.7515 179.902 26.731C176.892 23.9616 173.279 22.035 169.667 21.0717C167.741 20.5901 165.814 20.3493 164.008 20.1084C162.924 19.988 161.961 20.2289 161.118 20.4697C161.118 20.4697 160.998 20.4697 160.877 20.4697C160.275 20.7105 159.793 20.7105 159.312 20.7105Z" fill="#5A2800"/>
<path opacity="0.5" d="M159.553 109.212C161.84 113.186 160.396 117.641 157.747 120.892C157.265 121.615 155.579 123.662 156.422 124.504C160.396 124.264 164.61 122.337 167.741 120.29C172.316 117.28 177.373 112.102 176.651 106.082C176.651 105.961 178.096 105.72 178.578 105.72C178.578 105.6 188.09 104.877 191.461 98.7366C190.257 98.9774 188.933 98.9774 187.729 98.9774C186.645 98.9774 185.561 98.7366 184.598 98.4957C184.478 98.4957 184.357 98.3753 184.237 98.3753C183.153 98.0141 182.069 97.412 181.106 96.4488C180.504 95.9671 180.022 95.3651 179.541 94.763C177.253 91.7527 177.012 88.3813 177.253 84.769C177.614 80.1934 178.578 75.8586 179.541 71.4034C180.504 66.587 181.467 61.6502 181.106 56.7133C180.865 53.5827 180.504 50.3316 179.902 47.3213C177.975 37.6885 174.122 26.7312 166.175 20.5902C165.453 20.4698 164.73 20.4698 164.128 20.3494C163.045 20.229 162.081 20.4698 161.118 20.7106C156.663 19.2657 152.448 25.1658 150.522 28.5373C146.548 35.2803 144.501 42.8661 143.177 50.5724C141.852 57.797 142.093 65.2625 142.695 72.6075C143.297 79.5913 144.863 86.5751 147.873 92.9569C149.318 96.0875 151.244 99.0978 153.653 101.747C155.459 104.035 157.747 106.202 159.553 109.212Z" fill="#792D16"/>
<path d="M72.2552 200.122L68.8837 200.724C68.8837 200.724 65.8734 195.186 66.5959 190.128C67.3183 185.071 77.192 195.908 77.192 195.908L72.2552 200.122Z" fill="#612D20"/>
<path d="M68.8837 201.085C68.7633 201.085 68.6429 201.085 68.6429 200.965C68.5224 200.724 65.5122 195.306 66.2346 190.128C66.4755 188.804 67.1979 188.563 67.8 188.563C70.6898 188.563 77.0716 195.426 77.3124 195.787C77.3124 195.908 77.4328 195.908 77.4328 196.028C77.4328 196.149 77.4328 196.149 77.3124 196.269L72.496 200.483L72.3756 200.604L68.8837 201.085ZM67.8 189.165C67.4388 189.165 66.9571 189.285 66.8367 190.248C66.2346 194.583 68.5224 199.4 69.0041 200.483L72.0143 199.881L76.5899 195.908C74.6634 193.861 69.9674 189.165 67.8 189.165Z" fill="#5A2800"/>
<path d="M74.6634 198.436C74.6634 198.436 58.0467 188.322 58.1672 187.84C58.2876 187.359 48.6547 202.53 38.2994 209.394L29.9911 204.457C29.9911 204.457 35.0484 188.563 40.5872 175.318C46.0057 162.072 50.7017 158.219 60.0937 160.025C69.4857 161.832 82.0084 177.605 82.4901 177.605C82.8513 177.605 82.9717 191.573 74.6634 198.436Z" fill="#FFC390"/>
<path d="M38.2994 209.755H38.179L29.8707 204.818C29.7503 204.698 29.6299 204.577 29.7503 204.457C29.7503 204.336 34.9279 188.442 40.3464 175.318C45.1628 163.758 49.3772 159.423 56.1202 159.423C57.3243 159.423 58.6488 159.544 60.2141 159.905C67.8 161.35 77.5532 171.946 81.1655 175.92C81.888 176.642 82.49 177.364 82.6105 177.485C82.7309 177.485 82.8513 177.605 82.8513 177.726C83.3329 178.93 82.8513 192.175 74.9042 198.798C74.7838 198.918 74.6634 198.918 74.543 198.798C62.6223 191.573 59.2508 189.285 58.2876 188.442C58.1671 188.563 58.0467 188.803 57.8059 189.044C50.8221 198.918 44.32 205.902 38.5403 209.755C38.4198 209.755 38.4198 209.755 38.2994 209.755ZM30.4728 204.336L38.4198 209.032C44.0791 205.179 50.4609 198.316 57.3243 188.563C58.0467 187.479 58.0467 187.479 58.2876 187.479C58.408 187.479 58.5284 187.479 58.5284 187.599C58.5284 187.599 58.5284 187.599 58.5284 187.72C59.2508 188.442 68.402 194.222 74.6634 197.955C82.1288 191.573 82.6105 179.171 82.2492 177.846C82.0084 177.726 81.6472 177.364 80.5635 176.16C76.9512 172.187 67.3183 161.832 59.9733 160.387C58.5284 160.146 57.2039 160.025 56.1202 160.025C49.618 160.025 45.6445 164.119 40.9485 175.558C35.8912 187.72 31.0748 202.289 30.4728 204.336Z" fill="#5A2800"/>
<path d="M40.5872 196.51C42.875 197.955 45.1628 199.881 46.6078 202.29C44.0791 204.939 41.1893 207.588 38.2994 209.514L29.9911 204.577C29.9911 204.577 31.4361 200.002 33.7239 193.62C36.2525 193.981 38.6607 195.185 40.5872 196.51Z" fill="#FEF5A1"/>
<path d="M38.2994 209.755H38.179L29.8707 204.818C29.7503 204.698 29.6299 204.577 29.7503 204.457C29.7503 204.457 31.3156 199.761 33.483 193.5C33.483 193.379 33.7238 193.259 33.8443 193.259C36.6137 193.74 39.1423 195.185 40.8281 196.269C43.5975 198.075 45.6445 200.122 46.969 202.169C47.0894 202.29 46.969 202.41 46.969 202.53C44.0791 205.541 41.1893 208.069 38.5403 209.755C38.4198 209.755 38.4198 209.755 38.2994 209.755ZM30.4728 204.337L38.4198 209.033C40.9485 207.347 43.5975 205.059 46.3669 202.169C45.1628 200.243 43.1159 198.436 40.5872 196.751C39.0219 195.787 36.6137 194.463 34.0851 193.861C32.0381 199.279 30.7136 203.373 30.4728 204.337Z" fill="#5A2800"/>
<path d="M75.7471 182.783C76.7103 179.17 77.0716 175.076 76.4695 171.344C79.841 174.715 82.2492 177.605 82.49 177.605C82.9717 177.605 82.9717 191.573 74.6634 198.436C74.6634 198.436 72.1347 196.871 69.1245 194.944C72.3756 191.693 74.5429 187.238 75.7471 182.783Z" fill="#FFC390"/>
<path d="M58.1671 188.202C58.2875 188.202 58.4079 188.202 58.4079 188.081C62.8631 181.94 63.3448 176.522 63.3448 176.281C63.3448 176.16 63.2244 175.92 63.104 175.92C62.9835 175.92 62.7427 176.04 62.7427 176.16C62.7427 176.16 62.2611 181.579 57.9263 187.599C57.8059 187.72 57.8059 187.961 58.0467 188.081C58.0467 188.202 58.1671 188.202 58.1671 188.202Z" fill="#5A2800"/>
<path d="M19.0338 218.545C12.6521 217.221 3.13963 212.765 0.972244 209.033C1.09265 208.792 1.21306 208.671 1.21306 208.671C5.30702 201.086 18.1909 205.902 18.1909 205.902L25.2951 218.906C24.2114 219.147 22.2849 219.267 19.0338 218.545Z" fill="#F38395"/>
<path d="M23.3686 219.388C22.1645 219.388 20.7196 219.267 19.0338 218.906C12.4112 217.461 2.89882 212.886 0.73143 209.273C0.73143 209.153 0.73143 209.033 0.73143 208.912C0.85184 208.671 0.972251 208.551 0.972251 208.551C2.53759 205.661 5.54784 204.096 9.88262 204.096C14.2174 204.096 18.1909 205.541 18.3113 205.661C18.4318 205.661 18.4318 205.781 18.4318 205.781L25.536 218.786C25.536 218.906 25.536 219.027 25.536 219.027C25.536 219.147 25.4156 219.147 25.2951 219.267C24.8135 219.388 24.091 219.388 23.3686 219.388ZM1.33348 209.033C3.62128 212.524 12.7725 216.859 19.1542 218.304C21.5624 218.786 23.489 218.906 24.8135 218.665L17.9501 206.143C17.3481 205.902 13.6153 204.698 9.88262 204.698C5.78866 204.698 2.89882 206.022 1.45389 208.792C1.45389 208.792 1.45389 208.912 1.33348 209.033Z" fill="#5A2800"/>
<path d="M1.21306 208.672C3.13963 205.18 6.87235 204.337 10.4847 204.457C12.5316 205.902 14.2174 207.829 14.9398 210.116C15.7827 212.645 15.5419 214.812 14.9398 217.341V217.462C9.16015 215.415 2.65799 211.923 0.972244 209.033C1.09265 208.792 1.21306 208.672 1.21306 208.672Z" fill="#F1DDD4"/>
<path d="M14.8194 217.702C9.28057 215.776 2.53759 212.404 0.73143 209.273C0.73143 209.153 0.73143 209.033 0.73143 208.912C0.85184 208.671 0.972251 208.551 0.972251 208.551C2.53759 205.661 5.54785 204.096 9.88262 204.096C10.1234 204.096 10.2439 204.096 10.4847 204.096H10.6051C12.7725 205.661 14.4582 207.708 15.1807 209.996C16.144 212.886 15.7827 215.173 15.1807 217.341V217.461C15.1807 217.582 15.0603 217.582 15.0603 217.702C14.9399 217.702 14.9399 217.702 14.8194 217.702ZM1.33348 209.033C3.13964 211.802 9.28057 215.053 14.5786 216.98C15.1807 214.692 15.4215 212.645 14.5786 210.237C13.8562 208.069 12.2908 206.143 10.2439 204.818C10.1234 204.818 9.88262 204.818 9.76221 204.818C5.66826 204.818 2.77841 206.143 1.33348 208.912C1.45389 208.792 1.45389 208.912 1.33348 209.033Z" fill="#5A2800"/>
<path d="M19.0338 218.545C22.1645 219.268 24.091 219.147 25.2951 218.906L26.9809 221.917C14.8194 222.398 2.65798 214.451 1.21306 212.645C0.129362 211.321 0.731414 209.755 0.972235 209.033C3.13962 212.765 12.7725 217.221 19.0338 218.545Z" fill="#F1DDD4"/>
<path d="M25.7768 222.278C13.9766 222.278 2.29676 214.692 0.972242 212.886C-0.231862 211.32 0.37019 209.635 0.731421 209.033C0.731421 208.912 0.851831 208.912 0.972242 208.792C1.09265 208.792 1.21306 208.792 1.21306 208.912C3.26004 212.404 12.652 216.859 19.1542 218.304C20.7195 218.665 22.1645 218.786 23.3686 218.786C24.091 218.786 24.6931 218.665 25.2951 218.545C25.4155 218.545 25.536 218.545 25.6564 218.665L27.3421 221.676C27.3421 221.796 27.3421 221.916 27.3421 222.037C27.3421 222.157 27.2217 222.157 27.1013 222.157C26.6196 222.157 26.138 222.278 25.7768 222.278ZM1.09265 209.755C0.851831 210.477 0.731421 211.561 1.45388 212.404C2.7784 214.21 14.2174 221.555 25.7768 221.555C26.0176 221.555 26.2584 221.555 26.3788 221.555L25.0543 219.267C24.5727 219.388 23.8502 219.388 23.2482 219.388C22.0441 219.388 20.5991 219.267 18.9134 218.906C12.652 217.461 3.74168 213.367 1.09265 209.755Z" fill="#5A2800"/>
<path d="M79.1186 172.428C79.1186 172.428 83.935 185.191 68.7633 200.363C68.7633 200.363 84.4166 208.551 92.7249 207.227C101.033 205.902 108.378 192.537 108.378 192.537C108.378 192.537 80.4431 172.669 79.1186 172.428Z" fill="#9B4F3E"/>
<path d="M90.7984 207.588C82.2492 207.588 69.2449 200.845 68.7633 200.604C68.6429 200.604 68.6429 200.483 68.6429 200.363C68.6429 200.243 68.6429 200.122 68.7633 200.122C76.4695 192.416 78.8777 185.312 79.4798 180.736C80.2023 175.799 78.9981 172.548 78.9981 172.548C78.9981 172.428 78.9981 172.307 78.9981 172.187C79.1186 172.067 79.239 172.067 79.3594 172.067C80.6839 172.307 105.85 190.249 108.74 192.175C108.86 192.296 108.86 192.416 108.86 192.536C108.499 193.138 101.394 205.902 92.9657 207.347C92.2433 207.588 91.5208 207.588 90.7984 207.588ZM69.3653 200.243C71.6531 201.326 83.0921 206.986 90.6779 206.986C91.4004 206.986 92.1229 206.986 92.7249 206.865C100.19 205.661 106.933 194.463 108.017 192.657C97.7822 185.432 82.8513 175.077 79.6002 173.03C80.4431 175.92 82.1288 187.238 69.3653 200.243Z" fill="#5A2800"/>
<path d="M86.8248 177.365C86.8248 178.448 86.8248 179.412 86.8248 180.375C86.7044 184.83 85.5003 189.285 83.4533 193.259C81.5268 197.112 78.9981 200.604 75.9879 203.494C71.8939 201.808 68.8837 200.243 68.8837 200.243C84.0554 185.071 79.239 172.307 79.239 172.307C79.6002 172.548 82.7309 174.595 86.8248 177.365Z" fill="#9B4F3E"/>
<path d="M75.9879 203.855C75.8675 203.855 75.8675 203.855 75.9879 203.855C71.7735 202.169 68.7633 200.604 68.7633 200.604C68.6429 200.604 68.6429 200.483 68.6429 200.363C68.6429 200.243 68.6429 200.122 68.7633 200.122C76.4695 192.416 78.8777 185.312 79.4798 180.736C80.2023 175.799 78.9981 172.548 78.9981 172.548C78.9981 172.428 78.9981 172.307 78.9981 172.187C79.1186 172.067 79.239 172.067 79.3594 172.067C79.6002 172.067 79.9614 172.187 87.186 177.124C87.3065 177.124 87.3065 177.244 87.3065 177.365C87.3065 178.448 87.3065 179.532 87.3065 180.375C87.1861 184.83 85.9819 189.285 83.8146 193.379C81.6472 197.473 79.1186 200.965 76.3491 203.735C76.1083 203.855 75.9879 203.855 75.9879 203.855ZM69.3653 200.243C70.3286 200.724 72.7368 201.928 75.8675 203.133C78.6369 200.483 81.0451 197.112 83.0921 193.138C85.1391 189.045 86.3432 184.83 86.4636 180.375C86.4636 179.532 86.584 178.569 86.4636 177.606C82.3696 174.716 80.4431 173.512 79.6002 173.03C80.4431 175.92 82.1288 187.238 69.3653 200.243Z" fill="#5A2800"/>
<path d="M106.693 200.363C101.997 194.342 96.9393 191.453 93.2066 190.008L97.1801 188.803L99.8291 183.987L162.081 186.757C162.081 186.757 166.175 221.314 113.676 222.639C113.797 217.702 112.833 208.31 106.693 200.363Z" fill="#9B4F3E"/>
<path d="M113.676 223C113.556 223 113.556 223 113.436 222.88C113.436 222.759 113.315 222.759 113.315 222.639C113.315 217.822 112.472 208.43 106.331 200.483C101.635 194.342 96.4577 191.453 92.9658 190.248C92.8454 190.248 92.7249 190.128 92.7249 189.887C92.7249 189.767 92.8454 189.646 92.9658 189.646L96.8189 188.563L99.4679 183.867C99.4679 183.746 99.5883 183.746 99.7087 183.746L161.961 186.516C162.081 186.516 162.202 186.636 162.322 186.757C162.322 186.877 163.526 198.196 154.977 208.069C147.03 217.461 133.062 222.518 113.676 223ZM94.1699 190.008C97.6618 191.453 102.478 194.463 106.933 200.122C112.954 208.069 114.038 217.22 114.038 222.278C133.062 221.676 146.669 216.739 154.616 207.588C162.202 198.798 161.961 188.804 161.84 186.997L100.07 184.348L97.4209 188.924C97.4209 189.044 97.3005 189.044 97.1801 189.044L94.1699 190.008Z" fill="#5A2800"/>
<path d="M145.705 192.777C137.999 192.295 130.293 191.814 122.707 190.61C114.76 189.406 106.933 187.479 99.4679 184.83L99.9496 183.987L162.202 186.757C162.202 186.757 162.443 188.803 162.081 191.814C156.783 193.259 151.004 193.138 145.705 192.777Z" fill="#28588F"/>
<path d="M106.693 200.363C112.833 208.31 113.676 217.702 113.676 222.639C111.389 222.759 109.101 222.759 106.693 222.639C106.693 222.639 102.599 194.704 84.537 192.416L93.2066 189.887C96.9393 191.453 102.117 194.343 106.693 200.363Z" fill="#9B4F3E"/>
<path d="M110.184 223C108.98 223 107.897 223 106.693 223C106.572 223 106.452 222.88 106.331 222.759C106.331 222.518 102.117 195.065 84.4166 192.898C84.2962 192.898 84.1758 192.777 84.1758 192.657C84.1758 192.536 84.2962 192.416 84.4166 192.295L93.0862 189.767C93.2066 189.767 93.2066 189.767 93.327 189.767C96.9393 191.091 102.237 193.981 106.933 200.243C113.195 208.31 114.038 217.822 114.038 222.759C114.038 222.88 113.917 223.121 113.676 223.121C112.593 223 111.389 223 110.184 223ZM106.933 222.398C109.101 222.398 111.148 222.398 113.315 222.398C113.315 217.461 112.352 208.31 106.331 200.604C101.635 194.583 96.5781 191.693 93.0862 190.369L85.8615 192.416C101.997 195.667 106.452 219.629 106.933 222.398Z" fill="#5A2800"/>
<path d="M106.693 222.639C106.693 222.639 88.3901 214.21 84.537 192.416C102.599 194.704 106.693 222.639 106.693 222.639Z" fill="#612D20"/>
<path d="M106.693 223H106.572C106.331 222.88 88.0289 214.21 84.2962 192.536C84.2962 192.416 84.2962 192.295 84.4166 192.295C84.537 192.175 84.537 192.175 84.6574 192.175C102.237 194.342 106.813 220.833 107.054 222.518V222.639C107.054 222.88 106.933 223 106.693 223ZM84.8983 192.898C88.3902 211.802 103.201 220.471 106.211 222.157C105.609 218.063 100.792 195.185 84.8983 192.898Z" fill="#5A2800"/>
<path d="M84.537 192.536C84.537 192.536 52.267 197.111 36.8545 207.467L39.0219 218.785C39.0219 218.785 46.2465 217.822 54.314 217.702C62.3815 217.461 104.646 214.451 104.646 214.451C104.646 214.451 101.274 202.53 94.0494 196.871C94.1698 196.75 91.1596 194.222 84.537 192.536Z" fill="#FFC390"/>
<path d="M39.0219 219.147C38.9015 219.147 38.7811 219.026 38.6607 218.906L36.4933 207.587C36.4933 207.467 36.4933 207.347 36.6137 207.226C51.9058 196.871 84.1758 192.295 84.4166 192.175H84.537C91.1596 193.861 94.0494 196.389 94.2902 196.51C101.394 202.169 104.886 214.089 104.886 214.21C104.886 214.33 104.886 214.451 104.886 214.451C104.886 214.571 104.766 214.571 104.646 214.571C104.284 214.571 62.2611 217.702 54.314 217.822C46.3669 218.183 39.1423 219.026 39.0219 219.147ZM37.2157 207.587L39.2627 218.424C40.7076 218.304 47.2098 217.461 54.314 217.341C61.8999 217.1 99.9495 214.33 104.284 214.089C103.682 212.043 100.19 202.048 93.929 197.112C93.929 197.112 90.9188 194.583 84.537 192.897C82.9717 193.018 52.1466 197.714 37.2157 207.587Z" fill="#5A2800"/>
<path d="M52.1466 209.634C51.665 206.865 50.8221 203.493 48.5343 201.567C42.5138 203.373 40.7076 203.493 35.53 205.179L38.4198 219.147C38.4198 219.147 47.3302 218.304 52.1466 217.822C52.6283 215.173 52.5079 212.283 52.1466 209.634Z" fill="#FEF5A1"/>
<path d="M38.2994 219.508C38.179 219.508 38.0586 219.388 37.9382 219.267L35.1688 205.3C35.1688 205.179 35.1688 204.938 35.4096 204.938C38.2994 203.975 40.1056 203.494 42.273 203.012C43.9587 202.53 45.7649 202.049 48.4139 201.326C48.5343 201.326 48.6547 201.326 48.6547 201.326C51.1833 203.373 52.0262 206.985 52.3874 209.634C52.7487 211.802 52.9895 214.933 52.3874 217.943C52.3874 218.063 52.267 218.184 52.1466 218.184C47.3302 218.665 38.4198 219.508 38.2994 219.508C38.4198 219.508 38.4198 219.508 38.2994 219.508ZM35.8912 205.42L38.6607 218.786C40.226 218.665 47.571 217.943 51.9058 217.461C52.5079 214.571 52.1466 211.561 51.9058 209.514C51.5446 207.106 50.7017 203.734 48.5343 201.808C45.8853 202.53 44.0791 203.012 42.5138 203.494C40.3464 204.096 38.5403 204.577 35.8912 205.42Z" fill="#5A2800"/>
<path d="M81.0451 193.018C83.2125 192.657 84.537 192.416 84.537 192.416C91.1596 194.102 94.0494 196.63 94.0494 196.63C101.154 202.289 104.646 214.21 104.646 214.21C104.646 214.21 102.96 214.33 100.311 214.571C98.8658 204.818 90.7983 195.306 81.0451 193.018Z" fill="#FFC390"/>
<path d="M35.7708 201.206C35.7708 201.206 39.8648 200.965 39.6239 204.457C39.5035 206.985 39.1423 207.346 39.8648 211.802C40.5872 216.257 43.3567 218.545 41.7913 220.351C40.226 222.157 30.5932 222.518 27.1013 222.277C27.1013 222.277 25.0543 222.277 23.6094 220.11C22.1644 217.822 16.3847 202.048 15.4215 194.583C14.4582 187.118 14.9398 183.024 21.6828 184.95C28.0645 186.515 34.6871 195.185 35.7708 201.206Z" fill="#F38395"/>
<path d="M29.6299 222.639C28.6666 222.639 27.8237 222.639 27.1013 222.518C26.8604 222.518 24.8135 222.398 23.3685 220.231C21.8032 217.822 16.0235 201.928 15.1806 194.583C14.5786 190.008 14.5786 186.877 16.0235 185.191C17.1072 183.987 19.0338 183.746 21.9236 184.469C28.3054 186.275 34.9279 194.824 36.132 200.844C36.8545 200.844 38.2994 200.965 39.2627 202.049C39.8648 202.651 40.1056 203.493 39.9852 204.457C39.9852 204.938 39.8648 205.42 39.8648 205.781C39.7444 207.226 39.6239 208.189 40.226 211.681C40.5872 213.488 41.1893 214.932 41.6709 216.137C42.3934 217.943 43.1158 219.267 42.0321 220.471C40.5872 222.157 33.483 222.639 29.6299 222.639ZM18.9134 184.709C17.8297 184.709 16.9868 185.071 16.3847 185.673C15.0602 187.118 15.1806 190.248 15.6623 194.463C16.6256 202.049 22.5257 217.822 23.8502 219.869C25.1747 221.916 26.9809 221.916 26.9809 221.916C27.7033 221.916 28.5462 222.037 29.5095 222.037C34.5667 222.037 40.3464 221.314 41.4301 220.11C42.1526 219.267 41.7913 218.304 40.9485 216.377C40.4668 215.173 39.7444 213.608 39.3831 211.802C38.7811 208.31 38.9015 207.226 39.0219 205.781C39.0219 205.42 39.1423 204.938 39.1423 204.457C39.1423 203.614 39.0219 203.012 38.5402 202.53C37.6974 201.687 36.2524 201.567 35.7708 201.567C35.53 201.567 35.6504 201.567 35.6504 201.567C35.53 201.567 35.4096 201.446 35.2892 201.326C34.3259 195.546 27.8237 186.877 21.5624 185.191C20.5991 184.83 19.6358 184.709 18.9134 184.709Z" fill="#5A2800"/>
<path d="M32.5197 193.74C32.6402 195.787 32.0381 197.955 30.7136 200.002C28.787 202.651 26.138 203.975 23.1277 204.939C21.6828 205.42 19.9971 205.902 18.4317 206.263C17.1072 201.928 15.9031 197.593 15.5419 194.583C14.5786 187.118 15.0602 183.024 21.8032 184.95C25.6564 185.914 29.7503 189.646 32.5197 193.74Z" fill="#F1DDD4"/>
<path d="M18.4317 206.504C18.3113 206.504 18.1909 206.384 18.1909 206.263C17.1072 202.771 15.6623 197.955 15.301 194.463C14.699 189.887 14.699 186.757 16.1439 185.071C17.2276 183.867 19.1542 183.626 22.044 184.349C25.7767 185.312 29.8707 188.804 33.0014 193.379V193.5C33.1218 195.788 32.5197 197.955 31.0748 199.881C29.0278 202.771 26.138 203.975 23.3685 204.939C21.6828 205.661 20.1175 206.263 18.4317 206.504ZM18.9134 184.71C17.8297 184.71 16.9868 185.071 16.3847 185.673C15.0602 187.118 15.1806 190.249 15.6623 194.463C16.0235 197.714 17.348 202.41 18.4317 205.782C19.997 205.541 21.442 205.059 22.8869 204.577C25.6563 203.735 28.4258 202.53 30.3523 199.761C31.6769 197.955 32.2789 195.908 32.1585 193.861C29.1482 189.406 25.1747 186.034 21.6828 185.071C20.5991 184.83 19.6358 184.71 18.9134 184.71Z" fill="#5A2800"/>
<path d="M29.1482 220.472C29.8707 218.665 26.6196 198.316 22.6461 190.73C19.9971 185.914 17.9501 184.95 16.746 184.95C17.5888 184.348 18.6725 184.228 20.2379 184.469C22.2848 185.914 23.9706 188.322 25.0543 190.489C26.9809 193.981 30.9544 210.357 31.1952 214.812C31.3156 216.98 31.436 220.231 30.2319 222.398C29.0278 222.398 27.9441 222.398 27.1013 222.278C27.1013 222.278 25.7767 222.278 24.5726 221.194C27.2217 222.639 28.4258 222.278 29.1482 220.472Z" fill="#F1DDD4"/>
<path d="M29.6299 222.639C28.6666 222.639 27.8237 222.639 27.1013 222.519C26.9808 222.519 25.6563 222.519 24.3318 221.315C24.2114 221.194 24.2114 221.074 24.3318 220.833C24.4522 220.712 24.5726 220.712 24.693 220.712C25.7767 221.315 26.6196 221.676 27.2217 221.676C27.9441 221.676 28.4258 221.315 28.9074 220.231C29.6299 218.545 26.3788 198.437 22.4053 190.851C19.8766 186.034 17.8297 185.191 16.746 185.191C16.6256 185.191 16.5051 185.071 16.5051 184.951C16.5051 184.83 16.5051 184.71 16.6256 184.589C17.4684 183.987 18.7929 183.746 20.3583 184.108H20.4787C22.2848 185.312 23.8502 187.359 25.4155 190.249C27.3421 193.861 31.3156 210.357 31.5564 214.692C31.6768 216.739 31.7973 220.11 30.5932 222.398C30.5932 222.519 30.4727 222.519 30.3523 222.519C29.9911 222.639 29.8707 222.639 29.6299 222.639ZM28.5462 222.037C29.0278 222.037 29.5095 222.037 30.1115 222.037C31.1952 219.87 31.0748 216.739 30.9544 214.812C30.7136 210.598 26.74 194.222 24.9339 190.73C23.4889 187.961 21.9236 186.034 20.2379 184.83C19.2746 184.71 18.5521 184.71 17.9501 184.83C19.2746 185.312 21.0807 186.757 23.1277 190.61C26.9808 197.835 30.5932 218.545 29.6299 220.592C29.2686 221.074 29.0278 221.676 28.5462 222.037Z" fill="#5A2800"/>
<path d="M16.746 184.95C17.9501 184.95 20.1175 185.914 22.6461 190.73C26.6196 198.316 29.9911 218.665 29.1483 220.472C28.4258 222.278 27.2217 222.639 24.5727 221.074C24.2114 220.833 23.9706 220.471 23.7298 219.99C22.2849 217.702 16.5052 201.928 15.5419 194.463C14.8194 189.646 14.8194 186.275 16.746 184.95Z" fill="#B8B393"/>
<path d="M27.2217 222.398C26.4992 222.398 25.5359 222.037 24.3318 221.435C23.9706 221.074 23.6094 220.712 23.3685 220.231C21.8032 217.823 16.0235 201.928 15.1806 194.583C14.5786 189.526 14.5786 186.155 16.6256 184.71C16.6256 184.71 16.746 184.71 16.8664 184.71C18.3113 184.71 20.4787 185.793 23.0073 190.73C26.8604 197.955 30.4728 218.665 29.5095 220.712C29.1482 221.435 28.5462 222.398 27.2217 222.398ZM24.6931 220.833C25.7768 221.435 26.6196 221.796 27.2217 221.796C27.9441 221.796 28.4258 221.435 28.9074 220.351C29.6299 218.665 26.3788 198.557 22.4053 190.971C19.8766 186.275 17.9501 185.432 16.8664 185.312C15.1806 186.516 15.1806 189.767 15.7827 194.463C16.746 202.049 22.6461 217.823 23.9706 219.87C24.2114 220.231 24.4522 220.592 24.6931 220.833Z" fill="#5A2800"/>
<path d="M75.8675 136.184C75.8675 136.184 70.6898 144.613 62.2611 150.031L72.1348 166.528C72.1348 166.528 88.5106 155.931 92.0025 144.252L75.8675 136.184Z" fill="#FFC390"/>
<path d="M72.0144 166.889C71.8939 166.889 71.7735 166.768 71.7735 166.768L61.8999 150.272C61.7795 150.152 61.8999 149.911 62.0203 149.79C70.3286 144.492 75.5063 136.064 75.6267 136.064C75.7471 135.943 75.8675 135.823 75.9879 135.943L92.0025 144.011C92.1229 144.131 92.2433 144.252 92.1229 144.372C88.631 155.931 72.2552 166.648 72.1348 166.768C72.1348 166.889 72.1348 166.889 72.0144 166.889ZM62.6223 150.152L72.1348 166.166C74.3022 164.721 88.1493 154.968 91.5208 144.492L75.9879 136.666C75.0246 137.99 70.0878 145.335 62.6223 150.152Z" fill="#5A2800"/>
<path d="M75.8675 136.184C75.8675 136.184 70.6898 144.613 62.2611 150.031L72.1347 166.528C72.1347 166.528 88.5105 155.931 92.0024 144.252L75.8675 136.184Z" fill="#FFC390"/>
<path d="M82.7308 146.539C79.6002 144.372 76.2287 142.325 73.3388 139.796C75.0246 137.749 75.8675 136.304 75.8675 136.304L91.882 144.372C91.28 146.539 90.0759 148.707 88.7514 150.754C86.7044 149.429 84.6574 147.864 82.7308 146.539Z" fill="#FFC390"/>
<path d="M131.979 108.73C131.979 108.73 137.758 106.924 146.428 116.557C155.218 126.19 171.112 154.486 164.73 188.081C164.73 188.081 118.734 193.138 88.1493 183.626L90.7984 147.262L74.0613 136.786C74.0613 136.786 85.3799 117.159 95.374 115.594C105.488 113.788 131.979 108.73 131.979 108.73Z" fill="#A7DFF2"/>
<path d="M136.434 189.767C116.687 189.767 100.431 187.84 88.1493 183.867C88.0289 183.867 87.9085 183.746 87.9085 183.505L90.5575 147.262L73.9409 136.906C73.8205 136.786 73.7001 136.666 73.8205 136.425C74.3021 135.582 85.2595 116.678 95.3739 114.992C105.368 113.306 131.617 108.249 131.858 108.249C131.858 108.249 132.34 108.128 133.183 108.128C135.471 108.128 140.287 109.212 146.669 116.196C151.124 121.012 157.265 130.645 161.6 143.047C166.657 157.858 167.861 173.391 165.092 187.96C165.092 188.081 164.971 188.201 164.851 188.201C164.61 188.322 152.328 189.767 136.434 189.767ZM88.5105 183.385C100.792 187.238 116.927 189.165 136.434 189.165C151.124 189.165 162.683 187.96 164.489 187.84C167.139 173.391 165.934 157.978 160.998 143.409C156.783 131.006 150.642 121.494 146.187 116.798C140.046 110.055 135.35 108.971 133.183 108.971C132.46 108.971 132.099 109.092 132.099 109.092C131.858 109.092 105.488 114.269 95.4943 115.835C86.3432 117.4 75.9879 134.257 74.5429 136.666L91.0392 146.901C91.1596 146.901 91.1596 147.021 91.1596 147.141L88.5105 183.385Z" fill="#5A2800"/>
<path d="M128.126 122.818C130.173 119.567 133.183 115.834 137.397 115.834C139.324 115.834 141.25 116.316 142.936 117.159C146.669 121.012 147.993 127.996 148.234 132.812C148.595 138.472 147.993 144.011 146.548 149.429C143.056 146.057 137.758 144.733 133.183 144.011C129.932 143.408 126.681 143.168 123.309 143.047C123.189 135.943 124.513 128.718 128.126 122.818Z" fill="#A7DFF2"/>
<path d="M95.976 115.353C96.8189 117.641 97.3005 120.049 96.9393 122.577C96.5781 125.949 95.7352 129.2 95.0127 132.451C93.929 137.388 92.4841 142.325 90.7983 147.141L74.0613 136.786C74.0613 136.786 85.3799 117.159 95.3739 115.594C95.6148 115.473 95.7352 115.353 95.976 115.353Z" fill="#A7DFF2"/>
<path d="M91.5208 145.335C91.6412 145.335 91.7616 145.335 91.7616 145.215C94.7719 140.158 97.4209 124.263 97.5413 123.541C97.5413 123.421 97.4209 123.18 97.3005 123.18C97.1801 123.18 96.9393 123.3 96.9393 123.421C96.9393 123.541 94.2902 139.435 91.4004 144.613L84.6574 142.807C84.537 142.807 84.2962 142.807 84.2962 143.047C84.2962 143.168 84.2962 143.409 84.537 143.409L91.5208 145.335Z" fill="#5A2800"/>
<path d="M75.5062 171.103C75.5062 171.103 75.6266 145.817 85.1391 143.048C85.1391 143.048 82.6104 138.111 84.0554 135.462C85.5003 132.692 89.9555 141.121 89.9555 141.121C89.9555 141.121 112.954 135.221 123.55 146.539C123.55 146.539 135.109 146.299 142.334 155.329C142.334 155.329 156.302 158.58 160.396 167.009C160.396 167.009 167.741 164.36 166.175 167.611C164.61 170.862 161.479 171.103 161.479 171.103C161.479 171.103 158.469 198.557 137.036 209.394C137.036 209.394 138.36 216.618 135.952 215.775C133.544 214.933 132.099 211.802 132.099 211.802C132.099 211.802 126.199 213.849 118.974 208.43C111.75 203.012 114.158 196.751 99.9495 191.934C99.9495 191.934 84.1758 185.914 79.2389 175.799C79.2389 175.799 72.2552 175.077 70.9306 173.752C69.4857 172.548 75.5062 171.103 75.5062 171.103Z" fill="#F38395"/>
<path d="M136.313 216.257C136.193 216.257 136.073 216.257 135.832 216.137C133.664 215.414 132.34 213.006 131.858 212.283C131.377 212.404 130.413 212.645 129.089 212.645C126.681 212.645 122.827 211.922 118.734 208.792C116.085 206.745 114.64 204.577 113.315 202.53C110.907 198.797 108.739 195.306 99.7087 192.295C99.5883 192.175 83.9349 186.154 78.8777 176.16C77.6736 176.04 71.8939 175.317 70.5694 173.993C70.2082 173.632 70.2082 173.391 70.3286 173.15C70.6898 171.946 74.0613 171.103 75.2654 170.742C75.2654 169.538 75.3858 163.878 76.4695 157.978C78.0348 149.309 80.8043 144.131 84.6574 142.686C84.0554 141.482 82.49 137.509 83.6941 135.1C84.0554 134.498 84.4166 134.378 84.7778 134.378C86.584 134.378 89.3534 139.315 90.0759 140.519C91.28 140.278 96.8189 139.074 103.201 139.074C112.352 139.074 119.215 141.362 123.67 146.058C125.115 146.058 135.711 146.419 142.454 154.848C143.056 154.968 146.308 155.811 149.92 157.497C153.532 159.182 158.349 162.072 160.516 166.407C161.238 166.166 163.406 165.444 164.971 165.444C165.814 165.444 166.296 165.685 166.536 166.046C166.777 166.407 166.777 166.889 166.416 167.491C165.092 170.381 162.563 170.983 161.72 171.103C161.359 173.873 157.385 199.038 137.397 209.273C137.638 210.357 138.12 214.21 137.156 215.414C136.916 216.016 136.675 216.257 136.313 216.257ZM132.099 211.561C132.22 211.561 132.34 211.681 132.34 211.802C132.34 211.802 133.785 214.812 136.073 215.535C136.313 215.655 136.554 215.535 136.675 215.414C137.397 214.451 136.916 210.839 136.675 209.514C136.675 209.394 136.675 209.273 136.795 209.153C157.747 198.436 160.998 171.344 160.998 171.103C160.998 170.983 161.118 170.862 161.238 170.862C161.359 170.862 164.249 170.501 165.694 167.491C165.814 167.25 165.934 166.889 165.814 166.648C165.694 166.407 165.332 166.407 164.73 166.407C163.045 166.407 160.275 167.37 160.275 167.37C160.155 167.37 159.914 167.37 159.914 167.25C155.82 159.062 142.214 155.691 141.973 155.691C141.852 155.691 141.852 155.691 141.852 155.57C135.109 147.141 124.513 146.901 123.43 146.901H123.309C123.189 146.901 123.189 146.901 123.068 146.78C117.77 141.121 109.221 139.917 102.96 139.917C95.8556 139.917 89.8351 141.482 89.8351 141.482C89.7146 141.482 89.5942 141.482 89.4738 141.362C88.2697 139.074 85.8615 135.341 84.6574 135.341C84.537 135.341 84.4166 135.341 84.1758 135.702C82.8512 138.231 85.2595 142.927 85.2595 143.047C85.2595 143.168 85.2595 143.168 85.2595 143.288C85.2595 143.409 85.1391 143.409 85.0186 143.409C75.8675 146.178 75.6266 170.983 75.6266 171.224C75.6266 171.344 75.5062 171.464 75.3858 171.585C73.2184 172.066 70.9306 172.909 70.6898 173.511C70.6898 173.511 70.6898 173.632 70.8102 173.752C71.8939 174.715 77.0716 175.558 78.8777 175.679C78.9981 175.679 79.1185 175.799 79.1185 175.799C84.0554 185.673 99.5883 191.693 99.7087 191.814C108.86 194.944 111.268 198.677 113.676 202.289C115.001 204.336 116.325 206.383 118.854 208.31C126.199 213.488 131.979 211.561 132.099 211.561C131.979 211.561 132.099 211.561 132.099 211.561Z" fill="#5A2800"/>
<path d="M75.5062 171.103C75.5062 171.103 75.5063 155.449 80.2023 147.382C80.5635 147.623 80.9247 147.864 81.2859 147.984C83.5737 148.947 90.7984 150.753 97.6618 162.192C99.8291 165.925 107.415 160.145 107.415 155.811C107.415 152.8 106.211 150.031 104.525 147.623C107.776 150.272 110.184 153.523 111.268 157.978C111.268 158.219 111.629 158.219 111.75 158.098C113.797 156.292 115.603 154.125 117.048 151.837C118.252 149.911 119.938 147.382 119.697 144.974C119.697 144.251 119.456 143.649 119.215 143.047C120.781 144.01 122.225 145.094 123.43 146.419C123.43 146.419 134.989 146.178 142.214 155.209C142.214 155.209 143.056 155.449 144.381 155.811C143.056 159.303 141.009 162.554 138.601 165.443C138.36 165.684 138.722 166.166 138.963 165.925C141.612 164.239 145.224 165.443 147.752 166.768C149.197 167.49 150.763 168.454 152.087 169.537C147.993 168.454 143.297 168.574 139.203 169.417C134.748 170.26 129.33 172.186 127.162 176.521C124.995 180.736 126.801 185.432 129.45 189.164C130.895 191.934 132.099 194.703 131.738 197.834C124.032 184.83 108.017 179.411 93.4474 182.301C93.2066 182.301 93.2066 182.662 93.327 182.783C96.4577 186.274 100.552 188.683 104.646 190.97C108.258 193.017 112.954 194.824 115.001 198.797C116.446 201.687 116.807 204.818 118.252 207.707C112.231 202.53 113.797 196.63 100.19 192.054C100.19 192.054 84.4166 186.034 79.4798 175.919C79.4798 175.919 72.496 175.197 71.1715 173.872C69.4857 172.548 75.5062 171.103 75.5062 171.103Z" fill="#F6A9CB"/>
<path d="M105.248 110.055L118.854 108.61H119.336C119.336 108.61 122.225 117.4 117.409 122.939C112.593 128.478 106.09 126.31 105.248 120.049C104.405 113.908 105.248 110.055 105.248 110.055Z" fill="#FFC390"/>
<path d="M111.389 126.551C108.017 126.551 105.488 124.022 105.007 120.169C104.164 113.908 105.007 110.175 105.007 109.934C105.007 109.814 105.127 109.694 105.248 109.694L118.854 108.369H119.336C119.456 108.369 119.576 108.49 119.697 108.61C119.817 108.971 122.587 117.641 117.77 123.3C115.844 125.347 113.556 126.551 111.389 126.551ZM105.488 110.416C105.368 111.259 104.766 114.871 105.488 120.169C105.97 123.661 108.258 125.949 111.268 125.949C113.315 125.949 115.362 124.865 117.048 122.818C121.262 117.882 119.336 110.416 118.974 108.971H118.734L105.488 110.416Z" fill="#5A2800"/>
<path d="M110.184 120.892C108.619 120.892 106.933 120.892 105.368 120.651C105.368 120.531 105.248 120.29 105.248 120.17C104.405 113.908 105.248 110.055 105.248 110.055L118.854 108.61H119.336C119.336 108.61 121.021 113.667 119.697 118.484C117.048 120.29 112.954 120.772 110.184 120.892Z" fill="#FFC390"/>
<path d="M146.428 149.309C146.428 149.309 146.548 149.309 146.428 149.309C146.669 149.309 146.669 149.188 146.789 149.068C151.846 130.043 146.187 121.855 145.946 121.614C145.826 121.494 145.705 121.494 145.465 121.494C145.344 121.614 145.344 121.855 145.344 121.975C145.344 122.096 151.004 130.163 146.187 148.466C144.14 147.262 134.387 141.964 123.791 142.566C123.911 139.917 125.236 123.902 132.099 118.243C134.026 116.557 136.313 115.955 138.842 116.316C138.962 116.316 139.203 116.196 139.203 116.075C139.203 115.955 139.083 115.714 138.962 115.714C136.193 115.353 133.785 115.955 131.738 117.761C128.487 120.41 126.079 125.467 124.513 132.692C123.309 138.11 123.189 142.806 123.189 142.806C123.189 142.927 123.189 142.927 123.309 143.047C123.43 143.168 123.43 143.168 123.55 143.168C135.23 142.204 146.187 149.068 146.308 149.068C146.308 149.309 146.308 149.309 146.428 149.309Z" fill="#5A2800"/>
<path d="M68.402 138.111L90.1963 170.02C90.1963 170.02 90.7983 173.512 88.7513 175.077C87.4268 176.161 70.0877 176.281 70.0877 176.281C70.0877 176.281 68.5224 176.642 66.9571 174.957C65.5121 173.271 42.0321 140.399 42.0321 140.399C42.0321 140.399 41.1892 138.954 41.9117 137.87C42.5138 136.666 43.2362 136.184 45.2832 136.305C47.3302 136.425 65.753 136.666 65.753 136.666C65.753 136.666 67.6795 136.786 68.402 138.111Z" fill="#656A6E"/>
<path d="M69.7265 176.642C69.1245 176.642 67.9204 176.401 66.8367 175.197C65.3917 173.511 42.875 141.964 41.9117 140.639C41.9117 140.519 41.0689 139.074 41.7913 137.75C42.3934 136.545 43.2362 135.943 45.4036 135.943C47.4506 136.064 65.6326 136.305 65.8734 136.305C65.9938 136.305 67.9204 136.545 68.7632 137.99L90.5575 169.779V169.899C90.5575 170.02 91.1596 173.511 88.9922 175.197C87.5473 176.281 72.1347 176.522 70.2082 176.522C70.0878 176.522 69.9673 176.642 69.7265 176.642ZM44.922 136.545C43.3566 136.545 42.875 137.027 42.3934 137.99C41.7913 138.954 42.5138 140.278 42.5138 140.278C42.7546 140.639 65.8734 173.15 67.4387 174.836C68.7632 176.401 70.2082 176.04 70.2082 176.04C70.2082 176.04 70.2082 176.04 70.3286 176.04C76.9511 175.92 87.7881 175.558 88.7514 174.836C90.5575 173.511 90.1963 170.622 90.0759 170.26L68.2816 138.472C67.5591 137.268 65.8734 137.027 65.8734 137.027C65.1509 137.027 47.4506 136.786 45.4036 136.666C45.1628 136.545 45.0424 136.545 44.922 136.545Z" fill="#5A2800"/>
<path opacity="0.7" d="M42.0322 137.75C42.3934 137.027 42.875 136.546 43.5975 136.305C43.5975 136.425 43.5975 136.666 43.5975 136.907C43.9587 138.231 45.1628 138.472 46.4873 138.472C49.2568 138.592 60.8162 138.954 63.3448 139.195C66.1142 139.435 67.0775 140.76 68.7633 142.927C70.0878 144.493 79.7206 158.701 79.841 158.701C80.4431 158.099 80.8043 157.377 81.0451 156.534L90.1963 169.899C90.1963 169.899 90.7983 173.391 88.7514 174.956C87.4269 176.04 70.0878 176.161 70.0878 176.161C70.0878 176.161 68.5224 176.522 66.9571 174.836C65.5122 173.15 42.0322 140.278 42.0322 140.278C42.0322 140.278 41.4301 138.954 42.0322 137.75Z" fill="#656A6E"/>
<path d="M87.4269 174.234H87.5473C87.6677 174.113 87.7881 173.993 87.6677 173.752C86.8248 172.548 67.8 143.409 66.7163 141.964C65.6326 140.398 63.3448 140.398 63.2244 140.398L41.6709 139.315C41.5505 139.315 41.3097 139.435 41.3097 139.676C41.3097 139.796 41.4301 140.037 41.6709 140.037L63.2244 141.121C63.2244 141.121 65.2714 141.121 66.2346 142.445C67.1979 143.89 86.9452 173.872 87.0656 174.234C87.186 174.234 87.3065 174.234 87.4269 174.234Z" fill="#5A2800"/>
<path d="M63.706 144.372C64.3081 145.215 65.2714 145.576 65.753 145.215C66.2346 144.854 66.1142 143.891 65.3918 143.048C64.7897 142.205 63.8264 141.844 63.3448 142.205C62.8631 142.566 62.9836 143.529 63.706 144.372Z" fill="#A2A9AD"/>
<path d="M65.2714 145.697C64.6693 145.697 63.9468 145.215 63.3448 144.613C62.9836 144.131 62.7427 143.65 62.7427 143.168C62.6223 142.686 62.7427 142.205 63.104 141.964C63.706 141.482 64.9101 141.964 65.6326 142.927C66.355 143.89 66.4755 145.095 65.8734 145.576C65.753 145.697 65.5122 145.697 65.2714 145.697ZM63.8264 142.325C63.706 142.325 63.5856 142.325 63.5856 142.445C63.4652 142.566 63.3448 142.807 63.4652 143.048C63.4652 143.409 63.706 143.77 63.9468 144.131C64.4285 144.733 65.0305 144.974 65.2714 144.974C65.3918 144.974 65.5122 144.974 65.5122 144.854C65.753 144.613 65.753 143.77 65.1509 143.048C64.6693 142.566 64.0673 142.325 63.8264 142.325Z" fill="#5A2800"/>
<path d="M64.1877 143.65C64.4285 144.011 64.9101 144.131 65.0305 144.011C65.2714 143.89 65.151 143.409 64.9101 143.048C64.6693 142.686 64.1877 142.566 64.0673 142.686C63.8264 142.927 63.9468 143.288 64.1877 143.65Z" fill="white"/>
<path d="M65.151 141.482C65.2714 141.482 65.3918 141.482 65.3918 141.362L67.3183 137.75C67.4388 137.629 67.3183 137.388 67.1979 137.268C67.0775 137.147 66.8367 137.268 66.7163 137.388L64.7897 141.001C64.6693 141.121 64.7897 141.362 64.9101 141.482C65.0306 141.482 65.0306 141.482 65.151 141.482Z" fill="#5A2800"/>
<path d="M55.6385 168.574C55.6385 168.574 57.6855 172.548 61.2978 172.307C64.9101 172.066 65.753 167.25 61.6591 167.491C61.6591 167.611 59.8529 169.297 55.6385 168.574Z" fill="#FFC390"/>
<path d="M61.057 172.668C57.4447 172.668 55.5181 168.815 55.3977 168.695C55.3977 168.574 55.3977 168.454 55.3977 168.334C55.5181 168.213 55.6385 168.213 55.759 168.213C56.361 168.334 57.0835 168.334 57.6855 168.334C60.3345 168.334 61.5387 167.25 61.5387 167.25C61.5387 167.25 61.6591 167.129 61.7795 167.129C64.0673 167.009 64.7897 168.334 64.9101 169.417C64.9101 170.862 63.706 172.548 61.5387 172.668C61.2978 172.668 61.1774 172.668 61.057 172.668ZM56.2406 169.056C56.9631 170.14 58.6488 172.307 61.2978 172.066C63.104 171.946 64.0673 170.621 64.0673 169.538C64.0673 168.454 63.2244 167.852 61.7795 167.972C61.4182 168.213 60.0937 169.176 57.5651 169.176C57.2039 169.056 56.7222 169.056 56.2406 169.056Z" fill="#5A2800"/>
<path d="M52.0262 164.48C52.0262 164.48 52.3874 169.297 56.8426 169.779C61.4182 170.26 64.5489 165.925 59.8529 164.48C59.8529 164.48 57.3243 167.611 52.0262 164.48Z" fill="#FFC390"/>
<path d="M57.5651 170.14C57.3242 170.14 57.0834 170.14 56.8426 170.14C52.0262 169.658 51.665 164.48 51.665 164.48C51.665 164.36 51.665 164.24 51.7854 164.24C51.9058 164.119 52.0262 164.119 52.1466 164.24C53.5915 165.082 55.0365 165.564 56.361 165.564C58.5284 165.564 59.612 164.36 59.612 164.24C59.7325 164.119 59.8529 164.119 59.9733 164.119C62.5019 164.962 62.6223 166.407 62.5019 167.009C62.2611 168.815 60.0937 170.14 57.5651 170.14ZM52.3874 165.082C52.6282 166.407 53.5915 169.176 56.8426 169.538C59.4916 169.778 61.659 168.333 61.7794 167.009C61.8998 166.166 61.1774 165.323 59.8529 164.842C59.4916 165.203 58.2875 166.166 56.2406 166.166C55.1569 166.166 53.8323 165.805 52.3874 165.082Z" fill="#5A2800"/>
<path d="M49.618 158.099C49.618 158.099 48.1731 163.638 52.3874 165.925C56.4814 168.213 59.8529 166.287 60.3345 164.842C60.8162 163.397 58.1671 161.47 58.1671 161.47C58.1671 161.47 54.314 163.397 49.618 158.099Z" fill="#FFC390"/>
<path d="M56.1202 167.25C54.7956 167.25 53.4711 166.889 52.1466 166.166C47.8118 163.758 49.2568 158.099 49.2568 157.978C49.2568 157.858 49.3772 157.738 49.4976 157.738C49.618 157.738 49.7384 157.738 49.8588 157.858C52.5078 160.868 54.916 161.47 56.4814 161.47C57.4447 161.47 58.0467 161.229 58.0467 161.229C58.1671 161.229 58.2875 161.229 58.4079 161.229C58.6488 161.47 61.1774 163.276 60.6957 164.962C60.2141 166.166 58.408 167.25 56.1202 167.25ZM49.8588 158.821C49.618 160.266 49.3772 163.999 52.5078 165.685C53.7119 166.407 55.0365 166.768 56.2406 166.768C58.4079 166.768 59.8529 165.685 60.0937 164.842C60.4549 163.878 58.8896 162.554 58.1671 161.952C57.3243 162.193 53.8324 163.036 49.8588 158.821Z" fill="#5A2800"/>
<path d="M131.858 197.954C131.979 197.954 131.979 197.954 132.099 197.954C132.22 197.954 132.34 197.714 132.34 197.593C132.34 197.473 128.246 182.06 108.378 177.966C108.258 177.966 108.017 178.087 108.017 178.207C108.017 178.328 108.137 178.568 108.258 178.568C127.764 182.542 131.617 197.473 131.738 197.714C131.738 197.834 131.858 197.954 131.858 197.954Z" fill="#5A2800"/>
<path d="M127.524 170.983C139.565 164.601 146.187 167.129 146.548 167.25C146.669 167.37 146.789 167.491 146.669 167.611C146.548 167.732 146.428 167.852 146.308 167.732C146.308 167.732 144.261 166.889 140.407 167.25C137.518 167.491 133.062 168.574 127.403 171.705C126.681 171.946 126.079 172.187 125.356 172.428C125.958 172.066 126.801 171.585 127.524 170.983Z" fill="#5A2800"/>
<path d="M109.944 163.758C110.064 163.758 110.184 163.637 110.305 163.517C111.389 156.654 108.98 152.198 106.933 149.67C104.646 146.9 102.117 145.817 101.997 145.817C101.876 145.696 101.635 145.817 101.635 145.937C101.515 146.058 101.635 146.298 101.756 146.298C102.117 146.419 111.629 150.633 109.703 163.397C109.582 163.517 109.703 163.637 109.944 163.758Z" fill="#5A2800"/>
<path d="M144.863 148.104C144.863 148.104 138.722 180.976 93.0861 178.809C93.0861 178.809 80.9247 183.264 74.0613 176.28C74.0613 176.28 68.8836 174.715 68.8836 169.778C68.8836 169.778 66.355 168.935 66.5958 166.527C66.5958 166.527 64.3081 165.323 64.5489 162.674C64.7897 160.025 67.5591 160.386 69.4857 161.831C71.4123 163.396 75.5062 163.396 79.1185 162.192C82.7308 160.868 82.2492 158.339 82.2492 158.339C82.2492 158.339 77.6736 152.078 77.6736 150.874C77.6736 149.67 77.6736 147.863 84.537 151.355C88.8718 153.523 90.6779 155.329 92.9657 160.386C94.6515 164.36 94.5311 167.25 94.5311 167.25C94.5311 167.25 105.368 169.417 114.158 159.543C123.068 149.67 124.754 142.927 124.754 142.927C124.754 142.927 133.424 141.602 144.863 148.104Z" fill="#FFC390"/>
<path d="M84.6574 180.495C80.0818 180.495 76.5899 179.171 73.9409 176.522C73.3388 176.281 68.7632 174.595 68.5224 170.019C67.9204 169.779 66.1142 168.815 66.2346 166.648C65.6326 166.287 63.9468 164.962 64.1876 162.554C64.3081 161.109 65.1509 160.266 66.4754 160.266C67.4387 160.266 68.6428 160.748 69.6061 161.47C70.5694 162.193 72.1347 162.554 73.9409 162.554C75.5062 162.554 77.3124 162.193 78.8777 161.711C81.888 160.627 81.888 158.58 81.7676 158.219C80.9247 157.015 77.192 151.837 77.192 150.633C77.192 150.031 77.192 148.707 78.7573 148.707C79.9614 148.707 81.7676 149.429 84.537 150.754C89.1126 153.041 90.9187 154.968 93.0861 160.025C94.5311 163.276 94.6515 165.925 94.6515 166.768C95.0127 166.768 95.8556 166.889 96.9393 166.889C100.552 166.889 107.656 165.925 113.676 159.182C122.346 149.55 124.152 142.686 124.152 142.686C124.152 142.566 124.272 142.445 124.393 142.445C124.393 142.445 125.236 142.325 126.801 142.325C130.052 142.325 136.795 143.047 144.863 147.623C144.983 147.743 145.103 147.864 144.983 147.984C144.983 148.105 143.418 155.811 136.795 163.517C125.717 176.281 109.101 179.05 97.1801 179.05C95.7352 179.05 94.2902 179.05 92.8453 178.93C92.6045 179.291 88.9922 180.495 84.6574 180.495ZM66.4754 161.109C65.753 161.109 64.9101 161.35 64.7897 162.795C64.5489 165.203 66.7163 166.287 66.7163 166.287C66.8367 166.287 66.9571 166.407 66.8367 166.648C66.7163 168.815 68.8837 169.538 68.8837 169.658C69.0041 169.658 69.1245 169.779 69.1245 169.899C69.2449 174.475 73.9409 176.04 74.1817 176.04C74.1817 176.04 74.3021 176.04 74.3021 176.16C76.8307 178.689 80.2022 180.013 84.6574 180.013C89.1126 180.013 92.9657 178.689 92.9657 178.568H93.0861C94.5311 178.689 95.976 178.689 97.4209 178.689C109.221 178.689 125.597 176.04 136.554 163.397C142.454 156.533 144.261 149.67 144.501 148.345C136.675 143.89 130.173 143.288 126.921 143.288C125.838 143.288 125.236 143.409 124.874 143.409C124.513 144.613 122.346 151.115 114.278 160.025C108.017 167.009 100.792 167.972 97.0597 167.972C95.3739 167.972 94.4107 167.732 94.2902 167.732C94.1698 167.732 94.0494 167.611 94.0494 167.37C94.0494 167.37 94.1698 164.36 92.6045 160.627C90.4371 155.811 88.7514 153.884 84.2962 151.717C81.6472 150.392 79.841 149.67 78.7573 149.67C77.9144 149.67 77.794 150.152 77.794 150.874C77.794 151.717 80.5635 155.691 82.2492 158.099V158.219C82.2492 158.219 82.7309 161.109 78.8777 162.433C77.192 163.036 75.3858 163.397 73.7001 163.397C71.6531 163.397 69.9673 162.915 68.8837 162.072C68.402 161.47 67.3183 161.109 66.4754 161.109Z" fill="#5A2800"/>
<path d="M126.801 145.094C125.958 144.974 124.995 144.853 124.032 144.853C124.513 143.649 124.634 143.047 124.634 143.047C124.634 143.047 133.303 141.602 144.863 148.104C144.863 148.104 144.622 149.188 144.14 150.753C138.24 146.419 129.33 145.455 126.801 145.094Z" fill="#FFC390"/>
<path d="M73.4593 168.936C76.8307 168.936 79.2389 167.732 79.2389 167.732C79.3594 167.611 79.4798 167.491 79.3594 167.25C79.2389 167.13 79.1185 167.009 78.8777 167.13C78.7573 167.13 72.6164 170.14 66.5959 166.287C66.4755 166.166 66.2346 166.287 66.1142 166.407C65.9938 166.528 66.1142 166.768 66.2346 166.889C68.8837 168.454 71.4123 168.936 73.4593 168.936Z" fill="#5A2800"/>
<path d="M75.6266 172.668C77.9144 172.668 79.2389 171.825 79.3593 171.825C79.4797 171.705 79.6002 171.585 79.4798 171.344C79.3593 171.223 79.2389 171.103 78.9981 171.223C78.8777 171.344 74.6633 173.752 69.004 169.538C68.8836 169.417 68.6428 169.417 68.5224 169.538C68.402 169.658 68.402 169.899 68.5224 170.019C71.2918 172.187 73.8205 172.668 75.6266 172.668Z" fill="#5A2800"/>
<path d="M77.0716 176.883C79.7206 176.883 81.6472 176.16 81.7676 176.16C81.888 176.16 82.0084 175.919 82.0084 175.799C82.0084 175.679 81.7676 175.558 81.6472 175.558C81.6472 175.558 78.1553 176.762 74.3021 175.919C74.1817 175.919 73.9409 176.04 73.9409 176.16C73.9409 176.281 74.0613 176.521 74.1817 176.521C75.0246 176.883 76.1083 176.883 77.0716 176.883Z" fill="#5A2800"/>
<path d="M49.3772 150.392C49.3772 150.392 45.0424 155.69 48.0527 159.182C51.0629 162.674 56.361 163.035 58.1671 161.59C60.0937 160.145 52.6283 155.088 52.6283 155.088L49.3772 150.392Z" fill="#FFC390"/>
<path d="M55.1569 162.674C52.9895 162.674 49.8588 161.831 47.8118 159.423C44.6812 155.811 48.8955 150.513 49.1363 150.272C49.2568 150.151 49.2568 150.151 49.3772 150.151C49.4976 150.151 49.618 150.151 49.618 150.272L52.8691 154.847C53.7119 155.329 58.7692 158.941 58.7692 160.868C58.7692 161.229 58.6488 161.59 58.2875 161.831C57.6855 162.313 56.4814 162.674 55.1569 162.674ZM49.3772 150.994C48.5343 152.198 45.8853 156.292 48.2935 159.062C50.22 161.35 53.1099 162.072 55.1569 162.072C56.361 162.072 57.4447 161.831 58.0467 161.35C58.1671 161.229 58.2875 161.109 58.2875 160.988C58.2875 159.543 54.1936 156.413 52.6282 155.449C52.6282 155.449 52.6282 155.449 52.5078 155.329L49.3772 150.994Z" fill="#5A2800"/>
<path d="M141.973 152.078C141.973 152.078 132.46 178.93 93.6882 177.967C93.5678 177.967 127.042 178.93 141.973 152.078Z" fill="#FFC390"/>
<path d="M82.0084 193.499C82.0084 193.499 61.7794 198.557 50.7017 201.446C50.7017 201.567 74.5429 196.991 82.0084 193.499Z" fill="#FFC390"/>
<path d="M159.553 171.344C159.553 171.344 158.71 193.74 137.397 207.707C137.397 207.707 154.495 194.342 159.553 171.344Z" fill="#6BC0AC"/>
<path d="M64.9101 34.3168C65.5122 33.9556 66.2346 33.5944 66.9571 33.2332C65.3918 34.3168 63.9468 35.521 62.6223 36.8455C63.2244 35.8822 63.9468 34.9189 64.9101 34.3168Z" fill="#FFC390"/>
<path d="M62.5019 37.0865C62.3815 37.0865 62.3815 37.0865 62.2611 36.9661C62.1407 36.8457 62.1407 36.7253 62.2611 36.4845C62.9835 35.4008 63.8264 34.5579 64.6693 33.9558C65.2713 33.5946 65.9938 33.2334 66.5959 32.8721H66.7163C66.8367 32.7517 67.0775 32.8721 67.1979 32.9926C67.3183 33.113 67.1979 33.3538 67.0775 33.4742C65.5122 34.5579 64.0672 35.762 62.7427 37.0865C62.7427 37.0865 62.6223 37.0865 62.5019 37.0865Z" fill="#5A2800"/>
<path d="M54.5548 59.3621C54.7956 57.0743 54.9161 54.907 55.3977 52.6192C56.1202 49.0068 57.8059 45.8762 59.4917 42.6251C59.9733 41.6618 60.4549 40.5781 61.057 39.4944C68.1612 30.7045 80.4431 27.2126 91.4004 26.7309C103.201 26.1289 115.362 28.5371 126.079 33.7147C140.167 40.4577 152.569 52.4987 156.422 68.1521C158.349 75.8584 158.228 84.5279 154.495 91.7525C152.689 95.3648 149.92 98.2547 147.15 101.024C146.428 101.747 145.705 102.469 144.983 103.071C141.852 104.636 139.203 106.202 137.397 107.647C137.397 107.647 126.921 118.122 109.342 119.808C90.5575 121.614 68.5224 110.657 66.355 96.2077C66.355 96.2077 66.2346 93.9199 66.355 90.7893C66.4755 87.5382 68.2816 86.4545 64.3081 81.8789C60.3345 77.3033 53.9528 67.7909 55.6385 60.9275C55.3977 60.6867 55.0365 60.205 54.5548 59.3621Z" fill="#FFC390"/>
<path d="M105.127 120.17C96.3372 120.17 87.0656 117.641 79.6002 113.306C71.7735 108.731 66.8367 102.59 65.8734 96.0875C65.8734 96.0875 65.753 93.7997 65.8734 90.5486C65.8734 89.7058 65.9938 89.1037 66.1142 88.5017C66.4755 86.5751 66.7163 85.2506 63.8264 81.8791C62.0203 79.8321 53.1099 68.9952 55.1569 60.8073C55.0365 60.5665 54.6752 60.2052 54.314 59.4828C54.314 59.4828 54.314 59.3624 54.314 59.242C54.4344 58.6399 54.4344 58.0378 54.5548 57.3154C54.6752 55.7501 54.9161 54.0643 55.2773 52.499C55.9998 48.8867 57.6855 45.5152 59.3712 42.3845C59.7325 41.7825 59.9733 41.1804 60.3345 40.4579C60.5753 40.0967 60.6958 39.6151 60.9366 39.2538C69.2449 28.8985 83.6941 26.7312 91.5208 26.3699C92.7249 26.3699 93.929 26.2495 95.0127 26.2495C105.85 26.2495 116.566 28.6577 126.199 33.3537C142.093 40.9396 153.171 53.5827 156.663 67.9115C158.83 76.8219 158.108 85.2506 154.736 91.7528C152.81 95.4855 149.92 98.6161 147.271 101.145C146.428 101.988 145.705 102.59 145.103 103.192C145.103 103.192 145.103 103.192 144.983 103.192C141.612 104.877 139.083 106.443 137.397 107.647C137.277 107.767 126.681 118.243 109.101 119.808C107.897 120.17 106.452 120.17 105.127 120.17ZM54.9161 59.242C55.3977 60.0848 55.7589 60.5665 55.7589 60.5665C55.7589 60.6869 55.8793 60.6869 55.7589 60.8073C54.1936 66.9482 59.3712 75.7382 64.3081 81.3975C67.4387 85.0098 67.1979 86.5751 66.7163 88.6221C66.5959 89.2241 66.4755 89.8262 66.4755 90.5486C66.355 93.6793 66.4755 95.9671 66.4755 95.9671C68.6428 109.814 88.5106 119.447 105.127 119.447C106.452 119.447 107.897 119.327 109.221 119.206C126.56 117.641 137.036 107.286 137.156 107.165C138.962 105.841 141.491 104.275 144.863 102.59C145.465 101.988 146.187 101.386 147.03 100.543C149.559 98.0141 152.448 95.0038 154.375 91.2711C157.747 84.8894 158.349 76.5811 156.302 67.9115C152.81 53.7031 141.852 41.3008 126.079 33.715C116.566 29.1394 105.85 26.7312 95.1331 26.7312C93.929 26.7312 92.8453 26.7312 91.6412 26.8516C83.935 27.2128 69.7265 29.3802 61.5386 39.4947C61.2978 39.8559 61.1774 40.3375 60.9366 40.6988C60.5753 41.4212 60.3345 42.0233 59.9733 42.6253C58.2875 45.6356 56.7222 49.0071 55.8793 52.499C55.5181 54.0643 55.3977 55.7501 55.1569 57.3154C55.0365 58.0378 54.9161 58.6399 54.9161 59.242Z" fill="#5A2800"/>
<path d="M156.302 68.032C152.448 52.3786 140.046 40.458 125.958 33.5946C115.242 28.5374 103.201 26.0088 91.28 26.6108C80.3226 27.2129 68.0408 30.5844 60.9366 39.3743C60.3345 40.458 59.8529 41.5417 59.3712 42.505C57.6855 45.7561 55.9998 48.8867 55.2773 52.499C54.7956 54.6664 54.6752 56.9542 54.4344 59.242C55.0365 60.0849 55.3977 60.6869 55.3977 60.6869C53.8324 66.7075 58.6488 74.775 62.5019 79.7118C71.6531 78.1464 80.8043 77.1832 90.0759 76.4607C95.0127 76.0995 100.07 75.8587 104.886 76.8219C109.221 77.6648 113.195 79.7118 116.807 82.2404C122.105 86.0935 126.199 91.3916 127.162 98.0142C128.005 103.794 126.44 110.537 121.864 114.51C120.058 116.076 118.131 117.28 115.964 118.243C129.45 114.992 137.277 107.286 137.277 107.286C139.083 105.961 141.732 104.396 144.863 102.71C145.585 101.988 146.308 101.386 147.03 100.663C149.92 97.8937 152.569 94.8835 154.375 91.3916C158.228 84.4078 158.228 75.7382 156.302 68.032ZM148.475 82.2404C147.03 81.7588 146.067 80.7955 144.501 81.8792C143.297 82.722 142.575 83.8057 142.093 85.1302C141.371 87.418 141.491 89.9467 141.973 92.3549C142.093 92.7161 141.612 92.9569 141.371 92.5957C139.083 88.5017 138.722 84.167 139.685 79.9526C139.685 78.8689 140.046 77.9056 140.528 77.1832C140.648 76.7015 140.889 76.2199 141.13 75.7382C141.25 75.377 141.612 75.6178 141.732 75.8587C142.695 75.1362 143.779 74.5341 145.103 74.4137C147.873 74.0525 150.401 75.4974 150.161 78.5077C150.161 78.6281 150.161 78.6281 150.04 78.7485C150.763 80.6751 150.883 83.0833 148.475 82.2404Z" fill="#FFC390"/>
<path d="M145.224 82.481C145.344 82.3606 145.585 82.3606 145.705 82.2402C146.187 82.1198 146.789 82.1198 147.391 82.481C147.391 82.6015 147.391 82.6015 147.512 82.7219C149.559 85.2505 149.197 90.0669 147.391 92.7159C145.946 94.7629 143.177 95.7262 142.214 92.7159C141.852 91.6322 141.852 90.5485 141.852 89.4649C142.334 87.2975 143.418 83.5647 145.224 82.481Z" fill="#FFC390"/>
<path d="M142.816 93.5591H142.936C143.056 93.4387 143.177 93.3183 143.056 93.1979C142.093 90.9101 142.575 86.5753 144.02 84.2875C144.381 83.6855 145.103 82.8426 146.067 82.8426C146.789 82.8426 147.391 82.963 147.873 83.4447C148.836 84.4079 148.716 86.0937 148.716 86.2141C148.716 86.3345 148.836 86.5753 149.077 86.5753C149.197 86.5753 149.438 86.4549 149.438 86.2141C149.438 86.0937 149.559 84.1671 148.355 82.963C147.752 82.361 147.03 82.1201 146.067 82.2406C145.103 82.361 144.261 82.963 143.538 84.0467C141.973 86.5753 141.491 91.0305 142.575 93.5591C142.575 93.5591 142.695 93.5591 142.816 93.5591Z" fill="#5A2800"/>
<path d="M142.454 90.5488C145.706 90.5488 146.669 87.8998 146.669 87.8998C146.789 87.7794 146.669 87.5386 146.428 87.5386C146.308 87.5386 146.067 87.5386 146.067 87.7794C146.067 87.8998 145.103 90.0672 142.214 90.0672C142.093 90.0672 141.852 90.1876 141.852 90.4284C141.852 90.5488 141.973 90.7897 142.214 90.7897C142.334 90.5488 142.334 90.5488 142.454 90.5488Z" fill="#5A2800"/>
<path d="M92.0025 80.7953C92.0025 80.7953 93.8086 72.6074 98.7454 72.0054C103.682 71.4033 106.452 77.6647 106.452 77.6647C106.452 77.6647 102.96 76.4606 99.2271 77.183C93.6882 78.5076 92.0025 80.7953 92.0025 80.7953Z" fill="#5C1E05"/>
<path d="M65.6326 83.5645C65.6326 83.5645 64.0672 79.2297 68.6428 77.6644C73.098 76.0991 76.8307 81.9992 76.8307 81.9992C76.8307 81.9992 70.8102 80.4338 68.6428 81.9992C66.4755 83.6849 65.6326 83.5645 65.6326 83.5645Z" fill="#5C1E05"/>
<path d="M100.552 93.7998C101.756 96.0876 103.803 97.5325 105.127 96.8101C106.452 96.0876 106.572 93.6794 105.368 91.3916C104.164 89.1038 102.117 87.6589 100.792 88.3814C99.4679 88.9834 99.3475 91.3916 100.552 93.7998Z" fill="#3F1C08"/>
<path d="M100.552 91.1509C100.913 91.7529 101.394 92.1141 101.756 91.9937C102.117 91.8733 102.117 91.1509 101.876 90.5488C101.515 89.9467 101.033 89.5855 100.672 89.7059C100.311 89.9468 100.19 90.5488 100.552 91.1509Z" fill="white"/>
<path d="M86.1024 110.778C86.1024 110.778 97.4209 118.002 107.535 105.72C107.535 105.72 109.944 114.631 103.923 117.28C97.9026 119.929 86.1024 110.778 86.1024 110.778Z" fill="#F39D91"/>
<path d="M108.017 109.814C108.017 112.584 107.174 115.835 103.923 117.28C102.117 118.002 99.9495 117.761 97.5413 117.039C99.4679 113.306 103.803 110.537 108.017 109.814Z" fill="#EC665E"/>
<path d="M93.2066 115.233C89.233 113.186 86.1024 110.778 86.1024 110.778C86.1024 110.778 95.7352 116.919 105.248 108.129C106.933 113.547 99.1067 115.353 93.2066 115.233Z" fill="white"/>
<path opacity="0.5" d="M103.441 98.9772C103.562 100.061 106.09 100.783 109.101 100.302C112.111 99.9405 114.399 98.7364 114.158 97.5323C114.038 96.3282 111.509 95.7261 108.499 96.2078C105.609 96.6894 103.321 97.8935 103.441 98.9772Z" fill="#F38395"/>
<path opacity="0.5" d="M68.402 101.144C68.402 101.987 70.2082 102.83 72.496 102.83C74.7838 102.83 76.7103 102.228 76.7103 101.265C76.7103 100.422 74.9042 99.5791 72.6164 99.5791C70.3286 99.5791 68.402 100.302 68.402 101.144Z" fill="#F38395"/>
<path d="M69.847 96.449C71.0511 98.7368 73.098 100.182 74.4225 99.4593C75.7471 98.7368 75.8675 96.3286 74.6634 94.0408C73.4593 91.753 71.4123 90.3081 70.0878 91.0305C68.7633 91.6326 68.6428 94.1612 69.847 96.449Z" fill="#3F1C08"/>
<path d="M69.9674 94.2815C70.3286 94.8835 70.8102 95.2448 71.1715 95.1243C71.5327 95.0039 71.5327 94.2815 71.2919 93.6794C70.9306 93.0774 70.449 92.7161 70.0878 92.8365C69.7265 93.0774 69.6061 93.6794 69.9674 94.2815Z" fill="white"/>
<path d="M172.557 38.1701C172.196 37.6884 171.955 37.4476 171.955 37.4476C172.075 37.2068 172.075 37.0864 172.075 36.8456C169.547 29.9822 165.573 23.6004 160.275 18.4228C154.616 12.8839 147.632 8.54913 140.528 5.17764C140.287 5.05723 140.046 4.93682 139.805 4.81641C131.377 1.80615 121.262 -0.120415 109.462 0.361226C82.6104 1.2041 62.9836 15.8942 57.6855 19.9881C19.5154 49.007 44.4404 83.5648 44.4404 83.5648C45.524 82.8423 48.4139 80.7953 49.8588 80.1933C49.3772 77.9055 49.4976 75.3769 49.4976 73.0891C49.4976 72.7279 51.3037 77.183 52.267 79.23C56.7222 77.6647 62.2611 76.3402 68.402 75.3769C66.4755 71.5238 65.753 66.8278 66.355 62.7338C66.355 62.7338 66.355 62.7338 66.355 62.6134C66.355 62.2522 69.2449 71.1625 71.5327 74.8952C77.0716 74.0524 82.9717 73.5707 88.7514 73.0891C88.1493 69.4768 89.7147 62.0113 89.7147 62.3726C89.7147 65.8645 89.8351 69.5972 91.0392 72.9687C98.5046 72.487 105.488 72.2462 111.148 72.1258C110.786 68.1523 112.111 64.2991 113.195 60.3256C113.315 59.9644 113.074 68.3931 114.519 72.1258C119.938 72.0054 123.43 72.1258 123.43 72.1258C125.838 82.7219 139.324 87.0567 139.324 87.0567C139.324 87.0567 137.638 83.926 140.407 78.8688C143.056 73.932 151.967 75.9789 151.967 86.6955C151.967 95.8466 145.705 96.5691 144.02 96.5691C140.648 104.757 135.832 107.406 130.775 112.584C140.889 112.825 151.004 105.72 157.867 98.6161C163.165 93.0772 167.981 86.6955 171.112 79.5912C174.122 72.8483 175.808 65.5032 175.928 58.1582C175.808 51.4152 174.845 44.5518 172.557 38.1701Z" fill="#792D16"/>
<path d="M131.015 112.824C130.895 112.824 130.775 112.824 130.534 112.824C130.413 112.824 130.293 112.704 130.293 112.584C130.293 112.463 130.293 112.343 130.413 112.222C131.617 111.018 132.822 109.935 133.905 108.971C137.758 105.479 141.009 102.59 143.659 96.3282C143.659 96.2078 143.779 96.0873 143.899 96.0873C144.622 96.0873 146.669 95.9669 148.355 94.6424C150.522 93.0771 151.606 90.3076 151.606 86.5749C151.606 79.9524 148.114 76.5809 144.622 76.5809C142.936 76.5809 141.371 77.4237 140.648 78.9891C138.24 83.3238 139.444 86.3341 139.565 86.8157C139.565 86.9362 139.685 86.9362 139.685 87.0566C139.685 87.177 139.565 87.4178 139.324 87.4178H139.203C139.083 87.4178 125.717 82.8422 123.189 72.4869C122.828 72.4869 122.105 72.4869 121.021 72.4869C119.576 72.4869 117.409 72.4869 114.64 72.4869C114.519 72.4869 114.399 72.3665 114.399 72.2461C113.436 69.7175 113.195 65.0215 113.074 62.3724C112.111 65.7439 111.268 68.8746 111.509 72.2461C111.509 72.3665 111.509 72.3665 111.389 72.4869C111.389 72.6073 111.268 72.6073 111.148 72.6073C104.164 72.7277 97.4209 73.089 91.0392 73.4502C90.9188 73.4502 90.7984 73.3298 90.6779 73.2094C89.8351 70.8012 89.4738 68.2726 89.3534 65.6235C88.9922 68.0317 88.631 71.2828 88.9922 73.2094C88.9922 73.3298 88.9922 73.3298 88.8718 73.4502C88.8718 73.5706 88.7514 73.5706 88.631 73.5706C82.3696 74.0522 76.5899 74.6543 71.5327 75.3768C71.4123 75.3768 71.2919 75.3768 71.1715 75.2564C69.6061 72.7277 67.8 67.9113 66.7163 65.0215C66.5959 64.6602 66.4755 64.4194 66.3551 64.1786C65.9938 68.1521 66.8367 72.2461 68.5224 75.4972C68.5224 75.6176 68.5224 75.738 68.5224 75.738C68.5224 75.8584 68.402 75.8584 68.2816 75.8584C61.6591 76.9421 56.2406 78.1462 52.1466 79.7115C52.0262 79.7115 51.7854 79.7115 51.7854 79.5911C51.4242 78.7482 50.8221 77.4237 50.2201 76.2196C49.9792 75.738 49.7384 75.1359 49.4976 74.6543C49.4976 76.5809 49.618 78.5074 49.8588 80.3136C49.8588 80.434 49.8588 80.5544 49.618 80.6748C48.4139 81.1565 46.1261 82.8422 44.8016 83.6851L44.32 84.0463C44.1995 84.1667 43.9587 84.1667 43.8383 83.9259C43.7179 83.8055 37.577 75.0155 36.1321 62.8541C33.7238 42.3843 46.2465 28.1759 57.2039 19.8676C77.9145 4.21424 97.0597 0.481514 109.462 -0.000127606C120.419 -0.361359 130.775 1.20398 139.926 4.57547L140.287 4.69588C140.407 4.69588 140.528 4.81629 140.648 4.9367C148.595 8.66942 155.338 13.1246 160.516 18.1818C165.694 23.2391 169.667 29.5004 172.316 36.725V36.8454C172.316 36.9659 172.316 37.2067 172.196 37.3271C172.316 37.4475 172.437 37.6883 172.677 37.9291C172.677 37.9291 172.677 37.9291 172.677 38.0495C174.845 44.5517 175.928 51.2947 175.808 58.2785C175.688 65.6235 174.002 73.089 170.992 79.8319C168.102 86.2137 163.647 92.5954 157.747 98.8568C153.773 103.071 143.177 112.824 131.015 112.824ZM144.02 96.8098C141.371 103.071 137.879 106.202 134.266 109.453C133.303 110.296 132.34 111.259 131.377 112.222C135.591 112.102 145.826 110.537 157.385 98.3751C163.285 92.1138 167.741 85.8525 170.51 79.4707C173.52 72.8481 175.086 65.5031 175.326 58.1581C175.447 51.4151 174.484 44.5517 172.316 38.2904C171.955 37.8087 171.835 37.6883 171.835 37.6883C171.714 37.5679 171.714 37.4475 171.714 37.3271C171.714 37.2067 171.835 37.0863 171.835 36.8454C169.186 29.7412 165.332 23.6003 160.155 18.6635C154.977 13.6062 148.355 9.15106 140.407 5.53875C140.287 5.41834 140.167 5.41834 140.046 5.29793L139.685 5.17752C130.534 1.80603 120.299 0.361104 109.462 0.722335C97.1801 1.08357 78.1553 4.81629 57.8059 20.2288C46.969 28.4167 34.6871 42.5047 36.9749 62.6133C38.2994 73.5706 43.3567 81.6381 44.4404 83.2034L44.6812 83.083C45.8853 82.2402 48.0527 80.7952 49.3772 80.1932C49.016 78.0258 49.016 75.6176 49.016 73.5706V73.3298C49.016 73.2094 49.1364 72.9686 49.3772 72.9686C49.618 72.9686 49.618 72.9686 50.9425 75.9788C51.4242 77.0625 51.9058 78.2666 52.267 78.9891C56.2406 77.5441 61.5386 76.34 67.8 75.2564C65.9938 71.5236 65.3918 67.0685 65.9938 62.8541V62.7337C65.9938 62.6133 66.1142 62.4929 66.3551 62.4929C66.5959 62.4929 66.5959 62.4929 67.4387 64.7807C68.402 67.4297 70.2082 72.2461 71.6531 74.7747C76.5899 74.0522 82.2492 73.4502 88.2697 73.089C87.7881 69.5971 89.1126 62.7337 89.3534 62.4929C89.3534 62.3724 89.4738 62.3724 89.5942 62.3724C89.7147 62.3724 89.9555 62.4929 89.9555 62.7337C89.9555 66.346 90.0759 69.8379 91.1596 72.9686C97.3005 72.6073 103.923 72.2461 110.666 72.1257C110.425 68.6338 111.389 65.1419 112.352 61.7704C112.472 61.4092 112.593 60.9275 112.713 60.5663C112.713 60.4459 112.833 60.3255 113.074 60.3255C113.436 60.3255 113.436 60.3255 113.436 61.65C113.436 63.697 113.676 69.2358 114.64 72.1257C117.289 72.1257 119.456 72.1257 120.781 72.1257C122.346 72.1257 123.309 72.1257 123.309 72.1257C123.43 72.1257 123.55 72.2461 123.67 72.3665C125.717 81.2769 135.952 85.8525 138.722 86.8157C138.36 85.6116 137.999 82.8422 140.046 79.1095C141.009 77.4237 142.695 76.34 144.622 76.34C148.355 76.34 152.208 79.9524 152.208 87.0566C152.208 91.0301 151.004 94.0404 148.716 95.7261C147.03 96.569 144.983 96.8098 144.02 96.8098Z" fill="#5A2800"/>
<g opacity="0.5">
<path opacity="0.5" d="M172.557 38.1701C172.196 37.6884 171.955 37.4476 171.955 37.4476C172.075 37.2068 172.075 37.0864 172.075 36.8456C169.547 29.9822 165.573 23.6004 160.275 18.4228C154.616 12.8839 147.632 8.54913 140.528 5.17764C140.287 5.05723 140.046 4.93682 139.805 4.81641C131.377 1.80615 121.262 -0.120415 109.462 0.361226C82.6104 1.2041 62.9835 15.8942 57.6855 19.9881C54.314 22.6371 51.4242 25.2862 48.8955 27.8148C57.6855 20.831 66.7163 14.088 77.3124 9.87364C87.6677 5.77969 101.635 2.4082 111.629 9.27159C111.87 9.51241 103.562 10.3553 100.311 12.041C97.6617 13.486 95.0127 15.1717 92.9657 17.4595C98.3842 15.2921 103.923 12.041 109.823 14.6901C114.399 16.737 117.891 25.0454 118.734 29.5005C120.299 27.0923 120.058 21.7943 117.77 17.3391C117.65 17.2187 118.011 16.9779 118.131 16.9779C121.864 18.5432 124.513 21.9147 126.319 25.4066C128.487 29.5005 129.811 33.9557 131.015 38.2905C132.34 43.4681 133.303 48.7662 133.785 54.1847C134.026 57.797 134.146 61.4093 134.146 65.0216C134.146 67.9114 134.507 70.8013 133.544 73.5707C133.544 73.6911 126.319 65.6236 123.67 61.1685C123.67 63.3358 123.67 65.6236 123.911 67.791C123.911 67.9114 116.927 68.2727 116.927 68.0319C115.482 61.7705 115.001 55.3888 115.362 49.007C113.917 52.0173 112.593 55.0275 111.87 58.2786C110.786 62.7338 110.064 67.4298 110.184 72.0054C110.425 72.0054 110.666 72.0054 110.907 72.0054C110.546 68.0319 111.87 64.1787 112.954 60.2052C113.074 59.8439 112.833 68.2727 114.278 72.0054C119.697 71.885 123.189 72.0054 123.189 72.0054C125.597 82.6015 139.083 86.9363 139.083 86.9363C139.083 86.9363 137.397 83.8056 140.167 78.7484C142.816 73.8116 151.726 75.8585 151.726 86.5751C151.726 95.7262 145.465 96.4487 143.779 96.4487C140.407 104.637 135.591 107.286 130.534 112.463C140.648 112.704 150.763 105.6 157.626 98.4957C162.924 92.9568 167.741 86.5751 170.871 79.4708C173.881 72.7279 175.567 65.3828 175.688 58.0378C175.808 51.4152 174.845 44.5518 172.557 38.1701Z" fill="#792D16"/>
</g>
<path d="M90.9188 119.808C90.9188 119.808 81.7676 127.153 76.2287 136.305L77.794 137.027L90.9188 119.808Z" fill="#A7DFF2"/>
<path d="M82.3696 96.4485C82.3696 96.4485 83.935 92.1137 93.8086 95.4852L92.9657 91.632C92.9657 91.632 86.8248 88.1401 81.4063 92.9566L82.3696 96.4485Z" fill="#ED1C26"/>
<path d="M82.3696 96.8099C82.2492 96.8099 82.1288 96.6895 82.0084 96.569L81.0451 93.0772C81.0451 92.9567 81.0451 92.8363 81.1655 92.7159C83.2125 90.9098 85.5003 90.0669 88.0289 90.0669C90.9188 90.0669 93.0861 91.271 93.2066 91.271C93.327 91.271 93.327 91.3914 93.327 91.5118L94.0494 95.2445V95.3649C94.0494 95.4854 93.929 95.7262 93.6882 95.7262H93.5678C91.1596 94.8833 88.9922 94.5221 87.186 94.5221C83.3329 94.5221 82.49 96.569 82.49 96.569C82.6104 96.6895 82.49 96.8099 82.3696 96.8099ZM81.7676 93.1976L82.49 95.7262C83.0921 95.0037 84.4166 93.92 87.3064 93.92C88.9922 93.92 91.0392 94.2813 93.327 95.0037L92.7249 91.8731C92.2433 91.6322 90.4371 90.7894 88.0289 90.7894C85.7411 90.7894 83.5737 91.6322 81.7676 93.1976Z" fill="#5A2800"/>
<path d="M81.4063 90.91C77.794 83.2038 69.8469 78.869 63.5856 81.1568C57.3243 83.4446 55.2773 91.6325 58.8896 99.3388C62.5019 107.045 70.449 111.38 76.7103 109.092C82.8513 106.804 85.0186 98.6163 81.4063 90.91ZM75.3858 106.082C70.449 107.888 64.0672 104.516 61.1774 98.2551C58.2875 92.1141 59.9733 85.612 64.9101 83.6854C69.8469 81.8793 76.2287 85.2508 79.1185 91.5121C82.0084 97.7734 80.3226 104.276 75.3858 106.082Z" fill="#ED1C26"/>
<path d="M73.098 110.055C67.3183 110.055 61.5386 105.841 58.5284 99.459C56.4814 95.0038 56.1201 90.3078 57.6855 86.4547C58.7692 83.6853 60.8162 81.7587 63.3448 80.7954C64.5489 80.3138 65.753 80.1934 66.9571 80.1934C72.7368 80.1934 78.5165 84.4077 81.5267 90.7895C83.5737 95.2447 83.9349 99.9407 82.3696 103.794C81.2859 106.563 79.2389 108.49 76.7103 109.453C75.6266 109.935 74.4225 110.055 73.098 110.055ZM67.0775 80.9158C65.8734 80.9158 64.6693 81.1566 63.706 81.5179C61.2978 82.4812 59.4916 84.2873 58.4079 86.8159C56.963 90.4282 57.2038 95.0038 59.2508 99.2182C62.0203 105.239 67.8 109.453 73.2184 109.453C74.4225 109.453 75.5062 109.212 76.5899 108.851C78.9981 107.888 80.8043 106.082 81.888 103.553C83.3329 99.9407 83.0921 95.3651 81.0451 91.1507C78.2757 85.0098 72.496 80.9158 67.0775 80.9158ZM72.496 106.924C67.9204 106.924 63.2244 103.553 60.8162 98.4957C59.1304 95.0038 58.8896 91.1507 60.0937 88.1404C60.9366 85.9731 62.6223 84.2873 64.6693 83.5649C65.6326 83.2036 66.5959 83.0832 67.5591 83.0832C72.1347 83.0832 76.8307 86.4547 79.2389 91.5119C80.9247 95.1242 81.1655 98.857 79.9614 101.867C79.1185 104.035 77.4328 105.6 75.3858 106.443C74.5429 106.804 73.5797 106.924 72.496 106.924ZM67.6795 83.5649C66.7163 83.5649 65.8734 83.6853 65.0305 84.0465C63.1039 84.769 61.659 86.2139 60.8162 88.2609C59.612 91.1507 59.8529 94.763 61.4182 98.1345C63.706 102.951 68.1612 106.202 72.496 106.202C73.4592 106.202 74.3021 106.082 75.145 105.72C77.0716 104.998 78.5165 103.553 79.3593 101.506C80.5634 98.6162 80.3226 95.0038 78.7573 91.6323C76.5899 86.9363 72.0143 83.5649 67.6795 83.5649Z" fill="#5A2800"/>
<path d="M114.158 86.816L137.397 77.3036C137.397 77.3036 142.334 74.6546 145.585 76.4607C145.585 76.4607 141.852 75.4975 139.926 79.471L115.964 90.4283L114.158 86.816Z" fill="#ED1C26"/>
<path d="M115.964 90.7895C115.844 90.7895 115.723 90.6691 115.723 90.5487L113.917 86.9363C113.917 86.8159 113.917 86.8159 113.917 86.6955C113.917 86.5751 114.038 86.5751 114.038 86.4547L137.277 76.9423C137.397 76.9423 140.167 75.377 142.936 75.377C144.02 75.377 144.983 75.6178 145.826 76.0994C145.946 76.2198 146.067 76.3402 145.946 76.4606C145.946 76.5811 145.705 76.7015 145.585 76.7015C145.585 76.7015 145.224 76.5811 144.622 76.5811C143.538 76.5811 141.491 76.9423 140.167 79.5913C140.167 79.7117 140.046 79.7117 140.046 79.7117L116.085 90.6691C116.085 90.7895 116.085 90.7895 115.964 90.7895ZM114.64 86.9363L116.205 89.9466L139.805 79.1097C140.769 77.0627 142.334 76.3402 143.538 75.979C143.418 75.979 143.177 75.979 143.056 75.979C140.407 75.979 137.758 77.4239 137.638 77.4239L114.64 86.9363Z" fill="#5A2800"/>
<path d="M115.603 87.6586C111.991 79.9523 104.043 75.6175 97.7821 77.9053C91.6412 80.1931 89.4738 88.3811 93.0861 96.0873C96.6985 103.794 104.646 108.128 110.907 105.841C117.168 103.553 119.215 95.3649 115.603 87.6586ZM109.703 102.83C104.766 104.636 98.3842 101.265 95.4943 95.0036C92.6045 88.8627 94.2902 82.3605 99.2271 80.434C104.164 78.6278 110.546 81.9993 113.435 88.2606C116.205 94.522 114.64 101.024 109.703 102.83Z" fill="#ED1C26"/>
<path d="M107.415 106.804C101.635 106.804 95.8556 102.59 92.8453 96.2078C90.7984 91.7526 90.4371 87.0566 92.0025 83.2035C93.0862 80.434 95.1331 78.5075 97.6618 77.5442C98.8659 77.0625 100.07 76.9421 101.274 76.9421C107.054 76.9421 112.833 81.1565 115.844 87.5382C117.891 91.9934 118.252 96.6894 116.687 100.543C115.603 103.312 113.556 105.239 111.027 106.202C109.944 106.683 108.74 106.804 107.415 106.804ZM101.394 77.6646C100.19 77.6646 98.9863 77.9054 98.023 78.2667C95.6148 79.2299 93.8086 81.0361 92.7249 83.5647C91.28 87.177 91.5208 91.7526 93.5678 95.967C96.3372 101.987 102.117 106.202 107.535 106.202C108.74 106.202 109.823 105.961 110.907 105.6C113.315 104.637 115.242 102.83 116.205 100.302C117.65 96.6894 117.409 92.1138 115.362 87.8995C112.593 81.7586 106.813 77.6646 101.394 77.6646ZM106.813 103.673C102.237 103.673 97.5414 100.302 95.1331 95.2445C93.4474 91.7526 93.2066 87.8995 94.4107 84.8892C95.2535 82.7218 96.9393 81.0361 98.9863 80.3136C99.9496 79.9524 100.913 79.832 101.876 79.832C106.452 79.832 111.148 83.2035 113.556 88.2607C115.242 91.7526 115.482 95.6057 114.278 98.616C113.436 100.783 111.75 102.469 109.703 103.192C108.86 103.553 107.897 103.673 106.813 103.673ZM101.997 80.434C101.033 80.434 100.19 80.5544 99.3475 80.9157C97.4209 81.6381 95.976 83.0831 95.1331 85.13C93.929 88.0199 94.1699 91.6322 95.7352 95.0037C98.023 99.8201 102.478 103.071 106.813 103.071C107.776 103.071 108.619 102.951 109.462 102.59C111.389 101.867 112.833 100.422 113.676 98.3752C114.88 95.4853 114.64 91.873 113.074 88.5015C110.786 83.6851 106.331 80.434 101.997 80.434Z" fill="#5A2800"/>
<path d="M64.6693 18.3022C64.6693 18.3022 42.7546 28.7779 39.2627 49.1273C35.8912 69.5971 45.6445 79.3503 45.6445 79.3503C45.6445 79.3503 29.3891 39.3741 64.6693 18.3022Z" fill="#792D16"/>
<path d="M48.1731 163.758C48.1731 163.758 42.3934 171.705 35.53 192.536C35.53 192.536 44.4404 173.511 48.1731 163.758Z" fill="#FFC390"/>
</g>
<defs>
<clipPath id="clip0_816_1859">
<rect width="205.42" height="223" fill="white" transform="translate(0.249756)"/>
</clipPath>
</defs>
</svg>
