<svg width="42" height="38" viewBox="0 0 42 38" fill="none" xmlns="http://www.w3.org/2000/svg">
<path d="M20.9919 0.0800781C9.4171 0.133819 0 9.59421 0 21.1685C0 24.6836 0.881278 28.1487 2.54778 31.2192V25.6438C2.54778 24.6162 2.91352 23.6631 3.55463 22.8454C3.50157 22.2894 3.47425 21.7297 3.47425 21.1685C3.47425 11.5009 11.3397 3.59928 20.9919 3.5544C30.66 3.59913 38.5255 11.5009 38.5255 21.1685C38.5255 21.79 38.491 22.4093 38.426 23.0245C38.9832 23.8009 39.2978 24.6906 39.2978 25.6438V31.502C41.0652 28.3626 42.0001 24.7915 42.0001 21.1685C42 9.59421 32.5829 0.133819 20.9919 0.0800781Z" fill="url(#paint0_linear_578_343)"/>
<path d="M3.84181 24.7436C3.7531 25.0342 3.70587 25.3353 3.70587 25.644V31.0176V33.5189C3.70587 35.9492 6.60039 37.9196 10.1712 37.9196H12.8934V21.2433H10.1712C7.05386 21.2433 4.45257 22.7449 3.84181 24.7436Z" fill="url(#paint1_linear_578_343)"/>
<path d="M38.1396 33.519V30.9303V25.6441C38.1396 25.4544 38.1199 25.2677 38.0856 25.0843C37.6814 22.9182 34.9661 21.2434 31.6743 21.2434H28.952V37.9197H31.6743C35.2451 37.9197 38.1396 35.9494 38.1396 33.519Z" fill="url(#paint2_linear_578_343)"/>
<defs>
<linearGradient id="paint0_linear_578_343" x1="21" y1="0.0800781" x2="21" y2="31.502" gradientUnits="userSpaceOnUse">
<stop stop-color="#5CADF4"/>
<stop offset="1" stop-color="#2C95F1"/>
</linearGradient>
<linearGradient id="paint1_linear_578_343" x1="8.29963" y1="21.2433" x2="8.29963" y2="37.9196" gradientUnits="userSpaceOnUse">
<stop stop-color="#5CADF4"/>
<stop offset="1" stop-color="#2C95F1"/>
</linearGradient>
<linearGradient id="paint2_linear_578_343" x1="33.5458" y1="21.2434" x2="33.5458" y2="37.9197" gradientUnits="userSpaceOnUse">
<stop stop-color="#5CADF4"/>
<stop offset="1" stop-color="#2C95F1"/>
</linearGradient>
</defs>
</svg>
