<svg width="91" height="65" viewBox="0 0 91 65" fill="none" xmlns="http://www.w3.org/2000/svg">
<circle cx="62.7603" cy="16.4584" r="15.7743" fill="url(#paint0_linear_465_464)"/>
<ellipse cx="67.0381" cy="36.5104" rx="23.2604" ry="23.2604" fill="url(#paint1_linear_465_464)"/>
<circle cx="33.0833" cy="32.5001" r="32.0833" fill="url(#paint2_linear_465_464)"/>
<path d="M10.2619 33.3679C10.2619 32.3721 10.4137 31.4522 10.7173 30.6081C11.027 29.758 11.4672 29.0203 12.038 28.3948C12.6148 27.7755 13.301 27.2927 14.0964 26.9466C14.8919 26.6127 15.7693 26.4457 16.7287 26.4457C17.7792 26.4457 18.693 26.6218 19.4703 26.974C20.2536 27.3261 20.6452 27.8666 20.6452 28.5952C20.6452 28.9596 20.5268 29.2844 20.29 29.5698C20.0593 29.8491 19.7557 29.9888 19.3792 29.9888C19.191 29.9888 18.8874 29.9129 18.4684 29.7611C17.9219 29.5668 17.5727 29.4514 17.4209 29.415C17.2752 29.3785 17.0748 29.3603 16.8198 29.3603C16.0486 29.3603 15.408 29.5425 14.898 29.9068C14.394 30.2711 14.0205 30.7569 13.7776 31.3641C13.5408 31.9713 13.4224 32.6393 13.4224 33.3679C13.4224 34.0723 13.5439 34.716 13.7867 35.2989C14.0296 35.8818 14.3849 36.3463 14.8524 36.6924C15.326 37.0385 15.8877 37.2116 16.5374 37.2116C16.8775 37.2116 17.1538 37.1995 17.3663 37.1752C17.5788 37.1509 17.7853 37.1084 17.9856 37.0477C18.1921 36.9869 18.4228 36.908 18.6779 36.8108C18.9997 36.6894 19.2578 36.6287 19.4521 36.6287C19.95 36.6287 20.2931 36.7805 20.4813 37.0841C20.6635 37.3816 20.7545 37.6852 20.7545 37.9949C20.7545 38.511 20.539 38.9361 20.1079 39.2701C19.6767 39.604 19.1454 39.8469 18.5139 39.9987C17.8763 40.1445 17.257 40.2173 16.6558 40.2173C15.6722 40.2173 14.7795 40.0412 13.978 39.689C13.1765 39.3369 12.4995 38.845 11.9469 38.2135C11.3943 37.5759 10.9784 36.8442 10.6991 36.0184C10.4076 35.1865 10.2619 34.303 10.2619 33.3679ZM30.6778 31.519C30.6778 31.0757 30.532 30.7205 30.2406 30.4533C29.9552 30.1801 29.6182 30.0434 29.2296 30.0434C28.6466 30.0434 28.2307 30.3319 27.9817 30.9087C27.3138 30.1497 26.491 29.7702 25.5134 29.7702C24.8151 29.7702 24.1897 29.9159 23.6371 30.2074C23.0845 30.4928 22.62 30.8875 22.2436 31.3914C21.8732 31.8954 21.5938 32.4571 21.4056 33.0765C21.2234 33.7019 21.1324 34.3516 21.1324 35.0256C21.1324 35.9243 21.2993 36.7714 21.6333 37.5668C21.9673 38.3562 22.4652 38.9938 23.1271 39.4796C23.795 39.9714 24.5904 40.2173 25.5134 40.2173C26.0599 40.2173 26.5244 40.1293 26.907 39.9532C27.2895 39.7771 27.6478 39.4856 27.9817 39.0788C28.0971 39.3824 28.2702 39.6131 28.5009 39.771C28.7377 39.9289 28.9988 40.0078 29.2842 40.0078C29.6546 40.0078 29.9795 39.8742 30.2588 39.6071C30.5381 39.3399 30.6778 38.9877 30.6778 38.5505V31.519ZM25.9051 32.5664C26.5244 32.5664 27.0041 32.8093 27.3442 33.2951C27.6903 33.7748 27.8633 34.3455 27.8633 35.0074C27.8633 35.6632 27.6903 36.2279 27.3442 36.7015C27.0041 37.1752 26.5244 37.412 25.9051 37.412C25.2736 37.412 24.7817 37.1752 24.4295 36.7015C24.0773 36.2279 23.9013 35.6632 23.9013 35.0074C23.9013 34.3455 24.0773 33.7748 24.4295 33.2951C24.7878 32.8093 25.2796 32.5664 25.9051 32.5664ZM31.9755 38.5505C31.9755 38.9938 32.1212 39.3429 32.4127 39.598C32.7042 39.8469 33.0442 39.9714 33.4328 39.9714C33.8154 39.9714 34.1463 39.8469 34.4256 39.598C34.711 39.3429 34.8537 38.9938 34.8537 38.5505V35.0438C34.8537 34.5459 34.9023 34.1664 34.9994 33.9053C35.1027 33.6381 35.2636 33.4347 35.4822 33.2951C35.7008 33.1493 36.0408 33.0006 36.5023 32.8488C37.146 32.6484 37.6044 32.4541 37.8776 32.2658C38.1509 32.0715 38.2875 31.7497 38.2875 31.3004C38.2875 30.8571 38.1387 30.4897 37.8412 30.1983C37.5497 29.9129 37.2188 29.7702 36.8484 29.7702C36.2048 29.7702 35.5399 30.1497 34.8537 30.9087C34.7323 30.6233 34.5501 30.4047 34.3072 30.2529C34.0643 30.1011 33.8002 30.0252 33.5148 30.0252C33.114 30.0252 32.7558 30.1649 32.44 30.4442C32.1304 30.7174 31.9755 31.0757 31.9755 31.519V38.5505ZM46.2069 35.9456H41.0608C41.0608 36.3403 41.2399 36.7046 41.5982 37.0385C41.9625 37.3664 42.5636 37.5304 43.4016 37.5304C43.6991 37.5304 43.9633 37.5 44.194 37.4393C44.4248 37.3786 44.8377 37.2177 45.4327 36.9566C45.8517 36.7623 46.1492 36.6651 46.3253 36.6651C46.6411 36.6651 46.9083 36.7774 47.1269 37.0021C47.3515 37.2268 47.4639 37.5274 47.4639 37.9038C47.4639 38.3471 47.2453 38.7479 46.8081 39.1061C46.377 39.4583 45.8153 39.7315 45.1231 39.9259C44.4369 40.1202 43.7234 40.2173 42.9826 40.2173C41.9929 40.2173 41.1185 39.9896 40.3595 39.5342C39.6065 39.0788 39.0236 38.4534 38.6107 37.6579C38.2038 36.8625 38.0004 35.979 38.0004 35.0074C38.0004 34.3273 38.1219 33.6685 38.3648 33.0309C38.6137 32.3934 38.9629 31.8286 39.4122 31.3368C39.8615 30.845 40.3928 30.4624 41.0061 30.1892C41.6194 29.9098 42.2783 29.7702 42.9826 29.7702C43.8874 29.7702 44.6919 30.004 45.3963 30.4715C46.1007 30.933 46.6411 31.5463 47.0176 32.3114C47.4001 33.0704 47.5914 33.875 47.5914 34.7251C47.5914 35.1865 47.4821 35.5053 47.2635 35.6814C47.0449 35.8575 46.6927 35.9456 46.2069 35.9456ZM41.0608 33.9691H44.7769C44.7769 33.4529 44.5917 33.0491 44.2213 32.7577C43.8509 32.4662 43.4137 32.3205 42.9098 32.3205C42.4118 32.3205 41.9777 32.4662 41.6073 32.7577C41.243 33.0491 41.0608 33.4529 41.0608 33.9691ZM48.6341 38.4412V28.2218C48.6341 27.7299 48.7859 27.3504 49.0895 27.0833C49.381 26.8222 49.7301 26.6916 50.137 26.6916C50.5377 26.6916 50.8838 26.8252 51.1753 27.0924C51.4668 27.3595 51.6125 27.736 51.6125 28.2218V31.8924L55.7294 27.4385C55.9905 27.1167 56.2273 26.9041 56.4398 26.8009C56.6524 26.6916 56.877 26.637 57.1139 26.637C57.545 26.637 57.882 26.7796 58.1249 27.065C58.3678 27.3504 58.4892 27.6905 58.4892 28.0852C58.4892 28.5891 58.3283 28.999 58.0065 29.3148L54.4816 32.8852L58.3253 37.1205C58.6349 37.4606 58.8475 37.7217 58.9628 37.9038C59.0843 38.0799 59.145 38.2955 59.145 38.5505C59.145 39.012 58.9962 39.3763 58.6987 39.6435C58.4012 39.9046 58.0277 40.0352 57.5784 40.0352C57.0258 40.0352 56.4216 39.6101 55.7658 38.76L51.6125 34.0784V38.4412C51.6125 38.9634 51.4789 39.3581 51.2117 39.6253C50.9506 39.8985 50.5984 40.0352 50.1552 40.0352C49.7058 40.0352 49.3385 39.8985 49.0531 39.6253C48.7738 39.352 48.6341 38.9573 48.6341 38.4412ZM59.368 38.5505C59.368 38.9938 59.5107 39.3429 59.796 39.598C60.0814 39.8469 60.4184 39.9714 60.8071 39.9714C61.1835 39.9714 61.5145 39.8469 61.7999 39.598C62.0853 39.3429 62.2279 38.9938 62.2279 38.5505V31.519C62.2279 31.0514 62.0853 30.684 61.7999 30.4169C61.5205 30.1558 61.1896 30.0252 60.8071 30.0252C60.4184 30.0252 60.0814 30.1588 59.796 30.426C59.5107 30.6871 59.368 31.0514 59.368 31.519V38.5505ZM59.122 27.4385C59.122 27.9485 59.289 28.3493 59.623 28.6408C59.963 28.9322 60.3638 29.078 60.8253 29.078C61.2746 29.078 61.6663 28.9322 62.0002 28.6408C62.3342 28.3432 62.5012 27.9425 62.5012 27.4385C62.5012 26.9041 62.3342 26.4912 62.0002 26.1998C61.6723 25.9022 61.2807 25.7535 60.8253 25.7535C60.3577 25.7535 59.96 25.8992 59.6321 26.1906C59.2921 26.4821 59.122 26.8981 59.122 27.4385ZM72.6521 27.2108V38.5505C72.6521 38.9877 72.5125 39.3399 72.2332 39.6071C71.9538 39.8742 71.629 40.0078 71.2586 40.0078C70.9732 40.0078 70.7121 39.9289 70.4753 39.771C70.2445 39.6131 70.0715 39.3824 69.9561 39.0788C69.7739 39.3035 69.5675 39.5038 69.3367 39.6799C69.1121 39.856 68.8479 39.9896 68.5443 40.0807C68.2468 40.1718 67.8946 40.2173 67.4878 40.2173C66.5648 40.2173 65.7693 39.9714 65.1014 39.4796C64.4517 38.9999 63.9538 38.3653 63.6077 37.5759C63.2676 36.7866 63.0976 35.9365 63.0976 35.0256C63.0976 33.5987 63.4741 32.3873 64.227 31.3914C64.6035 30.8814 65.071 30.4837 65.6297 30.1983C66.1883 29.9129 66.8077 29.7702 67.4878 29.7702C68.0282 29.7702 68.4684 29.843 68.8085 29.9888C69.1485 30.1345 69.4916 30.341 69.8377 30.6081V27.2108C69.8377 26.7432 69.9804 26.385 70.2658 26.136C70.5512 25.881 70.8821 25.7535 71.2586 25.7535C71.6411 25.7535 71.969 25.881 72.2423 26.136C72.5155 26.385 72.6521 26.7432 72.6521 27.2108ZM67.8794 32.5664C67.254 32.5664 66.7652 32.8093 66.413 33.2951C66.0608 33.7748 65.8847 34.3455 65.8847 35.0074C65.8847 35.6632 66.0578 36.2279 66.4039 36.7015C66.7561 37.1752 67.2479 37.412 67.8794 37.412C68.4988 37.412 68.9785 37.1752 69.3185 36.7015C69.6646 36.2279 69.8377 35.6632 69.8377 35.0074C69.8377 34.3455 69.6646 33.7748 69.3185 33.2951C68.9785 32.8093 68.4988 32.5664 67.8794 32.5664ZM73.4216 38.2135C73.4216 37.8067 73.5339 37.4788 73.7586 37.2298C73.9893 36.9809 74.2717 36.8564 74.6057 36.8564C74.806 36.8564 75.0004 36.8898 75.1886 36.9566C75.2615 36.9809 75.4102 37.0446 75.6349 37.1478C75.8656 37.2511 76.066 37.3422 76.236 37.4211C76.4121 37.5 76.5427 37.5516 76.6277 37.5759C76.8402 37.6427 77.0861 37.6761 77.3655 37.6761C77.6326 37.6761 77.83 37.6215 77.9575 37.5122C78.085 37.3968 78.1488 37.2663 78.1488 37.1205C78.1488 36.9323 78.082 36.7805 77.9484 36.6651C77.8209 36.5558 77.5082 36.3979 77.0102 36.1915C76.7066 36.064 76.3939 35.9365 76.0721 35.8089C75.7503 35.6754 75.4861 35.563 75.2797 35.4719C75.0793 35.3748 74.8789 35.2624 74.6785 35.1349C74.3567 34.9285 74.1108 34.6643 73.9408 34.3425C73.7707 34.0146 73.6857 33.6017 73.6857 33.1038C73.6857 32.6787 73.7707 32.2658 73.9408 31.8651C74.1108 31.4643 74.3567 31.1061 74.6785 30.7903C75.0004 30.4746 75.392 30.2256 75.8535 30.0434C76.315 29.8613 76.8311 29.7702 77.4019 29.7702C77.8209 29.7702 78.2854 29.8461 78.7954 29.9979C79.3055 30.1436 79.7457 30.3744 80.1161 30.6901C80.4865 31.0059 80.6717 31.3945 80.6717 31.856C80.6717 32.2142 80.5564 32.5118 80.3256 32.7486C80.0949 32.9854 79.8065 33.1038 79.4603 33.1038C79.3268 33.1038 79.0626 33.0097 78.6679 32.8214C77.9757 32.4996 77.5173 32.3387 77.2926 32.3387H77.1833C76.9708 32.3387 76.7916 32.3934 76.6459 32.5027C76.5002 32.6059 76.4273 32.7577 76.4273 32.9581C76.4273 33.1888 76.6581 33.4013 77.1195 33.5956C77.581 33.7839 78.1214 34.0055 78.7408 34.2605C79.3602 34.5095 79.8733 34.8495 80.2801 35.2807C80.6869 35.7057 80.8903 36.2795 80.8903 37.0021C80.8903 37.6458 80.7264 38.2135 80.3985 38.7054C80.0706 39.1911 79.6273 39.5646 79.0687 39.8257C78.5101 40.0868 77.8937 40.2173 77.2197 40.2173C76.6004 40.2173 75.9992 40.1384 75.4163 39.9805C74.8334 39.8226 74.3537 39.5949 73.9772 39.2974C73.6068 38.9938 73.4216 38.6325 73.4216 38.2135Z" fill="white"/>
<defs>
<linearGradient id="paint0_linear_465_464" x1="62.7603" y1="0.684082" x2="62.7603" y2="32.2327" gradientUnits="userSpaceOnUse">
<stop stop-color="#B49DE7"/>
<stop offset="1" stop-color="#9474DD"/>
</linearGradient>
<linearGradient id="paint1_linear_465_464" x1="67.0381" y1="13.25" x2="67.0381" y2="59.7708" gradientUnits="userSpaceOnUse">
<stop stop-color="#79D481"/>
<stop offset="1" stop-color="#55C85F"/>
</linearGradient>
<linearGradient id="paint2_linear_465_464" x1="33.0833" y1="0.416748" x2="33.0833" y2="64.5834" gradientUnits="userSpaceOnUse">
<stop stop-color="#5CADF4"/>
<stop offset="1" stop-color="#2C95F1"/>
</linearGradient>
</defs>
</svg>
