<svg width="42" height="42" viewBox="0 0 42 42" fill="none" xmlns="http://www.w3.org/2000/svg">
<g clip-path="url(#clip0_475_823)">
<path d="M32.8125 15.75H31.5V10.5C31.5 4.70925 26.7908 0 21 0C15.2093 0 10.5 4.70925 10.5 10.5V15.75H9.18753C7.01753 15.75 5.25003 17.5157 5.25003 19.6875V38.0625C5.25003 40.2342 7.01753 42 9.18753 42H32.8125C34.9825 42 36.75 40.2342 36.75 38.0625V19.6875C36.75 17.5157 34.9825 15.75 32.8125 15.75ZM14 10.5C14 6.6395 17.1395 3.5 21 3.5C24.8605 3.5 28 6.6395 28 10.5V15.75H14V10.5ZM22.75 29.2635V33.25C22.75 34.216 21.9678 35 21 35C20.0323 35 19.25 34.216 19.25 33.25V29.2635C18.2088 28.6562 17.5 27.5397 17.5 26.25C17.5 24.3197 19.0698 22.75 21 22.75C22.9303 22.75 24.5 24.3197 24.5 26.25C24.5 27.5397 23.7913 28.6562 22.75 29.2635Z" fill="url(#paint0_linear_475_823)"/>
</g>
<defs>
<linearGradient id="paint0_linear_475_823" x1="21" y1="0" x2="21" y2="42" gradientUnits="userSpaceOnUse">
<stop stop-color="#5CADF4"/>
<stop offset="1" stop-color="#2C95F1"/>
</linearGradient>
<clipPath id="clip0_475_823">
<rect width="42" height="42" fill="white"/>
</clipPath>
</defs>
</svg>
