<svg width="449" height="408" viewBox="0 0 449 408" fill="none" xmlns="http://www.w3.org/2000/svg">
<g clip-path="url(#clip0_767_383)">
<path d="M110.6 389.2C134.2 414.1 192.1 405 217.2 389.2C298.7 337.9 441.4 252.6 447.9 129C450.6 76.5 404.3 48.9 385 40.8C338.5 21.4 287.5 15.5 237.2 13.3C184.6 10.9 128.2 12.8 80.9 38.4C62.9 48.1 46 60.6 34.4 77.6C22.6 94.9 15.9 115.5 14.1 136.2C11.2 169.7 20.2 203.3 33.8 234C47.4 264.7 65.6 293.2 82.3 322.4C93.2 341.5 90.7 368.2 110.6 389.2Z" fill="#92E3A9"/>
<path opacity="0.7" d="M110.6 389.2C134.2 414.1 192.1 405 217.2 389.2C298.7 337.9 441.4 252.6 447.9 129C450.6 76.5 404.3 48.9 385 40.8C338.5 21.4 287.5 15.5 237.2 13.3C184.6 10.9 128.2 12.8 80.9 38.4C62.9 48.1 46 60.6 34.4 77.6C22.6 94.9 15.9 115.5 14.1 136.2C11.2 169.7 20.2 203.3 33.8 234C47.4 264.7 65.6 293.2 82.3 322.4C93.2 341.5 90.7 368.2 110.6 389.2Z" fill="white"/>
<path d="M108.8 136.7L61 122.2C59.1 121.6 58.1 119.7 58.7 117.8L67.2 89.7C67.8 87.8 69.7 86.8 71.6 87.4L119.4 101.9C121.3 102.5 122.3 104.4 121.7 106.3L113.2 134.4C112.6 136.2 110.6 137.2 108.8 136.7Z" stroke="#263238" stroke-miterlimit="10"/>
<path d="M65.7 94.4L120.2 111" stroke="#263238" stroke-miterlimit="10"/>
<path d="M64.1 99.9L118.6 116.4" stroke="#263238" stroke-miterlimit="10"/>
<path d="M102 126.7C101.7 127.7 101.8 128.7 102.3 129.5C101.5 129.9 100.6 130 99.7 129.7C97.8 129.1 96.8 127.2 97.3 125.3C97.9 123.4 99.9 122.4 101.7 122.9C102.6 123.2 103.3 123.8 103.8 124.5C103 124.9 102.3 125.7 102 126.7Z" stroke="#263238" stroke-miterlimit="10"/>
<path d="M108.8 128.7C108.2 130.6 106.3 131.6 104.4 131.1C102.5 130.5 101.5 128.6 102 126.7C102.6 124.8 104.5 123.8 106.4 124.3C108.3 124.9 109.3 126.8 108.8 128.7Z" stroke="#263238" stroke-miterlimit="10"/>
<path d="M436.7 200L397 188C395.1 187.4 394.1 185.5 394.7 183.6L401.6 160.7C402.2 158.8 404.1 157.8 406 158.4L445.6 170.4C447.5 171 448.5 172.9 447.9 174.8L441 197.7C440.5 199.5 438.5 200.6 436.7 200Z" stroke="#263238" stroke-miterlimit="10"/>
<path d="M400.6 164.2L446.9 178.3" stroke="#263238" stroke-miterlimit="10"/>
<path d="M399.2 168.9L445.5 182.9" stroke="#263238" stroke-miterlimit="10"/>
<path d="M431.4 191.6C431.2 192.4 431.3 193.3 431.7 194C431 194.3 430.2 194.4 429.5 194.2C427.9 193.7 427 192 427.5 190.4C428 188.8 429.7 187.9 431.3 188.4C432.1 188.6 432.7 189.2 433.1 189.8C432.2 190.2 431.7 190.8 431.4 191.6Z" stroke="#263238" stroke-miterlimit="10"/>
<path d="M437.2 193.4C436.7 195 435 195.9 433.4 195.4C431.8 194.9 430.9 193.2 431.4 191.6C431.9 190 433.6 189.1 435.2 189.6C436.8 190.1 437.7 191.8 437.2 193.4Z" stroke="#263238" stroke-miterlimit="10"/>
<path d="M382.226 60.853L324.31 87.3713L338.09 117.466L396.006 90.9475L382.226 60.853Z" stroke="#263238" stroke-miterlimit="10"/>
<path d="M391 86.6L382.2 67.5C380.5 68.3 378.5 67.5 377.7 65.8L331 87.2C331.8 88.9 331 90.9 329.3 91.7L338.1 110.8C339.8 110 341.8 110.8 342.6 112.5L389.4 91.1C388.6 89.4 389.3 87.3 391 86.6Z" stroke="#263238" stroke-miterlimit="10"/>
<path d="M365.481 95.9875C369.292 93.0604 370.008 87.5987 367.081 83.7884C364.153 79.9781 358.692 79.2622 354.881 82.1893C351.071 85.1165 350.355 90.5782 353.282 94.3885C356.209 98.1987 361.671 98.9147 365.481 95.9875Z" stroke="#263238" stroke-miterlimit="10"/>
<path d="M362.5 93.3L363.2 94.7L362.6 95L362 93.6C360.8 94.1 359.4 94.2 358.5 93.8V92.9C359.3 93.2 360.5 93.2 361.6 92.7L360.1 89.4C358.6 89.7 357 89.9 356.3 88.3C355.8 87.1 356.1 85.7 358 84.7L357.3 83.3L357.9 83L358.5 84.4C359.4 84 360.5 83.9 361.4 84V84.9C360.5 84.8 359.6 84.9 358.9 85.2L360.4 88.5C361.9 88.2 363.6 87.9 364.4 89.6C364.9 90.9 364.4 92.3 362.5 93.3ZM359.7 88.7L358.3 85.6C357.1 86.3 356.8 87.2 357.2 88C357.6 89 358.5 88.9 359.7 88.7ZM363.4 90.1C363 89.1 361.9 89.2 360.7 89.4L362.1 92.5C363.5 91.8 363.8 90.9 363.4 90.1Z" fill="#263238"/>
<path d="M61.5201 197.432L17.1847 201.265L19.1831 224.379L63.5184 220.546L61.5201 197.432Z" stroke="#263238" stroke-miterlimit="10"/>
<path d="M61.3 216.5L60 201.8C58.7 201.9 57.5 200.9 57.4 199.6L21.6 202.7C21.7 204 20.7 205.2 19.4 205.3L20.7 220C22 219.9 23.2 220.9 23.3 222.2L59.1 219.1C59 217.7 60 216.6 61.3 216.5Z" stroke="#263238" stroke-miterlimit="10"/>
<path d="M46.4 210.4C46.7 213.7 44.2 216.7 40.9 217C37.6 217.3 34.6 214.8 34.3 211.5C34 208.2 36.5 205.2 39.8 204.9C43.2 204.5 46.1 207 46.4 210.4Z" stroke="#263238" stroke-miterlimit="10"/>
<path d="M40.9 214.2L41 215.3H40.5L40.4 214.2C39.5 214.2 38.6 214 38.1 213.5L38.3 212.9C38.8 213.3 39.6 213.5 40.4 213.5L40.2 211C39.1 210.8 38 210.6 37.9 209.4C37.8 208.5 38.4 207.6 39.8 207.4L39.7 206.3H40.2L40.3 207.4C41 207.4 41.7 207.5 42.3 207.8L42.1 208.4C41.5 208.1 40.9 208 40.4 208L40.6 210.5C41.7 210.7 42.8 210.9 43 212.1C43.1 213.2 42.4 214 40.9 214.2ZM40.1 210.5L39.9 208.1C38.9 208.3 38.5 208.8 38.6 209.4C38.7 210.2 39.3 210.4 40.1 210.5ZM42.3 212.3C42.2 211.6 41.5 211.4 40.7 211.2L40.9 213.6C41.9 213.5 42.3 212.9 42.3 212.3Z" fill="#263238"/>
<path d="M422.9 74.3C427.705 74.3 431.6 70.4049 431.6 65.6C431.6 60.7951 427.705 56.9 422.9 56.9C418.095 56.9 414.2 60.7951 414.2 65.6C414.2 70.4049 418.095 74.3 422.9 74.3Z" stroke="#263238" stroke-miterlimit="10"/>
<path d="M423.3 70.4001V72.0001H422.6V70.5001C421.3 70.4001 420 69.9001 419.3 69.3001L419.7 68.5001C420.3 69.1001 421.4 69.6001 422.6 69.6001V66.0001C421.1 65.6001 419.6 65.2001 419.6 63.4001C419.6 62.1001 420.5 61.0001 422.6 60.8001V59.2001H423.3V60.7001C424.3 60.7001 425.3 61.0001 426.1 61.5001L425.8 62.3001C425 61.8001 424.2 61.6001 423.4 61.5001V65.1001C424.9 65.5001 426.6 65.9001 426.6 67.7001C426.4 69.2001 425.4 70.3001 423.3 70.4001ZM422.6 65.1001V61.7001C421.2 61.8001 420.6 62.5001 420.6 63.4001C420.6 64.4001 421.5 64.8001 422.6 65.1001ZM425.4 67.9001C425.4 66.8001 424.4 66.5001 423.2 66.2001V69.6001C424.8 69.5001 425.4 68.8001 425.4 67.9001Z" fill="#263238"/>
<path d="M365.579 181.956C370.256 180.853 373.153 176.169 372.051 171.492C370.949 166.816 366.264 163.918 361.588 165.02C356.911 166.122 354.013 170.807 355.116 175.484C356.218 180.16 360.903 183.058 365.579 181.956Z" stroke="#263238" stroke-miterlimit="10"/>
<path d="M361.4 177.8L360.6 179.1L360 178.7L360.8 177.4C359.7 176.6 358.9 175.6 358.7 174.6L359.4 174.1C359.6 174.9 360.3 175.9 361.2 176.6L363.1 173.6C362 172.5 361 171.3 361.9 169.8C362.6 168.7 364 168.2 365.8 169.2L366.6 167.9L367.2 168.3L366.4 169.6C367.2 170.2 368 171 368.3 171.8L367.6 172.3C367.2 171.5 366.6 170.8 366 170.4L364.1 173.5C365.2 174.6 366.4 175.8 365.4 177.4C364.7 178.4 363.3 178.9 361.4 177.8ZM363.6 172.9L365.4 170C364.1 169.4 363.2 169.7 362.8 170.4C362.2 171.3 362.8 172.1 363.6 172.9ZM364.6 176.8C365.2 175.9 364.5 175.1 363.7 174.2L361.9 177.1C363.2 177.8 364.1 177.6 364.6 176.8Z" fill="#263238"/>
<path d="M238.7 5.6C240.7 10 238.8 15.1 234.4 17.1C230 19.1 224.9 17.2 222.9 12.8C220.9 8.4 222.8 3.3 227.2 1.3C231.6 -0.699999 236.7 1.2 238.7 5.6Z" stroke="#263238" stroke-miterlimit="10"/>
<path d="M233.2 13.4L233.8 14.8L233.2 15.1L232.6 13.7C231.4 14.2 230 14.3 229.1 13.9V13C229.9 13.3 231.1 13.3 232.2 12.9L230.7 9.59995C229.2 9.89995 227.6 10.1 226.9 8.49995C226.4 7.29995 226.7 5.89995 228.6 4.89995L228 3.49995L228.6 3.19995L229.2 4.59995C230.1 4.19995 231.2 4.09995 232.1 4.19995V5.09995C231.2 4.99995 230.3 5.09995 229.6 5.39995L231.1 8.69995C232.6 8.39995 234.3 8.09995 235.1 9.79995C235.5 11 235.1 12.4 233.2 13.4ZM230.3 8.79995L228.9 5.69995C227.7 6.39995 227.4 7.29995 227.8 8.09995C228.2 9.09995 229.2 8.99995 230.3 8.79995ZM234.1 10.2C233.7 9.19995 232.6 9.29995 231.4 9.49995L232.8 12.6C234.1 11.9 234.4 11 234.1 10.2Z" fill="#263238"/>
<path d="M209.4 357.9C212.4 364.5 209.5 372.2 202.9 375.2C196.3 378.2 188.6 375.3 185.6 368.7C182.6 362.1 185.5 354.4 192.1 351.4C198.7 348.5 206.4 351.4 209.4 357.9Z" stroke="#263238" stroke-miterlimit="10"/>
<path d="M201.1 369.7L202.1 371.8L201.2 372.2L200.2 370.1C198.3 370.8 196.3 371 195 370.4L195.1 369.1C196.3 369.5 198.1 369.5 199.7 368.9L197.5 364C195.2 364.4 192.9 364.8 191.7 362.3C190.9 360.5 191.5 358.4 194.2 356.9L193.2 354.8L194.1 354.4L195.1 356.5C196.5 355.9 198.1 355.7 199.4 355.9V357.2C198.1 357 196.7 357.2 195.6 357.6L197.8 362.5C200.1 362 202.6 361.6 203.7 364.1C204.6 366 203.9 368.2 201.1 369.7ZM196.8 362.8L194.7 358.2C192.9 359.2 192.5 360.6 193 361.8C193.6 363.1 195.1 363.1 196.8 362.8ZM202.4 364.9C201.7 363.4 200.1 363.6 198.4 363.9L200.5 368.5C202.5 367.5 203 366.1 202.4 364.9Z" fill="#263238"/>
<path d="M22.2 154.8C16.8 159.6 8.49999 159 3.79999 153.6C-1.00001 148.2 -0.400014 139.9 4.99999 135.2C10.4 130.4 18.7 131 23.4 136.4C28.2 141.8 27.6 150.1 22.2 154.8Z" stroke="#263238" stroke-miterlimit="10"/>
<path d="M8.49999 150.2L6.69999 151.7L6.09999 151L7.79999 149.5C6.59999 147.9 5.89999 146 5.99999 144.6L7.29999 144.3C7.19999 145.6 7.79999 147.3 8.79999 148.7L12.8 145.2C11.7 143.1 10.7 141 12.8 139.2C14.3 137.9 16.5 137.8 18.7 140L20.5 138.5L21.2 139.3L19.5 140.8C20.5 142 21.1 143.4 21.3 144.7L20 145C19.8 143.7 19.2 142.4 18.5 141.5L14.4 145.1C15.5 147.2 16.6 149.5 14.6 151.3C13.1 152.5 10.8 152.5 8.49999 150.2ZM13.9 144.1L17.7 140.7C16.2 139.2 14.7 139.2 13.8 140.1C12.7 141.2 13.1 142.6 13.9 144.1ZM13.5 150.2C14.7 149.1 14.1 147.7 13.3 146.1L9.49999 149.5C11.1 151 12.5 151 13.5 150.2Z" fill="#263238"/>
<path d="M81.4379 264.995C81.5616 261.518 78.8429 258.598 75.3656 258.475C71.8883 258.351 68.9691 261.07 68.8454 264.547C68.7217 268.024 71.4404 270.943 74.9177 271.067C78.395 271.191 81.3142 268.472 81.4379 264.995Z" stroke="#263238" stroke-miterlimit="10"/>
<path d="M77.6 267.3L78.3 268.2L77.9 268.5L77.2 267.6C76.4 268.2 75.5 268.5 74.8 268.4L74.7 267.8C75.3 267.9 76.2 267.6 76.8 267.1L75.1 265.1C74.1 265.6 73 266 72.2 265C71.6 264.3 71.6 263.2 72.7 262.2L72 261.3L72.4 261L73.1 261.9C73.7 261.4 74.4 261.1 75 261.1L75.2 261.7C74.5 261.8 73.9 262 73.5 262.4L75.2 264.4C76.2 263.9 77.3 263.4 78.2 264.4C78.7 265.1 78.7 266.2 77.6 267.3ZM74.7 264.6L73.1 262.7C72.4 263.4 72.4 264.1 72.8 264.6C73.2 265.2 73.9 265 74.7 264.6ZM77.6 264.9C77.1 264.3 76.4 264.6 75.6 264.9L77.2 266.8C77.9 266 78 265.4 77.6 264.9Z" fill="#263238"/>
<path d="M276.1 390.8C278.3 393.5 278 397.5 275.3 399.7C272.6 401.9 268.6 401.6 266.4 398.9C264.2 396.2 264.5 392.2 267.2 390C269.9 387.7 273.9 388.1 276.1 390.8Z" stroke="#263238" stroke-miterlimit="10"/>
<path d="M273.7 397.3L274.4 398.2L274 398.5L273.3 397.6C272.5 398.2 271.6 398.5 270.9 398.4L270.8 397.8C271.4 397.9 272.3 397.6 272.9 397.1L271.2 395.1C270.2 395.6 269.1 396 268.3 395C267.7 394.3 267.7 393.2 268.8 392.2L268.1 391.3L268.5 391L269.2 391.9C269.8 391.4 270.5 391.1 271.1 391.1L271.3 391.7C270.6 391.8 270 392 269.6 392.4L271.3 394.4C272.3 393.9 273.4 393.4 274.3 394.4C274.9 395.2 274.9 396.2 273.7 397.3ZM270.9 394.6L269.3 392.7C268.6 393.4 268.6 394.1 269 394.6C269.4 395.2 270.1 395 270.9 394.6ZM273.8 394.9C273.3 394.3 272.6 394.6 271.8 394.9L273.4 396.8C274.1 396.1 274.2 395.4 273.8 394.9Z" fill="#263238"/>
<path d="M103.418 31.2361C103.736 27.7714 101.185 24.7049 97.7205 24.3869C94.2557 24.0689 91.1892 26.62 90.8713 30.0847C90.5533 33.5495 93.1043 36.616 96.5691 36.934C100.034 37.2519 103.1 34.7009 103.418 31.2361Z" stroke="#263238" stroke-miterlimit="10"/>
<path d="M99.6 33.2L100.3 34.1L99.9 34.4L99.2 33.5C98.4 34.1 97.5 34.4 96.8 34.3L96.7 33.7C97.3 33.8 98.2 33.5 98.8 33L97.1 31C96.1 31.5 95 31.9 94.2 30.9C93.6 30.2 93.6 29.1 94.7 28.1L94 27.3L94.4 27L95.1 27.9C95.7 27.4 96.4 27.1 97 27.1L97.2 27.7C96.5 27.8 95.9 28 95.5 28.4L97.2 30.4C98.2 29.9 99.3 29.4 100.2 30.4C100.8 31.1 100.8 32.1 99.6 33.2ZM96.7 30.5L95.1 28.6C94.4 29.3 94.4 30 94.8 30.5C95.3 31.1 96 30.9 96.7 30.5ZM99.6 30.8C99.1 30.2 98.4 30.5 97.6 30.8L99.2 32.7C100 32 100 31.3 99.6 30.8Z" fill="#263238"/>
<path opacity="0.2" d="M239.3 289.4C239.3 289.4 231.6 328.5 184.3 337.4C184.3 337.4 171.9 347.3 167.8 353.1C163.7 358.9 141.8 368.8 119.5 399.8C97.2 430.8 64 332.5 64 332.5L137.4 237.2L239.3 289.4Z" fill="black" fill-opacity="0.7"/>
<path d="M281.4 105.7C281.4 105.7 306.9 93.2001 312.5 95.4001C318.1 97.6001 323.5 110.4 302 122.8C280.6 135.2 287 158.2 287 158.2H302.3C302.3 158.2 311.5 161.9 315.1 166.7C318.7 171.5 321.2 187.9 323.3 193.5C325.3 199.1 324.3 204.6 318.7 206.4C318.7 206.4 315.1 222 316.1 228.9C317.1 235.8 316.6 240.2 310 241.1C303.4 241.9 296.7 236.3 297.2 228.9L292.1 247.4L295.7 254.5C295.7 254.5 302.3 256.7 309.5 262.8C316.6 268.9 323.8 270.6 321.7 277.4C319.7 284.2 315.6 291.6 294.2 283C272.8 274.5 254.9 241 254.9 241L242 124.3L281.4 105.7Z" fill="white"/>
<path opacity="0.4" d="M308.2 172.7C296.6 188.5 309.4 206.6 309.4 206.6C309.4 206.6 301.4 211.1 301.2 222.4C301.1 227.1 302.3 233.7 303.7 239.9C299.7 238 296.8 233.8 297.2 228.8L292.1 247.3L295.7 254.4C295.7 254.4 300.4 256 306.2 260.2C303 267.5 302.1 276.5 302.3 285.8C299.9 285.2 297.2 284.3 294.1 283.1C272.7 274.6 254.8 241.1 254.8 241.1L242 124.3L281.4 105.7C281.4 105.7 295.3 98.9001 304.9 96.2001C304.2 105.1 305.9 114.4 307.2 119.5C305.7 120.6 304 121.7 302.1 122.8C280.7 135.1 287 158.2 287 158.2H302.3C302.3 158.2 311 161.8 314.8 166.4C312.6 167.7 310.4 169.7 308.2 172.7Z" fill="#92E3A9"/>
<path d="M241.5 270.6C241.5 270.6 213.8 325 163.8 337.3C163.8 337.3 161.9 348.1 153.4 352.7C148.9 355.2 130.6 382.5 114.6 407.4L26 353.1C31.5 347.7 37.7 341.5 44 335C62.5 316.1 82.2 294.9 88.3 284.5C93.7 275.2 100.5 259.1 106.5 243.9C114.1 224.5 120.3 206.7 120.3 206.7L149.9 173.8L196.4 122.1L198.4 128.7L241.5 270.6Z" fill="white"/>
<path opacity="0.4" d="M196.3 122.1L241.5 270.5C241.5 270.5 213.8 324.9 163.8 337.2C163.8 337.2 161.9 348 153.4 352.6C149.3 354.8 134.2 377.1 119.6 399.6C125 381 140.7 351.4 140.7 351.4C130.6 339.5 133.6 326.9 137.6 330.5C141.5 334 151.8 344.1 152.4 344.8C147.9 339.6 146.9 331.3 146.9 331.3C146.9 331.3 159.4 339.6 160.4 326.3C161.4 313 152.9 280.5 152.9 280.5L130.7 195.1L196.3 122.1Z" fill="#92E3A9"/>
<path d="M242 124.3L281.4 105.7C281.4 105.7 306.9 93.2001 312.5 95.4001C318.1 97.6001 323.5 110.4 302 122.8C280.6 135.2 287 158.2 287 158.2H302.3C302.3 158.2 311.5 161.9 315.1 166.7C318.7 171.5 321.2 187.9 323.3 193.5C325.3 199.1 324.3 204.6 318.7 206.4C318.7 206.4 315.1 222 316.1 228.9C317.1 235.8 316.6 240.2 310 241.1C303.4 241.9 296.7 236.3 297.2 228.9L292.1 247.4L295.7 254.5C295.7 254.5 302.3 256.7 309.5 262.8C316.6 268.9 323.8 270.6 321.7 277.4C319.7 284.2 315.6 291.6 294.2 283C272.8 274.5 254.9 241 254.9 241" stroke="#263238" stroke-miterlimit="10" stroke-linecap="round" stroke-linejoin="round"/>
<path d="M318.6 206.4C310.9 208.5 302 206.9 298.7 193.4C295.4 179.9 302 165.4 306.4 164.1" stroke="#263238" stroke-miterlimit="10" stroke-linecap="round" stroke-linejoin="round"/>
<path d="M297.2 228.8C297.2 228.8 296.7 211.4 303.1 207.1" stroke="#263238" stroke-miterlimit="10" stroke-linecap="round" stroke-linejoin="round"/>
<path opacity="0.4" d="M111.2 315.3C111.2 315.3 92.5 313 88.3 304.6C84.8 297.7 66.1 323.6 44 334.9C62.5 316 82.2 294.8 88.3 284.4C93.7 275.1 100.5 259 106.5 243.8C106.2 256.4 99.5 275.6 101.4 285.7C101.4 285.7 94.2 287.5 95.6 295.4C97.1 303.5 111.2 315.3 111.2 315.3Z" fill="#92E3A9"/>
<path d="M241.5 270.6C241.5 270.6 213.8 325 163.8 337.3C163.8 337.3 161.9 348.1 153.4 352.7C148.9 355.2 130.6 382.5 114.6 407.4" stroke="#263238" stroke-miterlimit="10" stroke-linecap="round" stroke-linejoin="round"/>
<path d="M26 353.1C47.4 332 80.2 298.5 88.3 284.5C100.6 263.3 120.3 206.7 120.3 206.7L196.3 122.2" stroke="#263238" stroke-miterlimit="10" stroke-linecap="round" stroke-linejoin="round"/>
<path d="M152.9 186.7C152.9 186.7 164.6 197.2 167.9 206.7" stroke="#263238" stroke-miterlimit="10" stroke-linecap="round" stroke-linejoin="round"/>
<path d="M290.8 315.3H165.1C161.4 315.3 158.4 312.3 158.4 308.6V41C158.4 37.3 161.4 34.3 165.1 34.3H290.8C294.5 34.3 297.5 37.3 297.5 41V308.5C297.5 312.3 294.5 315.3 290.8 315.3Z" fill="#263238"/>
<path d="M255.5 42L252.8 46.9C252.2 48 251.1 48.6 249.9 48.6H205.9C204.7 48.6 203.6 47.9 203 46.9L200.3 42C199.7 40.9 198.6 40.3 197.4 40.3H166.7C164.9 40.3 163.4 41.8 163.4 43.6V306.7C163.4 308.5 164.9 310 166.7 310H289.2C291 310 292.5 308.5 292.5 306.7V43.6C292.5 41.8 291 40.3 289.2 40.3H258.5C257.2 40.2 256.1 40.9 255.5 42Z" fill="#92E3A9" stroke="#263238" stroke-miterlimit="10" stroke-linecap="round" stroke-linejoin="round"/>
<path d="M218.4 44.3001C219.394 44.3001 220.2 43.4942 220.2 42.5001C220.2 41.506 219.394 40.7001 218.4 40.7001C217.406 40.7001 216.6 41.506 216.6 42.5001C216.6 43.4942 217.406 44.3001 218.4 44.3001Z" stroke="white" stroke-miterlimit="10"/>
<path d="M239.3 42.5C239.3 43.1 238.8 43.6 238.2 43.6C237.6 43.6 237.1 43.1 237.1 42.5C237.1 41.9 237.6 41.4 238.2 41.4C238.8 41.4 239.3 41.9 239.3 42.5Z" stroke="white" stroke-miterlimit="10"/>
<path d="M234.3 41.8H223.4C223 41.8 222.7 42.1 222.7 42.5C222.7 42.9 223 43.2001 223.4 43.2001H234.3C234.7 43.2001 235 42.9 235 42.5C235 42.2 234.7 41.8 234.3 41.8Z" fill="white"/>
<path d="M186.1 46.9001H174.4V51.9001H186.1V46.9001Z" stroke="#263238" stroke-miterlimit="10" stroke-linecap="round" stroke-linejoin="round"/>
<path d="M188 47.8002H186.2V51.1002H188V47.8002Z" stroke="#263238" stroke-miterlimit="10" stroke-linecap="round" stroke-linejoin="round"/>
<path d="M269.3 50.1001H267.2V51.9001H269.3V50.1001Z" stroke="#263238" stroke-miterlimit="10" stroke-linecap="round" stroke-linejoin="round"/>
<path d="M273.4 48.3H271.3V51.9001H273.4V48.3Z" stroke="#263238" stroke-miterlimit="10" stroke-linecap="round" stroke-linejoin="round"/>
<path d="M277.4 46.5001H275.3V51.9001H277.4V46.5001Z" stroke="#263238" stroke-miterlimit="10" stroke-linecap="round" stroke-linejoin="round"/>
<path d="M281.5 44.6001H279.4V51.9001H281.5V44.6001Z" stroke="#263238" stroke-miterlimit="10" stroke-linecap="round" stroke-linejoin="round"/>
<path opacity="0.5" d="M291.6 98.4H164.2V219.9H291.6V98.4Z" fill="white"/>
<path d="M199.4 78.9V81C199.4 83.6 198.1 85 195.6 85H194.4V91.1H191.8V74.9H195.6C198.2 74.9 199.4 76.3 199.4 78.9ZM194.4 77.3V82.8H195.6C196.4 82.8 196.9 82.4 196.9 81.3V78.9C196.9 77.7 196.5 77.4 195.6 77.4H194.4V77.3Z" fill="#263238"/>
<path d="M208.6 91.2H206L205.6 88.2H202.5L202.1 91.2H199.8L202.4 74.9H206.1L208.6 91.2ZM202.8 86H205.3L204.1 77.8L202.8 86Z" fill="#263238"/>
<path d="M211.1 85.8L207.9 74.9H210.6L212.5 82.3L214.4 74.9H216.8L213.6 85.8V91.2H211V85.8H211.1Z" fill="#263238"/>
<path d="M223.3 86.5L225.1 74.9H228.7V91.2H226.3V79.5L224.6 91.2H222L220.1 79.7V91.2H217.9V74.9H221.5L223.3 86.5Z" fill="#263238"/>
<path d="M233 81.8H236.5V84.1H233V88.9H237.4V91.2H230.4V74.9H237.4V77.2H233V81.8Z" fill="#263238"/>
<path d="M241.3 79.4V91.2H239V74.9H242.2L244.8 84.6V74.9H247.1V91.2H244.5L241.3 79.4Z" fill="#263238"/>
<path d="M248.2 74.9H256.1V77.2H253.4V91.2H250.8V77.2H248.1V74.9H248.2Z" fill="#263238"/>
<path d="M260.7 74.7001C263.2 74.7001 264.5 76.2001 264.5 78.8001V79.3001H262V78.6001C262 77.4001 261.5 77.0001 260.7 77.0001C259.9 77.0001 259.4 77.4001 259.4 78.6001C259.4 79.8001 259.9 80.7001 261.6 82.1001C263.7 84.0001 264.4 85.3001 264.4 87.2001C264.4 89.8001 263.1 91.3001 260.6 91.3001C258.1 91.3001 256.8 89.8001 256.8 87.2001V86.2001H259.2V87.4001C259.2 88.6001 259.7 89.0001 260.5 89.0001C261.3 89.0001 261.8 88.6001 261.8 87.4001C261.8 86.2001 261.3 85.3001 259.6 83.9001C257.5 82.0001 256.8 80.7001 256.8 78.8001C256.9 76.2001 258.2 74.7001 260.7 74.7001Z" fill="#263238"/>
<path d="M281.4 113.1H174.4V129.1H281.4V113.1Z" fill="white" stroke="#263238" stroke-miterlimit="10" stroke-linecap="round" stroke-linejoin="round"/>
<path d="M281.4 143.1H174.4V159.1H281.4V143.1Z" fill="white" stroke="#263238" stroke-miterlimit="10" stroke-linecap="round" stroke-linejoin="round"/>
<path d="M281.4 170.4H174.4V186.4H281.4V170.4Z" fill="white" stroke="#263238" stroke-miterlimit="10" stroke-linecap="round" stroke-linejoin="round"/>
<path d="M225.1 192.2H174.4V210.9H225.1V192.2Z" fill="white" stroke="#263238" stroke-miterlimit="10" stroke-linecap="round" stroke-linejoin="round"/>
<path d="M281.5 192.2H230.8V210.9H281.5V192.2Z" fill="white" stroke="#263238" stroke-miterlimit="10" stroke-linecap="round" stroke-linejoin="round"/>
<path d="M181.1 110.3V110.7H177.8V106H181V106.4H178.3V108.1H180.7V108.5H178.3V110.3H181.1V110.3Z" fill="#263238"/>
<path d="M188.1 108.7V110.8H187.6V108.8C187.6 108 187.2 107.7 186.6 107.7C185.9 107.7 185.4 108.2 185.4 109V110.9H184.9V108.9C184.9 108.1 184.5 107.8 183.9 107.8C183.2 107.8 182.7 108.3 182.7 109.1V111H182.2V107.4H182.7V108C183 107.6 183.4 107.3 184 107.3C184.6 107.3 185 107.6 185.3 108.1C185.6 107.6 186.1 107.3 186.7 107.3C187.5 107.2 188.1 107.7 188.1 108.7Z" fill="#263238"/>
<path d="M192 108.5V110.7H191.5V110.1C191.3 110.5 190.9 110.7 190.3 110.7C189.5 110.7 189 110.3 189 109.7C189 109.2 189.4 108.7 190.4 108.7H191.5V108.5C191.5 107.9 191.2 107.6 190.5 107.6C190 107.6 189.6 107.8 189.3 108L189.1 107.6C189.5 107.3 190 107.1 190.5 107.1C191.5 107.2 192 107.6 192 108.5ZM191.6 109.7V109.1H190.5C189.8 109.1 189.6 109.4 189.6 109.7C189.6 110.1 189.9 110.4 190.5 110.4C191 110.4 191.4 110.1 191.6 109.7Z" fill="#263238"/>
<path d="M193.2 106.1C193.2 105.9 193.4 105.8 193.6 105.8C193.8 105.8 194 105.9 194 106.1C194 106.3 193.9 106.5 193.6 106.5C193.4 106.4 193.2 106.2 193.2 106.1ZM193.3 107.2H193.8V110.8H193.3V107.2Z" fill="#263238"/>
<path d="M195.2 105.7H195.7V110.7H195.2V105.7Z" fill="#263238"/>
<path d="M184.4 122.6V123H181.1V118.3H184.3V118.7H181.6V120.4H184V120.8H181.6V122.6H184.4V122.6Z" fill="#263238"/>
<path d="M191.4 121V123.1H190.9V121.1C190.9 120.3 190.5 120 189.9 120C189.2 120 188.7 120.5 188.7 121.3V123.2H188.2V121.2C188.2 120.4 187.8 120.1 187.2 120.1C186.5 120.1 186 120.6 186 121.4V123.3H185.5V119.7H186V120.3C186.3 119.9 186.7 119.6 187.3 119.6C187.9 119.6 188.3 119.9 188.6 120.4C188.9 119.9 189.4 119.6 190 119.6C190.8 119.4 191.4 119.9 191.4 121Z" fill="#263238"/>
<path d="M195.4 120.8V123H194.9V122.4C194.7 122.8 194.3 123 193.7 123C192.9 123 192.4 122.6 192.4 122C192.4 121.5 192.8 121 193.8 121H194.9V120.8C194.9 120.2 194.6 119.9 193.9 119.9C193.4 119.9 193 120.1 192.7 120.3L192.5 119.9C192.9 119.6 193.4 119.4 193.9 119.4C194.8 119.4 195.4 119.9 195.4 120.8ZM194.9 121.9V121.3H193.8C193.1 121.3 192.9 121.6 192.9 121.9C192.9 122.3 193.2 122.6 193.8 122.6C194.3 122.7 194.7 122.4 194.9 121.9Z" fill="#263238"/>
<path d="M196.5 118.3C196.5 118.1 196.7 118 196.9 118C197.1 118 197.3 118.1 197.3 118.3C197.3 118.5 197.2 118.7 196.9 118.7C196.7 118.7 196.5 118.5 196.5 118.3ZM196.7 119.5H197.2V123.1H196.7V119.5Z" fill="#263238"/>
<path d="M198.5 118H199V123H198.5V118Z" fill="#263238"/>
<path d="M203.6 121V123.1H203.1V121.1C203.1 120.3 202.7 120 202 120C201.2 120 200.8 120.5 200.8 121.3V123.2H200.3V119.6H200.8V120.3C201.1 119.9 201.5 119.6 202.2 119.6C203 119.4 203.6 119.9 203.6 121Z" fill="#263238"/>
<path d="M207.6 120.8V123H207.1V122.4C206.9 122.8 206.5 123 205.9 123C205.1 123 204.6 122.6 204.6 122C204.6 121.5 205 121 206 121H207.1V120.8C207.1 120.2 206.8 119.9 206.1 119.9C205.6 119.9 205.2 120.1 204.9 120.3L204.7 119.9C205.1 119.6 205.6 119.4 206.1 119.4C207 119.4 207.6 119.9 207.6 120.8ZM207.1 121.9V121.3H206C205.3 121.3 205.1 121.6 205.1 121.9C205.1 122.3 205.4 122.6 206 122.6C206.5 122.7 206.9 122.4 207.1 121.9Z" fill="#263238"/>
<path d="M214.7 121V123.1H214.2V121.1C214.2 120.3 213.8 120 213.2 120C212.5 120 212 120.5 212 121.3V123.2H211.5V121.2C211.5 120.4 211.1 120.1 210.5 120.1C209.8 120.1 209.3 120.6 209.3 121.4V123.3H208.8V119.7H209.3V120.3C209.6 119.9 210 119.6 210.6 119.6C211.2 119.6 211.6 119.9 211.9 120.4C212.2 119.9 212.7 119.6 213.3 119.6C214.2 119.4 214.7 119.9 214.7 121Z" fill="#263238"/>
<path d="M219.1 121.4H216.1C216.2 122.1 216.7 122.6 217.5 122.6C217.9 122.6 218.3 122.4 218.6 122.1L218.9 122.4C218.6 122.8 218.1 123 217.5 123C216.4 123 215.6 122.2 215.6 121.2C215.6 120.1 216.3 119.4 217.3 119.4C218.3 119.4 219 120.1 219 121.2C219.1 121.3 219.1 121.3 219.1 121.4ZM216.2 121H218.7C218.6 120.3 218.1 119.8 217.4 119.8C216.7 119.8 216.2 120.3 216.2 121Z" fill="#263238"/>
<path d="M226.1 121.2C226.1 122.3 225.7 123 225 123C224.6 123 224.3 122.7 224.2 122.3C223.9 122.8 223.4 123 222.8 123C221.8 123 221.1 122.3 221.1 121.2C221.1 120.2 221.8 119.5 222.8 119.5C223.4 119.5 223.9 119.8 224.1 120.2V119.5H224.5V122.1C224.5 122.5 224.7 122.6 224.9 122.6C225.3 122.6 225.6 122.1 225.6 121.2C225.6 119.6 224.5 118.6 222.8 118.6C221.1 118.6 220 119.7 220 121.3C220 122.9 221.1 124 222.8 124C223.2 124 223.7 123.9 224.1 123.7L224.2 124C223.8 124.2 223.2 124.3 222.8 124.3C220.9 124.3 219.7 123 219.7 121.2C219.7 119.4 221 118.1 222.9 118.1C224.8 118.2 226.1 119.4 226.1 121.2ZM224.2 121.3C224.2 120.5 223.6 120 222.9 120C222.1 120 221.6 120.5 221.6 121.3C221.6 122.1 222.1 122.7 222.9 122.7C223.6 122.7 224.2 122.1 224.2 121.3Z" fill="#263238"/>
<path d="M230.2 121.4H227.2C227.3 122.1 227.8 122.6 228.6 122.6C229 122.6 229.4 122.4 229.7 122.1L230 122.4C229.7 122.8 229.2 123 228.6 123C227.5 123 226.7 122.2 226.7 121.2C226.7 120.1 227.4 119.4 228.4 119.4C229.4 119.4 230.1 120.1 230.1 121.2C230.2 121.3 230.2 121.3 230.2 121.4ZM227.2 121H229.7C229.6 120.3 229.1 119.8 228.4 119.8C227.8 119.8 227.3 120.3 227.2 121Z" fill="#263238"/>
<path d="M237 121V123.1H236.5V121.1C236.5 120.3 236.1 120 235.5 120C234.8 120 234.3 120.5 234.3 121.3V123.2H233.8V121.2C233.8 120.4 233.4 120.1 232.8 120.1C232.1 120.1 231.6 120.6 231.6 121.4V123.3H231.1V119.7H231.6V120.3C231.9 119.9 232.3 119.6 232.9 119.6C233.5 119.6 233.9 119.9 234.2 120.4C234.5 119.9 235 119.6 235.6 119.6C236.5 119.4 237 119.9 237 121Z" fill="#263238"/>
<path d="M241 120.8V123H240.5V122.4C240.3 122.8 239.9 123 239.3 123C238.5 123 238 122.6 238 122C238 121.5 238.4 121 239.4 121H240.5V120.8C240.5 120.2 240.2 119.9 239.5 119.9C239 119.9 238.6 120.1 238.3 120.3L238.1 119.9C238.5 119.6 239 119.4 239.5 119.4C240.5 119.4 241 119.9 241 120.8ZM240.6 121.9V121.3H239.5C238.8 121.3 238.6 121.6 238.6 121.9C238.6 122.3 238.9 122.6 239.5 122.6C240 122.7 240.4 122.4 240.6 121.9Z" fill="#263238"/>
<path d="M242.2 118.3C242.2 118.1 242.4 118 242.6 118C242.8 118 243 118.1 243 118.3C243 118.5 242.9 118.7 242.6 118.7C242.4 118.7 242.2 118.5 242.2 118.3ZM242.3 119.5H242.8V123.1H242.3V119.5Z" fill="#263238"/>
<path d="M244.2 118H244.7V123H244.2V118Z" fill="#263238"/>
<path d="M245.7 122.7C245.7 122.5 245.9 122.3 246.1 122.3C246.3 122.3 246.5 122.5 246.5 122.7C246.5 122.9 246.3 123.1 246.1 123.1C245.8 123 245.7 122.9 245.7 122.7Z" fill="#263238"/>
<path d="M246.9 121.2C246.9 120.1 247.7 119.4 248.7 119.4C249.3 119.4 249.8 119.6 250.1 120.1L249.7 120.3C249.5 119.9 249.1 119.8 248.7 119.8C247.9 119.8 247.4 120.4 247.4 121.2C247.4 122 248 122.6 248.7 122.6C249.1 122.6 249.5 122.4 249.7 122.1L250.1 122.3C249.8 122.8 249.3 123 248.7 123C247.7 123 246.9 122.3 246.9 121.2Z" fill="#263238"/>
<path d="M250.7 121.2C250.7 120.1 251.5 119.4 252.5 119.4C253.5 119.4 254.3 120.2 254.3 121.2C254.3 122.3 253.5 123 252.5 123C251.5 123 250.7 122.3 250.7 121.2ZM253.8 121.2C253.8 120.4 253.2 119.8 252.5 119.8C251.7 119.8 251.2 120.4 251.2 121.2C251.2 122 251.8 122.6 252.5 122.6C253.3 122.6 253.8 122.1 253.8 121.2Z" fill="#263238"/>
<path d="M261.1 121V123.1H260.6V121.1C260.6 120.3 260.2 120 259.6 120C258.9 120 258.4 120.5 258.4 121.3V123.2H258V121.2C258 120.4 257.6 120.1 257 120.1C256.3 120.1 255.8 120.6 255.8 121.4V123.3H255.3V119.7H255.8V120.3C256.1 119.9 256.5 119.6 257.1 119.6C257.7 119.6 258.1 119.9 258.4 120.4C258.7 119.9 259.2 119.6 259.8 119.6C260.6 119.4 261.1 119.9 261.1 121Z" fill="#263238"/>
<path d="M181.9 151.2L182.7 151.7L182.5 152L181.7 151.5V152.5H181.4V151.5L180.6 152L180.4 151.7L181.2 151.2L180.4 150.7L180.6 150.4L181.4 150.9V149.9H181.7V150.9L182.5 150.4L182.7 150.7L181.9 151.2Z" fill="#263238"/>
<path d="M184.7 151.2L185.5 151.7L185.3 152L184.5 151.5V152.5H184.2V151.5L183.4 152L183.2 151.7L184 151.2L183.2 150.7L183.4 150.4L184.2 150.9V149.9H184.5V150.9L185.3 150.4L185.5 150.7L184.7 151.2Z" fill="#263238"/>
<path d="M187.4 151.2L188.2 151.7L188 152L187.2 151.5V152.5H186.9V151.5L186.1 152L185.9 151.7L186.7 151.2L185.9 150.7L186.1 150.4L186.9 150.9V149.9H187.2V150.9L188 150.4L188.2 150.7L187.4 151.2Z" fill="#263238"/>
<path d="M190.2 151.2L191 151.7L190.8 152L190 151.5V152.5H189.7V151.5L188.9 152L188.7 151.7L189.5 151.2L188.7 150.7L188.9 150.4L189.7 150.9V149.9H190V150.9L190.8 150.4L191 150.7L190.2 151.2Z" fill="#263238"/>
<path d="M192.9 151.2L193.7 151.7L193.5 152L192.7 151.5V152.5H192.4V151.5L191.6 152L191.4 151.7L192.2 151.2L191.4 150.7L191.6 150.4L192.4 150.9V149.9H192.7V150.9L193.5 150.4L193.7 150.7L192.9 151.2Z" fill="#263238"/>
<path d="M195.7 151.2L196.5 151.7L196.3 152L195.5 151.5V152.5H195.2V151.5L194.4 152L194.2 151.7L195 151.2L194.2 150.7L194.4 150.4L195.2 150.9V149.9H195.5V150.9L196.3 150.4L196.5 150.7L195.7 151.2Z" fill="#263238"/>
<path d="M198.4 151.2L199.2 151.7L199 152L198.2 151.5V152.5H197.9V151.5L197.1 152L196.9 151.7L197.7 151.2L196.9 150.7L197.1 150.4L197.9 150.9V149.9H198.2V150.9L199 150.4L199.2 150.7L198.4 151.2Z" fill="#263238"/>
<path d="M201.1 151.2L201.9 151.7L201.7 152L200.9 151.5V152.5H200.6V151.5L199.8 152L199.6 151.7L200.4 151.2L199.6 150.7L199.8 150.4L200.6 150.9V149.9H200.9V150.9L201.7 150.4L201.9 150.7L201.1 151.2Z" fill="#263238"/>
<path d="M203.9 151.2L204.7 151.7L204.5 152L203.7 151.5V152.5H203.4V151.5L202.6 152L202.4 151.7L203.2 151.2L202.4 150.7L202.6 150.4L203.4 150.9V149.9H203.7V150.9L204.5 150.4L204.7 150.7L203.9 151.2Z" fill="#263238"/>
<path d="M206.6 151.2L207.4 151.7L207.2 152L206.4 151.5V152.5H206.1V151.5L205.3 152L205.1 151.7L205.9 151.2L205.1 150.7L205.3 150.4L206.1 150.9V149.9H206.4V150.9L207.2 150.4L207.4 150.7L206.6 151.2Z" fill="#263238"/>
<path d="M209.4 151.2L210.2 151.7L210 152L209.2 151.5V152.5H208.9V151.5L208.1 152L207.9 151.7L208.7 151.2L207.9 150.7L208.1 150.4L208.9 150.9V149.9H209.2V150.9L210 150.4L210.2 150.7L209.4 151.2Z" fill="#263238"/>
<path d="M181.5 137.6C181.5 138.6 180.8 139.2 179.6 139.2H178.3V140.7H177.8V136H179.6C180.7 136 181.5 136.6 181.5 137.6ZM181 137.6C181 136.8 180.5 136.4 179.6 136.4H178.3V138.8H179.6C180.5 138.8 181 138.4 181 137.6Z" fill="#263238"/>
<path d="M185.1 138.5V140.7H184.6V140.1C184.4 140.5 184 140.7 183.4 140.7C182.6 140.7 182.1 140.3 182.1 139.7C182.1 139.2 182.5 138.7 183.5 138.7H184.6V138.5C184.6 137.9 184.3 137.6 183.6 137.6C183.1 137.6 182.7 137.8 182.4 138L182.2 137.6C182.6 137.3 183.1 137.1 183.6 137.1C184.6 137.1 185.1 137.6 185.1 138.5ZM184.6 139.7V139.1H183.5C182.8 139.1 182.6 139.4 182.6 139.7C182.6 140.1 182.9 140.4 183.5 140.4C184 140.4 184.4 140.1 184.6 139.7Z" fill="#263238"/>
<path d="M185.9 140.3L186.1 139.9C186.4 140.1 186.9 140.3 187.4 140.3C188.1 140.3 188.4 140.1 188.4 139.7C188.4 138.8 186.1 139.5 186.1 138.1C186.1 137.5 186.6 137.1 187.5 137.1C188 137.1 188.5 137.2 188.8 137.4L188.6 137.8C188.3 137.6 187.9 137.5 187.6 137.5C187 137.5 186.7 137.8 186.7 138.1C186.7 139.1 189 138.3 189 139.7C189 140.3 188.5 140.7 187.5 140.7C186.8 140.8 186.2 140.6 185.9 140.3Z" fill="#263238"/>
<path d="M189.2 140.3L189.4 139.9C189.7 140.1 190.2 140.3 190.7 140.3C191.4 140.3 191.7 140.1 191.7 139.7C191.7 138.8 189.4 139.5 189.4 138.1C189.4 137.5 189.9 137.1 190.8 137.1C191.3 137.1 191.8 137.2 192.1 137.4L191.9 137.8C191.6 137.6 191.2 137.5 190.9 137.5C190.3 137.5 190 137.8 190 138.1C190 139.1 192.3 138.3 192.3 139.7C192.3 140.3 191.8 140.7 190.8 140.7C190.1 140.8 189.5 140.6 189.2 140.3Z" fill="#263238"/>
<path d="M198.2 137.2L196.9 140.8H196.4L195.3 137.9L194.2 140.8H193.7L192.4 137.2H192.9L194 140.2L195.1 137.2H195.5L196.6 140.2L197.7 137.2H198.2Z" fill="#263238"/>
<path d="M198.4 139C198.4 137.9 199.2 137.2 200.2 137.2C201.2 137.2 202 138 202 139C202 140 201.2 140.8 200.2 140.8C199.2 140.8 198.4 140 198.4 139ZM201.6 139C201.6 138.2 201 137.6 200.3 137.6C199.5 137.6 199 138.2 199 139C199 139.8 199.6 140.4 200.3 140.4C201 140.3 201.6 139.8 201.6 139Z" fill="#263238"/>
<path d="M204.8 137.1V137.6H204.7C204 137.6 203.5 138.1 203.5 138.9V140.7H203V137.1H203.5V137.8C203.7 137.4 204.2 137.1 204.8 137.1Z" fill="#263238"/>
<path d="M208.9 135.7V140.7H208.4V140C208.1 140.5 207.6 140.7 207 140.7C206 140.7 205.2 140 205.2 138.9C205.2 137.8 206 137.1 207 137.1C207.6 137.1 208.1 137.3 208.4 137.8V135.7H208.9V135.7ZM208.4 139C208.4 138.2 207.8 137.6 207.1 137.6C206.3 137.6 205.8 138.2 205.8 139C205.8 139.8 206.4 140.4 207.1 140.4C207.9 140.3 208.4 139.8 208.4 139Z" fill="#263238"/>
<path d="M216 176.6V181.3H215.5V177H214.4V176.6H216Z" fill="#263238"/>
<path d="M220.4 180.9V181.3H217V181L219 179.1C219.5 178.6 219.6 178.3 219.6 177.9C219.6 177.4 219.2 177 218.5 177C217.9 177 217.5 177.2 217.2 177.5L216.9 177.2C217.3 176.8 217.9 176.5 218.6 176.5C219.6 176.5 220.2 177 220.2 177.8C220.2 178.3 220.1 178.7 219.4 179.3L217.8 180.9H220.4Z" fill="#263238"/>
<path d="M224.1 180C224.1 180.8 223.5 181.4 222.4 181.4C221.7 181.4 221.1 181.2 220.7 180.8L220.9 180.4C221.2 180.7 221.8 180.9 222.4 180.9C223.2 180.9 223.6 180.5 223.6 179.9C223.6 179.3 223.2 179 222.3 179H222V178.6L223.3 177H220.9V176.6H223.9V176.9L222.6 178.6C223.6 178.7 224.1 179.2 224.1 180Z" fill="#263238"/>
<path d="M228.8 180.1H227.9V181.3H227.4V180.1H224.7V179.7L227.2 176.6H227.7L225.3 179.7H227.4V178.6H227.9V179.7H228.8V180.1Z" fill="#263238"/>
<path d="M234.2 179.9C234.2 180.7 233.6 181.3 232.5 181.3C231.8 181.3 231.2 181.1 230.8 180.7L231 180.3C231.3 180.6 231.8 180.8 232.5 180.8C233.3 180.8 233.7 180.4 233.7 179.8C233.7 179.2 233.3 178.8 232.1 178.8H231.1L231.3 176.4H233.9V176.8H231.7L231.5 178.3H232.1C233.7 178.5 234.2 179.1 234.2 179.9Z" fill="#263238"/>
<path d="M238.4 179.9C238.4 180.8 237.7 181.4 236.8 181.4C235.5 181.4 234.9 180.5 234.9 179C234.9 177.4 235.8 176.6 237.1 176.6C237.5 176.6 237.9 176.7 238.2 176.9L238 177.3C237.8 177.1 237.4 177.1 237.1 177.1C236.1 177.1 235.4 177.8 235.4 179C235.4 179.1 235.4 179.2 235.4 179.4C235.6 178.9 236.2 178.6 236.8 178.6C237.7 178.5 238.4 179 238.4 179.9ZM237.9 179.9C237.9 179.3 237.4 178.9 236.7 178.9C236 178.9 235.5 179.3 235.5 179.9C235.5 180.4 235.9 180.9 236.8 180.9C237.4 180.9 237.9 180.5 237.9 179.9Z" fill="#263238"/>
<path d="M242.2 176.6V176.9L240.2 181.3H239.7L241.6 177H239.2V177.9H238.7V176.6H242.2Z" fill="#263238"/>
<path d="M246.4 180C246.4 180.8 245.7 181.4 244.6 181.4C243.5 181.4 242.8 180.9 242.8 180C242.8 179.4 243.1 179 243.7 178.8C243.2 178.6 243 178.3 243 177.8C243 177 243.7 176.5 244.7 176.5C245.7 176.5 246.4 177 246.4 177.8C246.4 178.3 246.1 178.7 245.6 178.8C246.1 179 246.4 179.4 246.4 180ZM245.9 180C245.9 179.4 245.4 179.1 244.6 179.1C243.8 179.1 243.3 179.5 243.3 180C243.3 180.6 243.8 181 244.6 181C245.4 180.9 245.9 180.6 245.9 180ZM244.6 178.7C245.3 178.7 245.8 178.4 245.8 177.9C245.8 177.4 245.3 177 244.6 177C243.9 177 243.4 177.3 243.4 177.9C243.4 178.3 243.8 178.7 244.6 178.7Z" fill="#263238"/>
<path d="M252.2 178.9C252.2 180.5 251.3 181.3 250 181.3C249.6 181.3 249.2 181.2 248.9 181L249.1 180.6C249.3 180.8 249.7 180.8 250 180.8C251 180.8 251.7 180.1 251.7 178.9C251.7 178.8 251.7 178.7 251.7 178.5C251.5 179 250.9 179.3 250.3 179.3C249.4 179.3 248.7 178.7 248.7 177.9C248.7 177 249.4 176.4 250.3 176.4C251.6 176.5 252.2 177.4 252.2 178.9ZM251.6 178C251.6 177.5 251.2 177 250.3 177C249.6 177 249.1 177.4 249.1 178C249.1 178.6 249.6 179 250.3 179C251.1 179 251.6 178.6 251.6 178Z" fill="#263238"/>
<path d="M254.2 176.6V181.3H253.7V177H252.6V176.6H254.2Z" fill="#263238"/>
<path d="M255.4 179C255.4 177.5 256.2 176.6 257.3 176.6C258.4 176.6 259.2 177.5 259.2 179C259.2 180.5 258.4 181.4 257.3 181.4C256.2 181.4 255.4 180.5 255.4 179ZM258.7 179C258.7 177.7 258.1 177 257.3 177C256.5 177 255.9 177.7 255.9 179C255.9 180.3 256.5 181 257.3 181C258.1 180.9 258.7 180.2 258.7 179Z" fill="#263238"/>
<path d="M261.1 176.6V181.3H260.6V177H259.5V176.6H261.1Z" fill="#263238"/>
<path d="M265.4 176.6V181.3H264.9V177H263.8V176.6H265.4Z" fill="#263238"/>
<path d="M267.8 176.6V181.3H267.3V177H266.2V176.6H267.8Z" fill="#263238"/>
<path d="M272.2 180.9V181.3H268.9V181L270.9 179.1C271.4 178.6 271.5 178.3 271.5 177.9C271.5 177.4 271.1 177 270.4 177C269.8 177 269.4 177.2 269.1 177.5L268.8 177.2C269.2 176.8 269.8 176.5 270.5 176.5C271.5 176.5 272.1 177 272.1 177.8C272.1 178.3 272 178.7 271.3 179.3L269.7 180.9H272.2Z" fill="#263238"/>
<path d="M274.1 176.6V181.3H273.6V177H272.5V176.6H274.1Z" fill="#263238"/>
<path d="M194.3 175.5V174.8C194.3 174.1 193.7 173.5 193 173.5H180.2C179.5 173.5 178.9 174.1 178.9 174.8V175.5H194.3Z" fill="#263238"/>
<path d="M179 176.5V181.8C179 182.5 179.6 183.1 180.3 183.1H193.1C193.8 183.1 194.4 182.5 194.4 181.8V176.5H179Z" fill="#263238"/>
<path d="M179.2 204.4C179.2 202.9 180 202 181.1 202C182.2 202 183 202.9 183 204.4C183 205.9 182.2 206.8 181.1 206.8C180 206.8 179.2 205.9 179.2 204.4ZM182.5 204.4C182.5 203.1 181.9 202.4 181.1 202.4C180.3 202.4 179.7 203.1 179.7 204.4C179.7 205.7 180.3 206.4 181.1 206.4C181.9 206.4 182.5 205.7 182.5 204.4Z" fill="#263238"/>
<path d="M187.3 205.5C187.3 206.3 186.6 206.9 185.5 206.9C184.4 206.9 183.7 206.4 183.7 205.5C183.7 204.9 184 204.5 184.6 204.3C184.1 204.1 183.9 203.8 183.9 203.3C183.9 202.5 184.6 202 185.6 202C186.6 202 187.3 202.5 187.3 203.3C187.3 203.8 187 204.2 186.5 204.3C187 204.5 187.3 204.9 187.3 205.5ZM186.8 205.4C186.8 204.8 186.3 204.5 185.5 204.5C184.7 204.5 184.2 204.9 184.2 205.4C184.2 206 184.7 206.4 185.5 206.4C186.3 206.4 186.8 206 186.8 205.4ZM185.5 204.1C186.2 204.1 186.7 203.8 186.7 203.3C186.7 202.8 186.2 202.4 185.5 202.4C184.8 202.4 184.3 202.7 184.3 203.3C184.3 203.8 184.8 204.1 185.5 204.1Z" fill="#263238"/>
<path d="M189.7 201.1H190.1L187.9 207.5H187.5L189.7 201.1Z" fill="#263238"/>
<path d="M193.5 206.3V206.7H190.2V206.4L192.2 204.5C192.7 204 192.8 203.7 192.8 203.3C192.8 202.8 192.4 202.4 191.7 202.4C191.1 202.4 190.7 202.6 190.4 202.9L190.1 202.6C190.5 202.2 191.1 201.9 191.8 201.9C192.8 201.9 193.4 202.4 193.4 203.2C193.4 203.7 193.3 204.1 192.6 204.7L191 206.3H193.5Z" fill="#263238"/>
<path d="M197.3 205.4C197.3 206.2 196.7 206.8 195.6 206.8C194.9 206.8 194.3 206.6 193.9 206.2L194.1 205.8C194.4 206.1 194.9 206.3 195.6 206.3C196.4 206.3 196.8 205.9 196.8 205.3C196.8 204.7 196.4 204.3 195.2 204.3H194.2L194.4 201.9H197V202.3H194.8L194.6 203.8H195.2C196.8 204 197.3 204.5 197.3 205.4Z" fill="#263238"/>
<path d="M181.4 199V199.3H179.3V196.4H181.3V196.7H179.6V197.7H181.1V198H179.6V199.1H181.4V199Z" fill="#263238"/>
<path d="M184 199.3L183 198L182.1 199.3H181.7L182.8 197.8L181.8 196.4H182.2L183.1 197.6L184 196.4H184.3L183.3 197.8L184.4 199.3H184Z" fill="#263238"/>
<path d="M187.1 197.3C187.1 197.9 186.6 198.3 185.9 198.3H185.1V199.2H184.8V196.3H185.9C186.6 196.3 187.1 196.7 187.1 197.3ZM186.8 197.3C186.8 196.8 186.5 196.6 185.9 196.6H185.1V198.1H185.9C186.5 198.1 186.8 197.8 186.8 197.3Z" fill="#263238"/>
<path d="M188.9 196.3H190.1C191 196.3 191.7 196.9 191.7 197.8C191.7 198.7 191.1 199.3 190.1 199.3H188.9V196.3ZM190.1 199C190.9 199 191.4 198.5 191.4 197.8C191.4 197.1 190.9 196.6 190.1 196.6H189.2V199H190.1V199Z" fill="#263238"/>
<path d="M194 197.9V199.3H193.7V199C193.6 199.2 193.3 199.4 192.9 199.4C192.4 199.4 192.1 199.1 192.1 198.8C192.1 198.5 192.3 198.2 193 198.2H193.7V198.1C193.7 197.7 193.5 197.5 193.1 197.5C192.8 197.5 192.5 197.6 192.4 197.8L192.3 197.6C192.5 197.4 192.8 197.3 193.2 197.3C193.7 197 194 197.3 194 197.9ZM193.7 198.6V198.2H193C192.6 198.2 192.4 198.4 192.4 198.6C192.4 198.9 192.6 199 193 199C193.3 199 193.6 198.9 193.7 198.6Z" fill="#263238"/>
<path d="M196 199.1C195.9 199.2 195.7 199.3 195.5 199.3C195.1 199.3 194.9 199.1 194.9 198.7V197.4H194.5V197.1H194.9V196.6H195.2V197.1H195.9V197.4H195.2V198.7C195.2 199 195.3 199.1 195.6 199.1C195.7 199.1 195.8 199.1 195.9 199L196 199.1Z" fill="#263238"/>
<path d="M198.3 198.2H196.5C196.5 198.7 196.9 199 197.4 199C197.7 199 197.9 198.9 198.1 198.7L198.3 198.9C198.1 199.1 197.8 199.3 197.4 199.3C196.7 199.3 196.2 198.8 196.2 198.2C196.2 197.5 196.7 197.1 197.3 197.1C197.9 197 198.3 197.5 198.3 198.2ZM196.5 198H198.1C198.1 197.6 197.7 197.3 197.3 197.3C196.8 197.3 196.5 197.6 196.5 198Z" fill="#263238"/>
<path d="M235.1 202V206.7H234.6V202.4H233.5V202H235.1Z" fill="#263238"/>
<path d="M239.4 206.3V206.7H236.1V206.4L238.1 204.5C238.6 204 238.7 203.7 238.7 203.3C238.7 202.8 238.3 202.4 237.6 202.4C237 202.4 236.6 202.6 236.3 202.9L236 202.6C236.4 202.2 237 201.9 237.7 201.9C238.7 201.9 239.3 202.4 239.3 203.2C239.3 203.7 239.2 204.1 238.5 204.7L236.9 206.3H239.4Z" fill="#263238"/>
<path d="M243.2 205.4C243.2 206.2 242.6 206.8 241.5 206.8C240.8 206.8 240.2 206.6 239.8 206.2L240 205.8C240.3 206.1 240.9 206.3 241.5 206.3C242.3 206.3 242.7 205.9 242.7 205.3C242.7 204.7 242.3 204.4 241.4 204.4H241.1V204L242.4 202.4H240V202H243V202.3L241.7 204C242.7 204.1 243.2 204.7 243.2 205.4Z" fill="#263238"/>
<path d="M233.6 197.8C233.6 196.9 234.3 196.3 235.1 196.3C235.5 196.3 235.9 196.4 236.2 196.7L236 196.9C235.8 196.7 235.5 196.6 235.1 196.6C234.4 196.6 233.9 197.1 233.9 197.8C233.9 198.5 234.4 199 235.1 199C235.4 199 235.7 198.9 236 198.6L236.2 198.8C235.9 199.1 235.6 199.2 235.1 199.2C234.3 199.3 233.6 198.6 233.6 197.8Z" fill="#263238"/>
<path d="M240.9 196.3L239.9 199.2H239.6L238.7 196.7L237.8 199.2H237.5L236.5 196.3H236.8L237.6 198.8L238.5 196.3H238.8L239.7 198.8L240.6 196.3H240.9Z" fill="#263238"/>
<path d="M208.8 232.2H206.2L205.6 233.5H205.1L207.3 228.8H207.8L210 233.5H209.5L208.8 232.2ZM208.7 231.8L207.6 229.3L206.5 231.8H208.7Z" fill="#263238"/>
<path d="M210.2 231.7C210.2 230.6 211 229.9 212 229.9C212.6 229.9 213.1 230.1 213.4 230.6L213 230.8C212.8 230.4 212.4 230.3 212 230.3C211.2 230.3 210.7 230.9 210.7 231.7C210.7 232.5 211.3 233.1 212 233.1C212.4 233.1 212.8 232.9 213 232.6L213.4 232.8C213.1 233.3 212.6 233.5 212 233.5C211 233.5 210.2 232.7 210.2 231.7Z" fill="#263238"/>
<path d="M216.3 233.2C216.1 233.4 215.8 233.5 215.5 233.5C214.8 233.5 214.5 233.1 214.5 232.5V230.3H213.9V229.9H214.5V229.1H215V229.9H216.1V230.3H215V232.4C215 232.8 215.2 233 215.6 233C215.8 233 216 232.9 216.1 232.8L216.3 233.2Z" fill="#263238"/>
<path d="M217.1 228.8C217.1 228.6 217.3 228.5 217.5 228.5C217.7 228.5 217.9 228.6 217.9 228.8C217.9 229 217.8 229.2 217.5 229.2C217.2 229.1 217.1 229 217.1 228.8ZM217.2 229.9H217.7V233.5H217.2V229.9Z" fill="#263238"/>
<path d="M218.6 231.7C218.6 230.6 219.4 229.9 220.4 229.9C221.4 229.9 222.2 230.7 222.2 231.7C222.2 232.8 221.4 233.5 220.4 233.5C219.4 233.5 218.6 232.7 218.6 231.7ZM221.8 231.7C221.8 230.9 221.2 230.3 220.5 230.3C219.7 230.3 219.2 230.9 219.2 231.7C219.2 232.5 219.8 233.1 220.5 233.1C221.2 233.1 221.8 232.5 221.8 231.7Z" fill="#263238"/>
<path d="M226.5 231.4V233.5H226V231.5C226 230.7 225.6 230.4 224.9 230.4C224.1 230.4 223.7 230.9 223.7 231.7V233.6H223.2V230H223.7V230.7C224 230.3 224.4 230 225.1 230C225.9 229.9 226.5 230.4 226.5 231.4Z" fill="#263238"/>
<path d="M230.2 229.2V231.1H232.6V231.5H230.2V233.5H229.7V228.8H232.9V229.2H230.2V229.2Z" fill="#263238"/>
<path d="M233.7 228.8C233.7 228.6 233.9 228.5 234.1 228.5C234.3 228.5 234.5 228.6 234.5 228.8C234.5 229 234.4 229.2 234.1 229.2C233.8 229.1 233.7 229 233.7 228.8ZM233.8 229.9H234.3V233.5H233.8V229.9Z" fill="#263238"/>
<path d="M238.9 229.9V233C238.9 234.2 238.3 234.8 237.1 234.8C236.5 234.8 235.8 234.6 235.4 234.3L235.6 233.9C235.9 234.2 236.5 234.4 237 234.4C237.9 234.4 238.3 234 238.3 233.1V232.6C238 233.1 237.5 233.3 236.9 233.3C235.9 233.3 235.1 232.6 235.1 231.6C235.1 230.6 235.9 229.9 236.9 229.9C237.5 229.9 238 230.1 238.3 230.6V229.9H238.9ZM238.4 231.6C238.4 230.8 237.8 230.3 237 230.3C236.2 230.3 235.7 230.8 235.7 231.6C235.7 232.4 236.3 232.9 237 232.9C237.9 232.9 238.4 232.4 238.4 231.6Z" fill="#263238"/>
<path d="M243.4 229.9V233.5H243V232.9C242.7 233.3 242.3 233.6 241.7 233.6C240.8 233.6 240.2 233.1 240.2 232.1V230H240.7V232C240.7 232.8 241.1 233.1 241.8 233.1C242.5 233.1 243 232.6 243 231.8V229.9H243.4V229.9Z" fill="#263238"/>
<path d="M246.6 229.9V230.4H246.5C245.8 230.4 245.3 230.9 245.3 231.7V233.5H244.8V229.9H245.3V230.6C245.5 230.1 245.9 229.9 246.6 229.9Z" fill="#263238"/>
<path d="M250.5 231.8H247.5C247.6 232.5 248.1 233 248.9 233C249.3 233 249.7 232.8 250 232.5L250.3 232.8C250 233.2 249.5 233.4 248.9 233.4C247.8 233.4 247 232.6 247 231.6C247 230.5 247.7 229.8 248.7 229.8C249.7 229.8 250.4 230.5 250.4 231.6C250.5 231.7 250.5 231.8 250.5 231.8ZM247.5 231.5H250C249.9 230.8 249.4 230.3 248.7 230.3C248.1 230.3 247.6 230.8 247.5 231.5Z" fill="#263238"/>
<path d="M211 252.4V254.5H209.1V252.5C207.3 252.4 205.5 251.8 204.5 251L205.5 248.7C206.4 249.4 207.8 249.9 209.1 250V246.9C207 246.4 204.7 245.7 204.7 243.1C204.7 241.1 206.1 239.4 209.1 239.1V237H211V239C212.4 239.1 213.7 239.5 214.8 240.1L213.9 242.4C213 241.9 212 241.5 211.1 241.4V244.6C213.2 245.1 215.4 245.8 215.4 248.4C215.3 250.4 213.9 252.1 211 252.4ZM209.1 244.2V241.6C208.1 241.8 207.7 242.4 207.7 243C207.7 243.6 208.3 244 209.1 244.2ZM212.3 248.7C212.3 248 211.8 247.7 211 247.4V250C211.9 249.8 212.3 249.3 212.3 248.7Z" fill="#263238"/>
<path d="M226.3 249.8V252.3H216.5V250.3L221.5 245.6C222.7 244.5 222.9 243.8 222.9 243.2C222.9 242.2 222.2 241.6 220.8 241.6C219.7 241.6 218.7 242 218.1 242.9L215.9 241.5C216.9 240 218.7 239.1 221.1 239.1C224 239.1 225.9 240.6 225.9 242.9C225.9 244.2 225.5 245.3 223.7 247L220.7 249.8H226.3V249.8Z" fill="#263238"/>
<path d="M227.5 245.8C227.5 241.5 229.9 239.1 233.1 239.1C236.3 239.1 238.7 241.5 238.7 245.8C238.7 250.1 236.3 252.5 233.1 252.5C229.8 252.5 227.5 250.1 227.5 245.8ZM235.6 245.8C235.6 242.8 234.6 241.6 233.1 241.6C231.6 241.6 230.6 242.8 230.6 245.8C230.6 248.8 231.6 250 233.1 250C234.5 250 235.6 248.7 235.6 245.8Z" fill="#263238"/>
<path d="M240.1 245.8C240.1 241.5 242.5 239.1 245.7 239.1C248.9 239.1 251.3 241.5 251.3 245.8C251.3 250.1 248.9 252.5 245.7 252.5C242.4 252.5 240.1 250.1 240.1 245.8ZM248.2 245.8C248.2 242.8 247.2 241.6 245.7 241.6C244.2 241.6 243.2 242.8 243.2 245.8C243.2 248.8 244.2 250 245.7 250C247.1 250 248.2 248.7 248.2 245.8Z" fill="#263238"/>
<path d="M248.7 285.4H207.2C201.8 285.4 197.5 281.1 197.5 275.7C197.5 270.3 201.8 266 207.2 266H248.7C254.1 266 258.4 270.3 258.4 275.7C258.4 281 254 285.4 248.7 285.4Z" fill="#263238"/>
<path d="M214.7 274.6C214.7 275.8 213.8 276.5 212.4 276.5H210.9V278.3H210.3V272.6H212.4C213.8 272.7 214.7 273.4 214.7 274.6ZM214.1 274.6C214.1 273.7 213.5 273.2 212.4 273.2H210.9V276.1H212.4C213.5 276.1 214.1 275.5 214.1 274.6Z" fill="white"/>
<path d="M219 275.7V278.4H218.4V277.7C218.1 278.1 217.6 278.4 216.9 278.4C215.9 278.4 215.3 277.9 215.3 277.2C215.3 276.5 215.7 276 217 276H218.4V275.7C218.4 275 218 274.6 217.2 274.6C216.6 274.6 216.1 274.8 215.8 275.1L215.5 274.7C215.9 274.3 216.6 274.1 217.2 274.1C218.4 274.1 219 274.6 219 275.7ZM218.5 277.1V276.4H217.2C216.4 276.4 216.1 276.7 216.1 277.2C216.1 277.7 216.5 278 217.2 278C217.7 278 218.2 277.7 218.5 277.1Z" fill="white"/>
<path d="M224.1 274.1L222 278.9C221.6 279.7 221.2 280 220.6 280C220.2 280 219.8 279.9 219.6 279.6L219.9 279.2C220.1 279.4 220.4 279.5 220.7 279.5C221.1 279.5 221.3 279.3 221.6 278.8L221.8 278.4L219.9 274.1H220.5L222.1 277.7L223.7 274.1H224.1Z" fill="white"/>
<path d="M229 278.4V279.3H228.6V278.4C227.8 278.4 227.1 278.1 226.7 277.7L226.9 277.2C227.3 277.6 227.9 277.8 228.6 277.9V275.8C227.7 275.6 226.8 275.3 226.8 274.2C226.8 273.4 227.4 272.7 228.6 272.6V271.7H229V272.6C229.6 272.6 230.2 272.8 230.7 273.1L230.5 273.6C230 273.3 229.5 273.2 229 273.1V275.3C229.9 275.5 230.9 275.8 230.9 276.9C230.9 277.7 230.3 278.4 229 278.4ZM228.6 275.2V273.2C227.8 273.3 227.4 273.7 227.4 274.2C227.4 274.8 227.9 275 228.6 275.2ZM230.3 276.9C230.3 276.3 229.7 276 229 275.9V277.9C229.9 277.9 230.3 277.4 230.3 276.9Z" fill="white"/>
<path d="M235.6 277.9V278.4H231.6V278L234 275.7C234.6 275.1 234.8 274.7 234.8 274.3C234.8 273.6 234.3 273.2 233.5 273.2C232.8 273.2 232.3 273.4 231.9 273.8L231.5 273.4C231.9 272.9 232.6 272.6 233.5 272.6C234.7 272.6 235.4 273.2 235.4 274.1C235.4 274.6 235.2 275.1 234.5 275.9L232.6 277.8H235.6V277.9Z" fill="white"/>
<path d="M236.3 275.5C236.3 273.7 237.3 272.6 238.6 272.6C239.9 272.6 240.9 273.7 240.9 275.5C240.9 277.3 239.9 278.4 238.6 278.4C237.3 278.4 236.3 277.4 236.3 275.5ZM240.2 275.5C240.2 274 239.5 273.1 238.5 273.1C237.5 273.1 236.8 273.9 236.8 275.5C236.8 277 237.5 277.9 238.5 277.9C239.6 277.9 240.2 277.1 240.2 275.5Z" fill="white"/>
<path d="M241.7 275.5C241.7 273.7 242.7 272.6 244 272.6C245.3 272.6 246.3 273.7 246.3 275.5C246.3 277.3 245.3 278.4 244 278.4C242.6 278.4 241.7 277.4 241.7 275.5ZM245.6 275.5C245.6 274 244.9 273.1 243.9 273.1C242.9 273.1 242.2 273.9 242.2 275.5C242.2 277 242.9 277.9 243.9 277.9C245 277.9 245.6 277.1 245.6 275.5Z" fill="white"/>
<path d="M165.2 254.8C166.7 277.9 156 303.5 156 303.5L98.3 287.3L88.2 284.5C98.2 270.6 103 243.2 100.4 221.1C100.2 219.4 100.1 217.9 100 216.4C99 198.1 106.6 192.8 113 184.7C120 176 135.6 143 135.6 135.2C135.6 127.4 155.1 108.3 150.8 86.6001C150.8 86.6001 156.7 82.9001 162.7 85.9001C165.4 87.3001 168.1 90.0001 170.3 95.0001C175.4 106.9 168.2 140.5 162.2 148.7L150.5 197.2C150.5 197.2 154.4 204 158.3 216.4C161.2 226 164.2 239 165.2 254.8Z" fill="white"/>
<path opacity="0.4" d="M100 216.4C103.3 225.3 106.7 231.4 106.4 243.9C106.1 256.5 99.4 275.7 101.3 285.8C101.3 285.8 99.8 286.2 98.3 287.4L88.2 284.6C98.2 270.7 103 243.3 100.4 221.2C100.3 219.4 100.1 217.8 100 216.4Z" fill="#92E3A9"/>
<path opacity="0.4" d="M162.1 148.7L150.4 197.2C150.4 197.2 154.3 204 158.2 216.4C150.3 203.6 143.6 199.8 143.6 199.8C148.9 193.5 153 147.2 153 147.2C153 147.2 169.6 127.7 168 107.4C167.3 98 165 90.9 162.8 85.9C165.5 87.3 168.2 90 170.4 95C175.3 106.9 168.2 140.5 162.1 148.7Z" fill="#92E3A9"/>
<path d="M88.3 284.5C98.3 270.6 103.1 243.3 100.5 221.1C97.9 199 106.1 193.4 113.1 184.7C120 176 135.7 143 135.7 135.2C135.7 127.4 155.2 108.3 150.9 86.6C150.9 86.6 163.4 78.9 170.3 95.1C175.4 107 168.2 140.6 162.2 148.8L150.5 197.3C150.5 197.3 163 218.8 165.3 254.9C166.8 278 156.1 303.6 156.1 303.6" stroke="#263238" stroke-miterlimit="10" stroke-linecap="round" stroke-linejoin="round"/>
<path d="M126.9 322C126.9 322 140 330.1 147.7 342.9" stroke="#263238" stroke-miterlimit="10" stroke-linecap="round" stroke-linejoin="round"/>
<path d="M163.7 337.3C163.7 337.3 152.4 338.9 142.2 326.7C135.6 318.9 115.8 315.3 111.2 294.8" stroke="#263238" stroke-miterlimit="10" stroke-linecap="round" stroke-linejoin="round"/>
<path opacity="0.2" d="M328.1 397.9C299.2 384.1 316.7 373 276.9 355.8C237.1 338.6 236.7 323.9 241.5 290.1C246.3 256.3 242.5 220.4 254.1 217.3C265.7 214.2 245 167.7 258.5 151.2L324.9 280.4L328.1 397.9Z" fill="black" fill-opacity="0.7"/>
<path d="M436 396.5C434.6 392.6 433.3 388.4 432.2 384.5C430.8 379.5 429.7 375.5 427.2 370.9C426.8 370.2 426.4 369.4 425.9 368.5C423.2 363.7 419.5 357.1 417.3 348.9C415.8 343.4 417.3 330 418.7 316.9C419.7 307.5 420.6 298.7 420.3 293.6L420.2 291.8C419.5 278.7 418.1 251.3 415.2 243.8C412.4 236.5 409.7 235.4 404.8 233.5C404.3 233.3 403.8 233.1 403.2 232.8C401.4 232 398.3 230.4 394.7 228.6C386.6 224.4 376.6 219.2 371.5 218.5C364.8 217.6 358.3 218.9 357.2 219.2C350.9 214.4 340.3 208.2 337.1 208.1C334.5 208 328.8 209.6 326.1 210.5C325.5 210.7 325 210.9 324.7 210.9C322.4 209.2 320.5 207.9 319.2 207.3C319.1 207.2 318.9 207.2 318.8 207.1C315.3 205.6 309.9 205.6 307 205.7C306.1 205.7 305.4 205.8 305.1 205.8C299.6 197.4 294.2 188.9 291.9 185.3C287 177.5 271.8 145.6 271.7 145.3C271.7 145.2 271.6 145.2 271.5 145.1C271.5 145.1 271.5 145.1 271.4 145.1C270.2 144.8 261.5 142.5 258 151C254.2 160.2 259.6 180.3 265 187.6C267.6 191.1 274.5 205.5 281.6 220.3C279.8 222 265.2 235.4 258.1 238C252.3 240 253.7 269.7 254.8 293.6C255.2 302.4 255.6 310 255.5 314.5C255.3 323.3 271.3 335.4 286.8 347.1C300.8 357.7 315.3 368.7 317 376.7C317.5 378.9 318.8 380.8 320.4 382.8C323.1 386.2 326.5 390.2 328 397.8C328.4 400.1 332.1 403.1 335 407.9H440.1C439.3 405.7 437.7 401.4 436 396.5ZM290.3 238.4C295.4 249.1 298.5 255.4 299.3 256.1C300 256.8 300 260.2 300 263.5C300 266.4 299.9 269.5 300.3 272.1C299.1 273.2 291.2 280.3 289.7 286.1L283 278.3L281.3 253.7C282.3 252.7 289.2 245.4 290.3 238.4Z" fill="white"/>
<path opacity="0.4" d="M405.8 306.9C408.3 330 408.3 342.4 411.1 349.1C415.8 360.4 422.7 362.6 422.7 362.6C420.7 358.7 418.7 354.1 417.3 348.9C415.8 343.4 417.3 330 418.7 316.9C419.7 307.5 420.6 298.7 420.4 293.6L420.3 291.8C419.6 278.7 418.2 251.4 415.3 243.8C412.5 236.5 409.8 235.4 404.9 233.5C404.4 233.3 403.9 233.1 403.3 232.8C401.5 232 398.4 230.4 394.8 228.6C386.7 224.4 376.7 219.2 371.6 218.6C364.9 217.7 358.4 219 357.3 219.3C351 214.5 340.4 208.3 337.2 208.2C334.6 208.1 327.6 210.1 324.8 211C336.8 220.8 354.1 233 354.1 233C367.8 235.7 366 241.7 371.5 245C376.5 248 381.3 239.2 385.5 238.4C391 237.4 397.3 243.2 397 250.3C396.2 269.8 403.7 287.1 405.8 306.9Z" fill="#92E3A9"/>
<path opacity="0.4" d="M336.8 235.5C336.8 235.5 326 226.5 320.8 223.5C315.6 220.5 314.8 210.2 318.9 207.6C319 207.5 319.2 207.5 319.4 207.4C319.3 207.3 319.1 207.3 319 207.2C315.5 205.7 310.1 205.7 307.2 205.8C313.2 217 318 225.5 319.3 227.4C323.6 233.8 336.8 235.5 336.8 235.5Z" fill="#92E3A9"/>
<path opacity="0.4" d="M320.3 375.4C320.8 373 316.8 366 315.1 363.2C311.2 356.7 265.5 316.4 272.2 305.6C278.8 294.8 284.8 302.8 289 303.5C292 304 300.2 299.1 300.2 298.7C299.3 290.4 306.9 285 306.9 285C306.9 285 306.2 252 304.4 252.6C302.6 253.2 281.6 203 281.6 203C281.6 203 259.3 173.4 260.6 159.6C261.9 145.8 271.5 145.5 271.5 145.5V145.1C270.3 144.8 261.6 142.5 258.1 151C254.3 160.2 259.7 180.3 265.1 187.6C267.7 191.1 274.6 205.5 281.7 220.3C279.9 222 265.3 235.4 258.2 238C252.4 240 253.8 269.7 254.9 293.6C255.3 302.4 255.7 310 255.6 314.5C255.4 323.3 271.4 335.4 286.9 347.1C300.9 357.7 315.4 368.7 317.1 376.7C317.6 378.9 318.9 380.8 320.5 382.8C320.3 379.9 320.1 376.7 320.3 375.4ZM290.3 238.4C295.4 249.1 298.5 255.4 299.3 256.1C300 256.8 300 260.2 300 263.5C300 266.4 299.9 269.5 300.3 272.1C299.1 273.2 291.2 280.3 289.7 286.1L283 278.3L281.3 253.7C282.3 252.7 289.2 245.4 290.3 238.4Z" fill="#92E3A9"/>
<path d="M330.5 235.4C330.5 235.4 323.8 233.6 319.3 227.5C314.7 221.4 296.8 193.5 291.8 185.6C286.8 177.7 271.6 145.5 271.6 145.5C271.6 145.5 262.2 142.4 258.5 151.1C254.8 159.9 259.9 179.7 265.4 187.4C271 195 297.5 253.9 299.6 255.8C301.7 257.7 298.5 273.4 302.8 277.2" stroke="#263238" stroke-miterlimit="10" stroke-linecap="round" stroke-linejoin="round"/>
<path d="M300.7 272.3C300.7 272.3 291 280.8 289.9 286.9L282.7 278.4L281 253.6C281 253.6 289.7 244.9 290.2 237.2" stroke="#263238" stroke-miterlimit="10" stroke-linecap="round" stroke-linejoin="round"/>
<path d="M282.2 220.5C282.2 220.5 266.1 235.7 258.4 238.4C250.7 241.1 256.3 298.1 255.9 314.6C255.5 331.1 313.9 359.8 317.4 376.7C318.8 383.4 324.7 384.8 328.3 397.7" stroke="#263238" stroke-miterlimit="10" stroke-linecap="round" stroke-linejoin="round"/>
<path d="M305.1 206.3C305.1 206.3 313.9 205.5 318.8 207.6C323.7 209.7 343.8 226.9 348.6 230.2C353.4 233.5 360.7 234.7 362.1 238.3" stroke="#263238" stroke-miterlimit="10" stroke-linecap="round" stroke-linejoin="round"/>
<path d="M324.7 211.4C324.7 211.4 333.7 208.4 337.1 208.6C340.5 208.8 353.5 216.4 359.3 221.5C365.1 226.6 370.9 229.4 374.4 230.7" stroke="#263238" stroke-miterlimit="10" stroke-linecap="round" stroke-linejoin="round"/>
<path d="M357.2 219.7C357.2 219.7 364.2 218 371.5 219C378.8 220 397.2 230.8 403.1 233.2C409 235.6 411.8 236.1 414.8 244C417.9 251.9 419.3 281.8 419.9 293.7C420.5 305.5 414.4 339.5 416.9 349C419.4 358.5 424.1 365.9 426.8 371" stroke="#263238" stroke-miterlimit="10" stroke-linecap="round" stroke-linejoin="round"/>
<path d="M280.9 253.6C280.9 253.6 279.4 247.8 277.5 247" stroke="#263238" stroke-miterlimit="10" stroke-linecap="round" stroke-linejoin="round"/>
<path d="M282.6 278.4C282.6 278.4 283.9 284.9 285.3 288.5C286.7 292.1 284.5 297.2 284.5 297.2" stroke="#263238" stroke-miterlimit="10" stroke-linecap="round" stroke-linejoin="round"/>
<path d="M289.8 286.9C289.6 292.6 295.2 299.2 296.6 298.3" stroke="#263238" stroke-miterlimit="10" stroke-linecap="round" stroke-linejoin="round"/>
<path d="M318.6 253.6C318.6 253.6 324.7 243.8 330.5 243.3C336.3 242.8 343 251.1 346.6 250.3C350.2 249.5 354.7 244.2 360.7 243.3C366.7 242.3 369.6 245.2 374.4 245.5C379.2 245.7 379.7 239.3 385.4 238.5C391.2 237.6 393.1 240.5 396.9 241.2C400.7 241.9 401.7 238.9 404.8 237.2" stroke="#263238" stroke-miterlimit="10" stroke-linecap="round" stroke-linejoin="round"/>
</g>
<defs>
<clipPath id="clip0_767_383">
<rect width="448.7" height="408" fill="white"/>
</clipPath>
</defs>
</svg>
