<svg width="32" height="32" viewBox="0 0 32 32" fill="none" xmlns="http://www.w3.org/2000/svg">
<g clip-path="url(#clip0_477_1108)">
<path d="M28.6642 12.9459L6.82716 0.463659C6.29652 0.160289 5.69276 0 5.08147 0C4.46222 0 3.85178 0.164272 3.31616 0.475037C2.23523 1.10211 1.56378 2.26795 1.56378 3.51769V28.4823C1.56378 29.7319 2.23523 30.8977 3.31587 31.5248C3.8515 31.8359 4.46208 32.0001 5.08133 32.0001C5.69234 32.0001 6.29609 31.8397 6.82702 31.5363L28.6638 19.054C29.7569 18.429 30.4359 17.2589 30.4359 15.9999C30.4359 14.7409 29.7572 13.5708 28.6642 12.9459ZM19.2015 9.99441L16.2032 14.1708L9.03139 4.18104L19.2015 9.99441ZM4.9438 29.8545C4.74881 29.8356 4.55751 29.7787 4.3867 29.6796C3.96144 29.4328 3.69718 28.974 3.69718 28.4823V3.51755C3.69718 3.02587 3.96144 2.56705 4.38684 2.32029C4.55708 2.22144 4.74681 2.16256 4.94181 2.1425L14.89 15.9999L4.9438 29.8545ZM9.03139 27.819L16.2032 17.8291L19.2015 22.0054L9.03139 27.819ZM27.6053 17.2016L21.0635 20.941L17.5162 15.9999L21.0635 11.0588L27.6053 14.7983C28.0354 15.0442 28.3027 15.5046 28.3027 15.9999C28.3027 16.4953 28.0356 16.9558 27.6053 17.2016Z" fill="#1F272E"/>
</g>
<defs>
<clipPath id="clip0_477_1108">
<rect width="32" height="32" fill="white"/>
</clipPath>
</defs>
</svg>
