<svg width="112" height="55" viewBox="0 0 112 55" fill="none" xmlns="http://www.w3.org/2000/svg">
<rect opacity="0.05" x="0.878662" y="0.686035" width="111.004" height="53.9163" rx="26.9582" fill="url(#paint0_linear_477_1081)"/>
<path d="M28.1381 30.056C28.1381 30.5846 28.0113 31.0762 27.7575 31.5308C27.5038 31.9854 27.1179 32.3554 26.5999 32.6409C26.0819 32.9263 25.4423 33.069 24.6811 33.069C23.9411 33.069 23.2804 32.9369 22.6989 32.6726C22.128 32.3977 21.6682 32.0277 21.3193 31.5625C20.981 31.0868 20.7854 30.5476 20.7326 29.945H22.2708C22.3025 30.2622 22.4082 30.5741 22.5879 30.8806C22.7782 31.1767 23.0425 31.4251 23.3808 31.626C23.7297 31.8163 24.1473 31.9114 24.6336 31.9114C25.2679 31.9114 25.7542 31.7422 26.0925 31.4039C26.4308 31.0657 26.5999 30.6322 26.5999 30.1036C26.5999 29.649 26.4783 29.279 26.2352 28.9936C26.0026 28.7081 25.7119 28.4861 25.363 28.3275C25.0142 28.1584 24.5384 27.9787 23.9358 27.7884C23.2275 27.5558 22.6566 27.3391 22.2232 27.1382C21.8003 26.9268 21.4356 26.6149 21.129 26.2026C20.833 25.7903 20.685 25.2459 20.685 24.5693C20.685 23.9878 20.8224 23.4751 21.0973 23.0311C21.3827 22.587 21.7845 22.2435 22.3025 22.0003C22.8311 21.7572 23.4495 21.6356 24.1578 21.6356C25.2573 21.6356 26.1295 21.9052 26.7744 22.4443C27.4192 22.9729 27.7945 23.6495 27.9003 24.4741H26.3462C26.2616 24.0301 26.0343 23.6389 25.6643 23.3006C25.2943 22.9623 24.7921 22.7932 24.1578 22.7932C23.5764 22.7932 23.1112 22.9465 22.7624 23.2531C22.4135 23.5491 22.239 23.972 22.239 24.5217C22.239 24.9551 22.3501 25.3093 22.5721 25.5842C22.8046 25.8485 23.0901 26.0599 23.4284 26.2185C23.7667 26.3665 24.2318 26.5356 24.8239 26.7259C25.5427 26.9585 26.1189 27.1805 26.5524 27.3919C26.9964 27.6034 27.3717 27.9258 27.6783 28.3593C27.9848 28.7821 28.1381 29.3477 28.1381 30.056ZM33.6465 24.1411C34.4922 24.1411 35.2058 24.3525 35.7873 24.7754C36.3793 25.1983 36.7916 25.7639 37.0242 26.4722V24.2521H38.4672V32.958H37.0242V30.7379C36.7916 31.4462 36.3793 32.0118 35.7873 32.4347C35.2058 32.8576 34.4922 33.069 33.6465 33.069C32.8747 33.069 32.1875 32.8893 31.585 32.5298C30.9824 32.1704 30.5066 31.6577 30.1578 30.9916C29.8195 30.3151 29.6503 29.5222 29.6503 28.613C29.6503 27.7038 29.8195 26.9109 30.1578 26.2343C30.5066 25.5577 30.9824 25.0397 31.585 24.6803C32.1875 24.3208 32.8747 24.1411 33.6465 24.1411ZM34.0588 25.4256C33.1707 25.4256 32.4571 25.711 31.918 26.2819C31.3894 26.8422 31.1251 27.6192 31.1251 28.613C31.1251 29.6067 31.3894 30.3891 31.918 30.9599C32.4571 31.5202 33.1707 31.8004 34.0588 31.8004C34.6296 31.8004 35.1371 31.6682 35.5811 31.4039C36.0357 31.1397 36.3899 30.7696 36.6436 30.2939C36.8973 29.8076 37.0242 29.2473 37.0242 28.613C37.0242 27.9787 36.8973 27.4184 36.6436 26.9321C36.3899 26.4458 36.0357 26.0757 35.5811 25.822C35.1371 25.5577 34.6296 25.4256 34.0588 25.4256ZM44.1416 31.4198L46.8374 24.2521H48.3914L44.982 32.958H43.2694L39.86 24.2521H41.414L44.1416 31.4198ZM57.8159 28.1214C57.8159 28.428 57.7947 28.6923 57.7525 28.9143H50.7909C50.8226 29.908 51.1028 30.6533 51.6314 31.1502C52.1705 31.6471 52.826 31.8955 53.5977 31.8955C54.2955 31.8955 54.8769 31.7211 55.3421 31.3722C55.8178 31.0128 56.1085 30.5371 56.2143 29.945H57.7525C57.6467 30.5476 57.4089 31.0868 57.0389 31.5625C56.6794 32.0383 56.209 32.4083 55.6275 32.6726C55.0461 32.9369 54.3906 33.069 53.6612 33.069C52.826 33.069 52.086 32.8893 51.4411 32.5298C50.7962 32.1704 50.2887 31.6577 49.9187 30.9916C49.5593 30.3151 49.3796 29.5222 49.3796 28.613C49.3796 27.7038 49.5593 26.9109 49.9187 26.2343C50.2887 25.5577 50.7962 25.0397 51.4411 24.6803C52.086 24.3208 52.826 24.1411 53.6612 24.1411C54.5069 24.1411 55.2416 24.3208 55.8654 24.6803C56.4997 25.0397 56.9807 25.5207 57.3084 26.1233C57.6467 26.7259 57.8159 27.3919 57.8159 28.1214ZM56.357 28.2165C56.3887 27.5717 56.283 27.0325 56.0398 26.5991C55.7967 26.1656 55.4637 25.8432 55.0408 25.6317C54.6179 25.4203 54.158 25.3146 53.6612 25.3146C52.8683 25.3146 52.2022 25.563 51.6631 26.0599C51.1239 26.5462 50.8332 27.2651 50.7909 28.2165H56.357ZM63.1297 31.848C64.9269 30.6428 66.3647 29.4482 67.443 28.2641C68.5213 27.0695 69.0605 25.9595 69.0605 24.934C69.0605 24.2997 68.8966 23.7922 68.5689 23.4116C68.2518 23.0205 67.7337 22.8249 67.0149 22.8249C66.2748 22.8249 65.7145 23.0628 65.3339 23.5385C64.9534 24.0037 64.7419 24.6486 64.6996 25.4732H63.2724C63.3464 24.2257 63.7323 23.2689 64.4301 22.6029C65.1278 21.9263 66.0264 21.588 67.1259 21.588C68.1725 21.588 69.0024 21.8682 69.6155 22.4285C70.2287 22.9888 70.5353 23.7817 70.5353 24.8071C70.5353 25.6529 70.2604 26.5145 69.7107 27.3919C69.1715 28.2588 68.4896 29.0676 67.665 29.8182C66.851 30.5582 66.0105 31.1872 65.1437 31.7052H70.8207V32.8946H63.1297V31.848ZM72.365 27.2968C72.365 29.094 72.661 30.4948 73.253 31.4991C73.845 32.5034 74.8705 33.0056 76.3294 33.0056C77.7883 33.0056 78.8138 32.5034 79.4058 31.4991C80.0084 30.4948 80.3097 29.094 80.3097 27.2968C80.3097 25.5207 80.0084 24.1305 79.4058 23.1262C78.8138 22.1219 77.7883 21.6197 76.3294 21.6197C74.8705 21.6197 73.845 22.1219 73.253 23.1262C72.661 24.12 72.365 25.5102 72.365 27.2968ZM78.8825 27.2968C78.8825 28.2165 78.8138 28.9883 78.6764 29.612C78.5495 30.2252 78.3011 30.7168 77.9311 31.0868C77.561 31.4568 77.0272 31.6418 76.3294 31.6418C75.6423 31.6418 75.1137 31.4568 74.7437 31.0868C74.3736 30.7168 74.1199 30.2252 73.9825 29.612C73.8556 28.9883 73.7922 28.2165 73.7922 27.2968C73.7922 26.3876 73.8556 25.6264 73.9825 25.0133C74.1199 24.4001 74.3736 23.9138 74.7437 23.5544C75.1137 23.1844 75.6423 22.9993 76.3294 22.9993C77.0272 22.9993 77.561 23.1844 77.9311 23.5544C78.3011 23.9138 78.5495 24.4001 78.6764 25.0133C78.8138 25.6264 78.8825 26.3876 78.8825 27.2968ZM84.0404 21.6197C84.7064 21.6197 85.2561 21.8364 85.6896 22.2699C86.1336 22.6928 86.3556 23.2584 86.3556 23.9667C86.3556 24.675 86.1389 25.2406 85.7054 25.6634C85.272 26.0863 84.717 26.2978 84.0404 26.2978C83.3638 26.2978 82.8088 26.0863 82.3753 25.6634C81.9419 25.2406 81.7251 24.675 81.7251 23.9667C81.7251 23.2584 81.9419 22.6928 82.3753 22.2699C82.8088 21.8364 83.3638 21.6197 84.0404 21.6197ZM90.3518 21.7624L83.9294 32.958H82.5022L88.9246 21.7624H90.3518ZM82.74 23.9667C82.74 24.3895 82.8563 24.7331 83.0889 24.9974C83.3321 25.2617 83.6439 25.3939 84.0245 25.3939C84.4157 25.3939 84.7328 25.2617 84.976 24.9974C85.2191 24.7331 85.3407 24.3895 85.3407 23.9667C85.3407 23.5438 85.2191 23.2002 84.976 22.9359C84.7328 22.6716 84.4157 22.5395 84.0245 22.5395C83.6439 22.5395 83.3321 22.6716 83.0889 22.9359C82.8563 23.2002 82.74 23.5438 82.74 23.9667ZM88.8294 28.4227C89.506 28.4227 90.0557 28.6341 90.4786 29.057C90.9121 29.4799 91.1288 30.0455 91.1288 30.7538C91.1288 31.4621 90.9121 32.033 90.4786 32.4664C90.0557 32.8893 89.506 33.1007 88.8294 33.1007C88.1634 33.1007 87.6084 32.8893 87.1644 32.4664C86.7309 32.033 86.5142 31.4621 86.5142 30.7538C86.5142 30.0455 86.7309 29.4799 87.1644 29.057C87.5978 28.6341 88.1528 28.4227 88.8294 28.4227ZM87.5291 30.7538C87.5291 31.1767 87.6454 31.5202 87.878 31.7845C88.1211 32.0488 88.4383 32.181 88.8294 32.181C89.21 32.181 89.5166 32.0488 89.7492 31.7845C89.9923 31.5202 90.1139 31.1767 90.1139 30.7538C90.1139 30.3309 89.9923 29.9873 89.7492 29.723C89.5166 29.4587 89.21 29.3266 88.8294 29.3266C88.4383 29.3266 88.1211 29.4587 87.878 29.723C87.6454 29.9873 87.5291 30.3309 87.5291 30.7538Z" fill="url(#paint1_linear_477_1081)"/>
<defs>
<linearGradient id="paint0_linear_477_1081" x1="56.3808" y1="0.686035" x2="56.3808" y2="54.6024" gradientUnits="userSpaceOnUse">
<stop stop-color="#5CADF4"/>
<stop offset="1" stop-color="#2C95F1"/>
</linearGradient>
<linearGradient id="paint1_linear_477_1081" x1="56.3808" y1="14.958" x2="56.3808" y2="40.3304" gradientUnits="userSpaceOnUse">
<stop stop-color="#5CADF4"/>
<stop offset="1" stop-color="#2C95F1"/>
</linearGradient>
</defs>
</svg>
