<svg width="42" height="42" viewBox="0 0 42 42" fill="none" xmlns="http://www.w3.org/2000/svg">
<g clip-path="url(#clip0_475_846)">
<path d="M21.0002 27.4697C24.5712 27.4697 27.4661 24.5748 27.4661 21.0037C27.4661 17.4326 24.5712 14.5377 21.0002 14.5377C17.4291 14.5377 14.5342 17.4326 14.5342 21.0037C14.5342 24.5748 17.4291 27.4697 21.0002 27.4697Z" fill="url(#paint0_linear_475_846)"/>
<path d="M41.3559 19.2125C36.3856 13.2064 28.862 7.42505 21.0001 7.42505C13.1367 7.42505 5.61136 13.2105 0.644436 19.2125C-0.214731 20.2503 -0.214731 21.7569 0.644436 22.7947C1.89318 24.3037 4.51109 27.2166 8.00757 29.7618C16.8133 36.1721 25.1675 36.1863 33.9927 29.7618C37.4892 27.2166 40.1071 24.3037 41.3559 22.7947C42.2125 21.7589 42.217 20.2537 41.3559 19.2125ZM21.0001 11.9512C25.9919 11.9512 30.0525 16.0119 30.0525 21.0036C30.0525 25.9953 25.9919 30.056 21.0001 30.056C16.0084 30.056 11.9478 25.9953 11.9478 21.0036C11.9478 16.0119 16.0084 11.9512 21.0001 11.9512Z" fill="url(#paint1_linear_475_846)"/>
</g>
<defs>
<linearGradient id="paint0_linear_475_846" x1="21.0002" y1="14.5377" x2="21.0002" y2="27.4697" gradientUnits="userSpaceOnUse">
<stop stop-color="#5CADF4"/>
<stop offset="1" stop-color="#2C95F1"/>
</linearGradient>
<linearGradient id="paint1_linear_475_846" x1="21" y1="7.42505" x2="21" y2="34.5749" gradientUnits="userSpaceOnUse">
<stop stop-color="#5CADF4"/>
<stop offset="1" stop-color="#2C95F1"/>
</linearGradient>
<clipPath id="clip0_475_846">
<rect width="42" height="42" fill="white"/>
</clipPath>
</defs>
</svg>
